<svg width="30" height="27" viewBox="0 0 30 27" fill="none" xmlns="http://www.w3.org/2000/svg">
<path fill-rule="evenodd" clip-rule="evenodd" d="M21.3922 21.7777H8.5714C8.21111 21.7777 7.91793 21.5372 7.91793 21.2409V5.13668C7.91793 4.84036 8.21111 4.59987 8.5714 4.59987H13.805V9.05537C13.805 10.7431 15.2379 12.1152 17.0005 12.1152H22.0469V21.2409C22.0469 21.5372 21.7525 21.7777 21.3922 21.7777V21.7777ZM21.6336 9.96795H17.0005C16.5366 9.96795 16.1598 9.5589 16.1598 9.05537V4.59987H16.2917L21.6336 9.96795ZM24.0957 9.24647L17.6859 2.80478C17.4633 2.5804 17.1466 2.45264 16.8134 2.45264H8.57152C6.91255 2.45264 5.56323 3.65723 5.56323 5.13667V21.2409C5.56323 22.7203 6.91255 23.9249 8.57152 23.9249H21.3923C23.0513 23.9249 24.4018 22.7203 24.4018 21.2409V9.96794C24.4018 9.70061 24.2923 9.44401 24.0957 9.24647V9.24647Z" fill="black"/>
<mask id="mask0" mask-type="alpha" maskUnits="userSpaceOnUse" x="5" y="2" width="20" height="22">
<path fill-rule="evenodd" clip-rule="evenodd" d="M21.3922 21.7777H8.5714C8.21111 21.7777 7.91793 21.5372 7.91793 21.2409V5.13668C7.91793 4.84036 8.21111 4.59987 8.5714 4.59987H13.805V9.05537C13.805 10.7431 15.2379 12.1152 17.0005 12.1152H22.0469V21.2409C22.0469 21.5372 21.7525 21.7777 21.3922 21.7777V21.7777ZM21.6336 9.96795H17.0005C16.5366 9.96795 16.1598 9.5589 16.1598 9.05537V4.59987H16.2917L21.6336 9.96795ZM24.0957 9.24647L17.6859 2.80478C17.4633 2.5804 17.1466 2.45264 16.8134 2.45264H8.57152C6.91255 2.45264 5.56323 3.65723 5.56323 5.13667V21.2409C5.56323 22.7203 6.91255 23.9249 8.57152 23.9249H21.3923C23.0513 23.9249 24.4018 22.7203 24.4018 21.2409V9.96794C24.4018 9.70061 24.2923 9.44401 24.0957 9.24647V9.24647Z" fill="white"/>
</mask>
<g mask="url(#mask0)">
<rect x="0.853149" y="0.30542" width="28.2579" height="25.7667" fill="black"/>
</g>
</svg>
