<svg width="21" height="20" viewBox="0 0 21 20" fill="none" xmlns="http://www.w3.org/2000/svg">
<g clip-path="url(#clip0)">
<path d="M20.0337 5.88005C19.9868 4.81738 19.8148 4.0868 19.5684 3.45374C19.3143 2.78176 18.9233 2.18014 18.411 1.68002C17.9105 1.1721 17.3045 0.777435 16.6398 0.527447C16.0026 0.281274 15.2752 0.109427 14.2118 0.0625732C13.1403 0.0117516 12.8002 0 10.0828 0C7.36534 0 7.02521 0.0117516 5.95775 0.0586052C4.89427 0.105459 4.16314 0.277459 3.52975 0.523479C2.85711 0.777435 2.25504 1.16814 1.75453 1.68002C1.24623 2.18014 0.851418 2.78573 0.601089 3.44992C0.35473 4.0868 0.182752 4.81341 0.135863 5.87609C0.0850026 6.9467 0.0732422 7.28658 0.0732422 10.002C0.0732422 12.7173 0.0850026 13.0572 0.131892 14.1239C0.178781 15.1865 0.350911 15.9171 0.59727 16.5502C0.851418 17.2221 1.24623 17.8238 1.75453 18.3239C2.25504 18.8318 2.86108 19.2265 3.52578 19.4765C4.16314 19.7226 4.8903 19.8945 5.95393 19.9413C7.02123 19.9883 7.36152 19.9999 10.079 19.9999C12.7964 19.9999 13.1365 19.9883 14.204 19.9413C15.2675 19.8945 15.9986 19.7226 16.632 19.4765C17.9771 18.9568 19.0406 17.8941 19.5606 16.5502C19.8068 15.9133 19.979 15.1865 20.0259 14.1239C20.0728 13.0572 20.0845 12.7173 20.0845 10.002C20.0845 7.28658 20.0805 6.9467 20.0337 5.88005ZM18.2313 14.0457C18.1882 15.0225 18.024 15.5499 17.8871 15.9015C17.5508 16.7728 16.8588 17.4643 15.9868 17.8004C15.6349 17.9372 15.1033 18.1012 14.1296 18.1441C13.0739 18.1911 12.7573 18.2027 10.0867 18.2027C7.4162 18.2027 7.09562 18.1911 6.04374 18.1441C5.06625 18.1012 4.5384 17.9372 4.1865 17.8004C3.75259 17.6402 3.35762 17.3862 3.03703 17.0541C2.70468 16.7298 2.45054 16.3391 2.29017 15.9055C2.15332 15.5539 1.98913 15.0225 1.94621 14.0497C1.89917 12.9948 1.88756 12.6783 1.88756 10.0097C1.88756 7.34122 1.89917 7.02087 1.94621 5.96995C1.98913 4.99319 2.15332 4.46575 2.29017 4.11412C2.45054 3.68038 2.70468 3.28586 3.041 2.96536C3.36541 2.63327 3.75641 2.37931 4.19047 2.21921C4.54237 2.08247 5.07419 1.9184 6.04771 1.87537C7.1034 1.82851 7.42017 1.81676 10.0906 1.81676C12.7651 1.81676 13.0817 1.82851 14.1336 1.87537C15.1111 1.9184 15.6389 2.08247 15.9908 2.21921C16.4247 2.37931 16.8197 2.63327 17.1403 2.96536C17.4726 3.28967 17.7268 3.68038 17.8871 4.11412C18.024 4.46575 18.1882 4.99701 18.2313 5.96995C18.2781 7.02484 18.2899 7.34122 18.2899 10.0097C18.2899 12.6783 18.2781 12.9908 18.2313 14.0457Z" fill="#033603"/>
<path d="M10.0779 4.86328C7.23935 4.86328 4.93628 7.16445 4.93628 10.001C4.93628 12.8376 7.23935 15.1387 10.0779 15.1387C12.9166 15.1387 15.2195 12.8376 15.2195 10.001C15.2195 7.16445 12.9166 4.86328 10.0779 4.86328ZM10.0779 13.3337C8.23639 13.3337 6.74266 11.8413 6.74266 10.001C6.74266 8.16074 8.23639 6.66829 10.0779 6.66829C11.9196 6.66829 13.4131 8.16074 13.4131 10.001C13.4131 11.8413 11.9196 13.3337 10.0779 13.3337Z" fill="#033603"/>
<path d="M16.6232 4.66134C16.6232 5.3237 16.0858 5.86076 15.4227 5.86076C14.7599 5.86076 14.2224 5.3237 14.2224 4.66134C14.2224 3.99882 14.7599 3.46191 15.4227 3.46191C16.0858 3.46191 16.6232 3.99882 16.6232 4.66134Z" fill="#033603"/>
</g>
<defs>
<clipPath id="clip0">
<rect width="20.0152" height="20" fill="white" transform="translate(0.0332031)"/>
</clipPath>
</defs>
</svg>
