<svg width="19" height="26" viewBox="0 0 19 26" fill="none" xmlns="http://www.w3.org/2000/svg">
<path d="M17.5 21.6H15.8499V20.675C15.8499 19.7068 15.4927 18.7821 14.8553 18.0671C14.9356 17.9942 15.0145 17.9191 15.0918 17.8419C16.3222 16.6114 16.9999 14.9806 16.9999 13.25C16.9999 12.3847 16.8312 11.5451 16.4985 10.752C16.5371 10.5779 16.558 10.3973 16.558 10.2118C16.558 9.46844 16.2315 8.80029 15.7149 8.34194L15.866 8.08019C16.1919 7.51569 16.1077 6.82539 15.707 6.35569L16.3171 5.29894C16.4032 5.29869 16.49 5.28734 16.5757 5.26439C16.834 5.19519 17.0497 5.02989 17.183 4.79904L17.933 3.49999C18.0711 3.26084 17.9891 2.95504 17.75 2.81699L12.9868 0.066989C12.872 0.000638992 12.7353 -0.017261 12.6074 0.017039C12.4792 0.051389 12.3701 0.135139 12.3038 0.249989L11.5538 1.54904C11.3692 1.86874 11.3826 2.24864 11.5545 2.54789L10.9439 3.60524C10.727 3.56509 10.5017 3.57349 10.2818 3.63244C9.89405 3.73634 9.57045 3.98414 9.3707 4.33014L6.6207 9.09334C6.4209 9.43934 6.3681 9.84344 6.472 10.2312C6.53095 10.4512 6.6363 10.6505 6.7795 10.8183L6.2367 11.7584C6.1034 11.9893 6.06815 12.2587 6.1374 12.5171C6.20665 12.7755 6.3719 12.9912 6.60275 13.1244L9.63385 14.8744C9.79095 14.9651 9.9626 15.0082 10.1322 15.0082C10.478 15.0082 10.8148 14.8289 10.9998 14.5084L11.5428 13.5679C11.6316 13.5843 11.7217 13.5931 11.8123 13.5931C11.9431 13.5931 12.0749 13.5759 12.2048 13.541C12.5926 13.4371 12.9162 13.1893 13.116 12.8433L13.2665 12.5826C13.485 12.6557 13.7168 12.6996 13.9574 12.7092C13.9854 12.8876 13.9999 13.0685 13.9999 13.2501C13.9999 14.1795 13.6343 15.0569 12.9705 15.7207C12.3068 16.3845 11.4293 16.75 10.4999 16.75H8.7498C8.4737 16.75 8.2498 16.9739 8.2498 17.25C8.2498 17.5262 8.4737 17.75 8.7498 17.75H10.4999C10.7756 17.75 10.9999 17.9743 10.9999 18.25C10.9999 18.5257 10.7756 18.75 10.4999 18.75H2.5001C2.2244 18.75 2.0001 18.5257 2.0001 18.25C2.0001 17.9743 2.2244 17.75 2.5001 17.75H4.2498C4.5259 17.75 4.7498 17.5262 4.7498 17.25C4.7498 16.9739 4.5259 16.75 4.2498 16.75H2.5001C1.673 16.75 1.0001 17.4229 1.0001 18.25C1.0001 19.0771 1.673 19.75 2.5001 19.75H3.7642V21.6H1.5C0.6729 21.6 0 22.2729 0 23.1V25.1C0 25.3762 0.2239 25.6 0.5 25.6H18.5C18.7761 25.6 19 25.3762 19 25.1V23.1C19 22.2729 18.3271 21.6 17.5 21.6ZM14.8499 20.675V21.6H13.8499V20.675C13.8499 20.0763 13.5751 19.5407 13.1451 19.1873C13.4631 19.0448 13.7697 18.8761 14.0628 18.6825C14.5663 19.2221 14.8499 19.9314 14.8499 20.675ZM10.4999 19.75H11.9249C12.4349 19.75 12.8499 20.165 12.8499 20.675V21.6H9.26415V19.75H10.4999ZM14.058 11.7117C13.2309 11.7117 12.558 11.0388 12.558 10.2117C12.558 9.38464 13.2309 8.71174 14.058 8.71174C14.885 8.71174 15.558 9.38464 15.558 10.2117C15.558 11.0388 14.885 11.7117 14.058 11.7117ZM11.8527 4.03114L12.3528 3.16504L15.3839 4.91504L14.8839 5.78114L11.8527 4.03114ZM12.9198 1.18299L16.8169 3.43299L16.3169 4.29899L12.4198 2.04899L12.9198 1.18299ZM7.10275 12.2584L7.6028 11.3924L10.6339 13.1424L10.1339 14.0084L7.10275 12.2584ZM12.2499 12.3433C12.1838 12.458 12.0758 12.5403 11.946 12.5751C11.8163 12.6099 11.6817 12.5926 11.5669 12.5263L7.67025 10.2766C7.6701 10.2765 7.67 10.2764 7.66985 10.2763C7.6698 10.2763 7.6697 10.2763 7.6696 10.2762C7.555 10.21 7.47275 10.1021 7.438 9.97244C7.40325 9.84269 7.42055 9.70804 7.4868 9.59334L10.2368 4.83014C10.303 4.71544 10.411 4.63314 10.5408 4.59834C10.6704 4.56359 10.805 4.58089 10.9198 4.64714L14.8169 6.89714C15.0556 7.03499 15.1378 7.34139 14.9999 7.58014L14.8494 7.84084C14.6005 7.75749 14.3346 7.71169 14.058 7.71169C12.6795 7.71169 11.558 8.83319 11.558 10.2117C11.558 10.955 11.8844 11.6232 12.4011 12.0815L12.2499 12.3433ZM11.8259 17.55C12.516 17.3363 13.1498 16.9557 13.6777 16.4278C14.5303 15.5752 14.9999 14.4466 14.9999 13.2501C14.9999 13.0147 14.981 12.7803 14.9444 12.5489C15.2872 12.4184 15.594 12.2147 15.8458 11.9568C15.9481 12.3774 15.9999 12.8097 15.9999 13.25C15.9999 14.7135 15.4262 16.0931 14.3846 17.1348C13.7011 17.8182 12.8722 18.3002 11.9696 18.5508C11.9894 18.4536 11.9998 18.353 11.9998 18.25C11.9999 17.9973 11.9368 17.7591 11.8259 17.55ZM4.7642 19.75H8.26415V21.6H4.7642V19.75ZM18 24.6H1V23.1C1 22.8243 1.2243 22.6 1.5 22.6H17.5C17.7757 22.6 18 22.8243 18 23.1V24.6Z" fill="#033603"/>
<path d="M7.00118 17.2501C7.00118 16.974 6.77728 16.7501 6.50118 16.7501H6.50078C6.22468 16.7501 6.00098 16.974 6.00098 17.2501C6.00098 17.5263 6.22503 17.7501 6.50118 17.7501C6.77733 17.7501 7.00118 17.5263 7.00118 17.2501Z" fill="#033603"/>
</svg>
