<svg xmlns="http://www.w3.org/2000/svg" viewBox="0 0 87.56 19.8"><defs><style>.cls-1{fill:#033603;}</style></defs><title>team striliant</title><g id="Layer_2" data-name="Layer 2"><g id="Layer_1-2" data-name="Layer 1"><path class="cls-1" d="M14.57,1.65a.73.73,0,0,1,.65,0,.32.32,0,0,1,.15.12.3.3,0,0,1,0,.11s0,.07,0,.1a.06.06,0,0,0,0,.07l.07,0a1.16,1.16,0,0,0,.23,0,34.12,34.12,0,0,1,5.08-.34,8.49,8.49,0,0,1,3.31.56c.11.06.17.13.17.19a.13.13,0,0,1-.07.15.21.21,0,0,1-.2,0,7.82,7.82,0,0,0-3.19-.51,33.34,33.34,0,0,0-4.95.41,1.15,1.15,0,0,0-.53.18A1.31,1.31,0,0,0,15,3a2.19,2.19,0,0,1-.11.2c-.54.87-1.53,2.35-3,4.42C11,9,10,10.47,9.05,11.92s-1.81,2.75-2.5,3.86a6.46,6.46,0,0,0-1,2.13.23.23,0,0,1-.09.2.19.19,0,0,1-.19,0q-.09,0-.09-.24a6.56,6.56,0,0,1,1.06-2.35c.7-1.2,1.56-2.56,2.56-4.07s2-3,2.93-4.39Q13.62,4.28,14.38,3c.07-.09.07-.15,0-.17a.44.44,0,0,0-.23,0l-.27.05h0l-.41.1a1.33,1.33,0,0,0-.24.11l-.26.22a.53.53,0,0,0-.12.1c-.77.64-1.52,1.31-2.26,2L10,6a.58.58,0,0,0-.11.1.08.08,0,0,0,0,.06l0,0a.28.28,0,0,1,.06.08c0,.07,0,.14-.12.22a.55.55,0,0,1-.33.14.38.38,0,0,1-.36-.18c0-.07,0-.17.07-.3a2.9,2.9,0,0,1,.34-.4l.32-.32.09-.08c.31-.33.6-.62.88-.88s.6-.54,1-.83.29-.42-.17-.31q-1.9.46-3.69,1c-.58.18-1.35.47-2.28.86A18.35,18.35,0,0,0,2.9,6.63a6.33,6.33,0,0,0-2,1.9,2.16,2.16,0,0,0-.05,2.26.58.58,0,0,0,.3.25.89.89,0,0,0,.32,0,.33.33,0,0,1,.2,0s0,.1,0,.22a.53.53,0,0,1-.79.26,1.62,1.62,0,0,1-.76-1A2.76,2.76,0,0,1,.32,8.63,6.5,6.5,0,0,1,2.55,6.24a19.88,19.88,0,0,1,5.2-2.43,43.93,43.93,0,0,1,5-1.3l.07,0,.37-.08a1.63,1.63,0,0,0,.25-.1,4.09,4.09,0,0,0,.35-.22A7.8,7.8,0,0,1,14.57,1.65Zm-.33.51s0,0,0,0h.07l.1,0h.07l.08,0,.06,0s0,0,0,0a0,0,0,0,0-.06,0l-.12,0-.11,0Z"/><path class="cls-1" d="M15.53,9.8c.37.08.53.24.45.48a1.66,1.66,0,0,1-.58.76,3.65,3.65,0,0,1-1,.59c-.34.13-.59.13-.74,0a5.12,5.12,0,0,0-.37.53,1.43,1.43,0,0,0-.24.58c0,.26.17.37.53.33a4.66,4.66,0,0,0,1.25-.33c.48-.19.93-.38,1.33-.58s.66-.34.77-.41a.36.36,0,0,1,.23-.07c.07,0,.1,0,.09.11s-.1.16-.27.28a9.56,9.56,0,0,1-1,.6,11.23,11.23,0,0,1-1.54.68,2.82,2.82,0,0,1-1.37.19c-.38-.06-.56-.34-.55-.83a2.67,2.67,0,0,1,.57-1.18,6,6,0,0,1,1.2-1.21A2,2,0,0,1,15.53,9.8Zm-.21.55a2.17,2.17,0,0,0-.31.17l-.47.31c-.16.11-.31.22-.43.32a.76.76,0,0,0-.21.23s0,0,.18,0A4.44,4.44,0,0,0,14.8,11a4.61,4.61,0,0,0,.65-.51c.06-.08.09-.13.08-.15S15.45,10.32,15.32,10.35Z"/><path class="cls-1" d="M22.17,11.69c.18-.1.29-.1.32,0s0,.18-.19.29a4.78,4.78,0,0,1-1,.45,2,2,0,0,1-1.08.13c-.32,0-.48-.31-.5-.76v0c0-.1,0-.14,0-.15a.68.68,0,0,0-.17.09,12.23,12.23,0,0,1-2.3,1.27c-.49.17-.78.18-.86,0s0-.55.4-1a7.21,7.21,0,0,1,1.46-1.3A4.32,4.32,0,0,1,20,9.91a1,1,0,0,1,1.15.66.2.2,0,0,1,0,.18.36.36,0,0,1-.16.11.28.28,0,0,1-.23,0,.5.5,0,0,1-.18-.17s0,0,0,0l0,0,0,0s0,0,0,0c-.17-.23-.46-.27-.87-.11a6.22,6.22,0,0,0-1.3.76,11.56,11.56,0,0,0-1.16,1c-.32.31-.47.49-.45.56s.29,0,.8-.33,1.33-.84,2.49-1.63a.24.24,0,0,1,.18,0,.23.23,0,0,1,.16.11.23.23,0,0,1,0,.24c-.25.55-.28.89-.08,1a1,1,0,0,0,.85,0A4.17,4.17,0,0,0,22.17,11.69Z"/><path class="cls-1" d="M26.06,12.61c.06,0,.16-.06.3-.2s.32-.31.51-.52.66-.68,1-1a1.59,1.59,0,0,1,.87-.48.42.42,0,0,1,.38.38,3.51,3.51,0,0,1,0,.73,3.93,3.93,0,0,0,0,.46.49.49,0,0,0,.1.3c.11.11.55-.06,1.31-.51a.31.31,0,0,1,.23,0,.09.09,0,0,1,.07.12c0,.06-.07.13-.19.19a5.2,5.2,0,0,1-1.15.59.61.61,0,0,1-.63-.07,1.55,1.55,0,0,1-.27-1.29c0-.14,0-.21,0-.2a.57.57,0,0,0-.24.15l0,0q-.3.25-.69.63c-.32.31-.62.58-.91.81S26.13,13,26,13a.58.58,0,0,1-.36-.57,2.5,2.5,0,0,1,.16-.93c.11-.33.22-.63.33-.89l.14-.34c0-.17,0-.19-.25-.06a8,8,0,0,0-.82.61c-.33.28-.67.57-1,.87l-.81.73-.21.2L23,12.7l-.49.43a6.28,6.28,0,0,1-.56.42.57.57,0,0,1-.42.12c-.2-.11-.22-.32-.07-.64a15.16,15.16,0,0,1,1.4-2.3c.27-.39.53-.77.78-1.16a0,0,0,0,1,0,0l0,0h0a.13.13,0,0,1-.05-.15.34.34,0,0,1,.1-.17L23.83,9a1.38,1.38,0,0,1,.28-.13c.1,0,.16,0,.2.07s0,.21,0,.42a24.79,24.79,0,0,1-1.42,2.27l-.36.53c-.16.25-.22.36-.18.35a2.64,2.64,0,0,0,.33-.25l.14-.13c.45-.39.92-.8,1.42-1.2a13.11,13.11,0,0,1,1.36-1,1.34,1.34,0,0,1,.92-.3c.27.12.33.45.15,1,0,0,0,.09-.07.18l-.24.69a7.72,7.72,0,0,0-.23.75C26,12.47,26,12.59,26.06,12.61Z"/><path class="cls-1" d="M33.29,10.87c-.18-.65.14-1.41,1-2.28A16.41,16.41,0,0,1,37.57,6a33.43,33.43,0,0,1,4.49-2.35,24.9,24.9,0,0,1,4.46-1.47,5.82,5.82,0,0,1,3.2,0c.68.32,1,.76.9,1.33a3.38,3.38,0,0,1-1,1.77,7.87,7.87,0,0,1-2.12,1.54,5.74,5.74,0,0,1-2.5.67c-.25,0-.38-.08-.4-.23a.72.72,0,0,1,.14-.48,1,1,0,0,1,.4-.36.28.28,0,0,1,.38.08l0,0a.41.41,0,0,1,.06.11.13.13,0,0,1,0,.12s0,0,0,0a.13.13,0,0,0,0,.07s0,0,.06,0a5.41,5.41,0,0,0,1.74-.64A8.09,8.09,0,0,0,49.07,5a3.34,3.34,0,0,0,1-1.35c.13-.42,0-.75-.54-1a5.42,5.42,0,0,0-3,.05,23,23,0,0,0-4.22,1.47A35.2,35.2,0,0,0,38,6.44a17.71,17.71,0,0,0-3.19,2.4c-.8.77-1.13,1.41-1,1.92.13.28.55.44,1.26.46a17.89,17.89,0,0,0,2.58-.14c1-.12,2-.26,3-.41a32.43,32.43,0,0,1,3.23-.38c.16,0,.37,0,.64,0a2.93,2.93,0,0,1,.75.15.59.59,0,0,1,.42.42q0,.38-.57.93A12.75,12.75,0,0,1,43.61,13c-.62.39-1.22.76-1.83,1.1s-1.09.61-1.46.8L40,15l-.84.45c-.84.43-1.73.92-2.68,1.48a9.66,9.66,0,0,0-2.08,1.51.34.34,0,0,1-.24.14q-.09,0-.12-.12a.36.36,0,0,1,.1-.26,11.11,11.11,0,0,1,2.17-1.62c1-.6,1.87-1.12,2.68-1.55l.62-.36.32-.17,2-1.13c.84-.49,1.61-1,2.3-1.45s1-.81,1-1-.16-.14-.39-.17a4.18,4.18,0,0,0-.71,0l-.48,0c-.59.05-1.41.16-2.46.34s-2.16.36-3.31.5a14.16,14.16,0,0,1-3,.09Q33.61,11.61,33.29,10.87Z"/><path class="cls-1" d="M47.41,6.27q0,.09-.15.09A.58.58,0,0,1,47,6.31a.45.45,0,0,1-.23-.16.15.15,0,0,1,0-.2,1.18,1.18,0,0,1,.5-.22c1.27-.21,2.52-.4,3.75-.55l.54-.08A.66.66,0,0,0,51.87,5a.88.88,0,0,0,.22-.31c.12-.21.25-.42.38-.63l.08-.14A18.54,18.54,0,0,1,54.67.76c.58-.53.83-.45.75.26A10.21,10.21,0,0,1,54,4.46a0,0,0,0,1,0,0c-.12.19-.18.3-.17.34s.09,0,.23,0h.3c1.68-.1,3.4-.15,5.17-.14a.27.27,0,0,1,.23.08.11.11,0,0,1,0,.14.32.32,0,0,1-.25.05A41.73,41.73,0,0,0,54,5.25l-.16,0a.55.55,0,0,0-.24,0,.46.46,0,0,0-.19.2Q52.1,7.45,50.72,9.16a24.38,24.38,0,0,1-2.3,2.55l-.08.07-.05,0,0,0,0,.06a1.05,1.05,0,0,0-.08.13q-2.25,3.59-4.52,7.14c.12,0,.17,0,.16.14a.4.4,0,0,1-.15.25c-.3.22-.5.29-.62.2s-.11-.28,0-.58l1.05-1.65Q47.74,11.83,51.28,6l.08-.15a.54.54,0,0,0,.12-.23s-.09-.06-.25,0c-1.25.18-2.53.39-3.82.61Zm4.64-.6-.72,1.2c-.6,1-1.24,2.07-1.92,3.11-.35.53-.32.57.07.13a37,37,0,0,0,3.17-4.36l.15-.26c0-.06,0-.09,0-.1h-.21a1.34,1.34,0,0,0-.31,0A.59.59,0,0,0,52.05,5.67Zm.64-1.06a1.43,1.43,0,0,0-.14.28c0,.08,0,.11.05.1l.3,0a.37.37,0,0,0,.16,0,.21.21,0,0,0,.11-.08l.14-.2a16,16,0,0,0,1.55-3.4A24.22,24.22,0,0,0,53,4.14l-.12.2Z"/><path class="cls-1" d="M53,8.78a1.25,1.25,0,0,1-.32-.67.71.71,0,0,1,.29-.69.64.64,0,0,1,.75.13.89.89,0,0,1,.21.46,1.25,1.25,0,0,1-.1.63.28.28,0,0,0,0,.18s0,.09.14.13a2.42,2.42,0,0,1,1.1.82c.21.31.12.72-.27,1.22a6.06,6.06,0,0,0-.58,1A1.58,1.58,0,0,0,54,13c.08.19.3.24.64.14a5.73,5.73,0,0,0,1.15-.5,11.43,11.43,0,0,0,1.08-.69c.1-.08.17-.12.23-.11a.07.07,0,0,1,.08.08c0,.06,0,.11-.08.17a5.9,5.9,0,0,1-2.42,1.43c-.71.16-1.14,0-1.28-.46s.19-1.24,1-2.32c.23-.32.26-.58.1-.78a2.79,2.79,0,0,0-.74-.57l0,0a.28.28,0,0,0-.18-.05c-.05,0-.11.07-.19.18l-.19.24a.49.49,0,0,1-.28.21.17.17,0,0,1-.18-.07.28.28,0,0,1,0-.2c0-.07.05-.11.1-.12s.14-.09.29-.26A.27.27,0,0,0,53.11,9,.72.72,0,0,0,53,8.78Zm.49-.4a.79.79,0,0,0-.05-.44c-.06-.13-.13-.2-.21-.2s-.1.1-.1.32l.06.17c0,.07.08.15.12.21a.17.17,0,0,0,.13.1s0,0,0,0,0,0,0-.06Z"/><path class="cls-1" d="M57,13.22c-.27,0-.42-.09-.47-.26a1.08,1.08,0,0,1,.07-.64A4.54,4.54,0,0,1,57,11.5c.16-.28.32-.55.48-.79s.29-.42.39-.55a.29.29,0,0,1,.07-.1.34.34,0,0,1,.11-.36,1,1,0,0,1,.4-.29c.16-.07.27-.05.34,0a.29.29,0,0,1,0,.22l-.11.19s0,0-.05.05l-.83,1.22a9.87,9.87,0,0,0-.67,1.13c-.12.26,0,.4.22.43a2.87,2.87,0,0,0,1-.12c.41-.11.79-.23,1.14-.35a6.26,6.26,0,0,0,.62-.25c.08,0,.13-.05.18,0a.12.12,0,0,1,.05.13c0,.06-.05.11-.14.18a8.5,8.5,0,0,1-1.71.66A6.68,6.68,0,0,1,57,13.22Zm2.25-4.81c.18,0,.27.07.25.17a.49.49,0,0,1-.19.29.91.91,0,0,1-.38.19.23.23,0,0,1-.29-.12.12.12,0,0,1,0-.1.44.44,0,0,1,.1-.08l.12-.06.06,0,0,0a.26.26,0,0,1,.09-.19A.32.32,0,0,1,59.27,8.41Z"/><path class="cls-1" d="M56,19c-.08,0-.11-.1-.1-.21a1.71,1.71,0,0,1,.22-.55c.14-.25.36-.63.66-1.12l1.2-2,2.16-3.48q.35-.64,1.41-2.43t2.36-3.87C64.76,4,65.56,2.8,66.27,1.77A6.31,6.31,0,0,1,67.75.05c.41-.12.61,0,.61.3A3.33,3.33,0,0,1,68,1.58,15.66,15.66,0,0,1,67.3,3c-.26.44-.42.72-.51.85v0Q65.4,6.11,63.73,8.36a20.61,20.61,0,0,1-2.58,3l-.23.15-.09.06a.49.49,0,0,0-.08.1,2.22,2.22,0,0,0-.14.22l-4,6.54s0,0,0,.11a1.18,1.18,0,0,1-.14.23.5.5,0,0,1-.22.19A.23.23,0,0,1,56,19Zm5.78-8.94a1,1,0,0,0-.14.25s.07,0,.19-.19c.67-.85,1.41-1.87,2.23-3.06s1.58-2.35,2.28-3.47A18.7,18.7,0,0,0,67.76.93c.13-.4,0-.28-.52.34-.67.93-1.34,1.93-2,3S64,6.38,63.33,7.45C62.79,8.36,62.27,9.22,61.76,10.06Z"/><path class="cls-1" d="M63.26,13.22c-.27,0-.42-.09-.47-.26a1,1,0,0,1,.07-.64,4.54,4.54,0,0,1,.38-.82c.16-.28.32-.55.48-.79l.38-.55a.49.49,0,0,1,.08-.1.34.34,0,0,1,.11-.36,1,1,0,0,1,.4-.29c.16-.07.27-.05.33,0a.26.26,0,0,1,0,.22,1,1,0,0,1-.12.19l0,.05-.83,1.22a9.87,9.87,0,0,0-.67,1.13c-.12.26,0,.4.21.43a2.9,2.9,0,0,0,1-.12c.41-.11.79-.23,1.14-.35a6.26,6.26,0,0,0,.62-.25.17.17,0,0,1,.18,0,.12.12,0,0,1,.05.13c0,.06-.05.11-.14.18a8.5,8.5,0,0,1-1.71.66A6.68,6.68,0,0,1,63.26,13.22Zm2.25-4.81c.18,0,.27.07.25.17a.49.49,0,0,1-.19.29.91.91,0,0,1-.38.19.23.23,0,0,1-.29-.12.12.12,0,0,1,0-.1.44.44,0,0,1,.1-.08l.12-.06.06,0,0,0a.23.23,0,0,1,.09-.19A.32.32,0,0,1,65.51,8.41Z"/><path class="cls-1" d="M71.56,11.69c.18-.1.29-.1.32,0s0,.18-.19.29a5.16,5.16,0,0,1-1,.45,2,2,0,0,1-1.07.13c-.32,0-.49-.31-.5-.76v0c0-.1,0-.14,0-.15a.54.54,0,0,0-.17.09,12.55,12.55,0,0,1-2.3,1.27c-.49.17-.78.18-.87,0s0-.55.41-1a7,7,0,0,1,1.46-1.3,4.35,4.35,0,0,1,1.71-.75,1,1,0,0,1,1.16.66.2.2,0,0,1,0,.18.39.39,0,0,1-.17.11.26.26,0,0,1-.22,0,.43.43,0,0,1-.18-.17s0,0,0,0l0,0,0,0s0,0,0,0c-.17-.23-.46-.27-.87-.11a6,6,0,0,0-1.3.76,13.06,13.06,0,0,0-1.17,1c-.31.31-.46.49-.44.56s.29,0,.8-.33,1.33-.84,2.48-1.63a.27.27,0,0,1,.19,0,.23.23,0,0,1,.16.11.26.26,0,0,1,0,.24q-.39.83-.09,1a1,1,0,0,0,.86,0A4.17,4.17,0,0,0,71.56,11.69Z"/><path class="cls-1" d="M70.81,13.12a9.75,9.75,0,0,1,.61-1.2l.79-1.35c.15-.23.27-.43.37-.6a.27.27,0,0,1-.06-.17.23.23,0,0,1,.06-.16A1.07,1.07,0,0,1,73,9.32h0a.22.22,0,0,1,.16,0,.29.29,0,0,1,.2.19v.06a.41.41,0,0,1,0,.18q-.37.6-.84,1.38c-.3.51-.58,1-.81,1.4.16-.16.42-.38.78-.67s.72-.57,1.08-.82a1.86,1.86,0,0,1,.78-.4c.24,0,.38.1.41.29a1.61,1.61,0,0,1,0,.62,2.32,2.32,0,0,0,0,.45.19.19,0,0,0,.21.18,1.5,1.5,0,0,0,.64-.3c.09,0,.15-.07.19,0s0,.07,0,.14a.23.23,0,0,1-.11.15c-.6.39-1,.46-1.2.22a1.53,1.53,0,0,1-.15-1.23,1.64,1.64,0,0,0-.64.36c-.28.23-.59.49-.92.79l-.83.7a3.81,3.81,0,0,1-.67.47.34.34,0,0,1-.34,0A.26.26,0,0,1,70.81,13.12Z"/><path class="cls-1" d="M75.2,6.27a.14.14,0,0,1-.15.09.61.61,0,0,1-.29-.05.47.47,0,0,1-.22-.16c-.05-.06,0-.13,0-.2a1.12,1.12,0,0,1,.5-.22c1.27-.21,2.52-.4,3.75-.55l.54-.08A.71.71,0,0,0,79.66,5a1,1,0,0,0,.22-.31L80.25,4l.08-.14A19,19,0,0,1,82.46.76c.58-.53.83-.45.75.26a10.21,10.21,0,0,1-1.42,3.44,0,0,0,0,1,0,0c-.12.19-.18.3-.17.34s.08,0,.23,0h.29c1.68-.1,3.41-.15,5.18-.14.12,0,.19,0,.22.08a.1.1,0,0,1,0,.14.31.31,0,0,1-.24.05,41.73,41.73,0,0,0-5.53.27l-.16,0a.55.55,0,0,0-.24,0,.47.47,0,0,0-.2.2,44.31,44.31,0,0,1-2.64,3.65,24.38,24.38,0,0,1-2.3,2.55l-.08.07,0,0,0,0s0,0-.05.06a1.05,1.05,0,0,0-.08.13q-2.25,3.59-4.52,7.14c.12,0,.17,0,.16.14a.4.4,0,0,1-.15.25c-.3.22-.51.29-.62.2s-.11-.28,0-.58l1-1.65Q75.53,11.83,79.07,6a1,1,0,0,1,.08-.15.54.54,0,0,0,.12-.23s-.09-.06-.25,0c-1.25.18-2.53.39-3.82.61Zm4.64-.6-.72,1.2c-.6,1-1.24,2.07-1.92,3.11-.35.53-.33.57.07.13a38.18,38.18,0,0,0,3.17-4.36l.15-.26c0-.06,0-.09,0-.1h-.22a1.34,1.34,0,0,0-.3,0A.53.53,0,0,0,79.84,5.67Zm.64-1.06a2.83,2.83,0,0,0-.15.28c0,.08,0,.11,0,.1l.31,0a.37.37,0,0,0,.16,0A.21.21,0,0,0,81,4.86a1.4,1.4,0,0,0,.13-.2,15.62,15.62,0,0,0,1.56-3.4,24.22,24.22,0,0,0-1.89,2.88l-.12.2C80.58,4.43,80.53,4.52,80.48,4.61Z"/></g></g></svg>