<svg width="30" height="30" viewBox="0 0 30 30" fill="none" xmlns="http://www.w3.org/2000/svg">
<circle cx="15" cy="15" r="14.8185" stroke="#B3B3B2" stroke-width="0.363015"/>
<path d="M14.9703 28.1891C22.2439 28.1891 28.1403 22.2927 28.1403 15.0191C28.1403 7.74553 22.2439 1.84912 14.9703 1.84912C7.6967 1.84912 1.80029 7.74553 1.80029 15.0191C1.80029 22.2927 7.6967 28.1891 14.9703 28.1891Z" fill="#F0F0F0"/>
<path d="M14.3979 15.0201H28.1405C28.1405 13.8314 27.9821 12.6799 27.6868 11.5845H14.3979V15.0201Z" fill="#D80027"/>
<path d="M14.3979 8.14856H26.2075C25.4013 6.833 24.3705 5.67019 23.1687 4.71289H14.3979V8.14856Z" fill="#D80027"/>
<path d="M14.9706 28.1902C18.0701 28.1902 20.919 27.1189 23.1687 25.3271H6.77246C9.02216 27.1189 11.8711 28.1902 14.9706 28.1902Z" fill="#D80027"/>
<path d="M3.73322 21.8912H26.2072C26.8544 20.8351 27.3564 19.6807 27.6865 18.4556H2.25391C2.58403 19.6807 3.08598 20.8351 3.73322 21.8912Z" fill="#D80027"/>
<path d="M7.90088 3.9058H9.10105L7.98469 4.71684L8.41112 6.02916L7.29481 5.21812L6.17849 6.02916L6.54684 4.89546C5.56393 5.71421 4.70243 6.67346 3.99248 7.74228H4.37703L3.66642 8.25854C3.55571 8.44323 3.44953 8.63085 3.34777 8.82125L3.6871 9.86564L3.05402 9.40566C2.89664 9.73908 2.7527 10.08 2.62332 10.428L2.99717 11.5788H4.37703L3.26067 12.3898L3.6871 13.7021L2.57079 12.8911L1.9021 13.3769C1.83517 13.9149 1.80029 14.4629 1.80029 15.0191H14.9703C14.9703 7.74558 14.9703 6.88809 14.9703 1.84912C12.3686 1.84912 9.94331 2.60382 7.90088 3.9058ZM8.41112 13.7021L7.29481 12.8911L6.17849 13.7021L6.60492 12.3898L5.48856 11.5788H6.86843L7.29481 10.2664L7.72119 11.5788H9.10105L7.98469 12.3898L8.41112 13.7021ZM7.98469 8.55332L8.41112 9.86564L7.29481 9.0546L6.17849 9.86564L6.60492 8.55332L5.48856 7.74228H6.86843L7.29481 6.42997L7.72119 7.74228H9.10105L7.98469 8.55332ZM13.1351 13.7021L12.0188 12.8911L10.9025 13.7021L11.3289 12.3898L10.2126 11.5788H11.5924L12.0188 10.2664L12.4452 11.5788H13.8251L12.7087 12.3898L13.1351 13.7021ZM12.7087 8.55332L13.1351 9.86564L12.0188 9.0546L10.9025 9.86564L11.3289 8.55332L10.2126 7.74228H11.5924L12.0188 6.42997L12.4452 7.74228H13.8251L12.7087 8.55332ZM12.7087 4.71684L13.1351 6.02916L12.0188 5.21812L10.9025 6.02916L11.3289 4.71684L10.2126 3.9058H11.5924L12.0188 2.59348L12.4452 3.9058H13.8251L12.7087 4.71684Z" fill="#0052B4"/>
</svg>
