<svg width="21" height="20" viewBox="0 0 21 20" fill="none" xmlns="http://www.w3.org/2000/svg">
<g clip-path="url(#clip0)">
<path d="M19.2585 4.45C18.7156 3.485 18.1264 3.3075 16.9267 3.24C15.7283 3.15875 12.7148 3.125 10.1041 3.125C7.48835 3.125 4.47356 3.15875 3.2764 3.23875C2.07925 3.3075 1.4888 3.48375 0.940886 4.45C0.381712 5.41375 0.0939941 7.07375 0.0939941 9.99625C0.0939941 9.99875 0.0939941 10 0.0939941 10C0.0939941 10.0025 0.0939941 10.0038 0.0939941 10.0038V10.0063C0.0939941 12.9163 0.381712 14.5887 0.940886 15.5425C1.4888 16.5075 2.078 16.6825 3.27515 16.7638C4.47356 16.8338 7.48835 16.875 10.1041 16.875C12.7148 16.875 15.7283 16.8337 16.928 16.765C18.1277 16.6837 18.7169 16.5088 19.2598 15.5438C19.8239 14.59 20.1092 12.9175 20.1092 10.0075C20.1092 10.0075 20.1092 10.0038 20.1092 10.0013C20.1092 10.0013 20.1092 9.99875 20.1092 9.9975C20.1092 7.07375 19.8239 5.41375 19.2585 4.45ZM7.59968 13.75V6.25L13.8544 10L7.59968 13.75Z" fill="#033603"/>
</g>
<defs>
<clipPath id="clip0">
<rect width="20.0152" height="20" fill="white" transform="translate(0.0939941)"/>
</clipPath>
</defs>
</svg>
