<svg width="18" height="23" viewBox="0 0 18 23" fill="none" xmlns="http://www.w3.org/2000/svg">
<path d="M2.68359 9.00042C2.68359 12.483 5.51685 15.3163 8.99945 15.3163C12.4821 15.3163 15.3153 12.483 15.3153 9.00042C15.3153 5.51782 12.4821 2.68457 8.99945 2.68457C5.51685 2.68457 2.68359 5.51782 2.68359 9.00042ZM8.99945 3.52668C12.0177 3.52668 14.4732 5.98214 14.4732 9.00042C14.4732 12.0187 12.0177 14.4742 8.99945 14.4742C5.98116 14.4742 3.52571 12.0187 3.52571 9.00042C3.52571 5.98214 5.98116 3.52668 8.99945 3.52668Z" fill="#020202" stroke="black" stroke-width="0.2"/>
<path d="M6.1389 8.63167L7.4365 9.91018L7.13795 11.7071C7.11716 11.8322 7.16882 11.9583 7.27147 12.0328C7.37399 12.1073 7.50986 12.1174 7.62245 12.0591L9.23912 11.2196L10.8557 12.0591C10.9673 12.117 11.1032 12.108 11.2066 12.0328C11.3093 11.9583 11.3609 11.8322 11.3401 11.7071L11.0416 9.91018L12.3392 8.63167C12.4296 8.54275 12.4619 8.41041 12.4226 8.28971C12.3834 8.16914 12.2794 8.08114 12.154 8.06217L10.3533 7.79109L9.53844 6.1616C9.48182 6.04822 9.36583 5.97656 9.23912 5.97656C9.11227 5.97656 8.99641 6.04822 8.93966 6.1616L8.12485 7.79109L6.32406 8.06217C6.19866 8.08101 6.0947 8.16914 6.05547 8.28971C6.01624 8.41041 6.04867 8.54275 6.1389 8.63167ZM8.39645 8.42728C8.50421 8.41106 8.59731 8.34346 8.64609 8.24603L9.23912 7.05984L9.83214 8.24603C9.88092 8.34346 9.97403 8.41106 10.0818 8.42728L11.3925 8.62461L10.4479 9.55502C10.3704 9.63152 10.3348 9.74097 10.3526 9.84846L10.5699 11.1563L9.39329 10.5453C9.34504 10.5202 9.29208 10.5077 9.23912 10.5077C9.18616 10.5077 9.1332 10.5202 9.08481 10.5453L7.90817 11.1563L8.12551 9.84846C8.14342 9.74097 8.10785 9.63152 8.03018 9.55502L7.08578 8.62461L8.39645 8.42728Z" fill="#020202"/>
<path d="M9.42024 1.42106C9.42024 1.65363 9.23175 1.84211 8.99918 1.84211C8.76661 1.84211 8.57812 1.65363 8.57812 1.42106C8.57812 1.18849 8.76661 1 8.99918 1C9.23175 1 9.42024 1.18849 9.42024 1.42106Z" fill="#020202" stroke="black" stroke-width="0.2"/>
<path d="M7.01569 1.24856C3.47371 2.15267 1 5.34037 1 9.00043C1 11.2736 1.95577 13.4156 3.63358 14.9326L1.09688 19.4031C1.0153 19.5471 1.02549 19.7254 1.12286 19.8589C1.22023 19.9926 1.38668 20.0569 1.54869 20.0232L4.42948 19.425L5.44199 22.2782C5.49692 22.4334 5.63755 22.5422 5.80169 22.5568C5.96584 22.5714 6.12324 22.4887 6.20466 22.3454L9.00008 17.4309L11.7953 22.3454C11.8707 22.4778 12.0108 22.5583 12.1611 22.5583C12.1735 22.5583 12.186 22.5578 12.1983 22.5568C12.3625 22.5422 12.5031 22.4333 12.5582 22.2782L13.5705 19.425L16.4513 20.0232C16.6132 20.0568 16.7798 19.9925 16.8771 19.8589C16.9747 19.7254 16.9847 19.5471 16.9031 19.4031L14.3664 14.9326C16.0442 13.4156 17 11.2736 17 9.00043C17 5.34037 14.5263 2.15267 10.9845 1.24856C10.759 1.19099 10.5299 1.32701 10.4723 1.55234C10.4147 1.77767 10.5508 2.00695 10.7761 2.06452C13.9449 2.8734 16.1581 5.72557 16.1581 9.00043C16.1581 12.9862 12.921 16.1584 9.00008 16.1584C5.07636 16.1584 1.84211 12.9835 1.84211 9.00043C1.84211 5.72557 4.05513 2.8734 7.22391 2.06452C7.44924 2.00695 7.58527 1.77767 7.52786 1.55234C7.4703 1.32701 7.24118 1.19099 7.01569 1.24856ZM5.92785 21.1292L5.10037 18.7974C5.02998 18.599 4.82405 18.4831 4.61796 18.5258L2.2885 19.0096L4.29609 15.4714C5.46666 16.3224 6.85269 16.8408 8.29399 16.9691L5.92785 21.1292ZM13.382 18.5258C13.1761 18.4831 12.97 18.599 12.8996 18.7974L12.0723 21.1292L9.70601 16.9691C11.1475 16.8408 12.5333 16.3224 13.7041 15.4714L15.7117 19.0096L13.382 18.5258Z" fill="#020202" stroke="black" stroke-width="0.2"/>
</svg>
