<svg width="30" height="30" viewBox="0 0 30 30" fill="none" xmlns="http://www.w3.org/2000/svg">
<g clip-path="url(#clip0)">
<path d="M6 22.95H5.56508L5.25754 23.2575L1.05 27.4651V3C1.05 1.9299 1.9299 1.05 3 1.05H27C28.0701 1.05 28.95 1.9299 28.95 3V21C28.95 22.0701 28.0701 22.95 27 22.95H6Z" stroke="black" stroke-width="2.1"/>
<path d="M6.17188 10.1H23.1641C23.8113 10.1 24.3359 9.62991 24.3359 9.05C24.3359 8.47009 23.8113 8 23.1641 8H6.17188C5.52465 8 5 8.47009 5 9.05C5 9.62991 5.52465 10.1 6.17188 10.1Z" fill="black"/>
<path d="M5.72727 15H16.2727C16.6744 15 17 14.5523 17 14C17 13.4477 16.6744 13 16.2727 13H5.72727C5.3256 13 5 13.4477 5 14C5 14.5523 5.3256 15 5.72727 15Z" fill="black"/>
</g>
<defs>
<clipPath id="clip0">
<rect width="30" height="30" fill="white"/>
</clipPath>
</defs>
</svg>
