<svg width="20" height="21" viewBox="0 0 20 21" fill="none" xmlns="http://www.w3.org/2000/svg">
<path d="M13.125 11.623H6.875C6.53 11.623 6.25 11.903 6.25 12.248C6.25 12.593 6.53 12.873 6.875 12.873H13.125C13.47 12.873 13.75 12.593 13.75 12.248C13.75 11.903 13.47 11.623 13.125 11.623ZM14.375 7.87305H5.625C5.28 7.87305 5 8.15305 5 8.49805C5 8.84305 5.28 9.12305 5.625 9.12305H14.375C14.72 9.12305 15 8.84305 15 8.49805C15 8.15305 14.72 7.87305 14.375 7.87305ZM10 0.998047C4.47752 0.998047 0 4.91553 0 9.74805C0 12.5099 1.46562 14.9687 3.75 16.5724V20.998L8.13062 18.3399C8.7369 18.4399 9.36062 18.498 10 18.498C15.5231 18.498 20 14.5806 20 9.74805C20 4.91553 15.5231 0.998047 10 0.998047ZM10 17.248C9.27 17.248 8.565 17.163 7.88748 17.0187L4.94497 18.7874L4.98435 15.8887C2.72876 14.5318 1.25 12.2893 1.25 9.74805C1.25 5.60618 5.16748 2.24805 10 2.24805C14.8325 2.24805 18.75 5.60618 18.75 9.74805C18.75 13.8899 14.8325 17.248 10 17.248Z" fill="black"/>
</svg>
