<svg width="25" height="25" viewBox="0 0 25 25" fill="none" xmlns="http://www.w3.org/2000/svg">
<g clip-path="url(#clip0)">
<path d="M10.364 19.0549L7.41813 22.0008C6.19684 23.2221 4.21904 23.2221 2.99877 22.001C1.77826 20.7805 1.77826 18.8025 2.99853 17.5823L8.89129 11.6895C10.1116 10.4692 12.0895 10.4692 13.3098 11.6895C13.7166 12.0963 14.3762 12.0963 14.783 11.6895C15.1898 11.2827 15.1898 10.6231 14.783 10.2163C12.7491 8.18244 9.45203 8.18244 7.41813 10.2163L1.52542 16.1091C-0.508475 18.1429 -0.508475 21.44 1.52542 23.4739C3.55908 25.5089 6.85636 25.5089 8.89134 23.4739L11.8372 20.528C12.244 20.1212 12.244 19.4617 11.8372 19.0549C11.4304 18.6481 10.7708 18.6481 10.364 19.0549Z" fill="white"/>
<path d="M23.4754 1.52542C21.4415 -0.508475 18.1434 -0.508475 16.1095 1.52542L12.5751 5.05982C12.1683 5.46661 12.1683 6.12618 12.5751 6.53297C12.9819 6.93976 13.6415 6.93976 14.0483 6.53297L17.5827 2.99858C18.8029 1.77826 20.782 1.77826 22.0023 2.99858C23.2226 4.21885 23.2226 6.19684 22.0023 7.41711L15.521 13.8984C14.3007 15.1188 12.3227 15.1188 11.1025 13.8984C10.6957 13.4917 10.0361 13.4917 9.62931 13.8984C9.22252 14.3052 9.22252 14.9648 9.62931 15.3716C11.6632 17.4055 14.9603 17.4055 16.9941 15.3716L23.4754 8.89031C25.5093 6.85641 25.5093 3.55932 23.4754 1.52542Z" fill="white"/>
</g>
<defs>
<clipPath id="clip0">
<rect width="25" height="25" fill="white"/>
</clipPath>
</defs>
</svg>
