<svg width="18" height="18" viewBox="0 0 18 18" fill="none" xmlns="http://www.w3.org/2000/svg">
<g clip-path="url(#clip0)">
<path d="M10.6717 17.3868H4.36478C2.90814 17.3868 1.72314 16.2018 1.72314 14.7452V5.79664C1.72314 4.34 2.90814 3.155 4.36478 3.155H10.6717C12.1283 3.155 13.3133 4.34 13.3133 5.79664V14.7452C13.3133 16.2018 12.1283 17.3868 10.6717 17.3868ZM4.36478 4.47582C3.63652 4.47582 3.04396 5.06838 3.04396 5.79664V14.7452C3.04396 15.4734 3.63652 16.066 4.36478 16.066H10.6717C11.3999 16.066 11.9925 15.4734 11.9925 14.7452V5.79664C11.9925 5.06838 11.3999 4.47582 10.6717 4.47582H4.36478ZM15.9549 13.0942V3.12198C15.9549 1.66534 14.77 0.480347 13.3133 0.480347H5.98278C5.61801 0.480347 5.32237 0.775983 5.32237 1.14076C5.32237 1.50553 5.61801 1.80116 5.98278 1.80116H13.3133C14.0416 1.80116 14.6341 2.39373 14.6341 3.12198V13.0942C14.6341 13.4589 14.9298 13.7546 15.2945 13.7546C15.6593 13.7546 15.9549 13.4589 15.9549 13.0942Z" fill="#033603"/>
</g>
<defs>
<clipPath id="clip0">
<rect width="16.9065" height="16.9065" fill="white" transform="translate(0.402344 0.480347)"/>
</clipPath>
</defs>
</svg>
