<svg width="25" height="25" viewBox="0 0 25 25" fill="none" xmlns="http://www.w3.org/2000/svg">
<path d="M24.2676 5.9082H18.7012V1.5625C18.7012 1.15801 18.3732 0.830078 17.9688 0.830078H0.732422C0.32793 0.830078 0 1.15801 0 1.5625V20.5078C0 22.5271 1.64282 24.1699 3.66211 24.1699H21.3379C23.3572 24.1699 25 22.5271 25 20.5078V6.64062C25 6.23613 24.6721 5.9082 24.2676 5.9082ZM3.66211 22.7051C2.45054 22.7051 1.46484 21.7194 1.46484 20.5078V2.29492H17.2363C17.2363 21.6536 17.2271 20.5773 17.2531 20.8534C17.3168 21.5324 17.57 22.1727 17.9705 22.7051H3.66211ZM23.5352 20.5078C23.5352 21.7194 22.5495 22.7051 21.3379 22.7051C21.1735 22.7051 21.0598 22.7051 20.8984 22.7051C19.6869 22.7051 18.7012 21.7194 18.7012 20.5078V7.37305H23.5352V20.5078Z" fill="#033603"/>
<path d="M14.8438 4.3457H3.90625C3.50176 4.3457 3.17383 4.67363 3.17383 5.07812C3.17383 5.48262 3.50176 5.81055 3.90625 5.81055H14.8438C15.2482 5.81055 15.5762 5.48262 15.5762 5.07812C15.5762 4.67363 15.2482 4.3457 14.8438 4.3457Z" fill="#033603"/>
<path d="M14.8438 7.4707H3.90625C3.50176 7.4707 3.17383 7.79863 3.17383 8.20312C3.17383 8.60762 3.50176 8.93555 3.90625 8.93555H14.8438C15.2482 8.93555 15.5762 8.60762 15.5762 8.20312C15.5762 7.79863 15.2482 7.4707 14.8438 7.4707Z" fill="#033603"/>
<path d="M14.8438 19.1895H3.90625C3.50176 19.1895 3.17383 19.5174 3.17383 19.9219C3.17383 20.3264 3.50176 20.6543 3.90625 20.6543H14.8438C15.2482 20.6543 15.5762 20.3264 15.5762 19.9219C15.5762 19.5174 15.2482 19.1895 14.8438 19.1895Z" fill="#033603"/>
<path d="M14.8438 10.5957H9.375C8.97051 10.5957 8.64258 10.9236 8.64258 11.3281V16.7969C8.64258 17.2014 8.97051 17.5293 9.375 17.5293H14.8438C15.2482 17.5293 15.5762 17.2014 15.5762 16.7969V11.3281C15.5762 10.9236 15.2482 10.5957 14.8438 10.5957ZM14.1113 16.0645H10.1074V12.0605H14.1113V16.0645Z" fill="#033603"/>
<path d="M3.90625 13.2324H6.25C6.65449 13.2324 6.98242 12.9045 6.98242 12.5C6.98242 12.0955 6.65449 11.7676 6.25 11.7676H3.90625C3.50176 11.7676 3.17383 12.0955 3.17383 12.5C3.17383 12.9045 3.50176 13.2324 3.90625 13.2324Z" fill="#033603"/>
<path d="M3.90625 16.3574H6.25C6.65449 16.3574 6.98242 16.0295 6.98242 15.625C6.98242 15.2205 6.65449 14.8926 6.25 14.8926H3.90625C3.50176 14.8926 3.17383 15.2205 3.17383 15.625C3.17383 16.0295 3.50176 16.3574 3.90625 16.3574Z" fill="#033603"/>
</svg>
