<svg width="25" height="25" viewBox="0 0 25 25" fill="none" xmlns="http://www.w3.org/2000/svg">
<g clip-path="url(#clip0)">
<path d="M24.266 20.8091H22.7885V11.0367C22.7885 10.632 22.4598 10.3039 22.0544 10.3039H18.0017C17.5963 10.3039 17.2677 10.632 17.2677 11.0367V20.8091H15.2604V8.13342C15.2604 7.72873 14.9318 7.40063 14.5264 7.40063H10.4737C10.0683 7.40063 9.73965 7.72873 9.73965 8.13342V20.8091H7.73235V10.2612C7.73235 9.85649 7.40372 9.5284 6.99835 9.5284H2.94555C2.54018 9.5284 2.21155 9.85649 2.21155 10.2612V20.8091H0.734007C0.32863 20.8091 0 21.1372 0 21.5419C0 21.9466 0.32863 22.2747 0.734007 22.2747H24.266C24.6714 22.2747 25 21.9466 25 21.5419C25 21.1372 24.6714 20.8091 24.266 20.8091ZM3.67956 20.8091V10.994H6.26434V20.8091H3.67956ZM11.2076 20.8091V8.86621H13.7924V20.8091H11.2076ZM18.7357 20.8091V11.7695H21.3205V20.8091H18.7357Z" fill="#033603"/>
<path d="M24.4636 5.51339C24.4879 5.20713 24.3094 4.83107 23.9007 4.73595L21.5331 4.16047C21.1397 4.06457 20.7435 4.30615 20.648 4.69941C20.5523 5.09267 20.7936 5.48896 21.1869 5.58452L21.8566 5.74729L19.9583 6.91873L12.7605 2.82099C12.5536 2.70311 12.3021 2.69319 12.0867 2.79446L4.93205 6.15267L1.51185 4.01816C1.16856 3.80375 0.716529 3.90849 0.502213 4.25183C0.287947 4.59511 0.392589 5.04714 0.735923 5.26146L4.49443 7.6071C4.70532 7.73876 4.96864 7.75449 5.19375 7.64882L12.3655 4.28251L19.6108 8.40735C19.7993 8.50623 20.0621 8.55748 20.3582 8.39412L22.6594 6.97403L22.5061 7.69177C22.3375 8.64649 23.689 8.91762 23.9394 7.99787L24.4473 5.61906C24.4531 5.58574 24.4553 5.59043 24.4636 5.51339Z" fill="#033603"/>
</g>
<defs>
<clipPath id="clip0">
<rect width="25" height="25" fill="white" transform="translate(0 -0.00012207)"/>
</clipPath>
</defs>
</svg>
