<svg width="20" height="20" viewBox="0 0 20 20" fill="none" xmlns="http://www.w3.org/2000/svg">
<path d="M8.01489 5.61255H11.7359C12.0595 5.61255 12.3219 5.3502 12.3219 5.02661C12.3219 4.70302 12.0595 4.44067 11.7359 4.44067H8.01489C7.6913 4.44067 7.42896 4.70302 7.42896 5.02661C7.42896 5.3502 7.69126 5.61255 8.01489 5.61255Z" fill="#033603"/>
<path d="M14.298 0H0.585937C0.262343 0 0 0.262343 0 0.585937V19.414C0 19.7376 0.262343 20 0.585937 20H14.298C14.6216 20 14.884 19.7376 14.884 19.414V0.585937C14.884 0.262343 14.6216 0 14.298 0ZM13.7121 18.8281H1.17187V1.17187H13.7121V18.8281Z" fill="#033603"/>
<path d="M20 14.1993V1.98871C20 0.892148 19.1079 0 18.0113 0C16.9147 0 16.0226 0.892148 16.0226 1.98871V14.1992C16.0226 14.5049 16.2568 14.7557 16.5555 14.7825L16.0576 16.1583C16.0052 16.3029 16.0118 16.4623 16.076 16.6021L17.4788 19.6584C17.5743 19.8665 17.7824 19.9999 18.0113 19.9999C18.2403 19.9999 18.4484 19.8665 18.5439 19.6584L19.9466 16.6021C20.0108 16.4623 20.0174 16.3029 19.9651 16.1583L19.4671 14.7825C19.7658 14.7557 20 14.505 20 14.1993ZM17.1945 13.6133V4.87914H18.8282V13.6133H17.1945V13.6133ZM18.0113 1.17187C18.4617 1.17187 18.8282 1.53832 18.8282 1.98871V3.70726H17.1945V1.98871C17.1945 1.53832 17.5609 1.17187 18.0113 1.17187ZM18.0113 18.0094L17.2412 16.3314L17.8008 14.7852H18.2218L18.7815 16.3314L18.0113 18.0094Z" fill="#033603"/>
<path d="M3.54306 6.14037C3.65295 6.25025 3.80197 6.31201 3.95736 6.31201C4.11275 6.31201 4.26181 6.25025 4.37166 6.14041L6.15146 4.3606C6.38029 4.13178 6.38029 3.7608 6.15146 3.53197C5.92267 3.30314 5.55166 3.30314 5.32283 3.53197L3.95736 4.89744L3.53291 4.47291C3.30416 4.24408 2.93314 4.24408 2.70427 4.47291C2.47545 4.70174 2.47545 5.07271 2.70427 5.30154L3.54306 6.14037Z" fill="#033603"/>
<path d="M8.01489 9.16748H11.7359C12.0595 9.16748 12.3219 8.90514 12.3219 8.58154C12.3219 8.25795 12.0595 7.99561 11.7359 7.99561H8.01489C7.6913 7.99561 7.42896 8.25795 7.42896 8.58154C7.42896 8.90514 7.69126 9.16748 8.01489 9.16748Z" fill="#033603"/>
<path d="M3.54306 9.69531C3.65295 9.80519 3.80197 9.86695 3.95736 9.86695C4.11275 9.86695 4.26181 9.80519 4.37166 9.69534L6.15146 7.91554C6.38029 7.68671 6.38029 7.31573 6.15146 7.0869C5.92267 6.85808 5.55166 6.85808 5.32283 7.0869L3.95736 8.45237L3.53291 8.02792C3.30416 7.79909 2.93314 7.79909 2.70427 8.02792C2.47545 8.25675 2.47545 8.62773 2.70427 8.85655L3.54306 9.69531Z" fill="#033603"/>
<path d="M8.01489 12.7222H11.7359C12.0595 12.7222 12.3219 12.4598 12.3219 12.1362C12.3219 11.8126 12.0595 11.5503 11.7359 11.5503H8.01489C7.6913 11.5503 7.42896 11.8126 7.42896 12.1362C7.42896 12.4598 7.69126 12.7222 8.01489 12.7222Z" fill="#033603"/>
<path d="M8.01489 16.4132H11.7359C12.0595 16.4132 12.3219 16.1509 12.3219 15.8273C12.3219 15.5037 12.0595 15.2413 11.7359 15.2413H8.01489C7.6913 15.2413 7.42896 15.5037 7.42896 15.8273C7.42896 16.1509 7.69126 16.4132 8.01489 16.4132Z" fill="#033603"/>
<path d="M3.54308 13.2502C3.65296 13.3601 3.80199 13.4218 3.95738 13.4218C4.11277 13.4218 4.26183 13.3601 4.37167 13.2502L6.15148 11.4705C6.38031 11.2416 6.38031 10.8706 6.15148 10.6418C5.92269 10.413 5.55167 10.413 5.32285 10.6418L3.95738 12.0073L3.53292 11.5828C3.30417 11.3539 2.93316 11.3539 2.70429 11.5828C2.47542 11.8116 2.47546 12.1826 2.70429 12.4114L3.54308 13.2502Z" fill="#033603"/>
</svg>
