<svg width="25" height="26" viewBox="0 0 25 26" fill="none" xmlns="http://www.w3.org/2000/svg">
<path d="M12.0886 6.61086C11.8945 6.61086 11.6564 6.58248 11.4934 6.40082C11.4367 6.33701 11.3871 6.27741 11.3389 6.22771C10.9506 5.81906 10.2817 6.38666 10.687 6.91727L10.7848 7.04357C10.8486 7.12309 10.9634 7.21529 11.1277 7.32031C11.2879 7.42239 11.4665 7.4962 11.6649 7.54019V8.24118C11.6649 8.48238 11.8618 8.68104 12.1028 8.68104C12.3451 8.68104 12.5506 8.48238 12.5506 8.24118V7.53596C12.8681 7.46226 13.1402 7.30753 13.3626 7.07344C13.5865 6.83924 13.6985 6.52856 13.6985 6.14118C13.6985 5.87726 13.6475 5.65738 13.5454 5.47995C13.4434 5.304 13.3187 5.18059 13.1699 5.11101C13.0197 5.04148 12.8567 4.98044 12.6767 4.92801C12.4982 4.87552 12.3352 4.8386 12.185 4.81593C12.0362 4.79456 11.9115 4.74913 11.8094 4.68253C11.7074 4.61434 11.6564 4.52642 11.6564 4.41712C11.6564 3.89501 12.4216 3.95882 12.7589 4.24262C13.2563 4.66121 13.8132 3.89501 13.2364 3.46225L13.1698 3.40261C13.1245 3.36722 13.0451 3.32319 12.9303 3.26782C12.817 3.21255 12.6894 3.17135 12.5506 3.14153V2.71732V2.53288C12.5506 2.29163 12.3535 2.09302 12.1112 2.09302C11.8703 2.09302 11.6719 2.29158 11.6719 2.53288V3.13447C11.3488 3.19834 11.0809 3.35872 10.8953 3.5956C10.7083 3.83686 10.6133 4.10365 10.6133 4.40152C10.6133 4.70097 10.6828 4.94645 10.8216 5.14083C10.9605 5.33512 11.1292 5.4714 11.329 5.55087C11.5274 5.63035 11.7258 5.69421 11.9242 5.74098C12.124 5.78929 12.2927 5.84173 12.4315 5.90276C12.5704 5.96235 12.6398 6.0461 12.6398 6.15535C12.6399 6.45897 12.4557 6.61086 12.0886 6.61086Z" fill="#033603"/>
<path d="M24.6983 14.3563L20.6144 9.12525C20.3393 8.77197 19.9222 8.56934 19.4702 8.56934C19.1511 8.56934 18.8491 8.67063 18.5956 8.86293L15.9229 10.9003C15.617 11.1335 15.4216 11.4718 15.3726 11.853C15.3653 11.9098 15.3618 11.9665 15.3612 12.0229C14.3423 11.9457 13.2899 12.0233 12.2679 12.6876L12.2221 12.7174L9.63662 12.322C9.64194 12.2325 9.63906 12.1419 9.62728 12.051C9.57798 11.6706 9.38285 11.3331 9.07753 11.1003L6.40417 9.06476C5.77783 8.58579 4.87221 8.70214 4.38518 9.3248L3.41162 10.5721C3.24124 10.7903 3.28011 11.1052 3.4983 11.2755C3.71654 11.4459 4.0315 11.407 4.20183 11.1888L5.17509 9.942C5.32241 9.75363 5.6064 9.71655 5.79607 9.86163L8.47002 11.8976C8.56058 11.9667 8.61853 12.0669 8.63314 12.1799C8.64781 12.293 8.61724 12.4051 8.54746 12.4947L4.46276 17.7266C4.31644 17.9145 4.0321 17.9512 3.84273 17.8076L1.16992 15.77C1.07887 15.7007 1.02067 15.6001 1.0061 15.4869C0.99164 15.3743 1.02221 15.263 1.09253 15.1731L1.78697 14.2835C1.9573 14.0653 1.91848 13.7504 1.70024 13.5801C1.48205 13.4096 1.16709 13.4486 0.996709 13.6668L0.302673 14.5559C0.0662414 14.8581 -0.037039 15.2341 0.0118676 15.6146C0.0608239 15.9958 0.256351 16.3342 0.562216 16.5673L3.23588 18.6055C3.49606 18.8029 3.80357 18.8984 4.10909 18.8983C4.28578 18.8983 4.46157 18.8659 4.62733 18.8032L4.97335 19.2772C4.78528 19.6202 4.75596 20.0324 4.9071 20.4301C5.12315 20.9988 5.63294 21.3844 6.18449 21.4028C6.20158 21.4838 6.22529 21.5647 6.25765 21.6449C6.47996 22.1957 6.98762 22.5707 7.53309 22.5953C7.53558 22.6097 7.53747 22.624 7.5404 22.6383C7.64418 23.1427 8.03111 23.5734 8.52609 23.7357C8.65218 23.7771 8.77932 23.7983 8.90521 23.802C8.95342 24.0051 9.05422 24.2012 9.20914 24.3734C9.45064 24.6418 9.80322 24.8136 10.19 24.8135C10.4709 24.8135 10.7698 24.7224 11.0572 24.5123L11.6247 25.0429C11.9138 25.3126 12.2777 25.4473 12.6382 25.4473C13.0038 25.4473 13.3657 25.3087 13.6421 25.0321C13.8069 24.8671 13.9346 24.6708 14.0172 24.4642C14.158 24.507 14.2956 24.5273 14.4276 24.5273C14.7994 24.5273 15.1274 24.3703 15.3624 24.1282C15.5547 23.9301 15.6924 23.6665 15.7533 23.3854C15.7736 23.3864 15.7939 23.3873 15.8144 23.3875C15.8194 23.3875 15.8243 23.3875 15.8293 23.3875C16.2246 23.3875 16.604 23.2344 16.8719 22.9661C17.0595 22.7782 17.1887 22.547 17.2503 22.2945C17.3459 22.3131 17.4419 22.3229 17.5378 22.3229C17.6584 22.3229 17.7787 22.3079 17.8973 22.2776C18.3806 22.1537 18.7538 21.776 18.8713 21.2917C18.9797 20.8449 18.868 20.3742 18.564 19.9463C19.3511 19.313 19.6695 19.0011 20.0291 18.4178C20.2748 18.5984 20.5738 18.698 20.8898 18.698C20.8898 18.698 20.8898 18.698 20.8899 18.698C21.2098 18.698 21.5124 18.5959 21.764 18.4035L24.4384 16.3673C24.7434 16.1347 24.9386 15.7972 24.9879 15.4168C25.0372 15.0361 24.9345 14.6596 24.6983 14.3563ZM6.44671 20.2975C6.36992 20.3669 6.29547 20.4021 6.22534 20.4021C6.0814 20.4021 5.91401 20.2581 5.84413 20.0742C5.78071 19.9071 5.81028 19.7676 5.93235 19.6592L5.93394 19.6578C5.93444 19.6573 5.93498 19.6568 5.93548 19.6564L7.62405 18.1555C7.7653 18.0302 7.90745 17.964 8.03523 17.964C8.22221 17.964 8.36202 18.106 8.41277 18.238C8.46704 18.379 8.43439 18.5048 8.3163 18.6116L8.02196 18.8771C8.02171 18.8773 8.02141 18.8775 8.02117 18.8777C8.01972 18.879 8.01833 18.8803 8.01689 18.8816C8.00636 18.8911 7.99547 18.901 7.98473 18.9106L6.44671 20.2975ZM7.81157 21.4955C7.73548 21.5627 7.66296 21.5953 7.59 21.5953C7.43787 21.5953 7.26098 21.4524 7.18727 21.2697C7.10606 21.0685 7.20243 20.9756 7.2329 20.9462C7.25248 20.9274 7.27599 20.9049 7.30049 20.8786C7.30064 20.8785 7.30079 20.8783 7.30094 20.8782L7.30611 20.8737C7.40253 20.7875 8.25158 20.0204 8.65725 19.6538L8.68747 19.6266C8.82494 19.5059 8.96421 19.4422 9.0904 19.4422C9.28941 19.4422 9.43757 19.5944 9.491 19.7359C9.54413 19.8766 9.51227 19.9997 9.39666 20.1015L9.29269 20.1929C9.29189 20.1936 9.29115 20.1942 9.2904 20.1948C9.29015 20.1951 9.2899 20.1953 9.28966 20.1956L7.81157 21.4955ZM9.30551 22.5774C9.2986 22.5836 9.29209 22.5901 9.28538 22.5964L9.16779 22.7025C9.06326 22.7969 8.95859 22.8227 8.83831 22.7832C8.68628 22.7334 8.55347 22.5875 8.52236 22.4364C8.49532 22.305 8.54791 22.1833 8.68141 22.0656L8.84865 21.9194C8.85288 21.9158 8.8565 21.9117 8.86058 21.908L9.95611 20.9445C10.2186 20.7124 10.4786 20.6892 10.6517 20.8827C10.676 20.9099 10.8824 21.1552 10.6305 21.3828L9.95765 21.9899C9.95044 21.9963 9.94314 22.002 9.93598 22.0085C9.93344 22.0109 9.93136 22.0135 9.92887 22.0158L9.31321 22.5713C9.31073 22.5735 9.30795 22.5751 9.30551 22.5774ZM9.95442 23.7029C9.90158 23.6443 9.7997 23.4922 9.96684 23.3317L10.638 22.7261C10.6888 22.6826 10.7378 22.6482 10.7836 22.6245C10.7857 22.6234 10.7878 22.6223 10.7899 22.6212C11.0604 22.4768 11.2071 22.6452 11.2456 22.7002C11.2952 22.771 11.3556 22.91 11.2037 23.0465L10.7438 23.4598C10.7421 23.4614 10.7404 23.4629 10.7387 23.4645L10.5393 23.6437C10.2117 23.9377 10.0088 23.7634 9.95442 23.7029ZM17.8971 21.0554C17.8663 21.1824 17.7756 21.2739 17.6485 21.3065C17.4376 21.3605 17.1707 21.2434 16.9264 20.9927C16.9081 20.9724 16.8893 20.9525 16.8696 20.9331L14.9777 19.0629C14.7808 18.8684 14.4634 18.8702 14.2688 19.0671C14.0743 19.2639 14.076 19.5813 14.2729 19.7759L16.1618 21.643C16.165 21.6463 16.1682 21.6496 16.1713 21.6529C16.2467 21.7306 16.2887 21.8343 16.2892 21.9465C16.2896 22.065 16.2447 22.1756 16.1626 22.2578C16.0816 22.3389 15.9605 22.3852 15.8296 22.3852C15.8277 22.3852 15.8259 22.3852 15.8241 22.3851C15.7082 22.384 15.6024 22.3452 15.528 22.2775C15.4966 22.2369 15.4625 22.1976 15.4249 22.1599L14.0418 20.7751C13.8462 20.5793 13.5288 20.5791 13.3329 20.7746C13.1371 20.9702 13.1369 21.2875 13.3325 21.4834L14.6442 22.7967C14.66 22.8198 14.6775 22.8422 14.6977 22.863L14.7535 22.9205C14.8254 23.0575 14.7809 23.2882 14.6432 23.43C14.4308 23.6488 14.1318 23.4559 13.9188 23.2559L13.3264 22.6983C13.1249 22.5085 12.8076 22.5181 12.6179 22.7196C12.4282 22.9212 12.4378 23.2384 12.6393 23.4282L13.0918 23.8541C13.0929 23.8551 13.0938 23.8563 13.0949 23.8573C13.1052 23.8669 13.1208 23.8815 13.1216 23.9321C13.1235 24.0495 13.0459 24.2106 12.9329 24.3237C12.768 24.4887 12.4938 24.4828 12.309 24.3103L11.813 23.8467L11.8736 23.7922C12.3655 23.3505 12.4448 22.6651 12.0666 22.1252C11.9436 21.9495 11.7895 21.813 11.6165 21.7183C11.8603 21.2376 11.7921 20.654 11.3988 20.2143C11.1768 19.9662 10.8634 19.7968 10.5135 19.7593C10.5035 19.6335 10.4759 19.5068 10.4288 19.3818C10.2585 18.931 9.88001 18.5992 9.43459 18.4843C9.45312 18.2846 9.42554 18.0784 9.3484 17.8779C9.13742 17.3298 8.60979 16.9615 8.03528 16.9615C7.65854 16.9615 7.28637 17.1151 6.95854 17.4059L5.67887 18.5434L5.39756 18.1581L9.21297 13.2712L10.9574 13.538L10.6935 13.7093C9.27996 14.6263 9.17649 15.6929 9.55104 16.3853C9.85079 16.9395 10.449 17.2563 11.0841 17.2563C11.3455 17.2563 11.6133 17.2026 11.8689 17.0896C11.8757 17.0866 11.8824 17.0835 11.889 17.0802L13.2104 16.425L13.9733 17.1196C13.9741 17.1203 13.9748 17.1208 13.9755 17.1214C13.9763 17.1221 13.9769 17.1228 13.9776 17.1235L17.5036 20.2593C17.8057 20.5279 17.9528 20.8256 17.8971 21.0554ZM17.8549 19.2303L14.646 16.3765L13.6321 15.4533C13.4794 15.3142 13.257 15.283 13.072 15.3748L11.4545 16.1768C11.015 16.3659 10.5827 16.186 10.4326 15.9085C10.2264 15.5272 10.5353 15.0067 11.239 14.5503L12.8138 13.5283C13.6677 12.9733 14.5634 12.9304 15.7887 13.0726L19.3367 17.6187C18.9623 18.2911 18.7634 18.5045 17.8549 19.2303ZM23.9938 15.2879C23.9792 15.4008 23.9212 15.501 23.8309 15.5699L21.1558 17.6066C21.0597 17.6801 20.9582 17.6955 20.8899 17.6955C20.7493 17.6955 20.6202 17.6336 20.5361 17.5261L16.4528 12.2941C16.3829 12.2046 16.3523 12.0934 16.3668 11.9808C16.3814 11.8676 16.4395 11.7669 16.5306 11.6975L19.2025 9.66074C19.2994 9.58723 19.4015 9.57177 19.4701 9.57177C19.6109 9.57177 19.7396 9.63345 19.8238 9.74155L23.9077 14.9726C23.9779 15.0628 24.0085 15.1747 23.9938 15.2879Z" fill="#033603"/>
<path d="M9.55905 10.1821C10.346 10.6067 11.2349 10.8311 12.1297 10.8311C15.1129 10.8311 17.54 8.40135 17.54 5.41481C17.54 3.33042 16.3231 1.40825 14.4403 0.517943C13.7149 0.174255 12.9376 0 12.1297 0C9.14723 0 6.72083 2.42908 6.72083 5.41481C6.72083 7.40617 7.80806 9.23271 9.55905 10.1821ZM12.1297 1.00239C12.7879 1.00239 13.4209 1.14419 14.0114 1.42391C15.5459 2.1495 16.5375 3.71606 16.5375 5.41481C16.5375 7.84866 14.5602 9.82873 12.1298 9.82873C11.4006 9.82873 10.6763 9.64583 10.036 9.3004C8.60945 8.52689 7.72327 7.03803 7.72327 5.41481C7.72327 2.98181 9.69996 1.00239 12.1297 1.00239Z" fill="#033603"/>
<path d="M2.28668 12.8188C2.37897 12.8925 2.48936 12.9282 2.599 12.9282C2.74622 12.9282 2.89209 12.8637 2.99105 12.7396L2.99672 12.7325C3.16938 12.5162 3.13394 12.2008 2.91759 12.0281C2.70124 11.8556 2.38583 11.8909 2.21322 12.1073L2.20755 12.1144C2.03489 12.3308 2.07033 12.6461 2.28668 12.8188Z" fill="#033603"/>
</svg>
