<svg width="22" height="22" viewBox="0 0 22 22" fill="none" xmlns="http://www.w3.org/2000/svg">
<path d="M16.8372 6.91082C16.9174 6.9435 17.0024 6.95983 17.0873 6.95983C17.1723 6.95983 17.2573 6.9435 17.3374 6.91082C17.4954 6.84644 21.2074 5.30286 21.2074 2.58357C21.2074 1.15897 20.0322 0 18.5877 0C18.0444 0 17.5227 0.165005 17.0873 0.465353C16.6519 0.165005 16.1302 0 15.587 0C14.1424 0 12.9672 1.15897 12.9672 2.58357C12.9672 5.30286 16.6792 6.84644 16.8372 6.91082ZM15.587 1.32567C15.973 1.32567 16.3362 1.49163 16.5833 1.78096C16.7092 1.9284 16.8934 2.01332 17.0873 2.01332C17.2813 2.01332 17.4654 1.9284 17.5914 1.78096C17.8385 1.49163 18.2016 1.32567 18.5877 1.32567C19.3012 1.32567 19.8818 1.88995 19.8818 2.58357C19.8818 3.96687 18.0562 5.1147 17.0918 5.57023C16.3676 5.21976 14.2929 4.08407 14.2929 2.58357C14.2929 1.88995 14.8734 1.32567 15.587 1.32567Z" fill="#033603"/>
<path d="M14.4316 7.29315C13.3451 5.79878 11.8597 4.75602 10.1168 4.26941C8.62964 3.85754 7.08751 3.87221 5.65719 4.31179C4.31839 4.72325 3.09922 5.49408 2.13156 6.54095C1.16701 7.58446 0.494897 8.85545 0.187879 10.2165C-0.138361 11.6629 -0.0383555 13.1772 0.477166 14.5962C1.41392 17.2332 3.70187 19.2037 6.44874 19.739C6.45082 19.7394 6.45285 19.7398 6.45492 19.7401C6.96364 19.8343 7.42423 19.8771 7.63688 19.8771C8.00293 19.8771 8.29972 19.5804 8.29972 19.2143C8.29972 18.8483 8.00293 18.5515 7.63688 18.5515C7.53687 18.5515 7.16216 18.5227 6.69897 18.4371C4.41077 17.99 2.50524 16.3477 1.72558 14.1502C1.725 14.1486 1.72442 14.147 1.72384 14.1453C0.872424 11.804 1.38877 9.29757 3.10506 7.44079C4.82745 5.57739 7.31631 4.86944 9.7616 5.54661C10.952 5.87894 12.0003 6.52587 12.8409 7.43897C9.68654 8.10003 7.31043 10.903 7.31043 14.2509C7.31043 18.0886 10.4326 21.2107 14.2702 21.2107C18.1079 21.2107 21.23 18.0886 21.23 14.2509C21.23 10.4672 18.195 7.37919 14.4316 7.29315ZM14.2703 19.885C13.2278 19.885 12.2508 19.6001 11.4125 19.1045C14.3508 17.693 16.192 14.5672 15.8989 11.2565C15.8723 10.9313 15.8082 10.4258 15.6542 9.8592L15.6512 9.84809C15.5676 9.50483 15.2275 9.28543 14.8776 9.35532C14.5187 9.42694 14.2857 9.77597 14.3572 10.135C14.3589 10.1432 14.3643 10.1677 14.3749 10.2069C14.5028 10.6773 14.5558 11.0972 14.5778 11.3667C14.5779 11.3683 14.5781 11.3698 14.5782 11.3714C14.8429 14.3531 13.0268 17.1556 10.2238 18.1669C9.24165 17.1523 8.63615 15.771 8.63615 14.2508C8.63615 11.1441 11.1636 8.61667 14.2703 8.61667C17.3769 8.61667 19.9044 11.1441 19.9044 14.2508C19.9044 17.3575 17.3769 19.885 14.2703 19.885ZM15.6522 9.85269C15.6548 9.86346 15.6564 9.87121 15.6573 9.87577C15.6557 9.86798 15.6541 9.86031 15.6522 9.85269Z" fill="#033603"/>
</svg>
