<svg width="25" height="25" viewBox="0 0 25 25" fill="none" xmlns="http://www.w3.org/2000/svg">
<path d="M24.8982 10.4668L20.7138 5.03119C20.5589 4.83016 20.2765 4.78057 20.0623 4.91675L17.3607 6.63489H13.8373C13.7917 6.63489 13.7463 6.64462 13.7024 6.6574L10.9705 7.4438L8.13582 6.66846L5.38142 4.91675C5.17085 4.78286 4.89352 4.82825 4.73693 5.02242L0.108747 10.7551C-0.0575736 10.9611 -0.0301078 11.2619 0.170545 11.4345L2.59631 13.5221L4.77259 16.4549C4.13611 17.1329 4.14851 18.2024 4.81074 18.8648C5.10428 19.1582 5.47755 19.3239 5.8615 19.3624C5.84815 19.4494 5.84128 19.5377 5.84128 19.6274C5.84128 20.0901 6.02152 20.5252 6.34863 20.8523C6.67594 21.1796 7.111 21.3598 7.57372 21.3598C7.58002 21.3598 7.58612 21.3594 7.59223 21.3592C7.59203 21.3711 7.59146 21.3827 7.59146 21.3945C7.59146 21.8572 7.77171 22.2923 8.09882 22.6196C8.42612 22.9467 8.86118 23.127 9.32391 23.127C9.41527 23.127 9.50568 23.1195 9.59437 23.1058C9.63194 23.4911 9.79807 23.8661 10.0926 24.1606C10.4302 24.4984 10.8738 24.6672 11.3175 24.6672C11.7611 24.6672 12.2048 24.4984 12.5426 24.1606L12.8075 23.8956L12.9187 23.9853C13.2536 24.3097 13.6885 24.4718 14.1234 24.4718C14.567 24.4718 15.0107 24.303 15.3483 23.9652C15.6929 23.6206 15.8617 23.1657 15.8547 22.7131C16.3071 22.7199 16.7622 22.5513 17.1068 22.2069C17.4511 21.8624 17.6199 21.4079 17.6132 20.9555C18.0845 20.9629 18.5316 20.7819 18.8652 20.4483C19.2099 20.1036 19.3787 19.6487 19.3716 19.1961C19.8244 19.203 20.2791 19.0344 20.6238 18.6897C21.212 18.1015 21.2877 17.1923 20.8515 16.5211L22.4405 13.1931L24.8295 11.1374C25.0269 10.9674 25.057 10.6729 24.8982 10.4668ZM5.22463 5.97896L7.20522 7.23838L2.89672 12.4874L1.17019 11.0014L5.22463 5.97896ZM5.50406 17.108L6.10182 16.5102C6.11994 16.4921 6.13902 16.4749 6.15847 16.4589C6.27539 16.3635 6.41692 16.3067 6.56683 16.2931C6.57103 16.2927 6.57542 16.2927 6.57961 16.2926C6.60098 16.2908 6.62234 16.2897 6.64389 16.2899C6.84874 16.2927 7.03909 16.3765 7.18024 16.5254C7.45718 16.8182 7.44231 17.2966 7.14705 17.5918L6.56741 18.1715C6.27425 18.4646 5.79722 18.4646 5.50406 18.1715C5.2109 17.8781 5.2109 17.4011 5.50406 17.108ZM7.04195 20.1589C6.89986 20.017 6.82166 19.8282 6.82166 19.6274C6.82166 19.4265 6.89986 19.2377 7.04195 19.0956L8.20105 17.9365C8.42307 17.7145 8.77211 17.6536 9.05592 17.7889C9.34851 17.9283 9.51311 18.2459 9.4702 18.5654C9.44731 18.7359 9.36797 18.8965 9.24628 19.0184L8.10549 20.1589C7.96339 20.301 7.77457 20.3792 7.57372 20.3792C7.37288 20.3792 7.18405 20.301 7.04195 20.1589ZM8.79214 21.9261C8.65004 21.7842 8.57184 21.5954 8.57184 21.3945C8.57184 21.1937 8.65004 21.0049 8.79214 20.8628L9.95104 19.7037C10.1885 19.4664 10.5694 19.4153 10.8601 19.5845C11.1256 19.7389 11.2646 20.0422 11.219 20.3443C11.1941 20.5105 11.1151 20.6667 10.9963 20.7855L9.85567 21.9261C9.71358 22.0682 9.52475 22.1464 9.32391 22.1464C9.12306 22.1464 8.93423 22.0682 8.79214 21.9261ZM10.7857 23.4672C10.4925 23.1741 10.4925 22.6971 10.7857 22.4039L11.3835 21.8061C11.4016 21.788 11.4205 21.771 11.4399 21.755C11.4405 21.7546 11.4409 21.7543 11.4413 21.7539C11.5385 21.6749 11.6528 21.6221 11.7747 21.599C11.7775 21.5986 11.7804 21.5982 11.7832 21.5978C11.8042 21.594 11.8256 21.591 11.8469 21.5891C11.8555 21.5883 11.8641 21.5883 11.8729 21.5877C11.8904 21.5868 11.9078 21.5856 11.9255 21.5858C12.1302 21.5887 12.3207 21.6722 12.4619 21.8214C12.4792 21.8397 12.4954 21.8588 12.5103 21.8784C12.7358 22.1731 12.7054 22.6108 12.4256 22.8908L11.849 23.4674C11.5559 23.7606 11.0789 23.7604 10.7857 23.4672ZM19.9305 17.9964C19.6373 18.2897 19.1603 18.2896 18.8671 17.9964C18.8564 17.9857 18.8452 17.9758 18.8337 17.9664L15.6817 14.7812C15.4911 14.5887 15.1808 14.5872 14.9883 14.7777C14.7959 14.9681 14.7944 15.2784 14.9847 15.4709L18.1709 18.6903C18.1713 18.6907 18.1717 18.691 18.1721 18.6914C18.4653 18.9846 18.4653 19.4618 18.1721 19.755C18.03 19.8971 17.8412 19.9753 17.6403 19.9753C17.4393 19.9753 17.2505 19.8971 17.1086 19.755L14.9771 17.6014C14.7867 17.4089 14.4764 17.4074 14.284 17.5978C14.0915 17.7883 14.09 18.0986 14.2803 18.2911L16.3792 20.4117C16.3899 20.425 16.4013 20.4378 16.4135 20.45C16.7067 20.7432 16.7067 21.2204 16.4135 21.5135C16.1202 21.8067 15.6429 21.8065 15.3498 21.5134L14.1865 20.3379C13.996 20.1454 13.6856 20.1437 13.4932 20.3342C13.3007 20.5246 13.2992 20.8349 13.4896 21.0274L14.6204 22.1699C14.6311 22.1832 14.6425 22.1962 14.6549 22.2084C14.9481 22.5015 14.9481 22.9788 14.6549 23.2719C14.3618 23.5653 13.8848 23.5651 13.5916 23.2719C13.5578 23.2382 13.5182 23.2122 13.4804 23.1832C13.4484 23.1588 13.44 23.1418 13.456 23.1029C13.4722 23.0635 13.4964 23.0278 13.5126 22.9881C13.5306 22.9439 13.5451 22.8983 13.5592 22.8525C13.6343 22.6103 13.6564 22.3497 13.6227 22.0983C13.5578 21.616 13.2925 21.1807 12.8905 20.9053C12.6732 20.7567 12.4218 20.6592 12.1613 20.6226C12.2875 20.0657 12.1359 19.4618 11.7415 19.0451C11.4168 18.7021 10.9783 18.5097 10.5067 18.5032C10.4895 18.503 10.4723 18.503 10.455 18.5032C10.4655 18.053 10.3018 17.6058 9.99148 17.2779C9.66666 16.935 9.22816 16.7425 8.75666 16.736C8.61647 16.7341 8.47495 16.749 8.33838 16.7805C8.28001 16.3744 8.07536 15.9986 7.76541 15.7299C7.45738 15.4632 7.06999 15.3152 6.65743 15.3095C6.22313 15.3032 5.79646 15.4634 5.47392 15.7547L3.57898 13.2013L8.11236 7.6784L9.55717 8.07361L7.67024 11.4033C7.44212 11.8059 7.38451 12.2732 7.50792 12.7191C7.63133 13.1653 7.92086 13.5364 8.3235 13.7646C8.34868 13.7789 8.37405 13.7924 8.3998 13.8054C8.4017 13.8063 8.40361 13.8073 8.40571 13.8082C8.47342 13.842 8.54304 13.871 8.61361 13.8954C8.94225 14.0093 9.2972 14.0217 9.63957 13.9271C10.0855 13.8037 10.4567 13.5139 10.6848 13.1115L11.911 10.9476L14.1005 11.1029L19.9307 16.9329C20.2236 17.2262 20.2236 17.7032 19.9305 17.9964ZM20.1336 15.7493L14.6643 10.2802C14.654 10.2697 14.6431 10.2598 14.6319 10.2505C14.5531 10.1848 14.4554 10.1452 14.3524 10.1379L11.6717 9.94777C11.4863 9.93499 11.302 10.0336 11.2105 10.1951L9.83183 12.6282C9.73284 12.8029 9.57167 12.9286 9.37807 12.9822C9.18467 13.0358 8.98173 13.0106 8.80682 12.9116C8.63211 12.8126 8.50642 12.6514 8.45282 12.4578C8.39922 12.2642 8.42421 12.0613 8.52339 11.8866L10.3638 8.63856L11.1096 8.42399C11.1145 8.42246 11.1193 8.42055 11.1243 8.41903L13.9076 7.61527H17.2707L21.4691 12.9524L20.1336 15.7493ZM22.1113 12.183L18.2287 7.24467L20.2103 5.98449L23.8382 10.697L22.1113 12.183Z" fill="#033603"/>
<path d="M15.1457 5.71436C15.2712 5.71436 15.3967 5.66649 15.4924 5.57074L18.841 2.2222C19.0325 2.0307 19.0325 1.72037 18.841 1.52888C18.6495 1.33738 18.3392 1.33738 18.1477 1.52888L14.7991 4.87742C14.6076 5.06891 14.6076 5.37924 14.7991 5.57074C14.8949 5.66649 15.0204 5.71436 15.1457 5.71436Z" fill="#033603"/>
<path d="M9.50756 5.57074C9.60331 5.66649 9.72882 5.71436 9.85432 5.71436C9.97963 5.71436 10.1051 5.66649 10.2009 5.57074C10.3924 5.37924 10.3924 5.06891 10.2009 4.87742L6.85234 1.52888C6.66084 1.33738 6.35052 1.33738 6.15902 1.52888C5.96752 1.72037 5.96752 2.0307 6.15902 2.2222L9.50756 5.57074Z" fill="#033603"/>
<path d="M12.5 5.71445C12.7706 5.71445 12.9901 5.49492 12.9901 5.22426V2.45308C12.9901 2.18243 12.7706 1.96289 12.5 1.96289C12.2293 1.96289 12.0098 2.18243 12.0098 2.45308V5.22426C12.0098 5.49492 12.2293 5.71445 12.5 5.71445Z" fill="#033603"/>
<path d="M12.0476 0.676341C12.1254 0.864978 12.3194 0.988765 12.524 0.978084C12.7262 0.967593 12.9038 0.831027 12.9663 0.638576C13.0291 0.444598 12.9608 0.223537 12.7983 0.0999407C12.6326 -0.0263257 12.4014 -0.0333829 12.228 0.0812487C12.0346 0.209041 11.9596 0.463481 12.0476 0.676341Z" fill="#033603"/>
</svg>
