<svg width="25" height="25" viewBox="0 0 25 25" fill="none" xmlns="http://www.w3.org/2000/svg">
<g clip-path="url(#clip0)">
<path d="M22.1673 12.7903C22.7192 12.7903 23.2512 12.9947 23.6653 13.3658C23.9007 13.5766 24.2379 13.6293 24.5264 13.5006C24.8149 13.3717 25.0007 13.0852 25.0007 12.7692V5.88537C25.0007 5.44304 24.642 5.08442 24.1997 5.08442H18.6922C18.8251 4.69121 18.8946 4.2759 18.8946 3.85321C18.8947 1.72856 17.1661 0.00012207 15.0416 0.00012207C12.917 0.00012207 11.1886 1.72856 11.1886 3.8531C11.1886 4.27558 11.258 4.69089 11.3913 5.08432H5.88601C5.44368 5.08432 5.08507 5.44293 5.08507 5.88526V11.3917C4.69121 11.258 4.27568 11.1883 3.85342 11.1883C1.7291 11.1883 0.000976562 12.917 0.000976562 15.0421C0.000976562 17.1676 1.72921 18.8968 3.85342 18.8968C4.27568 18.8968 4.69132 18.8271 5.08507 18.6935V24.1992C5.08507 24.6415 5.44368 25.0001 5.88601 25.0001H12.7681C12.7689 25.0002 12.7695 25.0002 12.7702 25.0001C13.2125 25.0001 13.5711 24.6415 13.5711 24.1992C13.5711 23.9782 13.4817 23.7781 13.337 23.6332C12.9842 23.2241 12.7905 22.705 12.7905 22.167C12.7905 20.9258 13.8003 19.916 15.0416 19.916C16.2835 19.916 17.2939 20.9259 17.2939 22.167C17.2939 22.7192 17.0898 23.2511 16.719 23.6643C16.5078 23.8995 16.4549 24.2369 16.5837 24.5256C16.7126 24.8143 16.999 25.0001 17.3151 25.0001H24.1998C24.6422 25.0001 25.0008 24.6415 25.0008 24.1992V17.3162C25.0008 17.0002 24.8149 16.7137 24.5265 16.5848C24.2379 16.4561 23.9006 16.5089 23.6654 16.7197C23.2514 17.0907 22.7193 17.295 22.1674 17.295C20.9263 17.295 19.9167 16.2844 19.9167 15.0422C19.9166 13.8004 20.9262 12.7903 22.1673 12.7903ZM22.1673 18.8968C22.5899 18.8968 23.0053 18.8273 23.3989 18.6938V23.3981H18.693C18.8263 23.0048 18.8958 22.5895 18.8958 22.1669C18.8958 20.0424 17.1669 18.314 15.0416 18.314C12.917 18.314 11.1886 20.0425 11.1886 22.1669C11.1886 22.5894 11.258 23.0047 11.3913 23.3981H6.68696V17.3161C6.68696 17.0003 6.50135 16.714 6.21312 16.5849C5.92478 16.4559 5.58774 16.5085 5.35226 16.7189C4.93662 17.0903 4.40437 17.2948 3.85342 17.2948C2.61238 17.2948 1.60287 16.2842 1.60287 15.042C1.60287 13.8003 2.61249 12.7901 3.85342 12.7901C4.40437 12.7901 4.93662 12.9947 5.35226 13.3662C5.58774 13.5766 5.92478 13.6291 6.21312 13.5001C6.50135 13.3711 6.68696 13.0848 6.68696 12.769V6.6861H12.7681C13.084 6.6861 13.3704 6.5005 13.4993 6.21216C13.6282 5.92371 13.5756 5.58656 13.365 5.35109C12.9946 4.93705 12.7906 4.40501 12.7906 3.853C12.7906 2.61174 13.8004 1.60191 15.0417 1.60191C16.2829 1.60191 17.2928 2.61174 17.2928 3.853C17.2928 4.40608 17.089 4.9379 16.719 5.35034C16.5079 5.5856 16.455 5.92296 16.5838 6.21162C16.7126 6.50028 16.9991 6.6861 17.3152 6.6861H23.399V11.3913C23.0054 11.2578 22.5899 11.1883 22.1674 11.1883C20.043 11.1883 18.3148 12.917 18.3148 15.0421C18.3147 17.1676 20.0429 18.8968 22.1673 18.8968Z" fill="#033603"/>
</g>
<defs>
<clipPath id="clip0">
<rect width="25" height="25" fill="white" transform="translate(0 0.00012207)"/>
</clipPath>
</defs>
</svg>
