<svg width="12" height="29" viewBox="0 0 12 29" fill="none" xmlns="http://www.w3.org/2000/svg">
<path d="M0.873842 23.3917C0.873842 24.7388 1.35494 25.8935 2.31714 26.8557C3.27934 27.8179 4.49813 28.299 5.9735 28.299C7.51302 28.299 8.76388 27.8179 9.72608 26.8557C10.6883 25.8935 11.1694 24.7388 11.1694 23.3917C11.1694 21.9484 10.6883 20.7457 9.72608 19.7835C8.76388 18.8213 7.52906 18.3402 6.02161 18.3402C4.51417 18.3402 3.27934 18.8213 2.31714 19.7835C1.35494 20.7457 0.873842 21.9484 0.873842 23.3917ZM0.873842 5.44672C0.873842 6.82587 1.35494 8.01259 2.31714 9.00686C3.27934 9.96906 4.49813 10.4502 5.9735 10.4502C7.51302 10.4502 8.76388 9.96906 9.72608 9.00686C10.6883 8.01259 11.1694 6.82587 11.1694 5.44672C11.1694 4.03549 10.6883 2.84878 9.72608 1.88658C8.76388 0.892305 7.52906 0.395168 6.02161 0.395168C4.51417 0.395168 3.27934 0.892305 2.31714 1.88658C1.35494 2.84878 0.873842 4.03549 0.873842 5.44672Z" fill="#dbf1dc"/>
</svg>
