<svg width="20" height="20" viewBox="0 0 20 20" fill="none" xmlns="http://www.w3.org/2000/svg">
<g clip-path="url(#clip0)">
<path d="M9.41138 16.4226C9.41153 16.4227 9.41169 16.4229 9.41185 16.423C9.4311 16.4422 9.45138 16.4605 9.47243 16.4778C9.48208 16.4857 9.49228 16.4926 9.5022 16.5C9.51403 16.5089 9.52563 16.5181 9.53794 16.5263C9.54981 16.5343 9.56212 16.5411 9.57431 16.5484C9.58548 16.5551 9.59638 16.5621 9.60786 16.5682C9.62028 16.5748 9.63306 16.5805 9.64575 16.5864C9.6577 16.5921 9.6695 16.5981 9.68177 16.6032C9.69407 16.6082 9.70665 16.6124 9.71915 16.6168C9.73231 16.6216 9.74528 16.6266 9.75872 16.6307C9.77122 16.6345 9.78392 16.6372 9.79657 16.6404C9.81028 16.6439 9.82384 16.6477 9.83782 16.6505C9.85247 16.6534 9.86724 16.6551 9.88196 16.6572C9.89411 16.6589 9.9061 16.6613 9.91841 16.6625C9.9731 16.6679 10.0282 16.6679 10.0829 16.6625C10.0952 16.6613 10.1072 16.6589 10.1193 16.6572C10.1341 16.6551 10.1488 16.6534 10.1635 16.6505C10.1775 16.6477 10.191 16.6439 10.2047 16.6404C10.2174 16.6372 10.2301 16.6345 10.2426 16.6307C10.256 16.6266 10.269 16.6216 10.2822 16.6168C10.2947 16.6123 10.3072 16.6082 10.3195 16.6032C10.3318 16.5981 10.3436 16.5921 10.3556 16.5864C10.3683 16.5805 10.381 16.5748 10.3934 16.5682C10.4049 16.5621 10.4158 16.555 10.427 16.5484C10.4392 16.5411 10.4515 16.5343 10.4634 16.5263C10.4757 16.5181 10.4873 16.5089 10.4991 16.5C10.509 16.4926 10.5192 16.4857 10.5289 16.4778C10.5499 16.4605 10.5702 16.4423 10.5895 16.423C10.5896 16.4229 10.5898 16.4227 10.5899 16.4226L16.4233 10.5893C16.7487 10.2638 16.7487 9.73617 16.4233 9.41074C16.0978 9.08531 15.5702 9.08531 15.2447 9.41074L10.834 13.8215V0.83332C10.834 0.373086 10.4609 0 10.0006 0C9.5404 0 9.16731 0.373086 9.16731 0.83332V13.8215L4.75657 9.41074C4.43114 9.08531 3.90349 9.08531 3.57806 9.41074C3.25263 9.73617 3.25263 10.2638 3.57806 10.5893L9.41138 16.4226Z" fill="#033603"/>
<path d="M15.8339 18.3333H4.1673C3.70707 18.3333 3.33398 18.7063 3.33398 19.1666C3.33398 19.6268 3.70707 19.9999 4.1673 19.9999H15.834C16.2942 19.9999 16.6673 19.6268 16.6673 19.1666C16.6673 18.7064 16.2942 18.3333 15.8339 18.3333Z" fill="#033603"/>
</g>
<defs>
<clipPath id="clip0">
<rect width="20" height="20" fill="white"/>
</clipPath>
</defs>
</svg>
