<svg width="200" height="200" viewBox="0 0 200 200" fill="none" xmlns="http://www.w3.org/2000/svg">
<circle cx="100" cy="100" r="100" fill="#DBF1DC" fill-opacity="0.5"/>
<g clip-path="url(#clip0)">
<path d="M144.663 44L130.176 111.243L144.663 164H150.095C151.095 164 151.906 163.189 151.906 162.189V45.8109C151.906 44.8108 151.095 44 150.095 44H144.663Z" fill="#033603"/>
<path d="M137.424 44L122.938 111.243L137.424 164H144.668V44H137.424Z" fill="#0336037"/>
<path d="M53.6445 131.404V162.189C53.6445 163.189 54.4553 164 55.4554 164H137.427V131.404H53.6445Z" fill="#033603"/>
<path d="M108.449 107.26L53.6406 131.405H33.9024C32.7712 131.405 31.8991 132.434 32.1205 133.544C33.1138 138.52 37.5067 142.27 42.7754 142.27H119.315L108.449 107.26Z" fill="#033603"/>
<path d="M108.453 107.26V131.405C108.453 137.406 113.318 142.27 119.318 142.27H126.562V107.26H108.453Z" fill="#033603"/>
<path d="M130.181 44L122.938 141.649C124.071 142.049 125.289 142.27 126.559 142.27C132.56 142.27 137.424 137.405 137.424 131.404V44H130.181Z" fill="#033603"/>
<path d="M130.184 131.404V44H55.4554C54.4553 44 53.6445 44.8108 53.6445 45.8109V131.404H114.017C114.92 131.404 115.68 132.071 115.808 132.964C116.389 137.004 119.193 140.324 122.941 141.649C127.16 140.157 130.184 136.135 130.184 131.404Z" fill="#DBF2DC"/>
<g clip-path="url(#clip1)">
<path d="M86.4482 67.7891L82.5039 74.0999L95.0001 87.7903L107.496 74.1L103.552 67.7891H86.4482V67.7891ZM97.6131 74.879L95.0001 83.4671L92.3871 74.879H97.6131ZM92.9064 73.1212L95.0001 70.1826L97.0939 73.1212H92.9064ZM96.7056 69.5469H101.236L98.8399 72.5424L96.7056 69.5469ZM91.1604 72.5424L88.764 69.5469H93.2948L91.1604 72.5424ZM89.3724 73.1212H85.1886L87.0235 70.1851L89.3724 73.1212ZM90.5497 74.879L93.0271 83.0212L85.595 74.879H90.5497ZM99.4506 74.879H104.405L96.9732 83.0212L99.4506 74.879ZM100.628 73.1212L102.977 70.1851L104.812 73.1212H100.628Z" fill="#033603"/>
<path d="M94.1211 60.2104H95.8789V64.9882H94.1211V60.2104Z" fill="#033603"/>
<path d="M104.211 65.8374L107.23 62.0653L108.602 63.1639L105.584 66.936L104.211 65.8374Z" fill="#033603"/>
<path d="M99.4727 63.2236H101.23V64.9881H99.4727V63.2236Z" fill="#033603"/>
<path d="M108.234 68.9199H109.999V70.6777H108.234V68.9199Z" fill="#033603"/>
<path d="M81.4102 63.165L82.783 62.0664L85.8016 65.8385L84.4288 66.9371L81.4102 63.165Z" fill="#033603"/>
<path d="M88.7695 63.2236H90.5273V64.9881H88.7695V63.2236Z" fill="#033603"/>
<path d="M80 68.9199H81.7645V70.6777H80V68.9199Z" fill="#033603"/>
</g>
<path d="M119.318 99.3786H71.7523C70.7519 99.3786 69.9414 98.5678 69.9414 97.5677C69.9414 96.5676 70.7519 95.7568 71.7523 95.7568H119.318C120.318 95.7568 121.128 96.5676 121.128 97.5677C121.128 98.5678 120.318 99.3786 119.318 99.3786Z" fill="#033603"/>
<path d="M108.526 111.243H71.3565C70.5748 111.243 69.9414 110.433 69.9414 109.432C69.9414 108.432 70.5748 107.622 71.3565 107.622H108.526C109.308 107.622 109.941 108.432 109.941 109.432C109.941 110.433 109.308 111.243 108.526 111.243Z" fill="#033603"/>
</g>
<defs>
<clipPath id="clip0">
<rect width="120" height="120" fill="white" transform="translate(32 44)"/>
</clipPath>
<clipPath id="clip1">
<rect width="30" height="30" fill="white" transform="translate(80 59)"/>
</clipPath>
</defs>
</svg>
