<svg width="17" height="16" viewBox="0 0 17 16" fill="none" xmlns="http://www.w3.org/2000/svg">
<g clip-path="url(#clip0)">
<path d="M14.9368 1.90625H1.73935C0.964323 1.90625 0.332031 2.53737 0.332031 3.3125V12.6875C0.332031 13.46 0.961508 14.0938 1.73935 14.0938H14.9368C15.7099 14.0938 16.3442 13.4648 16.3442 12.6875V3.3125C16.3442 2.54 15.7147 1.90625 14.9368 1.90625ZM14.7425 2.84375L8.36793 9.21353L1.93822 2.84375H14.7425ZM1.27024 12.4934V3.50216L5.78863 7.97841L1.27024 12.4934ZM1.93365 13.1562L6.45489 8.63844L8.03912 10.2079C8.22251 10.3896 8.51845 10.389 8.70109 10.2064L10.2458 8.66291L14.7425 13.1562H1.93365ZM15.406 12.4933L10.9092 8L15.406 3.50662V12.4933Z" fill="white"/>
</g>
<defs>
<clipPath id="clip0">
<rect width="16.0121" height="16" fill="white" transform="translate(0.332031)"/>
</clipPath>
</defs>
</svg>
