<svg width="32" height="32" viewBox="0 0 32 32" fill="none" xmlns="http://www.w3.org/2000/svg">
<path d="M27.3414 0.827616C26.8058 0.580942 26.1748 0.676854 25.7366 1.07144L23.657 2.91288L20.8276 0.381925C20.2591 -0.127308 19.3985 -0.127308 18.8301 0.381925L16.003 2.91048L13.1752 0.381925C12.6066 -0.127308 11.746 -0.127308 11.1774 0.381925L8.3472 2.91288L6.2656 1.07152C5.65138 0.525568 4.71083 0.580942 4.16488 1.19515C3.92045 1.47015 3.78655 1.826 3.7891 2.19391V29.8061C3.78423 30.6291 4.44745 31.3001 5.27043 31.305C5.63842 31.3072 5.99427 31.1731 6.26934 30.9286L8.349 29.0871L11.1784 31.6181C11.7469 32.1273 12.6075 32.1273 13.1759 31.6181L16.003 29.0892L18.8305 31.6178C19.3991 32.1269 20.2598 32.1269 20.8284 31.6178L23.6586 29.0869L25.7402 30.9283C26.3543 31.4744 27.2948 31.4192 27.8409 30.8051C28.0855 30.53 28.2194 30.1739 28.2169 29.8058V2.19391C28.2243 1.60443 27.88 1.06717 27.3414 0.827616ZM24.6483 27.9644C24.0798 27.4608 23.2241 27.4631 22.6583 27.9697L19.8289 30.5006L17.0018 27.9721C16.4332 27.4628 15.5726 27.4628 15.0041 27.9721L12.1766 30.5006L9.34604 27.9697C8.78241 27.4631 7.92818 27.4608 7.36177 27.9644L5.28774 29.8053V25.8111L5.28024 2.19429L7.35765 4.03527C7.92616 4.53889 8.78188 4.53664 9.34769 4.02995L12.177 1.49908L15.0042 4.02763C15.5727 4.53686 16.4334 4.53686 17.0019 4.02763L19.8294 1.49908L22.6599 4.02995C23.2236 4.53656 24.0778 4.53889 24.6442 4.03535L26.7182 2.19391V21.1749L26.7257 29.8054L24.6483 27.9644Z" fill="black"/>
<path d="M23.0999 15.2505H8.89385C8.48 15.2505 8.14453 15.586 8.14453 15.9998C8.14453 16.4136 8.48 16.7491 8.89385 16.7491H23.0999C23.5138 16.7491 23.8493 16.4136 23.8493 15.9998C23.8493 15.586 23.5137 15.2505 23.0999 15.2505Z" fill="black"/>
<path d="M16.356 10.7549H8.89385C8.48 10.7549 8.14453 11.0904 8.14453 11.5042C8.14453 11.918 8.48 12.2535 8.89385 12.2535H16.356C16.7699 12.2535 17.1054 11.918 17.1054 11.5042C17.1054 11.0904 16.7698 10.7549 16.356 10.7549Z" fill="black"/>
<path d="M23.0999 19.7461H8.89385C8.48 19.7461 8.14453 20.0816 8.14453 20.4954C8.14453 20.9092 8.48 21.2447 8.89385 21.2447H23.0999C23.5138 21.2447 23.8493 20.9092 23.8493 20.4954C23.8493 20.0816 23.5137 19.7461 23.0999 19.7461Z" fill="black"/>
</svg>
