<svg width="24" height="24" viewBox="0 0 24 24" fill="none" xmlns="http://www.w3.org/2000/svg">
<path d="M12 0C5.3832 0 0 5.38313 0 12C0 18.6167 5.3832 24 12 24C18.6168 24 24 18.6167 24 12C24 5.38313 18.6168 0 12 0ZM12 21.8182C6.58625 21.8182 2.18182 17.4137 2.18182 12C2.18182 6.58625 6.58625 2.18182 12 2.18182C17.4137 2.18182 21.8182 6.58625 21.8182 12C21.8182 17.4137 17.4137 21.8182 12 21.8182Z" fill="black"/>
<path d="M15.3924 9.2453L13.0892 11.5483V5.45468C13.0892 4.85213 12.6008 4.36377 11.9983 4.36377C11.3958 4.36377 10.9074 4.85213 10.9074 5.45468V11.5483L8.60448 9.2453C8.17851 8.81933 7.48775 8.81933 7.06171 9.2453C6.63568 9.67141 6.63568 10.362 7.06171 10.7881L11.2269 14.9532C11.4399 15.1663 11.7191 15.2729 11.9982 15.2729C12.2774 15.2729 12.5566 15.1663 12.7696 14.9534L16.9351 10.7882C17.3611 10.3622 17.3611 9.67148 16.9352 9.2453C16.5091 8.81933 15.8184 8.81933 15.3924 9.2453Z" fill="black"/>
<path d="M14.1811 17.4546H9.81747C9.215 17.4546 8.72656 17.943 8.72656 18.5455C8.72656 19.1479 9.215 19.6364 9.81747 19.6364H14.1811C14.7836 19.6364 15.272 19.1479 15.272 18.5455C15.272 17.943 14.7836 17.4546 14.1811 17.4546Z" fill="black"/>
</svg>
