<svg width="181" height="44" viewBox="0 0 181 44" fill="none" xmlns="http://www.w3.org/2000/svg">
<path d="M46.1805 12.5467L44.1069 14.2359V17.9379C44.1069 18.147 44.1541 18.3088 44.2485 18.4234C44.3497 18.5313 44.5183 18.6156 44.7543 18.6763V19H40.4453V18.6763C40.6881 18.6089 40.8567 18.5212 40.9511 18.4133C41.0455 18.3054 41.0927 18.147 41.0927 17.9379V6.24503C41.0927 6.04273 41.0455 5.88763 40.9511 5.77974C40.8567 5.67185 40.6881 5.58419 40.4453 5.51675V5.19307H44.7543V5.51675C44.5115 5.57744 44.3429 5.66511 44.2485 5.77974C44.1541 5.88763 44.1069 6.04273 44.1069 6.24503V11.08L49.7915 6.43721C50.0545 6.22143 50.186 6.04947 50.186 5.92135C50.186 5.7258 49.9905 5.59093 49.5994 5.51675V5.19307H55.2435V5.51675C55.0075 5.56396 54.8389 5.6179 54.7378 5.67859C54.6366 5.73928 54.3433 5.96855 53.8578 6.36641L53.0789 7.01377L48.3856 10.7866L53.706 17.1894C54.1983 17.7828 54.5523 18.1672 54.7681 18.3425C54.9906 18.5111 55.2671 18.6224 55.5975 18.6763V19H50.2063V18.6763C50.5636 18.6021 50.7423 18.474 50.7423 18.292C50.7423 18.1975 50.5805 17.948 50.2568 17.5434L46.1805 12.5467ZM74.0157 8.70297V14.7011C74.0157 16.07 73.7459 17.0748 73.2065 17.7154C72.3366 18.7336 70.698 19.2428 68.2906 19.2428C66.6789 19.2428 65.3775 18.9966 64.3862 18.5044C63.6714 18.147 63.1825 17.6379 62.9195 16.977C62.6768 16.3701 62.5554 15.6115 62.5554 14.7011V8.70297C62.5554 8.49392 62.5082 8.33546 62.4138 8.22756C62.3194 8.11967 62.1508 8.02864 61.9081 7.95446V7.67124H65.9237V7.95446C65.6742 8.02189 65.5022 8.11293 65.4078 8.22756C65.3134 8.33546 65.2662 8.49392 65.2662 8.70297V14.1549C65.2662 14.7888 65.3202 15.2743 65.4281 15.6115C65.5427 15.9487 65.7383 16.2251 66.0147 16.4409C66.5677 16.8792 67.3668 17.0984 68.412 17.0984C69.4572 17.0984 70.2563 16.8792 70.8092 16.4409C71.079 16.2251 71.2678 15.9487 71.3757 15.6115C71.4836 15.2743 71.5375 14.7888 71.5375 14.1549V8.70297C71.5375 8.49392 71.4903 8.33546 71.3959 8.22756C71.3082 8.11967 71.1396 8.02864 70.8901 7.95446V7.67124H74.663V7.95446C74.4203 8.02189 74.2517 8.11293 74.1573 8.22756C74.0629 8.33546 74.0157 8.49392 74.0157 8.70297ZM87.8214 13.8313L86.2131 15.1462V17.9683C86.2131 18.1773 86.2603 18.3392 86.3547 18.4538C86.4491 18.5617 86.6177 18.6527 86.8605 18.7269V19H82.8549V18.7168C83.0909 18.6561 83.2562 18.5684 83.3506 18.4538C83.4517 18.3392 83.5023 18.1773 83.5023 17.9683V8.70297C83.5023 8.49392 83.4551 8.33546 83.3607 8.22756C83.2663 8.11967 83.0977 8.02864 82.8549 7.95446V7.67124H86.8605V7.95446C86.6177 8.02189 86.4491 8.11293 86.3547 8.22756C86.2603 8.33546 86.2131 8.49392 86.2131 8.70297V12.4152L90.4715 9.01653C90.7884 8.76703 90.9469 8.54787 90.9469 8.35906C90.9469 8.15676 90.7513 8.02189 90.3602 7.95446V7.67124H95.4582V7.94434C95.2019 7.9848 94.9861 8.06235 94.8108 8.17699C94.6422 8.29162 94.2174 8.64565 93.5363 9.23906L89.7129 12.2837L93.9207 17.1186C94.4602 17.7457 94.8445 18.1537 95.0738 18.3425C95.3098 18.5313 95.5796 18.6595 95.883 18.7269V19H90.9267V18.7269C91.2976 18.6392 91.483 18.5044 91.483 18.3223C91.483 18.2549 91.4594 18.1908 91.4122 18.1301C91.3717 18.0627 91.2166 17.8739 90.9469 17.5637L87.8214 13.8313ZM112.673 16.1678H107.463L106.877 17.4018C106.735 17.6985 106.664 17.9312 106.664 18.0998C106.664 18.4234 106.88 18.6291 107.312 18.7168V19H103.144V18.7168C103.401 18.6763 103.589 18.5988 103.711 18.4841C103.839 18.3695 103.987 18.1436 104.156 17.8064L108.293 9.43124C108.448 9.11431 108.525 8.83783 108.525 8.60182C108.525 8.32534 108.337 8.10956 107.959 7.95446V7.67124H112.359V7.95446C111.988 8.10281 111.803 8.33208 111.803 8.64228C111.803 8.86481 111.887 9.13791 112.056 9.46159L116.344 17.5839C116.58 18.029 116.766 18.3189 116.901 18.4538C117.036 18.5819 117.241 18.6729 117.518 18.7269V19H112.895V18.7269C113.333 18.6527 113.553 18.447 113.553 18.1099C113.553 17.9008 113.468 17.6412 113.3 17.331L112.673 16.1678ZM111.853 14.5798L110.002 10.9485L108.242 14.5798H111.853ZM125.538 17.9683V8.70297C125.538 8.49392 125.49 8.33546 125.396 8.22756C125.302 8.11967 125.133 8.02864 124.89 7.95446V7.67124H131.536C132.918 7.67124 134.007 7.84319 134.803 8.1871C135.922 8.67262 136.728 9.47508 137.22 10.5945C137.564 11.3767 137.736 12.2904 137.736 13.3356C137.736 15.2709 137.16 16.7376 136.007 17.7356C135.487 18.1807 134.874 18.5044 134.166 18.7067C133.464 18.9022 132.588 19 131.536 19H124.89V18.7168C125.126 18.6561 125.292 18.5684 125.386 18.4538C125.487 18.3392 125.538 18.1773 125.538 17.9683ZM128.248 16.9467H131.141C132.47 16.9467 133.434 16.6432 134.034 16.0363C134.661 15.4024 134.975 14.5022 134.975 13.3356C134.975 12.169 134.661 11.2688 134.034 10.6349C133.724 10.318 133.34 10.0887 132.881 9.94711C132.423 9.79875 131.843 9.72458 131.141 9.72458H128.248V16.9467ZM149.256 8.70297V17.9683C149.256 18.1773 149.303 18.3392 149.398 18.4538C149.492 18.5617 149.661 18.6527 149.903 18.7269V19H145.898V18.7168C146.134 18.6561 146.299 18.5684 146.393 18.4538C146.495 18.3392 146.545 18.1773 146.545 17.9683V8.70297C146.545 8.49392 146.498 8.33546 146.404 8.22756C146.309 8.11967 146.141 8.02864 145.898 7.95446V7.67124H149.903V7.95446C149.661 8.02189 149.492 8.11293 149.398 8.22756C149.303 8.33546 149.256 8.49392 149.256 8.70297ZM166.916 16.1678H161.706L161.12 17.4018C160.978 17.6985 160.907 17.9312 160.907 18.0998C160.907 18.4234 161.123 18.6291 161.555 18.7168V19H157.387V18.7168C157.643 18.6763 157.832 18.5988 157.954 18.4841C158.082 18.3695 158.23 18.1436 158.399 17.8064L162.536 9.43124C162.691 9.11431 162.768 8.83783 162.768 8.60182C162.768 8.32534 162.58 8.10956 162.202 7.95446V7.67124H166.602V7.95446C166.231 8.10281 166.046 8.33208 166.046 8.64228C166.046 8.86481 166.13 9.13791 166.299 9.46159L170.587 17.5839C170.823 18.029 171.009 18.3189 171.144 18.4538C171.278 18.5819 171.484 18.6729 171.761 18.7269V19H167.138V18.7269C167.576 18.6527 167.796 18.447 167.796 18.1099C167.796 17.9008 167.711 17.6412 167.543 17.331L166.916 16.1678ZM166.096 14.5798L164.245 10.9485L162.485 14.5798H166.096Z" fill="#0F4828"/>
<path d="M41.9828 34.1121H46.896C47.017 34.1121 47.1087 34.0848 47.1712 34.0301C47.2337 33.9754 47.2844 33.8778 47.3235 33.7373H47.5108V35.8045H47.3235C47.2844 35.6639 47.2337 35.5663 47.1712 35.5117C47.1087 35.457 47.017 35.4297 46.896 35.4297H39.8629V35.2423C40.0034 35.2033 40.101 35.1525 40.1557 35.09C40.2103 35.0276 40.2377 34.9358 40.2377 34.8148V28.0511C40.2377 27.9301 40.2103 27.8383 40.1557 27.7759C40.101 27.7134 40.0034 27.6626 39.8629 27.6236V27.4362H42.3575V27.6236C42.217 27.6587 42.1194 27.7095 42.0647 27.7759C42.0101 27.8383 41.9828 27.9301 41.9828 28.0511V34.1121ZM53.57 29.4682V34.8324C53.57 34.9534 53.5973 35.0471 53.6519 35.1135C53.7066 35.1759 53.8042 35.2286 53.9447 35.2716V35.4297H51.6258V35.2657C51.7624 35.2306 51.8581 35.1798 51.9127 35.1135C51.9713 35.0471 52.0005 34.9534 52.0005 34.8324V29.4682C52.0005 29.3472 51.9732 29.2555 51.9186 29.193C51.8639 29.1306 51.7663 29.0778 51.6258 29.0349V28.8709H53.9447V29.0349C53.8042 29.0739 53.7066 29.1266 53.6519 29.193C53.5973 29.2555 53.57 29.3472 53.57 29.4682ZM60.4665 32.6422V34.8324C60.4665 34.9534 60.4938 35.0471 60.5485 35.1135C60.6031 35.1759 60.7007 35.2286 60.8413 35.2716V35.4297H58.5223V35.2657C58.6589 35.2306 58.7546 35.1798 58.8092 35.1135C58.8678 35.0471 58.8971 34.9534 58.8971 34.8324V29.4682C58.8971 29.3472 58.8697 29.2555 58.8151 29.193C58.7604 29.1306 58.6628 29.0778 58.5223 29.0349V28.8709H64.4017C64.5267 28.8709 64.6204 28.8436 64.6828 28.7889C64.7492 28.7343 64.8019 28.6367 64.8409 28.4961H64.9991V30.4403H64.8409C64.8019 30.2998 64.7492 30.2022 64.6828 30.1475C64.6204 30.089 64.5267 30.0597 64.4017 30.0597H60.4665V31.5003H62.9377C63.0627 31.5003 63.1564 31.473 63.2188 31.4183C63.2813 31.3637 63.334 31.266 63.3769 31.1255H63.5351V33.0229H63.3769C63.3379 32.8823 63.2852 32.7847 63.2188 32.7301C63.1564 32.6715 63.0627 32.6422 62.9377 32.6422H60.4665ZM71.1929 32.6422V34.2409H75.3565C75.4775 34.2409 75.5693 34.2136 75.6317 34.1589C75.6981 34.1043 75.7508 34.0047 75.7899 33.8603H75.9538V35.8045H75.7899C75.7547 35.6678 75.704 35.5702 75.6376 35.5117C75.5712 35.457 75.4775 35.4297 75.3565 35.4297H69.2487V35.2657C69.3853 35.2306 69.481 35.1798 69.5356 35.1135C69.5942 35.0471 69.6235 34.9534 69.6235 34.8324V29.4682C69.6235 29.3472 69.5961 29.2555 69.5415 29.193C69.4868 29.1306 69.3892 29.0778 69.2487 29.0349V28.8709H75.175C75.2999 28.8709 75.3936 28.8436 75.4561 28.7889C75.5224 28.7343 75.5751 28.6367 75.6142 28.4961H75.7723V30.4403H75.6142C75.5751 30.2959 75.5224 30.1963 75.4561 30.1417C75.3936 30.087 75.2999 30.0597 75.175 30.0597H71.1929V31.5003H73.6641C73.7851 31.5003 73.8769 31.473 73.9393 31.4183C74.0057 31.3637 74.0604 31.266 74.1033 31.1255H74.2614V33.0229H74.1033C74.0643 32.8823 74.0116 32.7847 73.9452 32.7301C73.8827 32.6715 73.789 32.6422 73.6641 32.6422H71.1929ZM86.6685 29.4624L85.8779 30.9908L85.7374 30.9147C85.7374 30.7859 85.6964 30.6844 85.6144 30.6102C85.3919 30.4111 85.0639 30.2471 84.6306 30.1183C84.1972 29.9894 83.758 29.925 83.313 29.925C82.9343 29.925 82.5985 29.9777 82.3057 30.0831C81.8841 30.2354 81.6733 30.456 81.6733 30.7449C81.6733 30.9362 81.7748 31.0728 81.9778 31.1548C82.1808 31.2329 82.5732 31.2953 83.1549 31.3422L84.0801 31.4125C84.8882 31.4749 85.5031 31.6311 85.9248 31.8809C86.159 32.0215 86.3523 32.2089 86.5045 32.4431C86.6958 32.7359 86.7915 33.0658 86.7915 33.4328C86.7915 34.1004 86.4909 34.6274 85.8896 35.0139C85.3157 35.3848 84.5388 35.5702 83.5589 35.5702C82.5712 35.5702 81.6167 35.3614 80.6953 34.9436C80.6329 34.9163 80.5802 34.9026 80.5372 34.9026C80.4591 34.9026 80.3869 34.9495 80.3205 35.0432L80.1741 34.9846L80.8476 33.3801L80.994 33.4386C80.994 33.4621 80.994 33.4777 80.994 33.4855C80.994 33.587 81.033 33.6729 81.1111 33.7432C81.3063 33.9149 81.644 34.0652 82.1242 34.1941C82.6044 34.319 83.0787 34.3815 83.5472 34.3815C83.961 34.3815 84.3319 34.3268 84.6599 34.2175C85.0659 34.0848 85.2689 33.87 85.2689 33.5733C85.2689 33.3352 85.1283 33.1693 84.8473 33.0756C84.6599 33.0131 84.3222 32.9604 83.8342 32.9175L82.9148 32.8413C82.419 32.8023 82.0403 32.7515 81.7787 32.6891C81.5171 32.6266 81.2887 32.5349 81.0935 32.4138C80.8437 32.2577 80.6485 32.0449 80.5079 31.7755C80.3674 31.5061 80.2971 31.2114 80.2971 30.8913C80.2971 30.1729 80.6055 29.6244 81.2224 29.2457C81.7846 28.9022 82.4795 28.7304 83.3071 28.7304C83.7561 28.7304 84.1738 28.7811 84.5603 28.8826C84.9507 28.9802 85.4153 29.154 85.954 29.4038C86.1141 29.478 86.2254 29.5151 86.2878 29.5151C86.3503 29.5151 86.4303 29.4722 86.5279 29.3863L86.6685 29.4624ZM94.8943 30.0597V34.8324C94.8943 34.9534 94.9217 35.0471 94.9763 35.1135C95.031 35.1759 95.1286 35.2286 95.2691 35.2716V35.4297H92.9501V35.2657C93.0868 35.2306 93.1824 35.1798 93.2371 35.1135C93.2956 35.0471 93.3249 34.9534 93.3249 34.8324V30.0597H91.3924C91.2675 30.0597 91.1718 30.089 91.1055 30.1475C91.043 30.2022 90.9923 30.2998 90.9532 30.4403H90.7951V28.4961H90.9591C90.9942 28.6328 91.043 28.7304 91.1055 28.7889C91.1718 28.8436 91.2675 28.8709 91.3924 28.8709H96.8268C96.9517 28.8709 97.0454 28.8436 97.1079 28.7889C97.1743 28.7343 97.227 28.6367 97.266 28.4961H97.4241V30.4403H97.266C97.227 30.2998 97.1743 30.2022 97.1079 30.1475C97.0454 30.089 96.9517 30.0597 96.8268 30.0597H94.8943ZM105.322 32.5544V34.8324C105.322 34.9534 105.349 35.0471 105.404 35.1135C105.459 35.1759 105.556 35.2286 105.697 35.2716V35.4297H103.378V35.2716C103.518 35.2325 103.616 35.1818 103.671 35.1193C103.725 35.0529 103.753 34.9573 103.753 34.8324V32.5544L101.808 29.8782C101.59 29.5776 101.414 29.3726 101.281 29.2633C101.153 29.1501 100.998 29.0739 100.819 29.0349V28.8709H103.77V29.0349C103.516 29.1013 103.39 29.2203 103.39 29.3921C103.39 29.478 103.481 29.6498 103.665 29.9075L104.619 31.2309L105.55 29.9075C105.734 29.6459 105.826 29.4722 105.826 29.3863C105.826 29.2223 105.701 29.1052 105.451 29.0349L105.445 28.8709H108.256V29.0349C108.076 29.0739 107.92 29.1501 107.787 29.2633C107.659 29.3726 107.485 29.5776 107.266 29.8782L105.322 32.5544ZM114.251 34.2409H117.922C118.047 34.2409 118.141 34.2136 118.203 34.1589C118.266 34.1043 118.319 34.0047 118.362 33.8603H118.52V35.8045H118.362C118.323 35.6639 118.27 35.5663 118.203 35.5117C118.141 35.457 118.047 35.4297 117.922 35.4297H112.306V35.2657C112.443 35.2306 112.539 35.1798 112.593 35.1135C112.652 35.0471 112.681 34.9534 112.681 34.8324V29.4682C112.681 29.3472 112.654 29.2555 112.599 29.193C112.545 29.1306 112.447 29.0778 112.306 29.0349V28.8709H114.625V29.0349C114.485 29.0739 114.387 29.1266 114.333 29.193C114.278 29.2555 114.251 29.3472 114.251 29.4682V34.2409ZM124.555 32.6422V34.2409H128.719C128.84 34.2409 128.932 34.2136 128.994 34.1589C129.061 34.1043 129.113 34.0047 129.152 33.8603H129.316V35.8045H129.152C129.117 35.6678 129.066 35.5702 129 35.5117C128.934 35.457 128.84 35.4297 128.719 35.4297H122.611V35.2657C122.748 35.2306 122.843 35.1798 122.898 35.1135C122.957 35.0471 122.986 34.9534 122.986 34.8324V29.4682C122.986 29.3472 122.959 29.2555 122.904 29.193C122.849 29.1306 122.752 29.0778 122.611 29.0349V28.8709H128.537C128.662 28.8709 128.756 28.8436 128.819 28.7889C128.885 28.7343 128.938 28.6367 128.977 28.4961H129.135V30.4403H128.977C128.938 30.2959 128.885 30.1963 128.819 30.1417C128.756 30.087 128.662 30.0597 128.537 30.0597H124.555V31.5003H127.027C127.148 31.5003 127.239 31.473 127.302 31.4183C127.368 31.3637 127.423 31.266 127.466 31.1255H127.624V33.0229H127.466C127.427 32.8823 127.374 32.7847 127.308 32.7301C127.245 32.6715 127.152 32.6422 127.027 32.6422H124.555ZM142.407 34.1121H147.32C147.441 34.1121 147.533 34.0848 147.595 34.0301C147.658 33.9754 147.708 33.8778 147.747 33.7373H147.935V35.8045H147.747C147.708 35.6639 147.658 35.5663 147.595 35.5117C147.533 35.457 147.441 35.4297 147.32 35.4297H140.287V35.2423C140.427 35.2033 140.525 35.1525 140.58 35.09C140.634 35.0276 140.662 34.9358 140.662 34.8148V28.0511C140.662 27.9301 140.634 27.8383 140.58 27.7759C140.525 27.7134 140.427 27.6626 140.287 27.6236V27.4362H142.781V27.6236C142.641 27.6587 142.543 27.7095 142.489 27.7759C142.434 27.8383 142.407 27.9301 142.407 28.0511V34.1121ZM154.316 34.1121H159.229C159.35 34.1121 159.442 34.0848 159.504 34.0301C159.567 33.9754 159.618 33.8778 159.657 33.7373H159.844V35.8045H159.657C159.618 35.6639 159.567 35.5663 159.504 35.5117C159.442 35.457 159.35 35.4297 159.229 35.4297H152.196V35.2423C152.337 35.2033 152.434 35.1525 152.489 35.09C152.544 35.0276 152.571 34.9358 152.571 34.8148V28.0511C152.571 27.9301 152.544 27.8383 152.489 27.7759C152.434 27.7134 152.337 27.6626 152.196 27.6236V27.4362H154.691V27.6236C154.55 27.6587 154.453 27.7095 154.398 27.7759C154.343 27.8383 154.316 27.9301 154.316 28.0511V34.1121ZM166.225 32.1854V34.8207C166.225 34.9378 166.253 35.0295 166.307 35.0959C166.366 35.1584 166.463 35.2072 166.6 35.2423V35.4297H164.105V35.2423C164.246 35.2033 164.344 35.1525 164.398 35.09C164.453 35.0276 164.48 34.9378 164.48 34.8207V28.0511C164.48 27.9301 164.453 27.8383 164.398 27.7759C164.344 27.7134 164.246 27.6626 164.105 27.6236V27.4362H169.095C169.676 27.4362 170.137 27.4752 170.477 27.5533C170.82 27.6314 171.123 27.7661 171.384 27.9574C171.654 28.1565 171.865 28.4181 172.017 28.7421C172.169 29.0778 172.245 29.4331 172.245 29.8079C172.245 30.3467 172.101 30.819 171.812 31.2251C171.562 31.5725 171.23 31.8204 170.816 31.9688C170.406 32.1132 169.833 32.1854 169.095 32.1854H166.225ZM166.225 30.8678H168.89C169.421 30.8678 169.794 30.8112 170.008 30.698C170.145 30.6238 170.254 30.5067 170.336 30.3467C170.422 30.1827 170.465 30.0031 170.465 29.8079C170.465 29.6166 170.422 29.4409 170.336 29.2809C170.254 29.1169 170.145 28.9978 170.008 28.9236C169.797 28.8104 169.425 28.7538 168.89 28.7538H166.225V30.8678Z" fill="#055E31"/>
<path d="M0.0029068 5.38258L9.86821 15.2508L0.0029068 25.2234C3.21109 28.4316 8.42656 28.3794 11.568 25.1074L20.7227 15.5815L10.8545 5.59723C7.88993 2.6008 3.08056 2.50508 0.0029068 5.38258Z" fill="#055E31"/>
<path d="M32.0312 37.9716L22.1659 28.1034L32.0312 18.1308C28.8231 14.9226 23.6076 14.9748 20.4661 18.2468L11.3115 27.7727L21.1797 37.7569C24.1413 40.7534 28.9507 40.8491 32.0312 37.9716Z" fill="#0F4828"/>
</svg>
