<svg width="350" height="55" viewBox="0 0 350 55" fill="none" xmlns="http://www.w3.org/2000/svg">
<path d="M84.2764 15.876L81.666 18.0025V22.663C81.666 22.9261 81.7255 23.1299 81.8443 23.2742C81.9716 23.41 82.1839 23.5161 82.481 23.5925V24H77.0565V23.5925C77.3621 23.5076 77.5743 23.3973 77.6931 23.2615C77.812 23.1256 77.8714 22.9261 77.8714 22.663V7.94292C77.8714 7.68825 77.812 7.493 77.6931 7.35717C77.5743 7.22135 77.3621 7.11099 77.0565 7.0261V6.61862H82.481V7.0261C82.1754 7.1025 81.9632 7.21286 81.8443 7.35717C81.7255 7.493 81.666 7.68825 81.666 7.94292V14.0296L88.8223 8.18486C89.1534 7.91321 89.3189 7.69674 89.3189 7.53544C89.3189 7.28926 89.0728 7.11948 88.5804 7.0261V6.61862H95.6857V7.0261C95.3886 7.08552 95.1764 7.15344 95.0491 7.22984C94.9217 7.30624 94.5524 7.59487 93.9412 8.09572L92.9607 8.91067L87.0524 13.6603L93.7502 21.7207C94.3699 22.4677 94.8156 22.9516 95.0873 23.1723C95.3674 23.3845 95.7154 23.5246 96.1314 23.5925V24H89.3444V23.5925C89.7943 23.4991 90.0193 23.3379 90.0193 23.1086C90.0193 22.9898 89.8155 22.6757 89.4081 22.1664L84.2764 15.876ZM111.885 11.0372V18.5882C111.885 20.3115 111.546 21.5764 110.867 22.3828C109.772 23.6647 107.709 24.3056 104.678 24.3056C102.649 24.3056 101.011 23.9958 99.763 23.3761C98.8632 22.9261 98.2477 22.2852 97.9167 21.4533C97.6111 20.6893 97.4583 19.7342 97.4583 18.5882V11.0372C97.4583 10.774 97.3988 10.5745 97.28 10.4387C97.1611 10.3029 96.9489 10.1883 96.6433 10.0949V9.73836H101.699V10.0949C101.384 10.1798 101.168 10.2944 101.049 10.4387C100.93 10.5745 100.871 10.774 100.871 11.0372V17.9006C100.871 18.6986 100.939 19.3098 101.075 19.7342C101.219 20.1587 101.465 20.5067 101.813 20.7784C102.509 21.3302 103.515 21.6061 104.831 21.6061C106.147 21.6061 107.153 21.3302 107.849 20.7784C108.188 20.5067 108.426 20.1587 108.562 19.7342C108.698 19.3098 108.766 18.6986 108.766 17.9006V11.0372C108.766 10.774 108.706 10.5745 108.587 10.4387C108.477 10.3029 108.265 10.1883 107.951 10.0949V9.73836H112.7V10.0949C112.395 10.1798 112.183 10.2944 112.064 10.4387C111.945 10.5745 111.885 10.774 111.885 11.0372ZM121.833 17.4931L119.808 19.1485V22.7012C119.808 22.9643 119.868 23.1681 119.987 23.3124C120.105 23.4482 120.318 23.5628 120.623 23.6562V24H115.581V23.6435C115.878 23.5671 116.086 23.4567 116.205 23.3124C116.332 23.1681 116.396 22.9643 116.396 22.7012V11.0372C116.396 10.774 116.336 10.5745 116.217 10.4387C116.099 10.3029 115.886 10.1883 115.581 10.0949V9.73836H120.623V10.0949C120.318 10.1798 120.105 10.2944 119.987 10.4387C119.868 10.5745 119.808 10.774 119.808 11.0372V15.7104L125.169 11.4319C125.568 11.1178 125.768 10.8419 125.768 10.6042C125.768 10.3496 125.521 10.1798 125.029 10.0949V9.73836H131.447V10.0822C131.124 10.1331 130.853 10.2307 130.632 10.375C130.42 10.5194 129.885 10.965 129.027 11.7121L124.214 15.5449L129.511 21.6315C130.19 22.421 130.674 22.9346 130.963 23.1723C131.26 23.41 131.6 23.5713 131.982 23.6562V24H125.742V23.6562C126.209 23.5458 126.442 23.3761 126.442 23.1468C126.442 23.062 126.413 22.9813 126.353 22.9049C126.302 22.82 126.107 22.5823 125.768 22.1918L121.833 17.4931ZM145.686 20.4346H139.128L138.389 21.9881C138.211 22.3616 138.122 22.6545 138.122 22.8667C138.122 23.2742 138.393 23.5331 138.937 23.6435V24H133.69V23.6435C134.013 23.5925 134.251 23.4949 134.404 23.3506C134.565 23.2063 134.752 22.9219 134.964 22.4974L140.172 11.954C140.367 11.555 140.465 11.207 140.465 10.9099C140.465 10.5618 140.227 10.2901 139.752 10.0949V9.73836H145.291V10.0949C144.824 10.2817 144.59 10.5703 144.59 10.9608C144.59 11.2409 144.697 11.5847 144.909 11.9922L150.308 22.2173C150.605 22.7776 150.838 23.1426 151.008 23.3124C151.178 23.4737 151.437 23.5883 151.785 23.6562V24H145.966V23.6562C146.517 23.5628 146.793 23.3039 146.793 22.8794C146.793 22.6163 146.687 22.2895 146.475 21.899L145.686 20.4346ZM144.654 18.4354L142.324 13.864L140.108 18.4354H144.654ZM154.449 22.7012V11.0372C154.449 10.774 154.389 10.5745 154.271 10.4387C154.152 10.3029 153.939 10.1883 153.634 10.0949V9.73836H162C163.74 9.73836 165.111 9.95483 166.113 10.3878C167.522 10.999 168.536 12.0092 169.156 13.4184C169.589 14.4031 169.806 15.5534 169.806 16.8692C169.806 19.3055 169.08 21.1519 167.628 22.4083C166.974 22.9686 166.202 23.3761 165.311 23.6307C164.428 23.8769 163.324 24 162 24H153.634V23.6435C153.931 23.5671 154.139 23.4567 154.258 23.3124C154.385 23.1681 154.449 22.9643 154.449 22.7012ZM157.861 21.4151H161.503C163.176 21.4151 164.389 21.0331 165.145 20.2691C165.935 19.4711 166.329 18.3378 166.329 16.8692C166.329 15.4006 165.935 14.2673 165.145 13.4693C164.755 13.0703 164.271 12.7817 163.693 12.6034C163.116 12.4167 162.386 12.3233 161.503 12.3233H157.861V21.4151ZM176.875 11.0372V22.7012C176.875 22.9643 176.935 23.1681 177.053 23.3124C177.172 23.4482 177.385 23.5628 177.69 23.6562V24H172.648V23.6435C172.945 23.5671 173.153 23.4567 173.272 23.3124C173.399 23.1681 173.463 22.9643 173.463 22.7012V11.0372C173.463 10.774 173.403 10.5745 173.284 10.4387C173.165 10.3029 172.953 10.1883 172.648 10.0949V9.73836H177.69V10.0949C177.385 10.1798 177.172 10.2944 177.053 10.4387C176.935 10.5745 176.875 10.774 176.875 11.0372ZM191.674 20.4346H185.116L184.378 21.9881C184.2 22.3616 184.11 22.6545 184.11 22.8667C184.11 23.2742 184.382 23.5331 184.925 23.6435V24H179.679V23.6435C180.002 23.5925 180.239 23.4949 180.392 23.3506C180.554 23.2063 180.74 22.9219 180.953 22.4974L186.161 11.954C186.356 11.555 186.453 11.207 186.453 10.9099C186.453 10.5618 186.216 10.2901 185.74 10.0949V9.73836H191.279V10.0949C190.813 10.2817 190.579 10.5703 190.579 10.9608C190.579 11.2409 190.685 11.5847 190.897 11.9922L196.297 22.2173C196.594 22.7776 196.827 23.1426 196.997 23.3124C197.167 23.4737 197.426 23.5883 197.774 23.6562V24H191.954V23.6562C192.506 23.5628 192.782 23.3039 192.782 22.8794C192.782 22.6163 192.676 22.2895 192.464 21.899L191.674 20.4346ZM190.643 18.4354L188.313 13.864L186.097 18.4354H190.643ZM215.695 18.9575L220.304 8.74514C220.5 8.31219 220.597 7.97688 220.597 7.73918C220.597 7.37415 220.317 7.13646 219.757 7.0261V6.61862H225.704V7.0261C225.33 7.07703 225.071 7.18315 224.927 7.34444C224.782 7.50573 224.532 7.97263 224.175 8.74514L218.152 21.7462C217.898 22.2979 217.77 22.6587 217.77 22.8285C217.77 23.2615 218.038 23.5161 218.573 23.5925V24H212.588V23.5925C213.123 23.5161 213.39 23.2572 213.39 22.8158C213.39 22.6545 213.263 22.2979 213.008 21.7462L206.985 8.74514C206.629 7.97263 206.378 7.50573 206.234 7.34444C206.09 7.18315 205.831 7.07703 205.457 7.0261V6.61862H211.633V7.0261C211.073 7.13646 210.792 7.37415 210.792 7.73918C210.792 7.97688 210.89 8.31219 211.085 8.74514L215.695 18.9575ZM231.309 17.9388V21.4151H240.362C240.626 21.4151 240.825 21.3557 240.961 21.2368C241.105 21.118 241.22 20.9015 241.305 20.5874H241.661V24.815H241.305C241.228 24.5178 241.118 24.3056 240.974 24.1783C240.829 24.0594 240.626 24 240.362 24H227.081V23.6435C227.378 23.5671 227.586 23.4567 227.705 23.3124C227.833 23.1681 227.896 22.9643 227.896 22.7012V11.0372C227.896 10.774 227.837 10.5745 227.718 10.4387C227.599 10.3029 227.387 10.1883 227.081 10.0949V9.73836H239.968C240.239 9.73836 240.443 9.67893 240.579 9.56009C240.723 9.44124 240.838 9.22901 240.923 8.92341H241.267V13.151H240.923C240.838 12.8369 240.723 12.6204 240.579 12.5016C240.443 12.3827 240.239 12.3233 239.968 12.3233H231.309V15.4557H236.682C236.946 15.4557 237.145 15.3963 237.281 15.2775C237.425 15.1586 237.544 14.9464 237.637 14.6408H237.981V18.7665H237.637C237.553 18.4609 237.438 18.2487 237.294 18.1298C237.158 18.0025 236.954 17.9388 236.682 17.9388H231.309ZM248.387 14.6026V22.7012C248.387 22.9643 248.447 23.1681 248.565 23.3124C248.693 23.4567 248.905 23.5713 249.202 23.6562V24H244.465V23.6435C244.762 23.5671 244.97 23.4567 245.089 23.3124C245.217 23.1681 245.28 22.9643 245.28 22.7012V11.0372C245.28 10.774 245.221 10.5745 245.102 10.4387C244.983 10.3029 244.771 10.1883 244.465 10.0949V9.73836H249.941V10.0949C249.567 10.1883 249.38 10.3538 249.38 10.5915C249.38 10.7952 249.516 11.0329 249.788 11.3046L257.428 18.8938V11.0372C257.428 10.774 257.369 10.5745 257.25 10.4387C257.131 10.2944 256.919 10.1798 256.613 10.0949V9.73836H261.35V10.0949C261.044 10.1798 260.832 10.2944 260.713 10.4387C260.594 10.5745 260.535 10.774 260.535 11.0372V22.7012C260.535 22.9643 260.594 23.1681 260.713 23.3124C260.832 23.4482 261.044 23.5628 261.35 23.6562V24H256.244V23.6562C256.617 23.5798 256.804 23.4227 256.804 23.185C256.804 23.0662 256.753 22.9431 256.651 22.8158C256.549 22.6884 256.316 22.438 255.951 22.0645L248.387 14.6026ZM272.393 12.3233V22.7012C272.393 22.9643 272.452 23.1681 272.571 23.3124C272.69 23.4482 272.902 23.5628 273.208 23.6562V24H268.165V23.6435C268.462 23.5671 268.67 23.4567 268.789 23.3124C268.916 23.1681 268.98 22.9643 268.98 22.7012V12.3233H264.778C264.506 12.3233 264.298 12.3869 264.154 12.5143C264.018 12.6331 263.908 12.8454 263.823 13.151H263.479V8.92341H263.836C263.912 9.22053 264.018 9.43275 264.154 9.56009C264.298 9.67893 264.506 9.73836 264.778 9.73836H276.595C276.866 9.73836 277.07 9.67893 277.206 9.56009C277.35 9.44124 277.465 9.22901 277.55 8.92341H277.893V13.151H277.55C277.465 12.8454 277.35 12.6331 277.206 12.5143C277.07 12.3869 276.866 12.3233 276.595 12.3233H272.393ZM294.985 11.0372V18.5882C294.985 20.3115 294.645 21.5764 293.966 22.3828C292.871 23.6647 290.808 24.3056 287.777 24.3056C285.748 24.3056 284.11 23.9958 282.862 23.3761C281.962 22.9261 281.347 22.2852 281.016 21.4533C280.71 20.6893 280.557 19.7342 280.557 18.5882V11.0372C280.557 10.774 280.498 10.5745 280.379 10.4387C280.26 10.3029 280.048 10.1883 279.742 10.0949V9.73836H284.798V10.0949C284.484 10.1798 284.267 10.2944 284.148 10.4387C284.029 10.5745 283.97 10.774 283.97 11.0372V17.9006C283.97 18.6986 284.038 19.3098 284.174 19.7342C284.318 20.1587 284.564 20.5067 284.912 20.7784C285.608 21.3302 286.614 21.6061 287.93 21.6061C289.246 21.6061 290.252 21.3302 290.948 20.7784C291.288 20.5067 291.525 20.1587 291.661 19.7342C291.797 19.3098 291.865 18.6986 291.865 17.9006V11.0372C291.865 10.774 291.805 10.5745 291.687 10.4387C291.576 10.3029 291.364 10.1883 291.05 10.0949V9.73836H295.799V10.0949C295.494 10.1798 295.282 10.2944 295.163 10.4387C295.044 10.5745 294.985 10.774 294.985 11.0372ZM302.907 18.1425V22.7012C302.907 22.9643 302.967 23.1681 303.086 23.3124C303.204 23.4482 303.417 23.5628 303.722 23.6562V24H298.68V23.6435C298.977 23.5671 299.185 23.4567 299.304 23.3124C299.431 23.1681 299.495 22.9643 299.495 22.7012V11.0372C299.495 10.774 299.435 10.5745 299.317 10.4387C299.198 10.3029 298.985 10.1883 298.68 10.0949V9.73836H308.026C309.24 9.73836 310.166 9.80203 310.802 9.92936C311.439 10.0482 312.008 10.2689 312.509 10.5915C313.536 11.2621 314.049 12.3572 314.049 13.8768C314.049 15.0313 313.731 15.9354 313.094 16.589C312.466 17.2342 311.447 17.7011 310.038 17.9897L312.738 21.7589C313.23 22.455 313.621 22.9304 313.909 23.185C314.206 23.4312 314.542 23.5883 314.915 23.6562V24H308.93V23.6562C309.372 23.5373 309.593 23.3463 309.593 23.0832C309.593 22.8964 309.457 22.612 309.185 22.23L306.333 18.1425H302.907ZM302.907 15.5576H308.052C308.833 15.5576 309.41 15.4727 309.784 15.3029C310.31 15.0737 310.573 14.6196 310.573 13.9404C310.573 13.3377 310.386 12.9175 310.013 12.6798C309.648 12.4421 308.994 12.3233 308.052 12.3233H302.907V15.5576ZM321.514 17.9388V21.4151H330.567C330.83 21.4151 331.03 21.3557 331.166 21.2368C331.31 21.118 331.425 20.9015 331.51 20.5874H331.866V24.815H331.51C331.433 24.5178 331.323 24.3056 331.179 24.1783C331.034 24.0594 330.83 24 330.567 24H317.286V23.6435C317.583 23.5671 317.791 23.4567 317.91 23.3124C318.037 23.1681 318.101 22.9643 318.101 22.7012V11.0372C318.101 10.774 318.042 10.5745 317.923 10.4387C317.804 10.3029 317.592 10.1883 317.286 10.0949V9.73836H330.173C330.444 9.73836 330.648 9.67893 330.784 9.56009C330.928 9.44124 331.043 9.22901 331.128 8.92341H331.471V13.151H331.128C331.043 12.8369 330.928 12.6204 330.784 12.5016C330.648 12.3827 330.444 12.3233 330.173 12.3233H321.514V15.4557H326.887C327.15 15.4557 327.35 15.3963 327.486 15.2775C327.63 15.1586 327.749 14.9464 327.842 14.6408H328.186V18.7665H327.842C327.757 18.4609 327.643 18.2487 327.499 18.1298C327.363 18.0025 327.159 17.9388 326.887 17.9388H321.514ZM348.384 11.0245L346.665 14.3479L346.36 14.1824C346.36 13.9022 346.27 13.6815 346.092 13.5202C345.608 13.0873 344.895 12.7308 343.953 12.4506C343.011 12.1705 342.056 12.0304 341.088 12.0304C340.264 12.0304 339.534 12.145 338.898 12.3742C337.981 12.7053 337.522 13.1849 337.522 13.8131C337.522 14.2291 337.743 14.5262 338.185 14.7045C338.626 14.8742 339.479 15.0101 340.744 15.1119L342.756 15.2647C344.513 15.4006 345.85 15.7401 346.767 16.2834C347.276 16.589 347.697 16.9965 348.028 17.5059C348.444 18.1425 348.652 18.8599 348.652 19.6578C348.652 21.1095 347.998 22.2555 346.691 23.0959C345.443 23.9024 343.753 24.3056 341.623 24.3056C339.475 24.3056 337.399 23.8514 335.396 22.9431C335.26 22.8837 335.145 22.854 335.052 22.854C334.882 22.854 334.725 22.9558 334.581 23.1596L334.263 23.0322L335.727 19.5432L336.045 19.6706C336.045 19.7215 336.045 19.7555 336.045 19.7724C336.045 19.9932 336.13 20.1799 336.3 20.3327C336.724 20.7062 337.459 21.0331 338.503 21.3132C339.547 21.5849 340.578 21.7207 341.597 21.7207C342.497 21.7207 343.303 21.6018 344.017 21.3641C344.899 21.0755 345.341 20.6086 345.341 19.9634C345.341 19.4456 345.035 19.0848 344.424 18.8811C344.017 18.7453 343.282 18.6307 342.221 18.5373L340.222 18.3717C339.144 18.2869 338.32 18.1765 337.752 18.0407C337.183 17.9048 336.686 17.7054 336.262 17.4422C335.719 17.1026 335.294 16.64 334.988 16.0542C334.683 15.4685 334.53 14.8276 334.53 14.1315C334.53 12.5695 335.201 11.3767 336.542 10.5533C337.764 9.80627 339.275 9.43275 341.075 9.43275C342.051 9.43275 342.96 9.54311 343.8 9.76383C344.649 9.97605 345.659 10.3538 346.831 10.8971C347.179 11.0584 347.421 11.1391 347.557 11.1391C347.692 11.1391 347.866 11.0457 348.079 10.8589L348.384 11.0245Z" fill="#033603"/>
<path d="M78.6602 41.3149V43.9541C78.6602 44.1065 78.6946 44.2244 78.7634 44.308C78.8322 44.3866 78.9551 44.4529 79.132 44.507V44.7061H76.2127V44.4996C76.3847 44.4554 76.5051 44.3915 76.5739 44.308C76.6477 44.2244 76.6845 44.1065 76.6845 43.9541V37.2013C76.6845 37.0489 76.6501 36.9334 76.5813 36.8548C76.5125 36.7761 76.3896 36.7098 76.2127 36.6557V36.4493H81.5943C82.6608 36.4493 83.4644 36.609 84.005 36.9285C84.3195 37.1153 84.5653 37.3807 84.7422 37.7247C84.9191 38.0687 85.0076 38.4545 85.0076 38.8821C85.0076 39.7029 84.7275 40.3147 84.1672 40.7178C83.6069 41.1158 82.7493 41.3149 81.5943 41.3149H78.6602ZM78.6602 39.8184H81.4764C81.9924 39.8184 82.3512 39.7692 82.5527 39.6709C82.8476 39.5284 82.995 39.2655 82.995 38.8821C82.995 38.4988 82.8476 38.2358 82.5527 38.0933C82.3561 37.995 81.9973 37.9458 81.4764 37.9458H78.6602V39.8184ZM99.0025 41.3149V43.9541C99.0025 44.1065 99.0369 44.2244 99.1057 44.308C99.1745 44.3866 99.2974 44.4529 99.4743 44.507V44.7061H96.5549V44.4996C96.727 44.4554 96.8474 44.3915 96.9162 44.308C96.9899 44.2244 97.0268 44.1065 97.0268 43.9541V37.2013C97.0268 37.0489 96.9924 36.9334 96.9236 36.8548C96.8547 36.7761 96.7319 36.7098 96.5549 36.6557V36.4493H101.966C102.669 36.4493 103.205 36.4862 103.573 36.5599C103.942 36.6287 104.271 36.7565 104.561 36.9432C105.156 37.3315 105.453 37.9655 105.453 38.8452C105.453 39.5136 105.269 40.0371 104.9 40.4155C104.536 40.789 103.947 41.0593 103.131 41.2264L104.694 43.4086C104.979 43.8116 105.205 44.0868 105.372 44.2342C105.544 44.3768 105.738 44.4677 105.954 44.507V44.7061H102.489V44.507C102.745 44.4382 102.873 44.3276 102.873 44.1753C102.873 44.0671 102.794 43.9025 102.637 43.6813L100.986 41.3149H99.0025ZM99.0025 39.8184H101.981C102.433 39.8184 102.767 39.7692 102.983 39.6709C103.288 39.5382 103.44 39.2753 103.44 38.8821C103.44 38.5332 103.332 38.2899 103.116 38.1523C102.905 38.0147 102.526 37.9458 101.981 37.9458H99.0025V39.8184ZM119.89 37.2013V43.9541C119.89 44.1065 119.925 44.2244 119.993 44.308C120.062 44.3866 120.185 44.4529 120.362 44.507V44.7061H117.443V44.4996C117.615 44.4554 117.735 44.3915 117.804 44.308C117.878 44.2244 117.915 44.1065 117.915 43.9541V37.2013C117.915 37.0489 117.88 36.9334 117.811 36.8548C117.743 36.7761 117.62 36.7098 117.443 36.6557V36.4493H120.362V36.6557C120.185 36.7049 120.062 36.7712 119.993 36.8548C119.925 36.9334 119.89 37.0489 119.89 37.2013ZM136.561 42.0963L138.559 37.7247C138.677 37.474 138.736 37.2873 138.736 37.1644C138.736 36.9187 138.576 36.7491 138.257 36.6557V36.4493H141.449V36.6557C141.252 36.7196 141.11 36.7983 141.021 36.8916C140.933 36.985 140.82 37.1767 140.682 37.4667L137.792 43.5486C137.689 43.7649 137.638 43.9295 137.638 44.0426C137.638 44.2883 137.8 44.4431 138.124 44.507V44.7061H134.888V44.507C135.207 44.4431 135.367 44.2883 135.367 44.0426C135.367 43.9295 135.315 43.7649 135.212 43.5486L132.322 37.4667C132.185 37.1718 132.072 36.9801 131.983 36.8916C131.9 36.7983 131.757 36.7196 131.556 36.6557V36.4493H134.866V36.6557C134.551 36.754 134.394 36.9236 134.394 37.1644C134.394 37.2725 134.455 37.4593 134.578 37.7247L136.561 42.0963ZM157.795 42.6419H153.999L153.571 43.5413C153.468 43.7575 153.416 43.9271 153.416 44.0499C153.416 44.2858 153.574 44.4357 153.888 44.4996V44.7061H150.851V44.4996C151.038 44.4701 151.175 44.4136 151.264 44.3301C151.357 44.2465 151.465 44.0819 151.588 43.8361L154.603 37.7321C154.716 37.5011 154.773 37.2996 154.773 37.1275C154.773 36.926 154.635 36.7688 154.36 36.6557V36.4493H157.567V36.6557C157.297 36.7639 157.161 36.931 157.161 37.157C157.161 37.3192 157.223 37.5183 157.346 37.7542L160.472 43.674C160.644 43.9983 160.779 44.2097 160.877 44.308C160.975 44.4013 161.125 44.4677 161.327 44.507V44.7061H157.958V44.507C158.277 44.4529 158.437 44.303 158.437 44.0573C158.437 43.905 158.375 43.7157 158.253 43.4897L157.795 42.6419ZM157.198 41.4845L155.849 38.8379L154.567 41.4845H157.198ZM177.069 37.9458V43.9541C177.069 44.1065 177.103 44.2244 177.172 44.308C177.241 44.3866 177.364 44.4529 177.541 44.507V44.7061H174.621V44.4996C174.793 44.4554 174.914 44.3915 174.982 44.308C175.056 44.2244 175.093 44.1065 175.093 43.9541V37.9458H172.66C172.503 37.9458 172.383 37.9827 172.299 38.0564C172.22 38.1252 172.157 38.2481 172.107 38.425H171.908V35.9775H172.115C172.159 36.1495 172.22 36.2724 172.299 36.3461C172.383 36.4149 172.503 36.4493 172.66 36.4493H179.502C179.659 36.4493 179.777 36.4149 179.855 36.3461C179.939 36.2773 180.005 36.1544 180.054 35.9775H180.254V38.425H180.054C180.005 38.2481 179.939 38.1252 179.855 38.0564C179.777 37.9827 179.659 37.9458 179.502 37.9458H177.069ZM194.153 41.1969V43.2095H199.394C199.546 43.2095 199.662 43.1751 199.741 43.1063C199.824 43.0375 199.89 42.9122 199.94 42.7303H200.146V45.1779H199.94C199.895 45.0059 199.832 44.883 199.748 44.8093C199.664 44.7405 199.546 44.7061 199.394 44.7061H191.705V44.4996C191.877 44.4554 191.997 44.3915 192.066 44.308C192.14 44.2244 192.177 44.1065 192.177 43.9541V37.2013C192.177 37.0489 192.142 36.9334 192.074 36.8548C192.005 36.7761 191.882 36.7098 191.705 36.6557V36.4493H199.166C199.323 36.4493 199.441 36.4149 199.519 36.3461C199.603 36.2773 199.669 36.1544 199.718 35.9775H199.918V38.425H199.718C199.669 38.2432 199.603 38.1179 199.519 38.0491C199.441 37.9803 199.323 37.9458 199.166 37.9458H194.153V39.7594H197.264C197.416 39.7594 197.531 39.725 197.61 39.6562C197.694 39.5874 197.762 39.4645 197.816 39.2876H198.016V41.6761H197.816C197.767 41.4992 197.701 41.3763 197.617 41.3075C197.539 41.2338 197.421 41.1969 197.264 41.1969H194.153ZM228.6 43.2095H233.223C233.38 43.2095 233.498 43.1751 233.576 43.1063C233.655 43.0375 233.721 42.9122 233.775 42.7303H233.975V45.1779H233.775C233.726 45.0009 233.66 44.8781 233.576 44.8093C233.498 44.7405 233.38 44.7061 233.223 44.7061H226.153V44.4996C226.325 44.4554 226.445 44.3915 226.514 44.308C226.588 44.2244 226.625 44.1065 226.625 43.9541V37.2013C226.625 37.0489 226.59 36.9334 226.521 36.8548C226.453 36.7761 226.33 36.7098 226.153 36.6557V36.4493H229.072V36.6557C228.895 36.7049 228.772 36.7712 228.703 36.8548C228.635 36.9334 228.6 37.0489 228.6 37.2013V43.2095ZM247.763 37.2013V43.9541C247.763 44.1065 247.797 44.2244 247.866 44.308C247.935 44.3866 248.058 44.4529 248.235 44.507V44.7061H245.315V44.4996C245.487 44.4554 245.608 44.3915 245.677 44.308C245.75 44.2244 245.787 44.1065 245.787 43.9541V37.2013C245.787 37.0489 245.753 36.9334 245.684 36.8548C245.615 36.7761 245.492 36.7098 245.315 36.6557V36.4493H248.235V36.6557C248.058 36.7049 247.935 36.7712 247.866 36.8548C247.797 36.9334 247.763 37.0489 247.763 37.2013ZM265.466 44.448L262.458 39.2802V43.9541C262.458 44.1065 262.493 44.2244 262.561 44.308C262.63 44.3866 262.753 44.4529 262.93 44.507V44.7061H260.188V44.4996C260.36 44.4554 260.48 44.3915 260.549 44.308C260.623 44.2244 260.659 44.1065 260.659 43.9541V37.2013C260.659 37.0489 260.625 36.9334 260.556 36.8548C260.487 36.7712 260.365 36.7049 260.188 36.6557V36.4493H263.675V36.6557C263.444 36.7295 263.328 36.8695 263.328 37.0759C263.328 37.2774 263.412 37.5232 263.579 37.8132L265.636 41.2854L267.707 37.8648C267.943 37.4765 268.061 37.2013 268.061 37.0391C268.061 36.8376 267.941 36.7098 267.7 36.6557V36.4493H271.098V36.6557C270.921 36.7049 270.798 36.7712 270.73 36.8548C270.661 36.9334 270.626 37.0489 270.626 37.2013V43.9541C270.626 44.1065 270.661 44.2244 270.73 44.308C270.798 44.3915 270.921 44.4579 271.098 44.507V44.7061H268.179V44.4996C268.351 44.4554 268.471 44.3915 268.54 44.308C268.614 44.2244 268.651 44.1065 268.651 43.9541V39.2802L265.466 44.448ZM285.499 37.2013V43.9541C285.499 44.1065 285.533 44.2244 285.602 44.308C285.671 44.3866 285.794 44.4529 285.97 44.507V44.7061H283.051V44.4996C283.223 44.4554 283.344 44.3915 283.412 44.308C283.486 44.2244 283.523 44.1065 283.523 43.9541V37.2013C283.523 37.0489 283.489 36.9334 283.42 36.8548C283.351 36.7761 283.228 36.7098 283.051 36.6557V36.4493H285.97V36.6557C285.794 36.7049 285.671 36.7712 285.602 36.8548C285.533 36.9334 285.499 37.0489 285.499 37.2013ZM302.479 37.9458V43.9541C302.479 44.1065 302.514 44.2244 302.582 44.308C302.651 44.3866 302.774 44.4529 302.951 44.507V44.7061H300.032V44.4996C300.204 44.4554 300.324 44.3915 300.393 44.308C300.467 44.2244 300.503 44.1065 300.503 43.9541V37.9458H298.071C297.913 37.9458 297.793 37.9827 297.709 38.0564C297.631 38.1252 297.567 38.2481 297.518 38.425H297.319V35.9775H297.525C297.569 36.1495 297.631 36.2724 297.709 36.3461C297.793 36.4149 297.913 36.4493 298.071 36.4493H304.912C305.069 36.4493 305.187 36.4149 305.266 36.3461C305.349 36.2773 305.416 36.1544 305.465 35.9775H305.664V38.425H305.465C305.416 38.2481 305.349 38.1252 305.266 38.0564C305.187 37.9827 305.069 37.9458 304.912 37.9458H302.479ZM319.563 41.1969V43.2095H324.805C324.957 43.2095 325.072 43.1751 325.151 43.1063C325.235 43.0375 325.301 42.9122 325.35 42.7303H325.556V45.1779H325.35C325.306 45.0059 325.242 44.883 325.158 44.8093C325.075 44.7405 324.957 44.7061 324.805 44.7061H317.115V44.4996C317.287 44.4554 317.408 44.3915 317.477 44.308C317.55 44.2244 317.587 44.1065 317.587 43.9541V37.2013C317.587 37.0489 317.553 36.9334 317.484 36.8548C317.415 36.7761 317.292 36.7098 317.115 36.6557V36.4493H324.576C324.733 36.4493 324.851 36.4149 324.93 36.3461C325.013 36.2773 325.08 36.1544 325.129 35.9775H325.328V38.425H325.129C325.08 38.2432 325.013 38.1179 324.93 38.0491C324.851 37.9803 324.733 37.9458 324.576 37.9458H319.563V39.7594H322.674C322.826 39.7594 322.942 39.725 323.02 39.6562C323.104 39.5874 323.173 39.4645 323.227 39.2876H323.426V41.6761H323.227C323.178 41.4992 323.111 41.3763 323.028 41.3075C322.949 41.2338 322.831 41.1969 322.674 41.1969H319.563ZM337.767 43.9541V37.2013C337.767 37.0489 337.733 36.9334 337.664 36.8548C337.595 36.7761 337.472 36.7098 337.296 36.6557V36.4493H342.139C343.147 36.4493 343.94 36.5746 344.52 36.8253C345.336 37.1792 345.923 37.764 346.282 38.5798C346.533 39.15 346.658 39.8159 346.658 40.5777C346.658 41.9882 346.238 43.0572 345.397 43.7845C345.019 44.1089 344.572 44.3448 344.056 44.4923C343.545 44.6348 342.906 44.7061 342.139 44.7061H337.296V44.4996C337.468 44.4554 337.588 44.3915 337.657 44.308C337.73 44.2244 337.767 44.1065 337.767 43.9541ZM339.743 43.2095H341.851C342.82 43.2095 343.522 42.9884 343.96 42.546C344.417 42.084 344.645 41.4279 344.645 40.5777C344.645 39.7274 344.417 39.0713 343.96 38.6093C343.734 38.3783 343.454 38.2112 343.119 38.108C342.785 37.9999 342.363 37.9458 341.851 37.9458H339.743V43.2095Z" fill="#033603"/>
<path d="M28.9466 52.1569L0 15.9088V15.9086L14.5291 1.37939H30.9934L29.0851 4.15593H15.6793L3.71917 16.1163L28.9659 47.7315L39.1924 35.1512L41.3471 36.9028L28.9466 52.1569Z" fill="#033603"/>
<path d="M43.8173 34.2404L42.0035 32.0794L55.4002 16.0111L42.5169 4.15398H34.5332V1.37744H43.6003L59.2246 15.7575L43.8173 34.2404Z" fill="#033603"/>
<path d="M18.5009 36.9497L13.2168 30.2693L33.6032 1.37256H43.6002L18.5009 36.9497Z" fill="#033603"/>
<path d="M50.0874 45.2227H39.674L20.8535 22.793L29.7524 20.9878L50.0874 45.2227Z" fill="#033603"/>
</svg>
