<svg width="186" height="43" viewBox="0 0 186 43" fill="none" xmlns="http://www.w3.org/2000/svg">
<path d="M64.6375 12.3663L62.6359 13.9969V17.5705C62.6359 17.7723 62.6815 17.9285 62.7726 18.0392C62.8702 18.1433 63.033 18.2247 63.2608 18.2833V18.5957H59.1014V18.2833C59.3357 18.2182 59.4984 18.1335 59.5896 18.0294C59.6807 17.9252 59.7262 17.7723 59.7262 17.5705V6.28338C59.7262 6.0881 59.6807 5.93839 59.5896 5.83424C59.4984 5.73009 59.3357 5.64547 59.1014 5.58038V5.26793H63.2608V5.58038C63.0265 5.63896 62.8637 5.72358 62.7726 5.83424C62.6815 5.93839 62.6359 6.0881 62.6359 6.28338V10.9505L68.1232 6.4689C68.3771 6.2606 68.504 6.09461 68.504 5.97093C68.504 5.78216 68.3153 5.65198 67.9377 5.58038V5.26793H73.386V5.58038C73.1582 5.62594 72.9954 5.67802 72.8978 5.7366C72.8002 5.79518 72.517 6.0165 72.0483 6.40055L71.2965 7.02544L66.766 10.6674L71.9019 16.848C72.3771 17.4208 72.7188 17.7918 72.9271 17.961C73.1419 18.1238 73.4088 18.2312 73.7277 18.2833V18.5957H68.5236V18.2833C68.8685 18.2117 69.041 18.088 69.041 17.9122C69.041 17.8211 68.8848 17.5803 68.5724 17.1897L64.6375 12.3663ZM91.5067 8.65602V14.446C91.5067 15.7674 91.2463 16.7373 90.7256 17.3557C89.8859 18.3386 88.3041 18.83 85.9803 18.83C84.4246 18.83 83.1683 18.5924 82.2114 18.1173C81.5214 17.7723 81.0495 17.2808 80.7956 16.6429C80.5613 16.0571 80.4441 15.3248 80.4441 14.446V8.65602C80.4441 8.45423 80.3986 8.30126 80.3075 8.19711C80.2163 8.09296 80.0536 8.00509 79.8193 7.93349V7.6601H83.6955V7.93349C83.4547 7.99858 83.2887 8.08645 83.1976 8.19711C83.1064 8.30126 83.0609 8.45423 83.0609 8.65602V13.9188C83.0609 14.5307 83.113 14.9993 83.2171 15.3248C83.3278 15.6502 83.5165 15.9171 83.7834 16.1254C84.3172 16.5485 85.0885 16.7601 86.0975 16.7601C87.1064 16.7601 87.8778 16.5485 88.4115 16.1254C88.6719 15.9171 88.8542 15.6502 88.9583 15.3248C89.0624 14.9993 89.1145 14.5307 89.1145 13.9188V8.65602C89.1145 8.45423 89.069 8.30126 88.9778 8.19711C88.8932 8.09296 88.7305 8.00509 88.4896 7.93349V7.6601H92.1316V7.93349C91.8972 7.99858 91.7345 8.08645 91.6434 8.19711C91.5523 8.30126 91.5067 8.45423 91.5067 8.65602ZM104.833 13.6063L103.281 14.8756V17.5998C103.281 17.8016 103.326 17.9578 103.418 18.0685C103.509 18.1726 103.671 18.2605 103.906 18.3321V18.5957H100.039V18.3223C100.267 18.2637 100.426 18.1791 100.518 18.0685C100.615 17.9578 100.664 17.8016 100.664 17.5998V8.65602C100.664 8.45423 100.619 8.30126 100.527 8.19711C100.436 8.09296 100.274 8.00509 100.039 7.93349V7.6601H103.906V7.93349C103.671 7.99858 103.509 8.08645 103.418 8.19711C103.326 8.30126 103.281 8.45423 103.281 8.65602V12.2394L107.391 8.9587C107.697 8.71785 107.85 8.5063 107.85 8.32404C107.85 8.12876 107.662 7.99858 107.284 7.93349V7.6601H112.205V7.92372C111.958 7.96278 111.749 8.03763 111.58 8.14829C111.417 8.25895 111.007 8.60069 110.35 9.17351L106.659 12.1124L110.721 16.7796C111.242 17.385 111.613 17.7788 111.834 17.961C112.062 18.1433 112.322 18.267 112.615 18.3321V18.5957H107.831V18.3321C108.189 18.2475 108.368 18.1173 108.368 17.9415C108.368 17.8764 108.345 17.8146 108.299 17.756C108.26 17.6909 108.111 17.5087 107.85 17.2092L104.833 13.6063ZM128.822 15.8618H123.794L123.227 17.053C123.091 17.3394 123.022 17.564 123.022 17.7267C123.022 18.0392 123.231 18.2377 123.647 18.3223V18.5957H119.624V18.3223C119.872 18.2833 120.054 18.2084 120.171 18.0977C120.295 17.9871 120.438 17.769 120.601 17.4436L124.594 9.35902C124.744 9.05308 124.819 8.7862 124.819 8.55838C124.819 8.2915 124.637 8.0832 124.272 7.93349V7.6601H128.519V7.93349C128.161 8.07669 127.982 8.29801 127.982 8.59743C127.982 8.81224 128.064 9.07587 128.227 9.38831L132.366 17.2288C132.594 17.6584 132.773 17.9383 132.903 18.0685C133.034 18.1921 133.232 18.28 133.499 18.3321V18.5957H129.037V18.3321C129.46 18.2605 129.672 18.0619 129.672 17.7365C129.672 17.5347 129.59 17.2841 129.427 16.9847L128.822 15.8618ZM128.031 14.3289L126.244 10.8236L124.546 14.3289H128.031ZM141.241 17.5998V8.65602C141.241 8.45423 141.195 8.30126 141.104 8.19711C141.013 8.09296 140.85 8.00509 140.616 7.93349V7.6601H147.031C148.365 7.6601 149.416 7.82608 150.184 8.15806C151.265 8.62672 152.043 9.40133 152.518 10.4819C152.85 11.237 153.016 12.119 153.016 13.1279C153.016 14.9961 152.459 16.4118 151.346 17.3752C150.845 17.8048 150.253 18.1173 149.569 18.3125C148.892 18.5013 148.046 18.5957 147.031 18.5957H140.616V18.3223C140.844 18.2637 141.003 18.1791 141.094 18.0685C141.192 17.9578 141.241 17.8016 141.241 17.5998ZM143.857 16.6136H146.65C147.932 16.6136 148.863 16.3207 149.442 15.7349C150.048 15.123 150.35 14.254 150.35 13.1279C150.35 12.0018 150.048 11.1328 149.442 10.5209C149.143 10.215 148.772 9.99368 148.329 9.85698C147.887 9.71378 147.327 9.64217 146.65 9.64217H143.857V16.6136ZM164.136 8.65602V17.5998C164.136 17.8016 164.181 17.9578 164.273 18.0685C164.364 18.1726 164.526 18.2605 164.761 18.3321V18.5957H160.894V18.3223C161.122 18.2637 161.282 18.1791 161.373 18.0685C161.47 17.9578 161.519 17.8016 161.519 17.5998V8.65602C161.519 8.45423 161.474 8.30126 161.382 8.19711C161.291 8.09296 161.129 8.00509 160.894 7.93349V7.6601H164.761V7.93349C164.526 7.99858 164.364 8.08645 164.273 8.19711C164.181 8.30126 164.136 8.45423 164.136 8.65602ZM181.183 15.8618H176.154L175.588 17.053C175.451 17.3394 175.383 17.564 175.383 17.7267C175.383 18.0392 175.591 18.2377 176.008 18.3223V18.5957H171.985V18.3223C172.232 18.2833 172.415 18.2084 172.532 18.0977C172.655 17.9871 172.799 17.769 172.961 17.4436L176.955 9.35902C177.105 9.05308 177.179 8.7862 177.179 8.55838C177.179 8.2915 176.997 8.0832 176.633 7.93349V7.6601H180.88V7.93349C180.522 8.07669 180.343 8.29801 180.343 8.59743C180.343 8.81224 180.424 9.07587 180.587 9.38831L184.727 17.2288C184.955 17.6584 185.134 17.9383 185.264 18.0685C185.394 18.1921 185.593 18.28 185.859 18.3321V18.5957H181.397V18.3321C181.82 18.2605 182.032 18.0619 182.032 17.7365C182.032 17.5347 181.951 17.2841 181.788 16.9847L181.183 15.8618ZM180.392 14.3289L178.605 10.8236L176.906 14.3289H180.392Z" fill="#033603"/>
<path d="M66.0743 31.8884L67.1484 33.4994L67.0014 33.6012C66.8959 33.5032 66.8092 33.4542 66.7414 33.4542C66.6735 33.4542 66.4832 33.5447 66.1704 33.7255C65.5223 34.0986 64.9758 34.3511 64.5311 34.483C64.0902 34.6112 63.5645 34.6752 62.954 34.6752C61.7368 34.6752 60.7381 34.3869 59.958 33.8103C59.4982 33.4749 59.1365 33.0585 58.8727 32.5611C58.5674 31.992 58.4148 31.3646 58.4148 30.6787C58.4148 29.7441 58.688 28.932 59.2345 28.2423C60.056 27.206 61.2977 26.6878 62.9597 26.6878C63.5702 26.6878 64.094 26.7519 64.5311 26.88C64.9683 27.0081 65.5147 27.2606 66.1704 27.6375C66.4832 27.8146 66.6735 27.9032 66.7414 27.9032C66.8092 27.9032 66.8959 27.8542 67.0014 27.7562L67.1484 27.8579L66.0743 29.469L65.9217 29.3672C65.9293 29.3069 65.933 29.2561 65.933 29.2146C65.933 29.1053 65.8859 29.0036 65.7917 28.9094C65.6975 28.8114 65.5298 28.6946 65.2886 28.5589C64.6216 28.182 63.915 27.9936 63.1688 27.9936C62.287 27.9936 61.5841 28.2141 61.0603 28.655C60.4423 29.1713 60.1332 29.8458 60.1332 30.6787C60.1332 31.5115 60.4423 32.1861 61.0603 32.7024C61.5841 33.1433 62.287 33.3638 63.1688 33.3638C63.915 33.3638 64.6216 33.1753 65.2886 32.7985C65.5298 32.6628 65.6975 32.5479 65.7917 32.4537C65.8859 32.3557 65.933 32.252 65.933 32.1428C65.933 32.1013 65.9293 32.0523 65.9217 31.9958L66.0743 31.8884ZM76.0106 28.0727C77.0168 28.0727 77.8553 28.329 78.5261 28.8415C79.3288 29.4596 79.7302 30.3207 79.7302 31.4249C79.7302 32.4612 79.3288 33.2884 78.5261 33.9064C77.8629 34.419 77.0281 34.6752 76.0219 34.6752C75.0157 34.6752 74.181 34.419 73.5177 33.9064C72.7113 33.2884 72.308 32.4442 72.308 31.374C72.308 30.2924 72.7113 29.4483 73.5177 28.8415C74.1848 28.3403 75.0157 28.084 76.0106 28.0727ZM76.0163 29.2711C75.3643 29.2711 74.8329 29.4803 74.4222 29.8986C74.0416 30.2905 73.8512 30.7823 73.8512 31.374C73.8512 31.9619 74.0416 32.4518 74.4222 32.8437C74.8329 33.2658 75.3662 33.4768 76.0219 33.4768C76.6739 33.4768 77.2052 33.2658 77.616 32.8437C77.9966 32.4556 78.1869 31.9751 78.1869 31.4022C78.1869 30.7804 77.9966 30.2792 77.616 29.8986C77.2015 29.4878 76.6682 29.2787 76.0163 29.2711ZM86.8626 31.9393V33.963C86.8626 34.0798 86.889 34.1702 86.9418 34.2343C86.9945 34.2946 87.0888 34.3455 87.2244 34.3869V34.5396H84.9859V34.3813C85.1178 34.3474 85.2101 34.2984 85.2629 34.2343C85.3194 34.1702 85.3477 34.0798 85.3477 33.963V28.785C85.3477 28.6682 85.3213 28.5796 85.2686 28.5193C85.2158 28.459 85.1216 28.4081 84.9859 28.3667V28.2084H89.1351C89.674 28.2084 90.0847 28.2367 90.3674 28.2932C90.65 28.346 90.9025 28.4439 91.1249 28.5871C91.5809 28.8849 91.8088 29.371 91.8088 30.0456C91.8088 30.5581 91.6675 30.9594 91.3849 31.2496C91.106 31.536 90.6538 31.7433 90.0282 31.8714L91.2266 33.5447C91.4452 33.8537 91.6185 34.0647 91.7467 34.1778C91.8786 34.2871 92.0274 34.3568 92.1932 34.3869V34.5396H89.5364V34.3869C89.7324 34.3342 89.8304 34.2494 89.8304 34.1325C89.8304 34.0496 89.7701 33.9234 89.6495 33.7538L88.3832 31.9393H86.8626ZM86.8626 30.7917H89.1464C89.4931 30.7917 89.7493 30.7541 89.9152 30.6787C90.1488 30.5769 90.2656 30.3753 90.2656 30.0738C90.2656 29.8063 90.1827 29.6197 90.0169 29.5142C89.8549 29.4087 89.5647 29.3559 89.1464 29.3559H86.8626V30.7917ZM99.1166 31.9393V33.963C99.1166 34.0798 99.1429 34.1702 99.1957 34.2343C99.2485 34.2946 99.3427 34.3455 99.4783 34.3869V34.5396H97.2398V34.3813C97.3717 34.3474 97.4641 34.2984 97.5168 34.2343C97.5733 34.1702 97.6016 34.0798 97.6016 33.963V28.785C97.6016 28.6682 97.5752 28.5796 97.5225 28.5193C97.4697 28.459 97.3755 28.4081 97.2398 28.3667V28.2084H101.366C102.184 28.2084 102.8 28.3309 103.215 28.5758C103.456 28.719 103.644 28.9225 103.78 29.1863C103.916 29.4501 103.984 29.746 103.984 30.0738C103.984 30.7032 103.769 31.1724 103.339 31.4814C102.91 31.7866 102.252 31.9393 101.366 31.9393H99.1166ZM99.1166 30.7917H101.276C101.672 30.7917 101.947 30.7541 102.101 30.6787C102.327 30.5694 102.44 30.3678 102.44 30.0738C102.44 29.7799 102.327 29.5783 102.101 29.469C101.951 29.3936 101.675 29.3559 101.276 29.3559H99.1166V30.7917ZM112.637 28.0727C113.643 28.0727 114.481 28.329 115.152 28.8415C115.955 29.4596 116.356 30.3207 116.356 31.4249C116.356 32.4612 115.955 33.2884 115.152 33.9064C114.489 34.419 113.654 34.6752 112.648 34.6752C111.642 34.6752 110.807 34.419 110.144 33.9064C109.337 33.2884 108.934 32.4442 108.934 31.374C108.934 30.2924 109.337 29.4483 110.144 28.8415C110.811 28.3403 111.642 28.084 112.637 28.0727ZM112.642 29.2711C111.99 29.2711 111.459 29.4803 111.048 29.8986C110.668 30.2905 110.477 30.7823 110.477 31.374C110.477 31.9619 110.668 32.4518 111.048 32.8437C111.459 33.2658 111.992 33.4768 112.648 33.4768C113.3 33.4768 113.831 33.2658 114.242 32.8437C114.623 32.4556 114.813 31.9751 114.813 31.4022C114.813 30.7804 114.623 30.2792 114.242 29.8986C113.828 29.4878 113.294 29.2787 112.642 29.2711ZM123.489 31.9393V33.963C123.489 34.0798 123.515 34.1702 123.568 34.2343C123.621 34.2946 123.715 34.3455 123.851 34.3869V34.5396H121.612V34.3813C121.744 34.3474 121.836 34.2984 121.889 34.2343C121.946 34.1702 121.974 34.0798 121.974 33.963V28.785C121.974 28.6682 121.947 28.5796 121.895 28.5193C121.842 28.459 121.748 28.4081 121.612 28.3667V28.2084H125.761C126.3 28.2084 126.711 28.2367 126.993 28.2932C127.276 28.346 127.529 28.4439 127.751 28.5871C128.207 28.8849 128.435 29.371 128.435 30.0456C128.435 30.5581 128.294 30.9594 128.011 31.2496C127.732 31.536 127.28 31.7433 126.654 31.8714L127.853 33.5447C128.071 33.8537 128.245 34.0647 128.373 34.1778C128.505 34.2871 128.654 34.3568 128.819 34.3869V34.5396H126.163V34.3869C126.358 34.3342 126.456 34.2494 126.456 34.1325C126.456 34.0496 126.396 33.9234 126.276 33.7538L125.009 31.9393H123.489ZM123.489 30.7917H125.772C126.119 30.7917 126.375 30.7541 126.541 30.6787C126.775 30.5769 126.892 30.3753 126.892 30.0738C126.892 29.8063 126.809 29.6197 126.643 29.5142C126.481 29.4087 126.191 29.3559 125.772 29.3559H123.489V30.7917ZM138.937 32.9568H136.025L135.697 33.6464C135.618 33.8122 135.579 33.9422 135.579 34.0365C135.579 34.2173 135.699 34.3323 135.941 34.3813V34.5396H133.612V34.3813C133.755 34.3587 133.86 34.3153 133.928 34.2513C134 34.1872 134.083 34.0609 134.177 33.8725L136.489 29.192C136.576 29.0149 136.619 28.8604 136.619 28.7285C136.619 28.574 136.513 28.4534 136.302 28.3667V28.2084H138.761V28.3667C138.554 28.4496 138.45 28.5777 138.45 28.7511C138.45 28.8754 138.497 29.0281 138.592 29.209L140.988 33.7482C141.12 33.9969 141.224 34.1589 141.299 34.2343C141.375 34.3059 141.49 34.3568 141.644 34.3869V34.5396H139.061V34.3869C139.306 34.3455 139.428 34.2305 139.428 34.0421C139.428 33.9253 139.381 33.7802 139.287 33.6068L138.937 32.9568ZM138.479 32.0693L137.444 30.0399L136.461 32.0693H138.479ZM149.952 29.3559V33.963C149.952 34.0798 149.979 34.1702 150.032 34.2343C150.084 34.2946 150.179 34.3455 150.314 34.3869V34.5396H148.076V34.3813C148.208 34.3474 148.3 34.2984 148.353 34.2343C148.409 34.1702 148.438 34.0798 148.438 33.963V29.3559H146.572C146.451 29.3559 146.359 29.3842 146.295 29.4407C146.235 29.4935 146.186 29.5877 146.148 29.7234H145.995V27.8466H146.154C146.188 27.9785 146.235 28.0727 146.295 28.1293C146.359 28.182 146.451 28.2084 146.572 28.2084H151.818C151.938 28.2084 152.029 28.182 152.089 28.1293C152.153 28.0765 152.204 27.9823 152.242 27.8466H152.394V29.7234H152.242C152.204 29.5877 152.153 29.4935 152.089 29.4407C152.029 29.3842 151.938 29.3559 151.818 29.3559H149.952ZM159.21 28.785V33.963C159.21 34.0798 159.237 34.1702 159.29 34.2343C159.342 34.2946 159.437 34.3455 159.572 34.3869V34.5396H157.334V34.3813C157.466 34.3474 157.558 34.2984 157.611 34.2343C157.667 34.1702 157.695 34.0798 157.695 33.963V28.785C157.695 28.6682 157.669 28.5796 157.616 28.5193C157.564 28.459 157.469 28.4081 157.334 28.3667V28.2084H159.572V28.3667C159.437 28.4044 159.342 28.4552 159.29 28.5193C159.237 28.5796 159.21 28.6682 159.21 28.785ZM168.536 28.0727C169.542 28.0727 170.381 28.329 171.052 28.8415C171.854 29.4596 172.256 30.3207 172.256 31.4249C172.256 32.4612 171.854 33.2884 171.052 33.9064C170.388 34.419 169.554 34.6752 168.547 34.6752C167.541 34.6752 166.707 34.419 166.043 33.9064C165.237 33.2884 164.834 32.4442 164.834 31.374C164.834 30.2924 165.237 29.4483 166.043 28.8415C166.71 28.3403 167.541 28.084 168.536 28.0727ZM168.542 29.2711C167.89 29.2711 167.358 29.4803 166.948 29.8986C166.567 30.2905 166.377 30.7823 166.377 31.374C166.377 31.9619 166.567 32.4518 166.948 32.8437C167.358 33.2658 167.892 33.4768 168.547 33.4768C169.199 33.4768 169.731 33.2658 170.142 32.8437C170.522 32.4556 170.712 31.9751 170.712 31.4022C170.712 30.7804 170.522 30.2792 170.142 29.8986C169.727 29.4878 169.194 29.2787 168.542 29.2711ZM179.253 30.3678V33.963C179.253 34.0798 179.279 34.1702 179.332 34.2343C179.388 34.2984 179.482 34.3492 179.614 34.3869V34.5396H177.511V34.3813C177.643 34.3474 177.736 34.2984 177.788 34.2343C177.845 34.1702 177.873 34.0798 177.873 33.963V28.785C177.873 28.6682 177.847 28.5796 177.794 28.5193C177.741 28.459 177.647 28.4081 177.511 28.3667V28.2084H179.942V28.3667C179.776 28.4081 179.693 28.4816 179.693 28.5871C179.693 28.6776 179.754 28.7831 179.874 28.9037L183.266 32.2728V28.785C183.266 28.6682 183.24 28.5796 183.187 28.5193C183.134 28.4552 183.04 28.4044 182.904 28.3667V28.2084H185.007V28.3667C184.871 28.4044 184.777 28.4552 184.724 28.5193C184.672 28.5796 184.645 28.6682 184.645 28.785V33.963C184.645 34.0798 184.672 34.1702 184.724 34.2343C184.777 34.2946 184.871 34.3455 185.007 34.3869V34.5396H182.74V34.3869C182.906 34.353 182.989 34.2833 182.989 34.1778C182.989 34.125 182.966 34.0704 182.921 34.0138C182.876 33.9573 182.772 33.8461 182.61 33.6803L179.253 30.3678Z" fill="#033603"/>
<path d="M22.2114 40.5907L0.015625 12.7962V12.796L11.1563 1.65527H23.7808L22.3176 3.78428H12.0383L2.86743 12.9553L22.2262 37.1973L30.0678 27.5509L31.7199 28.894L22.2114 40.5907Z" fill="#033603"/>
<path d="M33.6111 26.8502L32.2203 25.1931L42.4927 12.8722L32.614 3.78037H26.4922V1.65137H33.4447L45.4252 12.6778L33.6111 26.8502Z" fill="#033603"/>
<path d="M14.2022 28.9274L10.1504 23.805L25.7823 1.64746H33.4479L14.2022 28.9274Z" fill="#033603"/>
<path d="M38.4239 35.2709H30.4391L16.0078 18.0722L22.8313 16.688L38.4239 35.2709Z" fill="#033603"/>
</svg>
