<svg width="19" height="19" viewBox="0 0 19 19" fill="none" xmlns="http://www.w3.org/2000/svg">
<g clip-path="url(#clip0)">
<path d="M12.4209 12.9248H6.7959C6.40756 12.9248 6.09277 13.2396 6.09277 13.6279C6.09277 14.0162 6.40756 14.3309 6.7959 14.3309H12.4209C12.8092 14.3309 13.124 14.0162 13.124 13.6279C13.124 13.2395 12.8092 12.9248 12.4209 12.9248Z" fill="black"/>
<path d="M15.585 1.81604H11.7178V1.0831C11.7178 0.807124 11.5563 0.556671 11.3049 0.442729C10.2584 -0.0315282 8.95832 -0.0315282 7.91186 0.442729C7.6605 0.556671 7.49902 0.807124 7.49902 1.0831V1.81604H3.63184C3.2435 1.81604 2.92871 2.13083 2.92871 2.51909V17.384C2.92871 17.7723 3.2435 18.087 3.63184 18.087H15.585C15.9733 18.087 16.2881 17.7723 16.2881 17.384V2.51909C16.2881 2.13083 15.9733 1.81604 15.585 1.81604ZM8.90527 1.58112C9.35661 1.46841 9.86019 1.46841 10.3115 1.58112C10.3115 1.90337 10.3115 3.03838 10.3115 3.54386H8.90527C8.90527 3.22141 8.90527 2.08358 8.90527 1.58112ZM14.8818 16.6809H4.33496V3.22218H7.49902V4.24691C7.49902 4.63521 7.81381 4.94997 8.20215 4.94997H11.0146C11.403 4.94997 11.7178 4.63521 11.7178 4.24691V3.22218H14.8818V16.6809Z" fill="black"/>
<path d="M6.09277 8.00323C6.09277 8.39153 6.40756 8.70628 6.7959 8.70628H12.4209C12.8092 8.70628 13.124 8.39153 13.124 8.00323C13.124 7.61492 12.8092 7.30017 12.4209 7.30017H6.7959C6.40756 7.30021 6.09277 7.61496 6.09277 8.00323Z" fill="black"/>
<path d="M12.4209 10.1124H6.7959C6.40756 10.1124 6.09277 10.4272 6.09277 10.8155C6.09277 11.2038 6.40756 11.5185 6.7959 11.5185H12.4209C12.8092 11.5185 13.124 11.2038 13.124 10.8155C13.124 10.4272 12.8092 10.1124 12.4209 10.1124Z" fill="black"/>
</g>
<defs>
<clipPath id="clip0">
<rect width="18" height="18" fill="white" transform="translate(0.608398 0.0870361)"/>
</clipPath>
</defs>
</svg>
