<svg width="18" height="18" viewBox="0 0 18 18" fill="none" xmlns="http://www.w3.org/2000/svg">
<g clip-path="url(#clip0)">
<path d="M9.00005 8.62234C10.6271 8.62234 11.9508 7.29881 11.9508 5.67199C11.9508 4.04517 10.6271 2.72168 9.00005 2.72168C7.37302 2.72168 6.04932 4.04517 6.04932 5.67199C6.04932 7.29881 7.37302 8.62234 9.00005 8.62234ZM9.00005 3.77623C10.0455 3.77623 10.8961 4.62669 10.8961 5.67199C10.8961 6.71733 10.0456 7.56779 9.00005 7.56779C7.95454 7.56779 7.104 6.71733 7.104 5.67199C7.104 4.62669 7.95458 3.77623 9.00005 3.77623Z" fill="white"/>
<path d="M5.78729 10.9734C6.58657 12.0554 6.26545 11.6346 8.56766 14.9215C8.77691 15.2214 9.22188 15.2228 9.43233 14.922C11.7449 11.6194 11.4267 12.0377 12.213 10.9733C13.0095 9.89501 13.8331 8.77999 14.2845 7.47338C14.9377 5.58193 14.6553 3.71046 13.4894 2.20366C13.4894 2.20366 13.4894 2.20363 13.4894 2.20363C12.4214 0.823781 10.7432 0 9.00015 0C7.25714 0 5.57892 0.823781 4.51091 2.2037C3.34502 3.7105 3.06265 5.58201 3.71592 7.47345C4.16719 8.78003 4.99083 9.89505 5.78729 10.9734ZM5.34503 2.84903C6.21472 1.7254 7.58114 1.05455 9.00015 1.05455C10.4192 1.05455 11.7856 1.7254 12.6553 2.84903L12.6552 2.84899C13.5962 4.06512 13.8207 5.5852 13.2875 7.1292C12.8889 8.28331 12.114 9.33233 11.3646 10.3468C10.7812 11.1367 10.9558 10.8951 9.00015 13.6984C7.04655 10.8979 7.21896 11.1364 6.63568 10.3468C5.88633 9.33233 5.11145 8.28327 4.71281 7.1292C4.17956 5.58517 4.40407 4.06512 5.34503 2.84903Z" fill="white"/>
<path d="M6.22035 13.2594C6.06482 13.0133 5.73914 12.9397 5.4929 13.0952L3.99349 14.0422C3.66639 14.2488 3.66608 14.727 3.99349 14.9338L8.71849 17.9182C8.89051 18.0268 9.10974 18.0268 9.28173 17.9182L14.0067 14.9338C14.3339 14.7272 14.3341 14.249 14.0067 14.0422L12.5073 13.0952C12.261 12.9397 11.9354 13.0133 11.7799 13.2594C11.6243 13.5056 11.6978 13.8313 11.9441 13.9868L12.7377 14.488L9.00009 16.8487L5.26252 14.488L6.05614 13.9868C6.30237 13.8313 6.37589 13.5057 6.22035 13.2594Z" fill="white"/>
</g>
<defs>
<clipPath id="clip0">
<rect width="18" height="18" fill="white"/>
</clipPath>
</defs>
</svg>
