<svg width="55" height="55" viewBox="0 0 55 55" fill="none" xmlns="http://www.w3.org/2000/svg">
<g clip-path="url(#clip0)">
<path d="M36.2186 29.0937H1.78125C0.797997 29.0937 0 28.2957 0 27.3125C0 26.3292 0.797997 25.5312 1.78125 25.5312H36.2186C37.2019 25.5312 37.9999 26.3292 37.9999 27.3125C37.9999 28.2957 37.2019 29.0937 36.2186 29.0937Z" fill="white"/>
<path d="M26.7188 38.5937C26.2626 38.5937 25.8069 38.4206 25.4598 38.0714C24.764 37.3756 24.764 36.2475 25.4598 35.5513L33.7012 27.3104L25.4598 19.0691C24.764 18.3733 24.764 17.2448 25.4598 16.549C26.1561 15.8531 27.2841 15.8531 27.9799 16.549L37.4798 26.0493C38.1756 26.7451 38.1756 27.8731 37.4798 28.5689L27.9799 38.0688C27.6307 38.4206 27.175 38.5937 26.7188 38.5937Z" fill="white"/>
<path d="M28.5002 53.4376C17.6914 53.4376 8.14892 46.9349 4.18502 36.8693C3.82408 35.9573 4.27504 34.9219 5.18959 34.561C6.10152 34.2048 7.13957 34.6488 7.50052 35.5681C10.923 44.2583 19.1665 49.8751 28.5002 49.8751C40.9403 49.8751 51.0629 39.7525 51.0629 27.3125C51.0629 14.8724 40.9403 4.74982 28.5002 4.74982C19.1665 4.74982 10.923 10.3667 7.50052 19.0568C7.13696 19.9761 6.10152 20.4201 5.18959 20.064C4.27504 19.703 3.82408 18.6676 4.18502 17.7556C8.14892 7.69001 17.6914 1.18732 28.5002 1.18732C42.9046 1.18732 54.6254 12.9081 54.6254 27.3125C54.6254 41.7168 42.9046 53.4376 28.5002 53.4376Z" fill="white"/>
</g>
<defs>
<clipPath id="clip0">
<rect width="54.625" height="54.625" fill="white"/>
</clipPath>
</defs>
</svg>