<svg width="390" height="66" viewBox="0 0 390 66" fill="none" xmlns="http://www.w3.org/2000/svg">
<rect x="72.1221" y="10.5" width="9.0814" height="45.0913" transform="rotate(-43.771 72.1221 10.5)" fill="white"/>
<rect x="61.2383" y="46.1406" width="9.0814" height="27.4125" transform="rotate(-43.771 61.2383 46.1406)" fill="white"/>
<rect x="25.5127" y="7.2793" width="9.0814" height="26.0976" transform="rotate(-43.771 25.5127 7.2793)" fill="white"/>
<rect y="32.7832" width="9.0814" height="42.0283" transform="rotate(-45.0168 0 32.7832)" fill="white"/>
<rect x="72.9668" y="9.68164" width="9.0814" height="67.931" transform="rotate(45 72.9668 9.68164)" fill="white"/>
<rect x="99.6172" y="33.9453" width="9.0814" height="27.6079" transform="rotate(45 99.6172 33.9453)" fill="white"/>
<rect x="31.7354" y="1.04297" width="9.0814" height="40.0238" transform="rotate(45 31.7354 1.04297)" fill="white"/>
<path d="M140.966 30.6676C135 29.4501 132.443 28.1108 132.443 25.1887C132.443 21.7796 135.365 19.8315 140.54 19.8315C145.288 19.8315 148.332 21.9013 150.28 23.7885L152.898 18.9184C148.21 14.5961 142.244 14.4135 140.661 14.4135C131.834 14.4135 127.025 19.2228 127.025 25.3713C127.025 30.485 130.008 34.2594 140.54 36.0248C145.714 36.9379 149.184 38.8251 149.184 41.869C149.184 45.4607 146.079 47.774 140.357 47.774C135.913 47.774 131.591 45.7042 128.425 42.1734L125.747 47.0435C126.294 47.7132 131.104 53.1921 140.235 53.1921C149.123 53.1921 154.602 48.2002 154.602 41.6255C154.602 35.2334 150.036 32.3722 140.966 30.6676ZM184.722 20.1968V14.8396H159.519V20.1968H184.722ZM174.799 52.766V23.2406H169.381V52.766H174.799ZM207.829 39.1295C213.429 37.6076 216.656 32.8592 216.656 26.9541C216.656 19.8315 212.09 14.8396 202.228 14.8396H190.54V20.2577H204.115C208.011 20.2577 211.238 22.3275 211.238 27.3194C211.238 32.1895 207.95 34.2594 203.993 34.2594H190.54V52.766H195.897V39.6774H201.863L211.238 52.766H217.569L207.829 39.1295ZM231.274 52.766V14.8396H225.917V52.766H231.274ZM241.655 52.766H247.012V14.8396H241.655V52.766ZM262.353 52.766V47.3479H250.117V52.766H262.353ZM274.759 52.766V14.8396H269.401V52.766H274.759ZM299.689 13.9265L281.669 52.766H287.513L291.166 44.6084L299.689 25.9192L308.151 44.6084H308.211L311.864 52.766H317.708L299.689 13.9265ZM324.535 52.766H329.892V31.3981L324.535 25.9801V52.766ZM350.651 14.8396V40.7732L324.535 13.9265V21.4143L356.069 53.6182V14.8396H350.651ZM388.043 20.1968V14.8396H362.84V20.1968H388.043ZM378.121 52.766V23.2406H372.702V52.766H378.121Z" fill="white"/>
</svg>
