<svg width="24" height="27" viewBox="0 0 24 27" fill="none" xmlns="http://www.w3.org/2000/svg">
<g clip-path="url(#clip0)">
<path d="M20.9513 10.2802L12.9984 1.64174C12.1763 0.748677 10.8384 0.748626 10.0161 1.64174C9.27701 2.44453 9.21336 3.66891 9.75917 4.54318L9.74811 4.60331C9.17473 7.71759 7.77884 10.5507 5.71124 12.7965L2.06348 16.7588C1.23933 17.654 1.23919 19.1029 2.06348 19.9981L4.05163 22.1577C4.87574 23.0529 6.20971 23.0529 7.03391 22.1577L7.53097 21.6178L11.0103 25.3971C11.8345 26.2923 13.1683 26.2924 13.9925 25.3971C14.8148 24.504 14.8148 23.0508 13.9925 22.1577L12.5014 20.5381L12.9985 19.9981C13.8226 19.103 13.8227 17.6541 12.9985 16.7588L12.6607 16.3919C14.3223 15.1282 16.2095 14.2484 18.2248 13.8106L18.2808 13.7984C19.1036 14.4018 20.2282 14.3048 20.9513 13.5195H20.9513C21.7734 12.6264 21.7734 11.1733 20.9513 10.2802ZM6.03983 21.0779C5.76515 21.3762 5.3204 21.3763 5.04571 21.0779L3.05756 18.9183C2.78282 18.6198 2.78282 18.137 3.05756 17.8385L6.53685 14.0593L9.51912 17.2986C9.17872 17.6684 6.38863 20.699 6.03983 21.0779ZM12.9984 23.2375C13.2724 23.5351 13.2724 24.0195 12.9984 24.3172C12.7244 24.6149 12.2784 24.6149 12.0043 24.3172L8.525 20.538L9.51912 19.4582L12.9984 23.2375ZM10.5132 18.3784C10.7245 18.1489 11.0408 17.7973 11.54 17.3342L12.0043 17.8385C12.2791 18.137 12.2791 18.6198 12.0043 18.9183L11.5073 19.4582L10.5132 18.3784ZM10.5431 16.2513L7.50097 12.947C9.13123 10.9023 10.2987 8.4886 10.9233 5.86644L17.0617 12.534C14.6476 13.2124 12.4256 14.4805 10.5431 16.2513ZM19.957 12.4396C19.6823 12.738 19.2377 12.738 18.963 12.4396L11.0102 3.80129C10.7355 3.50282 10.7355 3.01993 11.0102 2.72151C11.2849 2.4231 11.7296 2.4231 12.0043 2.72151L19.957 11.3598C20.2311 11.6575 20.2311 12.1419 19.957 12.4396Z" fill="white"/>
<path d="M7.03485 16.7592C6.7604 16.4611 6.31527 16.4611 6.04077 16.7592L5.0467 17.8388C4.7722 18.1369 4.7722 18.6203 5.0467 18.9184C5.32115 19.2165 5.76632 19.2165 6.04077 18.9184L7.03485 17.8388C7.30935 17.5407 7.30935 17.0573 7.03485 16.7592Z" fill="white"/>
<path d="M16.2273 0C15.8391 0 15.5244 0.341849 15.5244 0.763534V2.2906C15.5244 2.71229 15.8391 3.05414 16.2273 3.05414C16.6156 3.05414 16.9303 2.71229 16.9303 2.2906V0.763534C16.9303 0.341849 16.6156 0 16.2273 0Z" fill="white"/>
<path d="M21.851 6.10815H20.4451C20.0569 6.10815 19.7422 6.44995 19.7422 6.87156C19.7422 7.29317 20.0569 7.63496 20.4451 7.63496H21.851C22.2392 7.63496 22.5539 7.29317 22.5539 6.87156C22.5539 6.44995 22.2392 6.10815 21.851 6.10815Z" fill="white"/>
<path d="M20.9427 1.75023C20.6683 1.45207 20.2232 1.45207 19.9487 1.75023L18.5428 3.2773C18.2683 3.57547 18.2683 4.05891 18.5428 4.35707C18.8172 4.65524 19.2624 4.65529 19.5369 4.35707L20.9427 2.83001C21.2172 2.53184 21.2172 2.04845 20.9427 1.75023Z" fill="white"/>
</g>
<defs>
<clipPath id="clip0">
<rect width="24" height="26.069" fill="white"/>
</clipPath>
</defs>
</svg>
