<svg width="144" height="144" viewBox="0 0 144 144" fill="none" xmlns="http://www.w3.org/2000/svg">
<g clip-path="url(#clip0)">
<path d="M136.616 8.44727H91.719C87.6428 8.44727 84.3347 11.7555 84.3347 15.8316V60.7284C84.3347 64.8047 87.6428 68.1127 91.719 68.1127H113.207C112.927 79.8688 110.195 89.2763 105.026 96.3505C100.949 101.933 94.7763 106.556 86.5204 110.203C82.7249 111.872 81.0855 116.362 82.8578 120.113L88.1745 131.338C89.8877 134.941 94.1263 136.521 97.7889 134.941C107.566 130.717 115.822 125.371 122.556 118.873C130.768 110.942 136.394 101.992 139.437 92.0085C142.479 82.0248 144 68.4081 144 51.1288V15.8316C144 11.7556 140.692 8.44727 136.616 8.44727Z" fill="#DBF1DC" fill-opacity="0.3"/>
<path d="M15.6603 134.912C25.319 130.702 33.5304 125.356 40.3092 118.873C48.5944 110.942 54.2509 102.022 57.2932 92.1119C60.3356 82.2021 61.8566 68.5411 61.8566 51.1288V15.8316C61.8566 11.7555 58.5485 8.44727 54.4722 8.44727H9.57544C5.49928 8.44727 2.1911 11.7555 2.1911 15.8316V60.7284C2.1911 64.8047 5.49928 68.1128 9.57544 68.1128H31.0639C30.7833 79.8688 28.0511 89.2763 22.882 96.3505C18.8059 101.933 12.6326 106.556 4.37686 110.204C0.58131 111.872 -1.05801 116.362 0.714228 120.113L6.01619 131.308C7.7295 134.912 11.9977 136.507 15.6603 134.912Z" fill="#DBF1DC" fill-opacity="0.3"/>
</g>
<defs>
<clipPath id="clip0">
<rect width="144" height="144" fill="white"/>
</clipPath>
</defs>
</svg>
