<svg width="37" height="36" viewBox="0 0 37 36" fill="none" xmlns="http://www.w3.org/2000/svg">
<circle cx="18.5351" cy="17.5868" r="17.5868" fill="#033603"/>
<g filter="url(#filter0_dd)">
<path fill-rule="evenodd" clip-rule="evenodd" d="M19.7563 24.9152C19.7409 24.9152 19.7262 24.9145 19.7116 24.9137C19.3804 24.8939 19.1041 24.6536 19.0382 24.3282L17.9111 18.7833C17.8525 18.4945 17.6275 18.2696 17.3388 18.211L11.7938 17.0832C11.4685 17.018 11.2281 16.7417 11.2084 16.4105C11.1886 16.0786 11.393 15.7752 11.7081 15.6711L23.4327 11.7632C23.6957 11.6738 23.9859 11.7427 24.1823 11.9398C24.3787 12.1362 24.4468 12.4264 24.3596 12.6894L20.451 24.414C20.3513 24.7151 20.0699 24.9152 19.7563 24.9152Z" fill="#231F20"/>
<mask id="mask0" mask-type="alpha" maskUnits="userSpaceOnUse" x="11" y="11" width="14" height="14">
<path fill-rule="evenodd" clip-rule="evenodd" d="M19.7563 24.9152C19.7409 24.9152 19.7262 24.9145 19.7116 24.9137C19.3804 24.8939 19.1041 24.6536 19.0382 24.3282L17.9111 18.7833C17.8525 18.4945 17.6275 18.2696 17.3388 18.211L11.7938 17.0832C11.4685 17.018 11.2281 16.7417 11.2084 16.4105C11.1886 16.0786 11.393 15.7752 11.7081 15.6711L23.4327 11.7632C23.6957 11.6738 23.9859 11.7427 24.1823 11.9398C24.3787 12.1362 24.4468 12.4264 24.3596 12.6894L20.451 24.414C20.3513 24.7151 20.0699 24.9152 19.7563 24.9152Z" fill="white"/>
</mask>
<g mask="url(#mask0)">
<rect x="9.74121" y="8.79297" width="17.5868" height="17.5868" fill="white"/>
</g>
</g>
<defs>
<filter id="filter0_dd" x="7.60947" y="7.7271" width="21.8503" height="21.8503" filterUnits="userSpaceOnUse" color-interpolation-filters="sRGB">
<feFlood flood-opacity="0" result="BackgroundImageFix"/>
<feColorMatrix in="SourceAlpha" type="matrix" values="0 0 0 0 0 0 0 0 0 0 0 0 0 0 0 0 0 0 127 0"/>
<feOffset dy="1.06587"/>
<feGaussianBlur stdDeviation="0.532934"/>
<feColorMatrix type="matrix" values="0 0 0 0 0 0 0 0 0 0 0 0 0 0 0 0 0 0 0.03 0"/>
<feBlend mode="normal" in2="BackgroundImageFix" result="effect1_dropShadow"/>
<feColorMatrix in="SourceAlpha" type="matrix" values="0 0 0 0 0 0 0 0 0 0 0 0 0 0 0 0 0 0 127 0"/>
<feOffset dy="1.06587"/>
<feGaussianBlur stdDeviation="1.06587"/>
<feColorMatrix type="matrix" values="0 0 0 0 0 0 0 0 0 0 0 0 0 0 0 0 0 0 0.03 0"/>
<feBlend mode="normal" in2="effect1_dropShadow" result="effect2_dropShadow"/>
<feBlend mode="normal" in="SourceGraphic" in2="effect2_dropShadow" result="shape"/>
</filter>
</defs>
</svg>
