<svg width="29" height="42" viewBox="0 0 29 42" fill="none" xmlns="http://www.w3.org/2000/svg">
<path d="M13.481 0.0488614C15.2537 -0.127148 17.0651 0.176517 18.6951 0.892643C20.2705 1.57541 21.6689 2.61937 22.8695 3.83935C25.3578 6.41809 26.9917 9.72068 27.9457 13.1505C28.7871 16.1847 29.1 19.3567 28.9505 22.4993C28.8195 25.2492 28.3132 27.9865 27.4008 30.5856C26.4734 33.1904 25.1335 35.6777 23.2689 37.7342C21.7114 39.4552 19.7536 40.8666 17.5172 41.5465C15.892 42.0499 14.1382 42.133 12.47 41.8018C10.162 41.3434 8.07262 40.0814 6.40101 38.4504C4.45088 36.5447 3.00847 34.1667 1.98385 31.6508C0.580606 28.1707 -0.0513845 24.3981 0.00325579 20.6516C0.0129266 18.13 0.364946 15.6102 1.02788 13.177C1.73144 10.6264 2.81264 8.16609 4.33338 5.9945C5.696 4.06081 7.43676 2.34714 9.54839 1.24756C10.7688 0.603485 12.1087 0.188122 13.481 0.0488614ZM9.10256 2.97671C9.77614 4.25133 10.4531 5.52498 11.1257 6.7996C11.1842 6.91565 11.2398 7.03412 11.3201 7.13808C12.1948 5.19521 13.0671 3.24991 13.9211 1.29737C12.1987 1.38779 10.5305 2.02317 9.10256 2.97671ZM15.0675 1.29785C15.3074 1.91679 15.6038 2.51251 15.8654 3.12274C16.4698 4.45877 17.0457 5.81027 17.6685 7.1376C18.3817 5.81898 19.0664 4.48633 19.7739 3.16384C19.8005 3.09325 19.8778 3.01056 19.8213 2.93416C18.4054 2.01253 16.7657 1.38344 15.0675 1.29785ZM14.4621 1.84522C13.6039 3.85096 12.6764 5.82768 11.8128 7.83148C12.6827 8.29907 13.5308 8.80679 14.392 9.28985C14.4771 9.34739 14.5792 9.30145 14.6556 9.25406C15.4868 8.77971 16.3151 8.29762 17.1516 7.83245C17.1178 7.66756 17.0385 7.51766 16.9693 7.36631C16.1695 5.56947 15.364 3.77456 14.5676 1.97578C14.5444 1.92307 14.5095 1.87907 14.4621 1.84522ZM20.4518 3.37757C19.8155 4.56708 19.1926 5.76482 18.5611 6.95675C18.4533 7.16951 18.3271 7.3726 18.241 7.59648C20.2356 7.6105 22.2322 7.60953 24.2268 7.59648C24.1881 7.51476 24.1475 7.43401 24.0992 7.35858C23.1074 5.84944 21.9053 4.46071 20.4518 3.37757ZM4.73859 7.59696C6.74191 7.61002 8.74377 7.61002 10.7471 7.59696C10.0711 6.27447 9.35787 4.97084 8.67221 3.65319C8.62676 3.55938 8.57115 3.47234 8.50974 3.38821C6.9977 4.53179 5.73952 5.99112 4.73859 7.59696ZM4.64768 8.31647C5.51371 10.5891 6.46 12.8323 7.32893 15.104C8.15047 14.4894 8.92994 13.8139 9.72875 13.1693C10.1253 11.5548 10.5126 9.93634 10.8883 8.31647C8.80808 8.31164 6.72837 8.31116 4.64768 8.31647ZM18.1013 8.31357C18.1163 8.41222 18.1322 8.51183 18.154 8.60902C18.5099 10.0809 18.8585 11.5548 19.2125 13.0276C19.2313 13.2027 19.3977 13.2854 19.5166 13.3908C20.2269 13.9536 20.9116 14.5513 21.636 15.0953C22.5475 12.84 23.4415 10.5756 24.34 8.31454C22.2602 8.31212 20.1805 8.31406 18.1013 8.31357ZM15.1783 9.78499C15.1338 9.86671 15.2556 9.9054 15.2972 9.95617C16.3127 10.7676 17.3068 11.6065 18.329 12.4097C18.0109 11.1152 17.7058 9.81691 17.3958 8.52053C16.656 8.93976 15.9157 9.36189 15.1783 9.78499ZM11.5943 8.53745C11.4695 8.94653 11.3921 9.36721 11.2853 9.78113C11.0851 10.6554 10.852 11.5233 10.6707 12.401C11.6121 11.6491 12.5396 10.8802 13.4767 10.1235C13.6043 10.019 13.7451 9.92716 13.8393 9.78983C13.0768 9.39768 12.3534 8.93154 11.5943 8.53745ZM3.28119 10.344C2.83246 11.4218 2.4055 12.5165 2.13471 13.6543C3.61532 14.1325 5.08335 14.6567 6.56977 15.1141C5.73565 13.001 4.8735 10.8976 4.05196 8.77874C3.76087 9.28308 3.5249 9.81594 3.28119 10.344ZM24.9338 8.81936C24.7674 9.14092 24.6601 9.48858 24.5174 9.82029C23.8197 11.5876 23.1045 13.3487 22.415 15.1194C23.8975 14.6431 25.3747 14.1436 26.85 13.6437C26.4279 12.0136 25.7998 10.4392 25.0266 8.9446C25.0039 8.91317 24.9574 8.85127 24.9338 8.81936ZM10.5691 13.4179C10.4879 13.4904 10.3748 13.5523 10.3574 13.6717C9.84238 15.9739 9.33321 18.2779 8.81534 20.5796C8.77182 20.7764 8.70848 20.9805 8.76166 21.1821C9.2955 23.5718 9.83174 25.9619 10.3607 28.353C10.3907 28.4628 10.4995 28.5213 10.5779 28.5943C11.8878 29.648 13.1779 30.7248 14.4936 31.7683C15.861 30.6595 17.2362 29.558 18.5848 28.4294C18.8324 27.4914 19.0147 26.531 19.2376 25.5848C19.5645 24.108 19.8948 22.6332 20.2255 21.1579C20.285 20.9137 20.1752 20.6749 20.1331 20.4374C19.6375 18.2064 19.1366 15.9772 18.6429 13.7462C18.6279 13.6785 18.6051 13.6132 18.5756 13.5508C17.2159 12.4445 15.8548 11.3396 14.4974 10.2299C13.1808 11.2825 11.882 12.3579 10.5691 13.4179ZM1.93356 14.3259C1.49644 16.2558 1.19954 18.2252 1.17343 20.2068C1.24161 20.1613 1.3093 20.114 1.37458 20.0622C3.03313 18.6841 4.6941 17.3094 6.35362 15.9328C6.39521 15.8989 6.42519 15.8583 6.44695 15.8099C4.93297 15.3467 3.44076 14.8066 1.93356 14.3259ZM7.66257 15.7945C7.60116 15.8477 7.58521 15.8854 7.60987 15.9816C7.63453 16.0783 8.19447 18.4941 8.33808 19.3296C8.42947 19.1232 8.45316 18.8954 8.50635 18.6778C8.83226 17.2238 9.1485 15.7684 9.48311 14.3168C8.86466 14.794 8.26603 15.2993 7.66257 15.7945ZM19.5132 14.3206C19.8053 15.7297 20.1385 17.1295 20.4445 18.5347C20.504 18.7987 20.5732 19.0618 20.6002 19.3311C20.7124 19.0473 20.7458 18.7426 20.8203 18.4491C20.9731 17.734 21.3425 16.0594 21.3425 16.0594C21.3425 16.0594 21.415 15.8356 21.2622 15.7447C20.6815 15.2679 20.0993 14.7911 19.5132 14.3206ZM22.5325 15.8346C22.9914 16.2616 23.4967 16.6382 23.9729 17.0478C25.1523 18.025 26.3312 19.0023 27.5096 19.98C27.6039 20.0608 27.6938 20.1541 27.8157 20.1957C27.761 18.2199 27.5105 16.2451 27.0328 14.3259C25.5319 14.8264 24.0257 15.3124 22.5325 15.8346ZM1.37362 20.9998C3.21978 22.551 5.09351 24.0703 6.93436 25.6278C7.02139 25.505 7.02961 25.3507 7.06395 25.2095C7.36036 23.859 7.65725 22.5089 7.95366 21.1584C7.98219 21.0428 7.97542 20.9224 7.94593 20.8069C7.61809 19.3263 7.29605 17.8432 6.97014 16.3621C5.10125 17.9032 3.23767 19.4525 1.37362 20.9998ZM22.0214 16.3854C21.709 17.6459 21.4624 18.9244 21.1703 20.1923C21.1229 20.4998 20.99 20.8001 21.0219 21.1149C21.3362 22.6105 21.6887 24.0993 21.9909 25.5968C22.0673 25.5944 22.1287 25.548 22.1863 25.5011C23.8085 24.1535 25.4342 22.8092 27.0565 21.4616C27.2359 21.3054 27.4371 21.1724 27.5937 20.9901C26.3641 19.965 25.1296 18.9452 23.8966 17.923C23.2699 17.4134 22.6635 16.8747 22.0214 16.3854ZM1.17826 21.7764C1.16231 22.5718 1.25563 23.3638 1.32478 24.1549C1.46936 25.3377 1.64102 26.5257 1.96015 27.6746C3.33535 27.2196 4.70958 26.7583 6.08526 26.3014C6.21291 26.2564 6.34879 26.2293 6.4629 26.1539C4.6941 24.7042 2.93739 23.2381 1.17826 21.7764ZM22.5325 26.1476C22.5949 26.1979 22.6664 26.2312 22.7443 26.2535C24.176 26.7187 25.5981 27.2177 27.0347 27.6708C27.5183 25.7443 27.7572 23.7594 27.8195 21.7754C26.0493 23.2217 24.2984 24.6946 22.5325 26.1476ZM20.6027 22.6966C20.2637 24.3556 19.8662 26.0025 19.5128 27.6591C19.6863 27.5716 19.8217 27.428 19.9736 27.31C20.4383 26.9367 21.358 26.1795 21.358 26.1795C21.358 26.1795 21.4184 26.1258 21.3928 26.018C21.3671 25.9102 20.8792 23.8484 20.6911 22.9635C20.6737 22.8706 20.6409 22.7826 20.6027 22.6966ZM8.32261 22.7623C8.14708 23.696 7.58956 26.0784 7.58956 26.0784C7.58956 26.0784 7.56877 26.1307 7.62921 26.1795C7.68868 26.2288 8.86659 27.1901 9.48118 27.6993C9.14124 26.1732 8.79841 24.6476 8.46042 23.1211C8.42367 22.9997 8.44156 22.8406 8.32261 22.7623ZM5.85944 27.1108C4.61867 27.5363 3.36726 27.9314 2.12891 28.3651C2.57377 30.044 3.22172 31.6653 4.0273 33.203C4.23329 32.8379 4.34353 32.423 4.51471 32.0396C5.12107 30.5328 5.71583 29.0213 6.32122 27.5146C6.40053 27.3091 6.49772 27.1094 6.54704 26.8942C6.31204 26.9483 6.08816 27.0363 5.85944 27.1108ZM7.32796 26.9111C6.46 29.1678 5.51854 31.3979 4.65977 33.6585C6.73369 33.6715 8.80857 33.6715 10.8825 33.6585C10.5131 32.0546 10.1214 30.4555 9.73794 28.8545C9.11368 28.3081 8.45075 27.8028 7.81489 27.2689C7.65097 27.1509 7.51509 26.9919 7.32796 26.9111ZM19.359 28.7447C19.225 28.8298 19.2023 28.9937 19.1699 29.1369C18.8242 30.647 18.4335 32.1474 18.1066 33.6614C20.1805 33.6691 22.2544 33.6715 24.3284 33.6599C23.4294 31.4081 22.5489 29.146 21.6292 26.9029C20.8643 27.5064 20.1157 28.1301 19.359 28.7447ZM22.4179 26.8947C23.2114 28.9183 24.0252 30.9342 24.8254 32.9549C24.8603 33.0386 24.883 33.1387 24.97 33.186C25.6339 31.8877 26.2074 30.542 26.6305 29.1456C26.7021 28.8767 26.8259 28.6146 26.8326 28.3337C25.3564 27.8695 23.897 27.3453 22.4179 26.8947ZM10.6692 29.617C10.9516 30.8974 11.2916 32.1658 11.5672 33.4476C11.6794 33.4447 11.7732 33.3795 11.8665 33.3263C12.5227 32.9428 13.1924 32.5821 13.8422 32.188C13.3689 31.7818 12.8742 31.4018 12.3965 30.9999C11.8152 30.5469 11.2635 30.0522 10.6692 29.617ZM18.1956 29.69C17.183 30.5096 16.1811 31.3457 15.1585 32.1532C15.2102 32.2721 15.3465 32.3094 15.4476 32.3747C16.1038 32.7238 16.728 33.1367 17.3958 33.4597C17.7091 32.1817 18.0133 30.9008 18.3155 29.6204C18.285 29.6378 18.2246 29.6721 18.1956 29.69ZM11.8133 34.1884C12.6228 36.0075 13.4332 37.8266 14.245 39.6442C14.3253 39.8164 14.3877 39.9977 14.4945 40.1558C14.8572 39.4126 15.1705 38.6462 15.5182 37.8957C16.0612 36.6569 16.6299 35.4282 17.1613 34.1846C16.2783 33.671 15.3886 33.1691 14.5018 32.6633C13.5952 33.1532 12.7093 33.6807 11.8133 34.1884ZM4.72553 34.3765C5.67473 35.9268 6.87778 37.3305 8.30665 38.4586C8.37821 38.5166 8.45413 38.5746 8.54455 38.5998C9.27083 37.1859 10.0406 35.7943 10.7601 34.3785C8.74861 34.3727 6.73707 34.3756 4.72553 34.3765ZM18.2057 34.3785C18.9586 35.7875 19.697 37.2043 20.446 38.6153C20.9445 38.2874 21.3754 37.8672 21.8134 37.4649C22.7486 36.537 23.5682 35.4954 24.2669 34.3785C22.2472 34.3727 20.2269 34.3736 18.2057 34.3785ZM11.0295 35.3876C10.3912 36.6066 9.72923 37.815 9.1074 39.0427C10.544 39.9745 12.1977 40.6171 13.9191 40.7114C13.5376 39.784 13.1048 38.8773 12.7045 37.9586C12.2398 36.933 11.7959 35.8992 11.324 34.878C11.1934 35.0269 11.1257 35.2169 11.0295 35.3876ZM17.5883 35.0143C17.0148 36.3121 16.434 37.6042 15.8572 38.8986C15.6014 39.5045 15.2982 40.093 15.0714 40.7104C16.7846 40.6142 18.4335 39.9759 19.8653 39.0471C19.6544 38.5674 19.3798 38.1191 19.1457 37.6496C18.6501 36.7294 18.1845 35.7904 17.6685 34.8809C17.6487 34.9142 17.6081 34.9814 17.5883 35.0143Z" fill="#033603"/>
</svg>
