<svg width="45" height="45" viewBox="0 0 45 45" fill="none" xmlns="http://www.w3.org/2000/svg">
<path d="M43.5132 18.6344L26.3656 1.48678C25.3745 0.495595 23.8877 0 22.5 0C21.1123 0 19.7247 0.495595 18.6344 1.48678L1.48678 18.6344C0.495595 19.6255 0 21.1123 0 22.5C0 23.8877 0.495595 25.2753 1.48678 26.3656L18.6344 43.5132C19.6255 44.5044 21.1123 45 22.5 45C23.8877 45 25.2753 44.5044 26.3656 43.5132L43.5132 26.3656C44.5044 25.3745 45 23.8877 45 22.5C45 21.1123 44.5044 19.7247 43.5132 18.6344ZM41.9273 19.13L39.0529 21.5088L23.4912 5.94714L25.87 3.07269L41.9273 19.13ZM11.7952 21.6079L21.6079 11.7952C21.6079 11.8943 21.7071 11.8943 21.7071 11.9934C20.6167 13.8767 19.2291 15.7599 17.5441 17.4449C15.859 19.13 13.9758 20.6167 11.9934 21.6079C11.8943 21.6079 11.8943 21.6079 11.7952 21.6079ZM17.4449 27.4559C19.13 29.141 20.6167 31.0242 21.6079 33.0066C21.6079 33.0066 21.6079 33.1057 21.5088 33.1057L11.696 23.293C11.7952 23.293 11.7952 23.1938 11.8943 23.1938C13.8767 24.3833 15.7599 25.7709 17.4449 27.4559ZM9.61454 21.8062H7.8304L21.8062 7.8304V9.61454L9.61454 21.8062ZM9.61454 23.1938L21.8062 35.3855V37.1696L7.73128 23.1938H9.61454ZM18.4361 26.4648C16.8502 24.8789 15.1652 23.5903 13.3811 22.5C15.1652 21.4097 16.9493 20.022 18.4361 18.5352C20.022 16.9493 21.3106 15.2643 22.4009 13.4802C23.4912 15.2643 24.8789 17.0485 26.3656 18.5352C27.9515 20.1211 29.6366 21.4097 31.4207 22.5C29.6366 23.5903 27.8524 24.978 26.3656 26.4648C24.7797 28.0507 23.4912 29.7357 22.4009 31.5198C21.4097 29.7357 20.022 28.0507 18.4361 26.4648ZM33.0066 21.7071C31.1233 20.6167 29.2401 19.2291 27.5551 17.5441C25.87 15.859 24.3833 13.9758 23.3921 11.9934C23.3921 11.9934 23.3921 11.8943 23.4912 11.8943L33.304 21.7071C33.1057 21.6079 33.1057 21.7071 33.0066 21.7071ZM33.2048 23.3921L23.3921 33.2048C23.3921 33.1057 23.293 33.1057 23.293 33.0066C24.3833 31.1233 25.7709 29.2401 27.4559 27.5551C29.141 25.87 31.0242 24.3833 33.0066 23.3921C33.1057 23.3921 33.1057 23.3921 33.2048 23.3921ZM23.1938 35.3855L35.3855 23.1938H37.1696L23.1938 37.2687V35.3855ZM35.3855 21.8062L23.1938 9.61454V7.8304L37.1696 21.8062H35.3855ZM24.7797 2.18062L22.5 4.85683L20.2203 2.18062C21.6079 1.28855 23.3921 1.28855 24.7797 2.18062ZM19.13 3.07269L21.5088 5.94714L5.94714 21.5088L3.07269 19.13L19.13 3.07269ZM2.18062 20.2203L4.85683 22.5L2.18062 24.7797C1.28855 23.3921 1.28855 21.6079 2.18062 20.2203ZM3.07269 25.87L5.94714 23.4912L21.5088 39.0529L19.13 41.9273L3.07269 25.87ZM20.2203 42.8194L22.5 40.1432L24.7797 42.8194C23.3921 43.7115 21.6079 43.7115 20.2203 42.8194ZM25.87 41.9273L23.4912 39.0529L39.0529 23.4912L41.9273 25.87L25.87 41.9273ZM42.8194 24.7797L40.1432 22.5L42.8194 20.2203C43.7115 21.6079 43.7115 23.3921 42.8194 24.7797Z" fill="#033603"/>
</svg>
