<svg width="41" height="41" viewBox="0 0 41 41" fill="none" xmlns="http://www.w3.org/2000/svg">
<path fill-rule="evenodd" clip-rule="evenodd" d="M10.3813 0.0150424C5.32053 0.264351 1.68021 3.47119 0.715497 7.01095H0.713725C-1.02414 13.8025 0.521307 19.8446 4.15934 25.2385C7.79738 30.6324 13.5014 35.4152 20.1448 39.889L20.4501 40.1002L20.7555 39.8961C27.3988 35.4223 33.1029 30.6395 36.7409 25.2456C40.3789 19.8517 41.9244 13.8096 40.1865 7.018H40.1847C38.6571 1.40551 30.4121 -3.32471 20.4501 3.15877C16.779 0.769569 13.3346 -0.130471 10.3813 0.0150424ZM10.4257 1.06589C13.2101 0.932557 16.5174 1.79215 20.1466 4.23097L20.4501 4.43512L20.7537 4.23097C30.4301 -2.27168 37.8083 2.45078 39.1303 7.29498C39.1305 7.29571 39.1319 7.29498 39.1321 7.29498C40.7908 13.7857 39.345 19.4325 35.8374 24.633C32.388 29.7472 26.8892 34.3865 20.4502 38.7546C14.0111 34.3865 8.51231 29.7472 5.06294 24.633C1.55534 19.4325 0.109529 13.7857 1.76822 7.29498C1.76842 7.29425 1.7698 7.29498 1.76999 7.29498C2.59619 4.26765 5.78614 1.28802 10.4257 1.06589H10.4257Z" fill="#033603"/>
<path fill-rule="evenodd" clip-rule="evenodd" d="M0.598145 8.37244L20.0505 29.3302L20.4499 28.9591L20.8493 29.3302L40.3017 8.37244H24.7192L20.4499 11.5749L16.1806 8.37244H0.598145ZM3.09759 9.46239H15.8167L20.4499 12.94L25.0831 9.46239H37.8023L20.4499 28.1585L3.09759 9.46239Z" fill="#033603"/>
<path fill-rule="evenodd" clip-rule="evenodd" d="M15.9145 1.38013L11.0044 8.75238V32.8451H16.1808L20.7767 29.3959L20.1235 28.5226L15.8169 31.7534H12.0944V9.08261L16.0849 3.09317L20.0649 7.07667L20.8353 6.30446L15.9145 1.38013Z" fill="#033603"/>
<path fill-rule="evenodd" clip-rule="evenodd" d="M20.2069 6.20325L15.6891 8.46299L7.70791 15.6258L3.14038 23.5751H14.9613V22.4833H5.02562L8.56709 16.3199L16.3086 9.37188L20.6933 7.17776L20.2069 6.20325Z" fill="#033603"/>
<path fill-rule="evenodd" clip-rule="evenodd" d="M15.4548 24.1752V32.4652L19.9957 39.2819L20.9046 38.6784L16.5448 32.1351V24.1752H15.4548Z" fill="#033603"/>
<path fill-rule="evenodd" clip-rule="evenodd" d="M24.9857 1.38013L20.0649 6.30446L20.8354 7.07667L24.8153 3.09317L28.8059 9.08261V31.7534H25.0834L20.7768 28.5226L20.1235 29.3959L24.7195 32.8451H29.8959V8.75238L24.9857 1.38013Z" fill="#033603"/>
<path fill-rule="evenodd" clip-rule="evenodd" d="M20.6934 6.20325L20.207 7.17776L24.5917 9.37188L32.3333 16.3199L35.8747 22.4833H25.9391V23.5751H37.76L33.1924 15.6258L25.2113 8.46299L20.6934 6.20325Z" fill="#033603"/>
<path fill-rule="evenodd" clip-rule="evenodd" d="M24.3557 24.1752V32.1351L19.9958 38.6784L20.9047 39.2819L25.4456 32.4652V24.1752H24.3557Z" fill="#033603"/>
</svg>
