<svg width="25" height="46" viewBox="0 0 25 46" fill="none" xmlns="http://www.w3.org/2000/svg">
<path d="M12.4516 0C12.4732 0.00473993 12.5143 0.0131665 12.5359 0.0173798C16.1803 2.52691 19.2797 5.84539 21.4532 9.7058C23.7121 13.6858 24.9424 18.2466 24.9566 22.8244C24.9877 26.3298 24.3104 29.8374 22.9927 33.0847C21.8951 35.8002 20.3531 38.3329 18.4697 40.5744C16.7386 42.6457 14.7099 44.4606 12.4942 46C7.93864 42.9117 4.24887 38.5156 2.11116 33.4344C0.130395 28.7651 -0.47421 23.528 0.372132 18.5289C0.862451 15.5949 1.8531 12.7473 3.27034 10.1335C5.46019 6.08239 8.66017 2.6017 12.4516 0ZM12.0461 3.03198C11.4146 4.4745 10.7436 5.90174 10.1348 7.35322C10.889 7.70818 11.6326 8.08369 12.3873 8.43655C12.4811 8.49607 12.5817 8.43655 12.6691 8.39653C13.3253 8.07316 13.9847 7.75716 14.643 7.43959C14.711 7.40694 14.7715 7.36533 14.8263 7.31424C14.0416 5.57732 13.279 3.82934 12.489 2.09452C12.3047 2.38787 12.1956 2.7202 12.0461 3.03198ZM9.06517 4.43394C8.73811 4.78575 8.37788 5.11176 8.084 5.49253C8.54904 5.95388 9.01514 6.41524 9.49861 6.85816C10.2022 5.31136 10.8943 3.75929 11.5752 2.20302C10.6894 2.8882 9.86148 3.64712 9.06517 4.43394ZM13.3732 2.20354C14.0769 3.7535 14.7557 5.31452 15.4614 6.86395C15.9407 6.41366 16.4131 5.95336 16.8808 5.49095C16.2894 4.79997 15.6331 4.16535 14.9674 3.546C14.4513 3.08306 13.9357 2.6117 13.3732 2.20354ZM7.5605 6.06975C6.5688 7.23893 5.67296 8.48922 4.88929 9.80587C6.26229 9.0301 7.62633 8.23853 8.99144 7.44696C8.51692 6.98508 8.05082 6.51214 7.5605 6.06975ZM15.9744 7.44486C17.3279 8.24327 18.6972 9.02115 20.0613 9.80271C19.2908 8.48027 18.3897 7.23208 17.3932 6.07133C16.9129 6.52004 16.4384 6.97823 15.9744 7.44486ZM9.96839 8.11898C9.91783 9.4114 9.83251 10.7017 9.78511 11.9931C10.0363 11.6845 10.248 11.3463 10.4824 11.0256C10.9411 10.3604 11.4299 9.71581 11.8702 9.03958C11.2376 8.72938 10.6062 8.41865 9.96839 8.11898ZM14.6372 8.28277C14.1237 8.54347 13.5992 8.77836 13.0883 9.04221C13.7803 10.0476 14.4819 11.0477 15.2044 12.0321C15.0923 10.7481 15.0686 9.45564 14.9896 8.16796C14.8616 8.1648 14.7483 8.22905 14.6372 8.28277ZM4.44005 10.9477C4.32208 11.0198 4.1862 11.0799 4.1072 11.1999C4.08771 11.4117 4.13985 11.6218 4.16092 11.8319C4.33893 13.3603 4.52905 14.8865 4.7018 16.416C6.12641 15.3189 7.55418 14.2219 8.96352 13.1054C9.04463 11.478 9.14048 9.84958 9.2021 8.22168C7.60369 9.1091 6.03056 10.046 4.44005 10.9477ZM15.7564 8.22536C15.818 9.85011 15.9207 11.4727 15.9907 13.0975C17.3838 14.2182 18.8194 15.2842 20.2161 16.3996C20.2872 16.3264 20.2709 16.2153 20.2904 16.1231C20.4737 14.5463 20.6669 12.9716 20.8497 11.3948C20.8787 11.2547 20.8239 11.1051 20.688 11.0467C19.2439 10.2161 17.7998 9.38454 16.3552 8.55347C16.1577 8.44024 15.9665 8.31595 15.7564 8.22536ZM9.78142 13.3398C9.55285 13.7416 9.50756 14.2161 9.36694 14.6506C8.63225 17.3866 7.89599 20.1226 7.1613 22.8586C7.10284 23.0303 7.1871 23.202 7.22502 23.3684C8.02554 26.3324 8.82027 29.2986 9.61658 32.2631C9.66082 32.418 9.72349 32.5697 9.8204 32.6997C10.6041 33.8057 11.3872 34.9133 12.1688 36.0219C12.2736 36.1625 12.3568 36.3237 12.4969 36.4359C13.3775 35.1961 14.2517 33.9516 15.1323 32.7108C15.3156 32.4633 15.3709 32.1552 15.4504 31.865C16.2309 28.9578 17.0119 26.0523 17.7935 23.1451C17.8656 22.9534 17.7666 22.7622 17.7234 22.5763C16.9714 19.7766 16.2177 16.9758 15.4657 14.1745C15.3803 13.8717 15.3287 13.5488 15.1439 13.286C14.2549 12.0352 13.3727 10.7797 12.4858 9.52727C11.571 10.7881 10.6841 12.071 9.78142 13.3398ZM3.26665 13.0101C2.7758 14.1945 2.34394 15.4079 2.04691 16.6556C2.68996 16.6782 3.33143 16.7114 3.97343 16.733C3.82649 15.3337 3.63847 13.9391 3.48627 12.5413C3.40147 12.692 3.33196 12.8505 3.26665 13.0101ZM21.4727 12.6188C21.301 13.9875 21.1415 15.359 20.984 16.7299C21.627 16.7235 22.2685 16.6619 22.9137 16.6672C22.594 15.3021 22.1116 13.9775 21.557 12.6909C21.5365 12.673 21.4943 12.6361 21.4727 12.6188ZM4.88718 17.2402C4.89877 17.3081 4.9172 17.3761 4.9409 17.4419C5.50337 18.8781 6.08586 20.3059 6.63411 21.7479C6.64833 21.7294 6.67835 21.6905 6.69257 21.6715C7.36195 19.2131 8.00816 16.7472 8.68492 14.2909C7.42463 15.2821 6.15432 16.2596 4.88718 17.2402ZM16.3046 14.3325C16.9414 16.8125 17.6387 19.2768 18.2817 21.7552C18.3465 21.672 18.3834 21.572 18.4255 21.4766C18.9716 20.0805 19.5325 18.689 20.0734 17.2913L20.0581 17.2355C18.8094 16.2648 17.567 15.2852 16.3046 14.3325ZM1.30432 21.2475C2.11063 19.9888 2.93696 18.7412 3.72537 17.4724C3.10655 17.4635 2.4893 17.4272 1.871 17.4019C1.56291 18.6606 1.3928 19.9541 1.30432 21.2475ZM21.2773 17.4693C21.2826 17.6262 21.4058 17.7426 21.4801 17.8722C22.2095 18.9776 22.8947 20.1126 23.6452 21.2033C23.5999 20.1879 23.4456 19.1804 23.2634 18.1808C23.206 17.9196 23.1791 17.6489 23.079 17.3987C22.4787 17.4303 21.8777 17.4614 21.2773 17.4693ZM1.37331 22.5473C1.17687 22.8038 1.18371 23.1967 1.38437 23.4506C2.36817 24.9694 3.34038 26.4946 4.32682 28.012C4.97724 26.4025 5.60344 24.783 6.24807 23.1714C6.28283 23.0756 6.33233 22.9702 6.27072 22.8744C5.61871 21.2454 4.9962 19.6033 4.32366 17.9838C3.32669 19.4953 2.36185 21.0285 1.37331 22.5473ZM20.6332 17.9865C20.5748 18.106 20.5211 18.2282 20.4747 18.352C19.8759 19.894 19.2497 21.4256 18.6593 22.9697C18.7099 23.2352 18.8458 23.4743 18.9332 23.7276C19.5041 25.1453 20.045 26.5758 20.6285 27.9888C20.9187 27.6275 21.1367 27.2141 21.3969 26.8312C22.1579 25.6509 22.9195 24.4696 23.6784 23.2878C23.7484 23.0614 23.7595 22.7733 23.6062 22.5747C22.6082 21.0506 21.6465 19.5006 20.6332 17.9865ZM6.60883 24.3174C6.03688 25.7858 5.44228 27.2462 4.87665 28.7166C5.44123 29.1885 6.04004 29.6204 6.61515 30.0801C7.30455 30.6021 7.97393 31.1498 8.67123 31.6628C8.00342 29.1938 7.3451 26.7211 6.67677 24.2527C6.65939 24.2679 6.62516 24.3011 6.60883 24.3174ZM18.2796 24.2516C17.6276 26.7206 16.9424 29.1801 16.3036 31.6522C17.5718 30.6837 18.8363 29.7073 20.086 28.7156C19.5462 27.331 18.9927 25.9522 18.4513 24.5692C18.4023 24.4591 18.3765 24.3311 18.2796 24.2516ZM1.30958 24.7525C1.3928 26.0386 1.5608 27.3268 1.87311 28.5771C2.49141 28.5528 3.10971 28.5307 3.72748 28.4949C2.92011 27.2483 2.12801 25.9906 1.30958 24.7525ZM22.5413 26.463C22.1163 27.1424 21.6518 27.7976 21.2547 28.4944C21.873 28.5254 22.4923 28.5718 23.1101 28.5613C23.3703 27.3078 23.5883 26.0386 23.6452 24.7588C23.2665 25.3197 22.9095 25.8958 22.5413 26.463ZM2.04059 29.3265C2.39977 30.7443 2.87903 32.1352 3.48995 33.4634C3.63268 32.0609 3.82122 30.6626 3.97817 29.2607C3.33196 29.2543 2.6868 29.3091 2.04059 29.3265ZM20.9819 29.2612C21.1341 30.5868 21.3005 31.9103 21.4511 33.2359C21.4522 33.2959 21.4759 33.3454 21.5212 33.3849C22.0847 32.0699 22.5756 30.7195 22.9168 29.3286C22.2717 29.307 21.627 29.2549 20.9819 29.2612ZM4.70232 29.5761C4.50799 31.2341 4.31102 32.892 4.11141 34.5499C4.08508 34.6831 4.08877 34.8438 4.23202 34.908C5.88836 35.865 7.54523 36.8235 9.20631 37.771C9.12942 36.132 9.06043 34.4899 8.95141 32.853C7.52943 31.7676 6.13589 30.6452 4.70232 29.5761ZM16.0002 32.8641C15.9054 34.4988 15.8327 36.1351 15.749 37.7699C17.409 36.8277 19.0622 35.8718 20.7133 34.9149C20.8697 34.8517 20.8687 34.6784 20.846 34.5357C20.6506 32.8799 20.4489 31.2251 20.2577 29.5688C18.8278 30.6547 17.419 31.7649 16.0002 32.8641ZM9.77932 33.96C9.83672 35.2519 9.91309 36.5433 9.96839 37.8357C10.0611 37.8152 10.1517 37.7836 10.2359 37.7393C10.7515 37.4818 11.274 37.2364 11.7922 36.9815C11.8117 36.9652 11.8507 36.9304 11.8702 36.9141C11.1686 35.9334 10.4777 34.9444 9.77932 33.96ZM13.5644 36.2463C13.4164 36.4859 13.2084 36.6934 13.0941 36.953C13.7329 37.2332 14.3407 37.5856 14.989 37.842C15.0438 36.5628 15.1302 35.2856 15.1713 34.0064C14.6056 34.73 14.1058 35.5037 13.5644 36.2463ZM4.90035 36.182C5.67085 37.5045 6.57407 38.7484 7.56577 39.9123C7.91231 39.6006 8.23357 39.2609 8.57695 38.9443C8.70651 38.7969 8.88347 38.6873 8.97616 38.512C7.60896 37.7509 6.2665 36.9446 4.90035 36.182ZM15.9734 38.5193C16.4258 39.0028 16.9103 39.4573 17.3948 39.9097C18.3897 38.7511 19.2834 37.5034 20.0608 36.1883C18.6851 36.9415 17.3448 37.7578 15.9734 38.5193ZM12.263 37.5972C11.5552 37.9516 10.8353 38.2834 10.1285 38.6399C10.8558 40.301 11.6079 41.9526 12.3399 43.6127C12.3821 43.709 12.4231 43.8075 12.4879 43.8923C13.2727 42.1433 14.0595 40.3953 14.8268 38.6399C14.0874 38.2618 13.3322 37.9158 12.5885 37.5466C12.4816 37.4713 12.3652 37.555 12.263 37.5972ZM8.07663 40.4943C9.14101 41.694 10.3234 42.7868 11.5763 43.787C10.8985 42.2239 10.2012 40.6665 9.49334 39.1166C9.02093 39.5742 8.54167 40.0277 8.07663 40.4943ZM15.4614 39.1202C14.7536 40.6739 14.0669 42.237 13.3701 43.7959C14.6283 42.7963 15.8122 41.6993 16.8818 40.4985C16.4189 40.0298 15.9449 39.5695 15.4614 39.1202Z" fill="#033603"/>
</svg>
