<svg width="44" height="44" viewBox="0 0 44 44" fill="none" xmlns="http://www.w3.org/2000/svg">
<circle cx="22" cy="22" r="21" stroke="black" stroke-width="1.36957"/>
<path d="M31.1435 31.1452L36.5629 36.2258M21.9984 34.1935V42.6613M13.1919 30.129L7.77256 36.2258M10.1435 21.6613H1.67578M13.1919 12.5161L7.77256 7.09677M21.9984 9.80645V1M30.2305 13.4292L36.5629 7.09677" stroke="black" stroke-width="0.913043"/>
<path d="M34.5312 22H42.6603" stroke="black" stroke-width="0.913043"/>
<path d="M19.2899 14.8871L15.2254 18.2742L14.8867 25.0484L18.6125 29.113L24.7093 28.7742L28.7738 25.3871V18.9517L24.3706 14.8871H19.2899Z" stroke="black" stroke-width="0.913043"/>
<path d="M19.2908 14.8871L13.5328 12.8548L14.8876 18.6129L10.4844 21.6613L14.8876 25.3871L13.5328 29.4516H18.6134L22.3392 33.1774L24.7102 29.1129L30.4682 30.4677L29.1134 25.3871L33.8553 22L29.1134 19.2903L30.4682 13.1936L24.7102 14.5484L22.3392 9.80646L19.2908 14.8871Z" stroke="black" stroke-width="0.913043"/>
<path d="M22.3366 9.80648L14.5462 3.03229L13.1914 12.8549L3.36883 13.871L10.143 21.6613L2.69141 28.7742L13.5301 29.7904L14.2075 40.2904L21.9979 33.5162L29.4495 40.6291L30.4656 30.4678L39.9495 29.7904L33.8527 22L39.9495 14.2097L30.4656 13.1936L29.1108 3.03229L22.3366 9.80648Z" stroke="black" stroke-width="0.913043"/>
</svg>
