<svg width="37" height="37" viewBox="0 0 37 37" fill="none" xmlns="http://www.w3.org/2000/svg">
<g clip-path="url(#clip0)">
<path d="M32.9145 5.14648H3.17131C2.68309 5.14648 2.22602 5.26651 1.8125 5.46436L17.9724 21.6243L21.5944 18.1434C21.5944 18.1434 21.5947 18.1431 21.5948 18.1429C21.5948 18.1428 21.5951 18.1426 21.5951 18.1426L34.2738 5.46464C33.8602 5.26666 33.4029 5.14648 32.9145 5.14648Z" fill="#033603"/>
<path d="M35.7692 6.95984L23.8379 18.8905L35.7688 30.8214C35.9666 30.4079 36.0867 29.9509 36.0867 29.4626V8.31816C36.0867 7.83022 35.9669 7.37321 35.7692 6.95984Z" fill="#033603"/>
<path d="M0.317872 6.95923C0.12003 7.37274 0 7.82982 0 8.31804V29.4625C0 29.9505 0.119889 30.4076 0.31759 30.821L12.2489 18.8903L0.317872 6.95923Z" fill="#033603"/>
<path d="M22.3429 20.3855L18.7205 23.8668C18.5139 24.0733 18.2434 24.1766 17.973 24.1766C17.7026 24.1766 17.432 24.0733 17.2255 23.8668L13.744 20.3854L1.8125 32.3161C2.22609 32.5141 2.68344 32.6343 3.17181 32.6343H32.915C33.4032 32.6343 33.8603 32.5143 34.2738 32.3164L22.3429 20.3855Z" fill="#033603"/>
</g>
<defs>
<clipPath id="clip0">
<rect width="36.0866" height="36.0866" fill="white" transform="translate(0 0.847046)"/>
</clipPath>
</defs>
</svg>
