<svg width="26" height="26" viewBox="0 0 26 26" fill="none" xmlns="http://www.w3.org/2000/svg">
<g clip-path="url(#clip0)">
<path d="M25.9322 9.97371C25.762 9.44724 25.2951 9.07331 24.7426 9.02352L17.2383 8.34212L14.2709 1.39661C14.0521 0.887597 13.5538 0.558105 13.0001 0.558105C12.4465 0.558105 11.9482 0.887597 11.7294 1.3978L8.76197 8.34212L1.25647 9.02352C0.705001 9.0745 0.23923 9.44724 0.0680374 9.97371C-0.103155 10.5002 0.054945 11.0776 0.472116 11.4416L6.14449 16.4163L4.47184 23.7844C4.34944 24.3261 4.55971 24.8861 5.00922 25.2111C5.25083 25.3856 5.53351 25.4745 5.81857 25.4745C6.06435 25.4745 6.30814 25.4082 6.52694 25.2773L13.0001 21.4085L19.4709 25.2773C19.9444 25.5622 20.5413 25.5362 20.9899 25.2111C21.4396 24.8851 21.6496 24.3249 21.5272 23.7844L19.8546 16.4163L25.527 11.4426C25.9441 11.0776 26.1034 10.5012 25.9322 9.97371V9.97371Z" fill="#FFC107"/>
</g>
<defs>
<clipPath id="clip0">
<rect width="26" height="26" fill="white"/>
</clipPath>
</defs>
</svg>
