<svg width="113" height="50" viewBox="0 0 113 50" fill="none" xmlns="http://www.w3.org/2000/svg">
<g opacity="0.5">
<rect x="69.7637" y="7.38672" width="6.98128" height="34.6637" transform="rotate(-43.771 69.7637 7.38672)" fill="#DBF1DC"/>
<rect x="61.3965" y="34.7837" width="6.98128" height="21.0732" transform="rotate(-43.771 61.3965 34.7837)" fill="#DBF1DC"/>
<rect x="33.9297" y="4.91162" width="6.98128" height="20.0624" transform="rotate(-43.771 33.9297 4.91162)" fill="#DBF1DC"/>
<rect x="14.3184" y="24.5151" width="6.98128" height="32.3091" transform="rotate(-45.0168 14.3184 24.5151)" fill="#DBF1DC"/>
<rect x="70.4121" y="6.75488" width="6.98128" height="52.2216" transform="rotate(45 70.4121 6.75488)" fill="#DBF1DC"/>
<rect x="90.8965" y="25.4097" width="6.98128" height="21.2234" transform="rotate(45 90.8965 25.4097)" fill="#DBF1DC"/>
<rect x="38.7168" y="0.115723" width="6.98128" height="30.7681" transform="rotate(45 38.7168 0.115723)" fill="#DBF1DC"/>
</g>
<path d="M8.0258 23.8669C5.52804 23.3571 4.45757 22.7964 4.45757 21.573C4.45757 20.1457 5.68096 19.3301 7.84738 19.3301C9.8354 19.3301 11.1098 20.1967 11.9254 20.9868L13.0213 18.9478C11.0588 17.1382 8.56103 17.0617 7.89836 17.0617C4.2027 17.0617 2.1892 19.0752 2.1892 21.6495C2.1892 23.7904 3.43808 25.3706 7.84738 26.1097C10.0138 26.492 11.4666 27.2822 11.4666 28.5565C11.4666 30.0603 10.1667 31.0288 7.77092 31.0288C5.91035 31.0288 4.10075 30.1622 2.77541 28.684L1.65397 30.7229C1.88335 31.0033 3.89685 33.2972 7.71995 33.2972C11.4411 33.2972 13.735 31.2072 13.735 28.4546C13.735 25.7784 11.8234 24.5805 8.0258 23.8669ZM26.345 19.483V17.2402H15.7933V19.483H26.345ZM22.1906 33.1187V20.7574H19.9222V33.1187H22.1906ZM36.0192 27.4096C38.3641 26.7724 39.7149 24.7844 39.7149 22.3121C39.7149 19.3301 37.8033 17.2402 33.6744 17.2402H28.7808V19.5085H34.4645C36.0957 19.5085 37.4465 20.3751 37.4465 22.4651C37.4465 24.504 36.0702 25.3706 34.4135 25.3706H28.7808V33.1187H31.0237V27.639H33.5215L37.4465 33.1187H40.0972L36.0192 27.4096ZM45.8352 33.1187V17.2402H43.5923V33.1187H45.8352ZM50.1812 33.1187H52.4241V17.2402H50.1812V33.1187ZM58.8469 33.1187V30.8504H53.724V33.1187H58.8469ZM64.0407 33.1187V17.2402H61.7979V33.1187H64.0407ZM74.4782 16.8578L66.9339 33.1187H69.3807L70.91 29.7034L74.4782 21.8788L78.0209 29.7034H78.0464L79.5756 33.1187H82.0224L74.4782 16.8578ZM84.8806 33.1187H87.1235V24.1727L84.8806 21.9043V33.1187ZM95.8147 17.2402V28.0977L84.8806 16.8578V19.9928L98.083 33.4756V17.2402H95.8147ZM111.47 19.483V17.2402H100.918V19.483H111.47ZM107.315 33.1187V20.7574H105.047V33.1187H107.315Z" fill="#033603"/>
</svg>
