<svg width="363" height="20" viewBox="0 0 363 20" fill="none" xmlns="http://www.w3.org/2000/svg">
<ellipse cx="80" cy="9" rx="80" ry="1" fill="#033603"/>
<ellipse cx="283" cy="9" rx="80" ry="1" fill="#033603"/>
<path d="M180.753 18.8652L170 5.40007V5.40001L175.397 0.00280762H181.513L180.804 1.03421H175.824L171.382 5.47718L180.76 17.2213L184.559 12.5481L185.359 13.1988L180.753 18.8652Z" fill="#033603"/>
<path d="M186.277 12.2097L185.603 11.4069L190.58 5.43795L185.794 1.03336H182.828V0.00195312H186.196L192 5.34374L186.277 12.2097Z" fill="#033603"/>
<path d="M176.873 13.2159L174.91 10.7343L182.483 0H186.196L176.873 13.2159Z" fill="#033603"/>
<path d="M188.607 16.2893H184.738L177.747 7.95734L181.053 7.28674L188.607 16.2893Z" fill="#033603"/>
</svg>
