<svg width="21" height="21" viewBox="0 0 21 21" fill="none" xmlns="http://www.w3.org/2000/svg">
<g clip-path="url(#clip0)">
<path d="M16.7944 13.8555L13.865 13.2688C13.5543 13.2072 13.3279 12.9313 13.3279 12.6125V11.9401C13.5208 11.6722 13.7016 11.3146 13.8891 10.9409C14.0325 10.6582 14.2481 10.2323 14.3446 10.1318C14.9125 9.57596 15.5179 8.88615 15.7027 7.98739C15.8702 7.17301 15.7027 6.74974 15.5085 6.41488C15.5085 5.75989 15.5085 4.56109 15.2808 3.69716C15.2581 2.65373 15.0665 2.06438 14.5857 1.53932C14.2454 1.17231 13.7445 1.08658 13.3427 1.01827C13.1833 0.991485 12.9649 0.95398 12.8886 0.912458C12.1934 0.528038 11.4875 0.337837 10.6236 0.316406C8.85553 0.383378 6.68563 1.50449 5.95965 3.52035C5.73865 4.13247 5.76008 5.13705 5.77615 5.94474L5.7574 6.41488C5.58729 6.74974 5.41986 7.173 5.58863 7.98605C5.77347 8.88883 6.3789 9.5773 6.94414 10.1305C7.04192 10.2323 7.26025 10.6609 7.40491 10.9435C7.59511 11.3159 7.77728 11.6735 7.97015 11.9414V12.6125C7.97015 12.9313 7.74379 13.2072 7.4317 13.2688L4.50234 13.8555C2.63114 14.2292 1.27295 15.8861 1.27295 17.7948V19.0686C1.27295 19.8066 1.87436 20.408 2.61239 20.408H18.6857C19.4237 20.408 20.0251 19.8066 20.0251 19.0686V17.7948C20.0251 15.8861 18.6669 14.2292 16.7944 13.8555ZM18.6857 19.0686H2.61239V17.7948C2.61239 16.5223 3.51785 15.4173 4.76621 15.1681L7.69423 14.5815C8.6305 14.3966 9.3096 13.5675 9.3096 12.6125V11.7017C9.3096 11.5222 9.23727 11.3494 9.11002 11.2248C8.99483 11.1123 8.74703 10.6247 8.59835 10.3341C8.34654 9.84117 8.12955 9.41523 7.88175 9.17413C7.43706 8.74015 7.01245 8.26331 6.89994 7.71682C6.81288 7.29355 6.87315 7.17434 6.95084 7.02299C7.01915 6.88904 7.12095 6.68813 7.12095 6.41488L7.11425 5.91795C7.1022 5.33261 7.08211 4.35214 7.21873 3.97442C7.73843 2.53318 9.38728 1.70407 10.6316 1.65585C11.2451 1.67192 11.7273 1.79917 12.239 2.08447C12.5149 2.23716 12.8363 2.29074 13.119 2.33896C13.2784 2.36575 13.5449 2.41129 13.5998 2.44612C13.7807 2.64302 13.9307 2.8801 13.9414 3.80163C13.9414 3.86191 13.9508 3.92218 13.9682 3.98112C14.1677 4.66557 14.1677 5.84696 14.1677 6.41488C14.1677 6.68813 14.2709 6.88904 14.3379 7.02299C14.4155 7.17434 14.4758 7.29355 14.3888 7.71816C14.2776 8.26197 13.8503 8.74015 13.4069 9.17413C13.1578 9.41791 12.9422 9.84385 12.693 10.3381C12.5484 10.6274 12.3032 11.1123 12.1894 11.2235C12.0608 11.3494 11.9885 11.5222 11.9885 11.7017V12.6125C11.9885 13.5675 12.6676 14.3966 13.6038 14.5828L16.5332 15.1695C17.7802 15.4173 18.6857 16.5223 18.6857 17.7948V19.0686Z" fill="#033603"/>
</g>
<defs>
<clipPath id="clip0">
<rect width="20.0916" height="20.0916" fill="white" transform="translate(0.602051 0.316406)"/>
</clipPath>
</defs>
</svg>
