<svg width="587" height="287" viewBox="0 0 587 287" fill="none" xmlns="http://www.w3.org/2000/svg">
<rect x="320.067" y="19.1133" width="18.2665" height="90.6976" transform="rotate(-43.771 320.067 19.1133)" fill="#DBF1DC"/>
<rect x="298.178" y="90.7969" width="18.2665" height="55.1381" transform="rotate(-43.771 298.178 90.7969)" fill="#DBF1DC"/>
<rect x="226.316" y="12.6367" width="18.2665" height="52.4933" transform="rotate(-43.771 226.316 12.6367)" fill="#DBF1DC"/>
<rect x="175" y="63.9297" width="18.2665" height="84.5368" transform="rotate(-45.0168 175 63.9297)" fill="#DBF1DC"/>
<rect x="321.766" y="17.4609" width="18.2665" height="136.638" transform="rotate(45 321.766 17.4609)" fill="#DBF1DC"/>
<rect x="375.371" y="66.2695" width="18.2665" height="55.5311" transform="rotate(45 375.371 66.2695)" fill="#DBF1DC"/>
<rect x="238.834" y="0.0878906" width="18.2665" height="80.5049" transform="rotate(45 238.834 0.0878906)" fill="#DBF1DC"/>
<path d="M34.44 218.824C22.68 216.424 17.64 213.784 17.64 208.024C17.64 201.304 23.4 197.464 33.6 197.464C42.96 197.464 48.96 201.544 52.8 205.264L57.96 195.664C48.72 187.144 36.96 186.784 33.84 186.784C16.44 186.784 6.96 196.264 6.96 208.384C6.96 218.464 12.84 225.904 33.6 229.384C43.8 231.184 50.64 234.904 50.64 240.904C50.64 247.984 44.52 252.544 33.24 252.544C24.48 252.544 15.96 248.464 9.72 241.504L4.44 251.104C5.52 252.424 15 263.224 33 263.224C50.52 263.224 61.32 253.384 61.32 240.424C61.32 227.824 52.32 222.184 34.44 218.824ZM126.691 198.184V187.624H77.0109V198.184H126.691ZM107.131 262.384V204.184H96.4509V262.384H107.131ZM178.239 235.504C189.279 232.504 195.639 223.144 195.639 211.504C195.639 197.464 186.639 187.624 167.199 187.624H144.159V198.304H170.919C178.599 198.304 184.959 202.384 184.959 212.224C184.959 221.824 178.479 225.904 170.679 225.904H144.159V262.384H154.719V236.584H166.479L184.959 262.384H197.439L178.239 235.504ZM230.455 262.384V187.624H219.895V262.384H230.455ZM256.917 262.384H267.477V187.624H256.917V262.384ZM297.717 262.384V251.704H273.597V262.384H297.717ZM328.171 262.384V187.624H317.611V262.384H328.171ZM383.313 185.824L347.793 262.384H359.313L366.513 246.304L383.313 209.464L399.993 246.304H400.113L407.313 262.384H418.833L383.313 185.824ZM438.29 262.384H448.85V220.264L438.29 209.584V262.384ZM489.77 187.624V238.744L438.29 185.824V200.584L500.45 264.064V187.624H489.77ZM569.477 198.184V187.624H519.797V198.184H569.477ZM549.917 262.384V204.184H539.237V262.384H549.917Z" fill="#DBF1DC"/>
</svg>
