<svg width="36" height="36" viewBox="0 0 36 36" fill="none" xmlns="http://www.w3.org/2000/svg">
<path d="M9.29226 15.98H3.48828V17.1422H9.29226V15.98Z" fill="black"/>
<path d="M12.1978 19.4663H3.48828V20.6285H12.1978V19.4663Z" fill="black"/>
<path d="M24.394 22.9526H3.48828V24.1149H24.394V22.9526Z" fill="black"/>
<path d="M6.97492 26.4326H3.48828V27.5948H6.97492V26.4326Z" fill="black"/>
<path d="M12.7757 26.4326H9.28906V27.5948H12.7757V26.4326Z" fill="black"/>
<path d="M18.5882 26.4326H15.1016V27.5948H18.5882V26.4326Z" fill="black"/>
<path d="M23.8129 15.3984C23.3877 15.3984 22.998 15.5189 22.6578 15.7173C22.3035 15.5118 21.9066 15.3984 21.4885 15.3984C20.2058 15.3984 19.1641 16.4402 19.1641 17.7229C19.1641 19.0056 20.2058 20.0473 21.4885 20.0473C21.9066 20.0473 22.3035 19.9339 22.6578 19.7284C22.998 19.9268 23.3877 20.0473 23.8129 20.0473C25.0956 20.0473 26.1373 19.0056 26.1373 17.7229C26.1373 16.4402 25.0956 15.3984 23.8129 15.3984ZM21.7861 18.8426C21.6869 18.8709 21.5877 18.8851 21.4885 18.8851C20.8507 18.8851 20.3263 18.3607 20.3263 17.7229C20.3263 17.0851 20.8507 16.5607 21.4885 16.5607C21.5877 16.5607 21.694 16.5819 21.7861 16.6032C21.6019 16.9362 21.4885 17.3118 21.4885 17.7229C21.4885 18.1339 21.6019 18.5095 21.7861 18.8426ZM23.8129 18.8851C23.1751 18.8851 22.6507 18.3607 22.6507 17.7229C22.6507 17.0851 23.1751 16.5607 23.8129 16.5607C24.4507 16.5607 24.9751 17.0851 24.9751 17.7229C24.9751 18.3607 24.4507 18.8851 23.8129 18.8851Z" fill="black"/>
<path d="M34.7884 12.7124L10.4245 5.01625C10.2544 4.95955 8.89376 4.51309 8.24179 6.15011L6.23626 12.4927H1.74332C0.779533 12.4998 0 13.2793 0 14.236V29.3377C0 30.3015 0.779533 31.081 1.74332 31.081H27.2978C27.9073 31.081 28.4388 30.7692 28.7506 30.2944C28.7506 30.2944 29.5372 30.5141 29.7144 30.5141C30.4797 30.5141 31.1459 30.0251 31.3727 29.2952L35.9223 14.8951C36.064 14.4557 36.1632 13.0809 34.7884 12.7124ZM8.64573 8.71549L20.6151 12.4927H12.8977L7.94415 10.9265L8.64573 8.71549ZM7.5969 12.0391L9.04967 12.4998H7.45517L7.5969 12.0391ZM27.8789 29.3377H27.8718C27.8718 29.6566 27.6096 29.9188 27.2907 29.9188H1.74332C1.42442 29.9188 1.16221 29.6566 1.16221 29.3377V14.236C1.16221 13.9171 1.42442 13.6549 1.74332 13.6549H27.2978C27.6167 13.6549 27.8789 13.9171 27.8789 14.236V29.3377ZM30.2671 28.9479C30.175 29.2456 29.8349 29.4227 29.5372 29.3235L29.0341 29.1676V18.814L33.0664 20.0896L30.2671 28.9479ZM33.4136 18.977L29.0341 17.5951V15.1573L34.1152 16.7589L33.4136 18.977ZM34.8168 14.5478L34.4695 15.6533L29.0057 13.9313C28.8569 13.1163 28.1482 12.4998 27.2978 12.4998H24.4702L8.99298 7.60997L9.34022 6.50445C9.43235 6.20681 9.76542 6.02964 10.0701 6.12885L34.4341 13.8179C34.9231 13.9455 34.8593 14.399 34.8168 14.5478Z" fill="black"/>
</svg>
