<svg width="30" height="30" viewBox="0 0 30 30" fill="none" xmlns="http://www.w3.org/2000/svg">
<path d="M10.5613 23.147C8.6718 23.147 7.13477 24.684 7.13477 26.5735C7.13477 28.4631 8.67186 30.0001 10.5613 30.0001C12.4509 30.0001 13.9879 28.4627 13.9879 26.5735C13.9879 24.6844 12.4509 23.147 10.5613 23.147ZM10.5613 27.9026C9.82879 27.9026 9.23266 27.3068 9.23266 26.5739C9.23266 25.841 9.82879 25.2452 10.5613 25.2452C11.2942 25.2452 11.89 25.841 11.89 26.5739C11.89 27.3068 11.2942 27.9026 10.5613 27.9026Z" fill="black"/>
<path d="M23.009 23.147C21.1191 23.147 19.582 24.6841 19.582 26.5735C19.582 28.4631 21.1191 30.0001 23.009 30.0001C24.8981 30.0001 26.4355 28.463 26.4355 26.5735C26.4355 24.6841 24.8981 23.147 23.009 23.147ZM23.009 27.9022C22.2761 27.9022 21.6799 27.3061 21.6799 26.5735C21.6799 25.841 22.2761 25.2452 23.009 25.2452C23.7415 25.2452 24.3376 25.8407 24.3376 26.5735C24.3376 27.3064 23.7418 27.9022 23.009 27.9022Z" fill="black"/>
<path d="M9.05672 22.0983H25.3854C25.9652 22.0983 26.4344 21.6287 26.4344 21.0493C26.4344 20.4699 25.9648 20.0004 25.3854 20.0004H9.9487L6.94553 1.57969C6.87352 1.13842 6.53016 0.791601 6.08994 0.715019L2.06894 0.0157011C1.49653 -0.0836155 0.954951 0.298592 0.855635 0.869179C0.755966 1.44018 1.13853 1.98317 1.70911 2.08248L4.99476 2.65383L8.02131 21.2178C8.10428 21.7259 8.54239 22.0983 9.05672 22.0983Z" fill="black"/>
<path d="M28.9595 6.79539C28.7619 6.52439 28.4473 6.36426 28.112 6.36426H6.7832V8.46215H26.6731L24.5154 15.1754H8.28672V17.2733H25.2801C25.7353 17.2733 26.1392 16.9789 26.2787 16.5454L29.1109 7.73412C29.2133 7.41496 29.157 7.06604 28.9595 6.79539Z" fill="black"/>
</svg>
