<svg class="d-block" fill="#033603" enable-background="new 0 0 415.49 415.49" version="1.1" viewBox="0 0 415.49 415.49" xml:space="preserve" xmlns="http://www.w3.org/2000/svg">
		<path d="m411.19 392.06-124.31-124.31-1.912 1.912c24.862-28.688 40.162-66.937 40.162-107.1 0-89.887-72.675-162.56-162.56-162.56s-162.56 72.675-162.56 162.56 72.675 162.56 162.56 162.56c42.075 0 78.412-15.3 107.1-40.162l-1.912 1.912 124.31 124.31c5.737 5.737 13.388 5.737 19.125 0s5.738-13.386 1e-3 -19.124zm-248.63-86.062c-78.412 0-143.44-65.025-143.44-143.44s65.025-143.44 143.44-143.44c78.412 1e-3 143.44 65.026 143.44 143.44 0 78.413-65.025 143.44-143.44 143.44z"/>
		<polygon points="172.12 76.5 153 76.5 153 153 76.5 153 76.5 172.12 153 172.12 153 248.62 172.12 248.62 172.12 172.12 248.62 172.12 248.62 153 172.12 153"/>
</svg>
