<svg width="22" height="24" viewBox="0 0 22 24" fill="none" xmlns="http://www.w3.org/2000/svg">
<path d="M11.4 13.648V13.733L11.4728 13.7767L15.7379 16.3357L15.0255 17.4044L10.05 14.3343V7.96805H11.4V13.648ZM15.7227 2.6317L16.9562 1.20842L21.7873 5.3044L20.5538 6.72768L15.7227 2.6317ZM0.213944 5.30587L5.04259 1.31699L6.27606 2.74022L1.44741 6.7291L0.213944 5.30587ZM1.25 13.318C1.25 7.90089 5.58284 3.56805 11 3.56805C16.4172 3.56805 20.75 7.90089 20.75 13.318C20.75 18.7352 16.4172 23.068 11 23.068C5.58284 23.068 1.25 18.7352 1.25 13.318ZM3.15 13.318C3.15 17.6909 6.62716 21.168 11 21.168C15.3728 21.168 18.85 17.6909 18.85 13.318C18.85 8.9452 15.3728 5.46805 11 5.46805C6.62716 5.46805 3.15 8.9452 3.15 13.318Z" fill="black" stroke="white" stroke-width="0.3"/>
</svg>
