<svg width="23" height="22" viewBox="0 0 23 22" fill="none" xmlns="http://www.w3.org/2000/svg">
<g clip-path="url(#clip0)">
<path d="M21.1799 8.13187C20.8343 7.78815 20.2756 7.78969 19.9319 8.13523L9.32334 18.8011C7.94701 20.1775 5.71165 20.1775 4.33276 18.7993C2.9549 17.4207 2.9549 15.1854 4.33292 13.8073L15.2555 2.8274C16.1148 1.96816 17.5118 1.96816 18.3735 2.82926C19.235 3.69077 19.2351 5.08762 18.3733 5.94938L9.32499 14.9976C9.32441 14.9982 9.32392 14.9989 9.32334 14.9995C8.97863 15.3423 8.42153 15.3418 8.07752 14.9978C7.73293 14.6532 7.73293 14.0947 8.07752 13.7501L12.4451 9.38166C12.7897 9.03699 12.7896 8.4782 12.445 8.13361C12.1003 7.78902 11.5415 7.78906 11.1969 8.13374L6.82939 12.5021C5.79558 13.5359 5.79558 15.212 6.82947 16.2458C7.86332 17.2797 9.53936 17.2797 10.5732 16.2458C10.5744 16.2446 10.5754 16.2433 10.5766 16.2421L19.6213 7.19735C21.1724 5.64632 21.1724 3.13194 19.6213 1.58092C18.0701 0.0308068 15.5559 0.0308068 14.0058 1.58092L3.08322 12.5609C1.01759 14.6266 1.01759 17.9792 3.08471 20.0473C5.15319 22.1147 8.50584 22.1147 10.5731 20.0475L21.1833 9.37992C21.527 9.03434 21.5255 8.47559 21.1799 8.13187Z" fill="black"/>
</g>
<defs>
<clipPath id="clip0">
<rect width="21.1795" height="21.1795" fill="white" transform="translate(0.897461 0.418457)"/>
</clipPath>
</defs>
</svg>
