<svg width="45" height="45" viewBox="0 0 45 45" fill="none" xmlns="http://www.w3.org/2000/svg">
<path d="M20.3822 20.6646C22.861 20.6646 24.878 18.6479 24.878 16.1692C24.878 13.69 22.861 11.6733 20.3822 11.6733C17.9034 11.6733 15.8867 13.69 15.8867 16.1692C15.8867 18.6479 17.9034 20.6646 20.3822 20.6646ZM20.3822 14.3101C21.4074 14.3101 22.2413 15.144 22.2413 16.1692C22.2413 17.194 21.4074 18.0279 20.3822 18.0279C19.3574 18.0279 18.5234 17.194 18.5234 16.1692C18.5234 15.144 19.3574 14.3101 20.3822 14.3101Z" fill="#033603" fill-opacity="0.1"/>
<path d="M43.3569 3.25195H1.64314C0.737114 3.25195 0 3.98907 0 4.8951V40.2031C0 41.1091 0.737114 41.8462 1.64314 41.8462H43.3569C44.2629 41.8462 45 41.1091 45 40.2031V4.8951C45 3.98907 44.2629 3.25195 43.3569 3.25195ZM42.3633 5.88867V26.7545L34.0707 18.4615C33.5299 17.9218 32.6507 17.9221 32.1103 18.4625L20.382 30.1908L12.8904 22.6995C12.6284 22.4372 12.28 22.2926 11.9092 22.2926C11.5387 22.2926 11.1906 22.4368 10.9286 22.6988L2.63672 30.9907V5.88867H42.3633ZM2.63672 39.2095V34.7195L11.9092 25.4471L19.4005 32.9384C19.6628 33.2007 20.0113 33.3456 20.382 33.3456C20.7521 33.3456 21.1006 33.201 21.3622 32.9391L33.0908 21.2105L42.3636 30.4833V39.2095H2.63672Z" fill="#033603" fill-opacity="0.1"/>
</svg>
