<svg width="274" height="44" viewBox="0 0 274 44" fill="none" xmlns="http://www.w3.org/2000/svg">
<path d="M65.8542 13.4655L63.8143 15.1273V18.7692C63.8143 18.9748 63.8607 19.134 63.9536 19.2468C64.0531 19.3529 64.219 19.4358 64.4511 19.4955V19.814H60.2122V19.4955C60.451 19.4292 60.6169 19.343 60.7097 19.2368C60.8026 19.1307 60.849 18.9748 60.849 18.7692V7.26631C60.849 7.0673 60.8026 6.91473 60.7097 6.80859C60.6169 6.70245 60.451 6.61621 60.2122 6.54987V6.23145H64.4511V6.54987C64.2123 6.60957 64.0465 6.69581 63.9536 6.80859C63.8607 6.91473 63.8143 7.0673 63.8143 7.26631V12.0227L69.4065 7.45537C69.6652 7.24309 69.7946 7.07393 69.7946 6.94789C69.7946 6.75552 69.6022 6.62284 69.2175 6.54987V6.23145H74.7699V6.54987C74.5377 6.59631 74.3718 6.64938 74.2723 6.70908C74.1728 6.76878 73.8843 6.99433 73.4066 7.38572L72.6404 8.02255L68.0234 11.7341L73.2574 18.0328C73.7416 18.6166 74.0899 18.9947 74.3022 19.1672C74.5211 19.333 74.7931 19.4425 75.1181 19.4955V19.814H69.8145V19.4955C70.1661 19.4226 70.3419 19.2965 70.3419 19.1174C70.3419 19.0246 70.1827 18.7791 69.8642 18.3811L65.8542 13.4655ZM87.429 9.6843V15.585C87.429 16.9316 87.1636 17.92 86.6329 18.5502C85.7772 19.5519 84.1652 20.0528 81.7969 20.0528C80.2115 20.0528 78.9312 19.8106 77.956 19.3264C77.2529 18.9748 76.7719 18.474 76.5132 17.8239C76.2744 17.2268 76.155 16.4805 76.155 15.585V9.6843C76.155 9.47865 76.1085 9.32276 76.0157 9.21662C75.9228 9.11048 75.757 9.02093 75.5181 8.94796V8.66934H79.4685V8.94796C79.2231 9.01429 79.0539 9.10385 78.961 9.21662C78.8682 9.32276 78.8217 9.47865 78.8217 9.6843V15.0476C78.8217 15.6712 78.8748 16.1488 78.9809 16.4805C79.0937 16.8122 79.2861 17.0842 79.5581 17.2965C80.102 17.7277 80.8881 17.9433 81.9164 17.9433C82.9446 17.9433 83.7307 17.7277 84.2746 17.2965C84.54 17.0842 84.7257 16.8122 84.8319 16.4805C84.938 16.1488 84.9911 15.6712 84.9911 15.0476V9.6843C84.9911 9.47865 84.9446 9.32276 84.8518 9.21662C84.7655 9.11048 84.5997 9.02093 84.3542 8.94796V8.66934H88.0658V8.94796C87.827 9.01429 87.6611 9.10385 87.5683 9.21662C87.4754 9.32276 87.429 9.47865 87.429 9.6843ZM95.2023 14.7292L93.6202 16.0228V18.799C93.6202 19.0047 93.6666 19.1639 93.7595 19.2766C93.8524 19.3828 94.0182 19.4723 94.257 19.5453V19.814H90.3166V19.5353C90.5488 19.4756 90.7113 19.3894 90.8042 19.2766C90.9037 19.1639 90.9535 19.0047 90.9535 18.799V9.6843C90.9535 9.47865 90.907 9.32276 90.8141 9.21662C90.7213 9.11048 90.5554 9.02093 90.3166 8.94796V8.66934H94.257V8.94796C94.0182 9.01429 93.8524 9.10385 93.7595 9.21662C93.6666 9.32276 93.6202 9.47865 93.6202 9.6843V13.3362L97.8094 9.99276C98.1212 9.74732 98.2771 9.53172 98.2771 9.34598C98.2771 9.14697 98.0847 9.01429 97.6999 8.94796V8.66934H102.715V8.93801C102.463 8.97781 102.251 9.0541 102.078 9.16687C101.912 9.27964 101.494 9.62791 100.824 10.2117L97.0631 13.2068L101.203 17.9632C101.733 18.5801 102.111 18.9814 102.337 19.1672C102.569 19.3529 102.834 19.479 103.133 19.5453V19.814H98.2572V19.5453C98.622 19.4591 98.8044 19.3264 98.8044 19.1473C98.8044 19.0809 98.7812 19.0179 98.7348 18.9582C98.695 18.8919 98.5424 18.7061 98.2771 18.401L95.2023 14.7292ZM113.842 17.0278H108.717L108.14 18.2418C108.001 18.5337 107.931 18.7625 107.931 18.9284C107.931 19.2468 108.143 19.4491 108.568 19.5353V19.814H104.468V19.5353C104.72 19.4955 104.906 19.4193 105.026 19.3065C105.152 19.1937 105.298 18.9715 105.463 18.6398L109.533 10.4007C109.686 10.089 109.762 9.81697 109.762 9.58479C109.762 9.31281 109.576 9.10053 109.205 8.94796V8.66934H113.533V8.94796C113.168 9.0939 112.986 9.31944 112.986 9.62459C112.986 9.84351 113.069 10.1122 113.235 10.4306L117.454 18.4209C117.686 18.8587 117.868 19.144 118.001 19.2766C118.134 19.4027 118.336 19.4922 118.608 19.5453V19.814H114.061V19.5453C114.492 19.4723 114.707 19.27 114.707 18.9383C114.707 18.7327 114.625 18.4773 114.459 18.1721L113.842 17.0278ZM113.036 15.4656L111.215 11.8933L109.483 15.4656H113.036ZM120.69 18.799V9.6843C120.69 9.47865 120.643 9.32276 120.55 9.21662C120.458 9.11048 120.292 9.02093 120.053 8.94796V8.66934H126.59C127.95 8.66934 129.022 8.8385 129.804 9.17682C130.906 9.65445 131.698 10.4439 132.183 11.5451C132.521 12.3146 132.69 13.2134 132.69 14.2417C132.69 16.1455 132.123 17.5884 130.989 18.5701C130.478 19.008 129.874 19.3264 129.178 19.5254C128.488 19.7178 127.625 19.814 126.59 19.814H120.053V19.5353C120.285 19.4756 120.448 19.3894 120.54 19.2766C120.64 19.1639 120.69 19.0047 120.69 18.799ZM123.356 17.794H126.202C127.509 17.794 128.458 17.4955 129.048 16.8985C129.665 16.2749 129.974 15.3893 129.974 14.2417C129.974 13.094 129.665 12.2084 129.048 11.5849C128.743 11.2731 128.365 11.0475 127.914 10.9082C127.463 10.7623 126.892 10.6893 126.202 10.6893H123.356V17.794ZM138.215 9.6843V18.799C138.215 19.0047 138.261 19.1639 138.354 19.2766C138.447 19.3828 138.613 19.4723 138.851 19.5453V19.814H134.911V19.5353C135.143 19.4756 135.306 19.3894 135.399 19.2766C135.498 19.1639 135.548 19.0047 135.548 18.799V9.6843C135.548 9.47865 135.501 9.32276 135.409 9.21662C135.316 9.11048 135.15 9.02093 134.911 8.94796V8.66934H138.851V8.94796C138.613 9.01429 138.447 9.10385 138.354 9.21662C138.261 9.32276 138.215 9.47865 138.215 9.6843ZM149.779 17.0278H144.655L144.077 18.2418C143.938 18.5337 143.869 18.7625 143.869 18.9284C143.869 19.2468 144.081 19.4491 144.505 19.5353V19.814H140.406V19.5353C140.658 19.4955 140.844 19.4193 140.963 19.3065C141.089 19.1937 141.235 18.9715 141.401 18.6398L145.471 10.4007C145.623 10.089 145.699 9.81697 145.699 9.58479C145.699 9.31281 145.514 9.10053 145.142 8.94796V8.66934H149.471V8.94796C149.106 9.0939 148.923 9.31944 148.923 9.62459C148.923 9.84351 149.006 10.1122 149.172 10.4306L153.391 18.4209C153.623 18.8587 153.806 19.144 153.938 19.2766C154.071 19.4027 154.273 19.4922 154.545 19.5453V19.814H149.998V19.5453C150.429 19.4723 150.645 19.27 150.645 18.9383C150.645 18.7327 150.562 18.4773 150.396 18.1721L149.779 17.0278ZM148.973 15.4656L147.152 11.8933L145.421 15.4656H148.973ZM168.55 15.8735L172.152 7.8932C172.305 7.55488 172.381 7.29285 172.381 7.1071C172.381 6.82185 172.162 6.63611 171.724 6.54987V6.23145H176.371V6.54987C176.079 6.58967 175.877 6.67259 175.764 6.79864C175.651 6.92468 175.456 7.28953 175.177 7.8932L170.47 18.0527C170.271 18.4839 170.172 18.7658 170.172 18.8985C170.172 19.2368 170.381 19.4358 170.799 19.4955V19.814H166.122V19.4955C166.54 19.4358 166.749 19.2335 166.749 18.8886C166.749 18.7625 166.649 18.4839 166.45 18.0527L161.744 7.8932C161.465 7.28953 161.269 6.92468 161.157 6.79864C161.044 6.67259 160.842 6.58967 160.55 6.54987V6.23145H165.376V6.54987C164.938 6.63611 164.719 6.82185 164.719 7.1071C164.719 7.29285 164.795 7.55488 164.948 7.8932L168.55 15.8735ZM180.751 15.0775V17.794H187.826C188.032 17.794 188.188 17.7476 188.294 17.6547C188.407 17.5618 188.496 17.3927 188.562 17.1472H188.841V20.4508H188.562C188.503 20.2186 188.417 20.0528 188.304 19.9533C188.191 19.8604 188.032 19.814 187.826 19.814H177.448V19.5353C177.68 19.4756 177.842 19.3894 177.935 19.2766C178.035 19.1639 178.085 19.0047 178.085 18.799V9.6843C178.085 9.47865 178.038 9.32276 177.945 9.21662C177.852 9.11048 177.686 9.02093 177.448 8.94796V8.66934H187.518C187.73 8.66934 187.889 8.6229 187.995 8.53003C188.108 8.43716 188.198 8.27132 188.264 8.0325H188.533V11.3361H188.264C188.198 11.0906 188.108 10.9215 187.995 10.8286C187.889 10.7357 187.73 10.6893 187.518 10.6893H180.751V13.1371H184.95C185.156 13.1371 185.312 13.0907 185.418 12.9978C185.531 12.905 185.624 12.7391 185.697 12.5003H185.965V15.7243H185.697C185.63 15.4855 185.541 15.3196 185.428 15.2268C185.322 15.1273 185.163 15.0775 184.95 15.0775H180.751ZM194.097 12.4705V18.799C194.097 19.0047 194.143 19.1639 194.236 19.2766C194.336 19.3894 194.502 19.479 194.734 19.5453V19.814H191.032V19.5353C191.264 19.4756 191.427 19.3894 191.52 19.2766C191.619 19.1639 191.669 19.0047 191.669 18.799V9.6843C191.669 9.47865 191.623 9.32276 191.53 9.21662C191.437 9.11048 191.271 9.02093 191.032 8.94796V8.66934H195.311V8.94796C195.019 9.02093 194.873 9.15028 194.873 9.33603C194.873 9.49524 194.979 9.68098 195.192 9.89326L201.162 15.8238V9.6843C201.162 9.47865 201.115 9.32276 201.023 9.21662C200.93 9.10385 200.764 9.01429 200.525 8.94796V8.66934H204.227V8.94796C203.988 9.01429 203.822 9.10385 203.729 9.21662C203.636 9.32276 203.59 9.47865 203.59 9.6843V18.799C203.59 19.0047 203.636 19.1639 203.729 19.2766C203.822 19.3828 203.988 19.4723 204.227 19.5453V19.814H200.236V19.5453C200.528 19.4856 200.674 19.3629 200.674 19.1771C200.674 19.0843 200.634 18.9881 200.555 18.8886C200.475 18.7891 200.293 18.5934 200.008 18.3015L194.097 12.4705ZM212.856 10.6893V18.799C212.856 19.0047 212.902 19.1639 212.995 19.2766C213.088 19.3828 213.254 19.4723 213.493 19.5453V19.814H209.552V19.5353C209.784 19.4756 209.947 19.3894 210.04 19.2766C210.139 19.1639 210.189 19.0047 210.189 18.799V10.6893H206.905C206.693 10.6893 206.531 10.7391 206.418 10.8386C206.312 10.9314 206.225 11.0973 206.159 11.3361H205.89V8.0325H206.169C206.229 8.26468 206.312 8.43053 206.418 8.53003C206.531 8.6229 206.693 8.66934 206.905 8.66934H216.139C216.352 8.66934 216.511 8.6229 216.617 8.53003C216.73 8.43716 216.819 8.27132 216.886 8.0325H217.154V11.3361H216.886C216.819 11.0973 216.73 10.9314 216.617 10.8386C216.511 10.7391 216.352 10.6893 216.139 10.6893H212.856ZM230.51 9.6843V15.585C230.51 16.9316 230.245 17.92 229.714 18.5502C228.858 19.5519 227.246 20.0528 224.878 20.0528C223.293 20.0528 222.012 19.8106 221.037 19.3264C220.334 18.9748 219.853 18.474 219.594 17.8239C219.355 17.2268 219.236 16.4805 219.236 15.585V9.6843C219.236 9.47865 219.19 9.32276 219.097 9.21662C219.004 9.11048 218.838 9.02093 218.599 8.94796V8.66934H222.55V8.94796C222.304 9.01429 222.135 9.10385 222.042 9.21662C221.949 9.32276 221.903 9.47865 221.903 9.6843V15.0476C221.903 15.6712 221.956 16.1488 222.062 16.4805C222.175 16.8122 222.367 17.0842 222.639 17.2965C223.183 17.7277 223.969 17.9433 224.997 17.9433C226.026 17.9433 226.812 17.7277 227.356 17.2965C227.621 17.0842 227.807 16.8122 227.913 16.4805C228.019 16.1488 228.072 15.6712 228.072 15.0476V9.6843C228.072 9.47865 228.026 9.32276 227.933 9.21662C227.847 9.11048 227.681 9.02093 227.435 8.94796V8.66934H231.147V8.94796C230.908 9.01429 230.742 9.10385 230.649 9.21662C230.556 9.32276 230.51 9.47865 230.51 9.6843ZM236.701 15.2367V18.799C236.701 19.0047 236.748 19.1639 236.841 19.2766C236.933 19.3828 237.099 19.4723 237.338 19.5453V19.814H233.398V19.5353C233.63 19.4756 233.792 19.3894 233.885 19.2766C233.985 19.1639 234.035 19.0047 234.035 18.799V9.6843C234.035 9.47865 233.988 9.32276 233.895 9.21662C233.802 9.11048 233.636 9.02093 233.398 8.94796V8.66934H240.701C241.65 8.66934 242.373 8.71909 242.871 8.8186C243.368 8.91147 243.813 9.08395 244.204 9.33603C245.007 9.86009 245.408 10.7158 245.408 11.9033C245.408 12.8055 245.159 13.5119 244.662 14.0227C244.171 14.5269 243.375 14.8918 242.274 15.1173L244.383 18.0627C244.768 18.6066 245.073 18.9781 245.299 19.1771C245.531 19.3695 245.793 19.4922 246.085 19.5453V19.814H241.408V19.5453C241.753 19.4524 241.925 19.3032 241.925 19.0975C241.925 18.9516 241.819 18.7294 241.607 18.4308L239.378 15.2367H236.701ZM236.701 13.2167H240.721C241.332 13.2167 241.783 13.1504 242.075 13.0177C242.486 12.8386 242.691 12.4837 242.691 11.953C242.691 11.482 242.546 11.1537 242.254 10.9679C241.968 10.7822 241.458 10.6893 240.721 10.6893H236.701V13.2167ZM251.241 15.0775V17.794H258.316C258.522 17.794 258.677 17.7476 258.784 17.6547C258.896 17.5618 258.986 17.3927 259.052 17.1472H259.331V20.4508H259.052C258.993 20.2186 258.906 20.0528 258.793 19.9533C258.681 19.8604 258.522 19.814 258.316 19.814H247.937V19.5353C248.17 19.4756 248.332 19.3894 248.425 19.2766C248.525 19.1639 248.574 19.0047 248.574 18.799V9.6843C248.574 9.47865 248.528 9.32276 248.435 9.21662C248.342 9.11048 248.176 9.02093 247.937 8.94796V8.66934H258.007C258.22 8.66934 258.379 8.6229 258.485 8.53003C258.598 8.43716 258.687 8.27132 258.754 8.0325H259.022V11.3361H258.754C258.687 11.0906 258.598 10.9215 258.485 10.8286C258.379 10.7357 258.22 10.6893 258.007 10.6893H251.241V13.1371H255.44C255.646 13.1371 255.802 13.0907 255.908 12.9978C256.021 12.905 256.113 12.7391 256.186 12.5003H256.455V15.7243H256.186C256.12 15.4855 256.031 15.3196 255.918 15.2268C255.812 15.1273 255.652 15.0775 255.44 15.0775H251.241ZM272.239 9.67435L270.895 12.2714L270.657 12.1421C270.657 11.9232 270.587 11.7507 270.448 11.6247C270.069 11.2863 269.512 11.0077 268.776 10.7888C268.04 10.5699 267.293 10.4604 266.537 10.4604C265.894 10.4604 265.323 10.55 264.826 10.7291C264.109 10.9878 263.751 11.3626 263.751 11.8535C263.751 12.1786 263.923 12.4107 264.268 12.5501C264.613 12.6827 265.28 12.7889 266.268 12.8685L267.841 12.9879C269.214 13.094 270.259 13.3594 270.975 13.7839C271.373 14.0227 271.701 14.3412 271.96 14.7392C272.285 15.2367 272.448 15.7973 272.448 16.4208C272.448 17.5552 271.937 18.4507 270.915 19.1075C269.94 19.7377 268.62 20.0528 266.955 20.0528C265.277 20.0528 263.655 19.6979 262.089 18.9881C261.983 18.9416 261.893 18.9184 261.82 18.9184C261.688 18.9184 261.565 18.998 261.452 19.1572L261.204 19.0577L262.348 16.3313L262.597 16.4308C262.597 16.4706 262.597 16.4971 262.597 16.5104C262.597 16.6829 262.663 16.8288 262.796 16.9482C263.127 17.2401 263.701 17.4955 264.517 17.7144C265.333 17.9267 266.139 18.0328 266.935 18.0328C267.638 18.0328 268.268 17.9399 268.826 17.7542C269.516 17.5287 269.861 17.1638 269.861 16.6596C269.861 16.255 269.622 15.973 269.144 15.8138C268.826 15.7077 268.252 15.6181 267.423 15.5452L265.86 15.4158C265.018 15.3495 264.374 15.2632 263.93 15.1571C263.486 15.051 263.097 14.8951 262.766 14.6894C262.341 14.4241 262.01 14.0625 261.771 13.6048C261.532 13.1471 261.412 12.6462 261.412 12.1023C261.412 10.8817 261.937 9.94965 262.985 9.30618C263.94 8.72241 265.121 8.43053 266.527 8.43053C267.29 8.43053 268 8.51676 268.656 8.68924C269.32 8.85508 270.109 9.15028 271.025 9.57484C271.297 9.70088 271.486 9.7639 271.592 9.7639C271.698 9.7639 271.834 9.69093 272 9.54499L272.239 9.67435Z" fill="#033603"/>
<path d="M61.4654 33.4701V35.5325C61.4654 35.6516 61.4923 35.7437 61.5461 35.809C61.5999 35.8705 61.6959 35.9223 61.8341 35.9646V36.1201H59.5528V35.9588C59.6873 35.9242 59.7814 35.8743 59.8351 35.809C59.8927 35.7437 59.9215 35.6516 59.9215 35.5325V30.2556C59.9215 30.1365 59.8947 30.0463 59.8409 29.9848C59.7871 29.9234 59.6911 29.8715 59.5528 29.8293V29.668H63.7583C64.5917 29.668 65.2196 29.7928 65.6421 30.0424C65.8879 30.1884 66.0799 30.3958 66.2181 30.6646C66.3564 30.9334 66.4255 31.2349 66.4255 31.569C66.4255 32.2104 66.2066 32.6886 65.7688 33.0035C65.331 33.3146 64.6608 33.4701 63.7583 33.4701H61.4654ZM61.4654 32.3007H63.6661C64.0694 32.3007 64.3497 32.2623 64.5072 32.1855C64.7376 32.0741 64.8528 31.8686 64.8528 31.569C64.8528 31.2695 64.7376 31.064 64.5072 30.9526C64.3536 30.8758 64.0732 30.8374 63.6661 30.8374H61.4654V32.3007ZM77.3617 33.4701V35.5325C77.3617 35.6516 77.3886 35.7437 77.4424 35.809C77.4961 35.8705 77.5921 35.9223 77.7304 35.9646V36.1201H75.4491V35.9588C75.5835 35.9242 75.6776 35.8743 75.7314 35.809C75.789 35.7437 75.8178 35.6516 75.8178 35.5325V30.2556C75.8178 30.1365 75.7909 30.0463 75.7371 29.9848C75.6834 29.9234 75.5874 29.8715 75.4491 29.8293V29.668H79.6776C80.2268 29.668 80.6454 29.6968 80.9334 29.7544C81.2215 29.8081 81.4788 29.908 81.7054 30.0539C82.1701 30.3573 82.4024 30.8528 82.4024 31.5402C82.4024 32.0626 82.2584 32.4716 81.9704 32.7673C81.6862 33.0592 81.2253 33.2704 80.5878 33.401L81.8091 35.1062C82.0318 35.4211 82.2085 35.6362 82.3391 35.7514C82.4735 35.8628 82.6252 35.9338 82.7942 35.9646V36.1201H80.0866V35.9646C80.2863 35.9108 80.3861 35.8244 80.3861 35.7053C80.3861 35.6208 80.3247 35.4922 80.2018 35.3194L78.9114 33.4701H77.3617ZM77.3617 32.3007H79.6891C80.0424 32.3007 80.3036 32.2623 80.4726 32.1855C80.7107 32.0818 80.8297 31.8763 80.8297 31.569C80.8297 31.2964 80.7452 31.1063 80.5763 30.9987C80.4111 30.8912 80.1154 30.8374 79.6891 30.8374H77.3617V32.3007ZM93.6843 30.2556V35.5325C93.6843 35.6516 93.7111 35.7437 93.7649 35.809C93.8187 35.8705 93.9147 35.9223 94.053 35.9646V36.1201H91.7717V35.9588C91.9061 35.9242 92.0002 35.8743 92.0539 35.809C92.1115 35.7437 92.1404 35.6516 92.1404 35.5325V30.2556C92.1404 30.1365 92.1135 30.0463 92.0597 29.9848C92.0059 29.9234 91.9099 29.8715 91.7717 29.8293V29.668H94.053V29.8293C93.9147 29.8677 93.8187 29.9195 93.7649 29.9848C93.7111 30.0463 93.6843 30.1365 93.6843 30.2556ZM106.712 34.0808L108.273 30.6646C108.365 30.4687 108.411 30.3228 108.411 30.2268C108.411 30.0347 108.286 29.9022 108.037 29.8293V29.668H110.531V29.8293C110.377 29.8792 110.266 29.9406 110.197 30.0136C110.128 30.0866 110.039 30.2364 109.932 30.463L107.674 35.2157C107.593 35.3846 107.553 35.5133 107.553 35.6016C107.553 35.7937 107.679 35.9146 107.933 35.9646V36.1201H105.404V35.9646C105.654 35.9146 105.778 35.7937 105.778 35.6016C105.778 35.5133 105.738 35.3846 105.657 35.2157L103.399 30.463C103.292 30.2325 103.203 30.0827 103.134 30.0136C103.069 29.9406 102.957 29.8792 102.8 29.8293V29.668H105.387V29.8293C105.141 29.9061 105.018 30.0386 105.018 30.2268C105.018 30.3113 105.066 30.4572 105.162 30.6646L106.712 34.0808ZM123.305 34.5071H120.338L120.004 35.2099C119.923 35.3789 119.883 35.5114 119.883 35.6074C119.883 35.7917 120.006 35.9089 120.252 35.9588V36.1201H117.878V35.9588C118.024 35.9358 118.132 35.8916 118.201 35.8263C118.274 35.761 118.358 35.6324 118.454 35.4403L120.81 30.6704C120.899 30.4898 120.943 30.3324 120.943 30.198C120.943 30.0405 120.835 29.9176 120.62 29.8293V29.668H123.126V29.8293C122.915 29.9138 122.81 30.0443 122.81 30.221C122.81 30.3477 122.858 30.5033 122.954 30.6876L125.396 35.3136C125.531 35.5671 125.636 35.7322 125.713 35.809C125.79 35.882 125.907 35.9338 126.064 35.9646V36.1201H123.432V35.9646C123.681 35.9223 123.806 35.8052 123.806 35.6132C123.806 35.4941 123.758 35.3462 123.662 35.1696L123.305 34.5071ZM122.838 33.6026L121.784 31.5345L120.782 33.6026H122.838ZM138.366 30.8374V35.5325C138.366 35.6516 138.393 35.7437 138.447 35.809C138.5 35.8705 138.596 35.9223 138.735 35.9646V36.1201H136.453V35.9588C136.588 35.9242 136.682 35.8743 136.736 35.809C136.793 35.7437 136.822 35.6516 136.822 35.5325V30.8374H134.921C134.798 30.8374 134.704 30.8662 134.639 30.9238C134.577 30.9776 134.527 31.0736 134.489 31.2119H134.333V29.2993H134.495C134.529 29.4337 134.577 29.5297 134.639 29.5873C134.704 29.6411 134.798 29.668 134.921 29.668H140.267C140.39 29.668 140.482 29.6411 140.543 29.5873C140.609 29.5335 140.661 29.4375 140.699 29.2993H140.855V31.2119H140.699C140.661 31.0736 140.609 30.9776 140.543 30.9238C140.482 30.8662 140.39 30.8374 140.267 30.8374H138.366ZM151.716 33.378V34.9507H155.812C155.931 34.9507 156.021 34.9238 156.083 34.87C156.148 34.8162 156.2 34.7183 156.238 34.5762H156.399V36.4888H156.238C156.204 36.3544 156.154 36.2584 156.088 36.2008C156.023 36.147 155.931 36.1201 155.812 36.1201H149.803V35.9588C149.938 35.9242 150.032 35.8743 150.086 35.809C150.143 35.7437 150.172 35.6516 150.172 35.5325V30.2556C150.172 30.1365 150.145 30.0463 150.091 29.9848C150.038 29.9234 149.941 29.8715 149.803 29.8293V29.668H155.633C155.756 29.668 155.848 29.6411 155.91 29.5873C155.975 29.5335 156.027 29.4375 156.065 29.2993H156.221V31.2119H156.065C156.027 31.0698 155.975 30.9718 155.91 30.9181C155.848 30.8643 155.756 30.8374 155.633 30.8374H151.716V32.2546H154.147C154.266 32.2546 154.356 32.2277 154.418 32.1739C154.483 32.1202 154.537 32.0242 154.579 31.8859H154.735V33.7524H154.579C154.541 33.6141 154.489 33.5181 154.423 33.4644C154.362 33.4068 154.27 33.378 154.147 33.378H151.716ZM178.635 34.9507H182.247C182.37 34.9507 182.462 34.9238 182.523 34.87C182.585 34.8162 182.637 34.7183 182.679 34.5762H182.834V36.4888H182.679C182.64 36.3506 182.589 36.2545 182.523 36.2008C182.462 36.147 182.37 36.1201 182.247 36.1201H176.722V35.9588C176.856 35.9242 176.951 35.8743 177.004 35.809C177.062 35.7437 177.091 35.6516 177.091 35.5325V30.2556C177.091 30.1365 177.064 30.0463 177.01 29.9848C176.956 29.9234 176.86 29.8715 176.722 29.8293V29.668H179.003V29.8293C178.865 29.8677 178.769 29.9195 178.715 29.9848C178.662 30.0463 178.635 30.1365 178.635 30.2556V34.9507ZM193.609 30.2556V35.5325C193.609 35.6516 193.636 35.7437 193.69 35.809C193.744 35.8705 193.84 35.9223 193.978 35.9646V36.1201H191.697V35.9588C191.831 35.9242 191.925 35.8743 191.979 35.809C192.036 35.7437 192.065 35.6516 192.065 35.5325V30.2556C192.065 30.1365 192.038 30.0463 191.985 29.9848C191.931 29.9234 191.835 29.8715 191.697 29.8293V29.668H193.978V29.8293C193.84 29.8677 193.744 29.9195 193.69 29.9848C193.636 30.0463 193.609 30.1365 193.609 30.2556ZM207.443 35.9185L205.093 31.8801V35.5325C205.093 35.6516 205.12 35.7437 205.173 35.809C205.227 35.8705 205.323 35.9223 205.461 35.9646V36.1201H203.318V35.9588C203.453 35.9242 203.547 35.8743 203.601 35.809C203.658 35.7437 203.687 35.6516 203.687 35.5325V30.2556C203.687 30.1365 203.66 30.0463 203.606 29.9848C203.553 29.9195 203.457 29.8677 203.318 29.8293V29.668H206.043V29.8293C205.863 29.8869 205.772 29.9963 205.772 30.1576C205.772 30.3151 205.838 30.5071 205.968 30.7337L207.576 33.4471L209.194 30.774C209.379 30.4706 209.471 30.2556 209.471 30.1288C209.471 29.9714 209.377 29.8715 209.189 29.8293V29.668H211.844V29.8293C211.706 29.8677 211.61 29.9195 211.556 29.9848C211.503 30.0463 211.476 30.1365 211.476 30.2556V35.5325C211.476 35.6516 211.503 35.7437 211.556 35.809C211.61 35.8743 211.706 35.9262 211.844 35.9646V36.1201H209.563V35.9588C209.697 35.9242 209.792 35.8743 209.845 35.809C209.903 35.7437 209.932 35.6516 209.932 35.5325V31.8801L207.443 35.9185ZM223.097 30.2556V35.5325C223.097 35.6516 223.124 35.7437 223.178 35.809C223.232 35.8705 223.328 35.9223 223.466 35.9646V36.1201H221.185V35.9588C221.319 35.9242 221.413 35.8743 221.467 35.809C221.525 35.7437 221.553 35.6516 221.553 35.5325V30.2556C221.553 30.1365 221.527 30.0463 221.473 29.9848C221.419 29.9234 221.323 29.8715 221.185 29.8293V29.668H223.466V29.8293C223.328 29.8677 223.232 29.9195 223.178 29.9848C223.124 30.0463 223.097 30.1365 223.097 30.2556ZM236.367 30.8374V35.5325C236.367 35.6516 236.394 35.7437 236.447 35.809C236.501 35.8705 236.597 35.9223 236.735 35.9646V36.1201H234.454V35.9588C234.588 35.9242 234.683 35.8743 234.736 35.809C234.794 35.7437 234.823 35.6516 234.823 35.5325V30.8374H232.922C232.799 30.8374 232.705 30.8662 232.639 30.9238C232.578 30.9776 232.528 31.0736 232.49 31.2119H232.334V29.2993H232.495C232.53 29.4337 232.578 29.5297 232.639 29.5873C232.705 29.6411 232.799 29.668 232.922 29.668H238.268C238.391 29.668 238.483 29.6411 238.544 29.5873C238.61 29.5335 238.661 29.4375 238.7 29.2993H238.855V31.2119H238.7C238.661 31.0736 238.61 30.9776 238.544 30.9238C238.483 30.8662 238.391 30.8374 238.268 30.8374H236.367ZM249.717 33.378V34.9507H253.813C253.932 34.9507 254.022 34.9238 254.083 34.87C254.149 34.8162 254.2 34.7183 254.239 34.5762H254.4V36.4888H254.239C254.204 36.3544 254.154 36.2584 254.089 36.2008C254.024 36.147 253.932 36.1201 253.813 36.1201H247.804V35.9588C247.938 35.9242 248.033 35.8743 248.086 35.809C248.144 35.7437 248.173 35.6516 248.173 35.5325V30.2556C248.173 30.1365 248.146 30.0463 248.092 29.9848C248.038 29.9234 247.942 29.8715 247.804 29.8293V29.668H253.634C253.757 29.668 253.849 29.6411 253.911 29.5873C253.976 29.5335 254.028 29.4375 254.066 29.2993H254.222V31.2119H254.066C254.028 31.0698 253.976 30.9718 253.911 30.9181C253.849 30.8643 253.757 30.8374 253.634 30.8374H249.717V32.2546H252.148C252.267 32.2546 252.357 32.2277 252.418 32.1739C252.484 32.1202 252.538 32.0242 252.58 31.8859H252.735V33.7524H252.58C252.541 33.6141 252.49 33.5181 252.424 33.4644C252.363 33.4068 252.271 33.378 252.148 33.378H249.717ZM263.942 35.5325V30.2556C263.942 30.1365 263.915 30.0463 263.862 29.9848C263.808 29.9234 263.712 29.8715 263.574 29.8293V29.668H267.358C268.146 29.668 268.766 29.7659 269.219 29.9618C269.857 30.2383 270.316 30.6953 270.596 31.3329C270.792 31.7784 270.89 32.2988 270.89 32.894C270.89 33.9963 270.561 34.8316 269.905 35.4C269.609 35.6535 269.26 35.8378 268.856 35.9531C268.457 36.0644 267.958 36.1201 267.358 36.1201H263.574V35.9588C263.708 35.9242 263.802 35.8743 263.856 35.809C263.913 35.7437 263.942 35.6516 263.942 35.5325ZM265.486 34.9507H267.134C267.89 34.9507 268.44 34.7778 268.781 34.4322C269.139 34.0712 269.317 33.5585 269.317 32.894C269.317 32.2296 269.139 31.7169 268.781 31.3559C268.605 31.1754 268.386 31.0448 268.125 30.9642C267.863 30.8797 267.533 30.8374 267.134 30.8374H265.486V34.9507Z" fill="#033603"/>
<path d="M22.62 41.5741L0 13.2484V13.2482L11.3537 1.89453H24.2195L22.7283 4.06423H12.2525L2.90631 13.4106L22.6351 38.1159L30.6266 28.2852L32.3103 29.6539L22.62 41.5741Z" fill="#033603"/>
<path d="M34.2394 27.5716L32.822 25.8828L43.2907 13.3265L33.2232 4.06081H26.9844V1.89111H34.0698L46.2792 13.1283L34.2394 27.5716Z" fill="#033603"/>
<path d="M14.4574 29.6886L10.3281 24.4683L26.2588 1.88721H34.071L14.4574 29.6886Z" fill="#033603"/>
<path d="M39.1414 36.1539H31.004L16.2969 18.6265L23.2508 17.2158L39.1414 36.1539Z" fill="#033603"/>
</svg>
