<svg width="200" height="200" viewBox="0 0 200 200" fill="none" xmlns="http://www.w3.org/2000/svg">
<circle cx="100" cy="100" r="100" fill="#DBF1DC" fill-opacity="0.5"/>
<g clip-path="url(#clip0)">
<path d="M132.498 99.9997C114.558 99.9777 100.02 85.4398 99.9977 67.4996C99.9977 66.6547 100.063 65.8297 100.123 64.9995H62.4977C61.117 65.0007 59.9988 66.121 60 67.5019C60.0002 67.6555 60.0145 67.8087 60.0427 67.9597L67.5427 107.96C67.7639 109.142 68.7952 109.999 69.9977 110H138.668C144.972 110 150.291 105.306 151.073 99.0498L151.753 93.6198C146.186 97.7598 139.435 99.9969 132.498 99.9997Z" fill="#033603"/>
<path d="M132.496 160C139.4 160 144.996 154.403 144.996 147.5C144.996 140.596 139.4 135 132.496 135C125.592 135 119.996 140.596 119.996 147.5C119.996 154.403 125.592 160 132.496 160Z" fill="#033603"/>
<path d="M82.4999 160C89.4034 160 94.9998 154.403 94.9998 147.5C94.9998 140.596 89.4034 135 82.4999 135C75.5964 135 70 140.596 70 147.5C70 154.403 75.5964 160 82.4999 160Z" fill="#033603"/>
<path d="M142.5 130H84.7949C76.4603 129.982 69.288 124.104 67.6349 115.935L55.45 54.9997H42.5001C41.1194 54.9997 40 53.8803 40 52.4996C40 51.1189 41.1194 49.9995 42.5001 49.9995H57.5001C58.6884 49.9993 59.7123 50.8353 59.95 51.9994L72.5399 114.95C73.72 120.785 78.8418 124.985 84.7949 125H142.5C143.881 125 145 126.119 145 127.5C145 128.88 143.881 130 142.5 130Z" fill="#033603"/>
<path d="M132.496 94.9998C147.684 94.9998 159.996 82.6877 159.996 67.4999C159.996 52.3121 147.684 40 132.496 40C117.308 40 104.996 52.3121 104.996 67.4999C104.996 82.6877 117.308 94.9998 132.496 94.9998Z" fill="#E30909"/>
<path d="M141.344 62.1965L127.202 76.3386C126.226 77.3149 124.643 77.3149 123.666 76.3386C122.69 75.3623 122.69 73.7793 123.666 72.803L137.808 58.6609C138.785 57.6846 140.368 57.6846 141.344 58.6609C142.32 59.6372 142.32 61.2202 141.344 62.1965Z" fill="#FAFAFA"/>
<path d="M141.34 76.342C140.364 77.3183 138.781 77.3183 137.804 76.342L123.662 62.2C122.686 61.2236 122.686 59.6406 123.662 58.6643C124.639 57.688 126.222 57.688 127.198 58.6643L141.34 72.8064C142.316 73.7829 142.316 75.3657 141.34 76.342Z" fill="#FAFAFA"/>
</g>
<defs>
<clipPath id="clip0">
<rect width="120" height="120" fill="white" transform="translate(40 40)"/>
</clipPath>
</defs>
</svg>
