<svg width="22" height="21" viewBox="0 0 22 21" fill="none" xmlns="http://www.w3.org/2000/svg">
<path d="M6.35953 16.1099C5.39837 16.0608 5.41647 14.7089 6.35949 14.6619C9.03077 14.6712 16.0765 14.6644 18.8327 14.6664C19.5866 14.6664 20.2315 14.1533 20.4011 13.4189L21.9662 6.64164C22.0558 6.2536 21.9654 5.85197 21.7181 5.53981C21.4708 5.22765 21.1006 5.04609 20.7023 5.04609C19.5936 5.04609 10.1816 5.00349 5.36084 4.98427L4.59666 2.14885C4.41322 1.47126 3.79487 0.998047 3.0929 0.998047H0.644874C0.288732 0.998047 0 1.28678 0 1.64292C0 1.99906 0.288732 2.28779 0.644874 2.28779H3.0929C3.21375 2.28779 3.32016 2.36926 3.35158 2.48521L6.2864 13.374C5.77038 13.3927 5.28973 13.6026 4.92525 13.9724C4.54228 14.361 4.33661 14.8755 4.34611 15.421C4.36511 16.512 5.26832 17.3996 6.35953 17.3996H7.29984C7.16008 17.693 7.08162 18.021 7.08162 18.367C7.08162 19.6116 8.09416 20.6241 9.33877 20.6241C10.5834 20.6241 11.5959 19.6116 11.5959 18.367C11.5959 18.0209 11.5174 17.693 11.3776 17.3996H15.4496C15.31 17.6929 15.2315 18.0207 15.2315 18.3666C15.2315 19.6112 16.2441 20.6238 17.4887 20.6238C18.7333 20.6238 19.7459 19.6112 19.7459 18.3666C19.7459 18.0072 19.661 17.6674 19.511 17.3656C19.7662 17.2796 19.9502 17.0389 19.9502 16.7548C19.9502 16.3986 19.6614 16.1099 19.3053 16.1099H6.35953ZM10.3061 18.367C10.3061 18.9004 9.87216 19.3344 9.33872 19.3344C8.80528 19.3344 8.37132 18.9004 8.37132 18.367C8.37132 17.8339 8.80485 17.4001 9.3379 17.3996H9.33954C9.87259 17.4001 10.3061 17.8339 10.3061 18.367ZM17.4887 19.334C16.9553 19.334 16.5213 18.9001 16.5213 18.3667C16.5213 17.8385 16.9469 17.4081 17.473 17.3996H17.5045C18.0307 17.4081 18.4562 17.8385 18.4562 18.3667C18.4562 18.9001 18.0222 19.334 17.4887 19.334ZM20.7071 6.34057C20.7109 6.34539 20.7103 6.34766 20.7095 6.35136L20.0501 9.20708H17.817L18.1973 6.32565L20.6972 6.33571C20.701 6.3358 20.7033 6.3358 20.7071 6.34057ZM14.0586 13.3766V10.4968H16.3459L15.9658 13.3766H14.0586ZM10.8608 13.3766L10.4777 10.4968H12.7689V13.3766H10.8608ZM7.89214 13.3766H7.89012C7.73294 13.3765 7.59447 13.2705 7.55358 13.1195L6.84671 10.4968H9.17656L9.5597 13.3766H7.89214ZM10.3061 9.20712L9.91825 6.29233L12.7688 6.30381V9.20712H10.3061ZM14.0586 9.20712V6.30901L16.897 6.32045L16.5161 9.20712H14.0586ZM8.61642 6.28705L9.00493 9.20708H6.49908L5.7089 6.27531L8.61642 6.28705ZM18.8327 13.3766H17.2667L17.6468 10.4968H19.7522L19.1444 13.1286C19.1107 13.2746 18.9826 13.3766 18.8327 13.3766Z" fill="#033603"/>
</svg>
