<svg width="25" height="25" viewBox="0 0 25 25" fill="none" xmlns="http://www.w3.org/2000/svg">
<path d="M5.3734 7.32397L2.08649 12.583L12.5 23.9916L22.9135 12.5831L19.6267 7.32402H5.3734V7.32397ZM14.6775 13.2322L12.5 20.389L10.3225 13.2322H14.6775ZM10.7552 11.7674L12.5 9.3186L14.2448 11.7674H10.7552ZM13.9212 8.78882H17.6968L15.6998 11.2851L13.9212 8.78882ZM9.30025 11.2851L7.30323 8.78882H11.0789L9.30025 11.2851ZM7.81022 11.7674H4.32369L5.85284 9.3207L7.81022 11.7674ZM8.79132 13.2322L10.8558 20.0174L4.66241 13.2322H8.79132ZM16.2087 13.2322H20.3376L14.1442 20.0174L16.2087 13.2322ZM17.1898 11.7674L19.1471 9.3207L20.6763 11.7674H17.1898Z" fill="#033603"/>
<path d="M11.7676 1.00854H13.2324V4.98999H11.7676V1.00854Z" fill="#033603"/>
<path d="M20.1754 5.69751L22.6909 2.5541L23.8349 3.4696L21.3194 6.61301L20.1754 5.69751Z" fill="#033603"/>
<path d="M16.2261 3.51953H17.691V4.98994H16.2261V3.51953Z" fill="#033603"/>
<path d="M23.5296 8.26636H25V9.7312H23.5296V8.26636Z" fill="#033603"/>
<path d="M1.17426 3.4707L2.31826 2.55521L4.8338 5.69861L3.68979 6.61411L1.17426 3.4707Z" fill="#033603"/>
<path d="M7.30902 3.51953H8.77387V4.98994H7.30902V3.51953Z" fill="#033603"/>
<path d="M0 8.26636H1.47041V9.7312H0V8.26636Z" fill="#033603"/>
</svg>
