<svg width="25" height="25" viewBox="0 0 25 25" fill="none" xmlns="http://www.w3.org/2000/svg">
<path d="M24.2188 14.7461H19.0918V11.5723C19.0918 11.1678 18.7639 10.8398 18.3594 10.8398H16.4287L13.8753 3.90913C14.376 3.50605 14.6973 2.88862 14.6973 2.19727C14.6973 0.985693 13.7116 0 12.5 0C11.2884 0 10.3027 0.985693 10.3027 2.19727C10.3027 2.88862 10.624 3.50605 11.1247 3.90913L8.57134 10.8398H6.64062C6.23613 10.8398 5.9082 11.1678 5.9082 11.5723V14.7461H0.78125C0.376758 14.7461 0.0488281 15.074 0.0488281 15.4785V24.2676C0.0488281 24.6721 0.376758 25 0.78125 25H24.2188C24.6232 25 24.9512 24.6721 24.9512 24.2676V15.4785C24.9512 15.074 24.6232 14.7461 24.2188 14.7461ZM1.51367 16.2109H5.9082V23.5352H1.51367V16.2109ZM13.4032 6.86499L14.5009 9.84463L11.6665 8.10723L13.4032 6.86499ZM11.8514 6.17393L12.5 4.41353L12.878 5.4396L11.8514 6.17393ZM12.5 1.46484C12.9039 1.46484 13.2324 1.79341 13.2324 2.19727C13.2324 2.60112 12.9039 2.92969 12.5 2.92969C12.0961 2.92969 11.7676 2.60112 11.7676 2.19727C11.7676 1.79341 12.0961 1.46484 12.5 1.46484ZM10.7199 9.24517L13.3216 10.8398H10.1324L10.7199 9.24517ZM11.7676 23.5352H10.3027V21.0938H11.7676V23.5352ZM13.2324 23.5352V21.0938H14.6973V23.5352H13.2324ZM17.627 23.5352H16.1621V20.3613C16.1621 19.9568 15.8342 19.6289 15.4297 19.6289H9.57031C9.16582 19.6289 8.83789 19.9568 8.83789 20.3613V23.5352H7.37305V12.3047H17.627V23.5352ZM23.4863 23.5352H19.0918V16.2109H23.4863V23.5352Z" fill="#033603"/>
<path d="M21.2891 19.1406C21.6936 19.1406 22.0215 18.8127 22.0215 18.4082C22.0215 18.0037 21.6936 17.6758 21.2891 17.6758C20.8846 17.6758 20.5566 18.0037 20.5566 18.4082C20.5566 18.8127 20.8846 19.1406 21.2891 19.1406Z" fill="#033603"/>
<path d="M21.2891 22.0703C21.6936 22.0703 22.0215 21.7424 22.0215 21.3379C22.0215 20.9334 21.6936 20.6055 21.2891 20.6055C20.8846 20.6055 20.5566 20.9334 20.5566 21.3379C20.5566 21.7424 20.8846 22.0703 21.2891 22.0703Z" fill="#033603"/>
<path d="M3.71094 19.1406C4.11544 19.1406 4.44336 18.8127 4.44336 18.4082C4.44336 18.0037 4.11544 17.6758 3.71094 17.6758C3.30643 17.6758 2.97852 18.0037 2.97852 18.4082C2.97852 18.8127 3.30643 19.1406 3.71094 19.1406Z" fill="#033603"/>
<path d="M3.71094 22.0703C4.11544 22.0703 4.44336 21.7424 4.44336 21.3379C4.44336 20.9334 4.11544 20.6055 3.71094 20.6055C3.30643 20.6055 2.97852 20.9334 2.97852 21.3379C2.97852 21.7424 3.30643 22.0703 3.71094 22.0703Z" fill="#033603"/>
<path d="M15.4297 15.2344C15.8342 15.2344 16.1621 14.9065 16.1621 14.502C16.1621 14.0974 15.8342 13.7695 15.4297 13.7695C15.0252 13.7695 14.6973 14.0974 14.6973 14.502C14.6973 14.9065 15.0252 15.2344 15.4297 15.2344Z" fill="#033603"/>
<path d="M9.57031 15.2344C9.97482 15.2344 10.3027 14.9065 10.3027 14.502C10.3027 14.0974 9.97482 13.7695 9.57031 13.7695C9.16581 13.7695 8.83789 14.0974 8.83789 14.502C8.83789 14.9065 9.16581 15.2344 9.57031 15.2344Z" fill="#033603"/>
<path d="M12.5 15.2344C12.9045 15.2344 13.2324 14.9065 13.2324 14.502C13.2324 14.0974 12.9045 13.7695 12.5 13.7695C12.0955 13.7695 11.7676 14.0974 11.7676 14.502C11.7676 14.9065 12.0955 15.2344 12.5 15.2344Z" fill="#033603"/>
<path d="M15.4297 18.1641C15.8342 18.1641 16.1621 17.8361 16.1621 17.4316C16.1621 17.0271 15.8342 16.6992 15.4297 16.6992C15.0252 16.6992 14.6973 17.0271 14.6973 17.4316C14.6973 17.8361 15.0252 18.1641 15.4297 18.1641Z" fill="#033603"/>
<path d="M9.57031 18.1641C9.97482 18.1641 10.3027 17.8361 10.3027 17.4316C10.3027 17.0271 9.97482 16.6992 9.57031 16.6992C9.16581 16.6992 8.83789 17.0271 8.83789 17.4316C8.83789 17.8361 9.16581 18.1641 9.57031 18.1641Z" fill="#033603"/>
<path d="M12.5 18.1641C12.9045 18.1641 13.2324 17.8361 13.2324 17.4316C13.2324 17.0271 12.9045 16.6992 12.5 16.6992C12.0955 16.6992 11.7676 17.0271 11.7676 17.4316C11.7676 17.8361 12.0955 18.1641 12.5 18.1641Z" fill="#033603"/>
</svg>
