<svg width="25" height="25" viewBox="0 0 25 25" fill="none" xmlns="http://www.w3.org/2000/svg">
<g clip-path="url(#clip0)">
<path d="M24.218 12.3336C23.3821 11.6446 22.0609 11.5856 21.1938 12.5162L19.0411 14.8271C18.7627 13.9326 17.9273 13.2813 16.9426 13.2813H13.101C12.8095 13.2813 12.7119 13.1699 12.2056 12.7798C10.275 11.0968 7.37529 11.1022 5.45059 12.796L4.03857 14.039C3.40386 13.7031 2.6627 13.6948 2.02451 14.0136L0.404981 14.8232C0.0431644 15.0043 -0.103271 15.4442 0.0773441 15.806L4.47163 24.5945C4.65278 24.9564 5.09268 25.1028 5.45449 24.9222L7.07402 24.1122C7.87231 23.7133 8.3166 22.8988 8.28779 22.0698H16.9425C18.5474 22.0698 20.081 21.3033 21.0438 20.0192L24.5598 15.331C25.2418 14.4223 25.1339 13.0899 24.218 12.3336ZM6.41875 22.8022L5.45444 23.2845L1.71494 15.806L2.67974 15.3236C3.04155 15.143 3.48096 15.289 3.66211 15.6513L6.74639 21.8198C6.92705 22.1816 6.78057 22.621 6.41875 22.8022ZM23.3879 14.4521L19.8721 19.1403C19.1841 20.0577 18.089 20.605 16.9426 20.605H7.77661L5.03213 15.1156L6.41826 13.8955C7.79756 12.6822 9.87754 12.6822 11.2568 13.8955C12.0693 14.6108 12.5746 14.7461 13.101 14.7461H16.9425C17.3463 14.7461 17.6749 15.0747 17.6749 15.4784C17.6749 15.8822 17.3463 16.2108 16.9425 16.2108H13.2021C12.7978 16.2108 12.4697 16.5389 12.4697 16.9432C12.4697 17.3474 12.7978 17.6755 13.2021 17.6755H17.4333C18.0411 17.6755 18.6271 17.4207 19.0411 16.9759L22.2655 13.5147C22.5604 13.1983 23.0125 13.2246 23.2898 13.4673C23.5798 13.7212 23.6111 14.1552 23.3879 14.4521Z" fill="#033603"/>
<path d="M15.3996 4.99849C15.9011 4.47266 16.2101 3.76177 16.2101 2.97905C16.2101 1.36685 14.9075 0.000732422 13.2806 0.000732422C11.666 0.000732422 10.3023 1.3644 10.3023 2.97905C10.3023 3.73779 10.5997 4.45405 11.1397 5.00435C9.80043 5.75527 8.83759 7.19658 8.83759 8.88691V9.61929C8.83759 10.0235 9.16571 10.3517 9.56996 10.3517H16.9426C17.3468 10.3517 17.6749 10.0235 17.6749 9.61929V8.88691C17.6749 7.22978 16.7634 5.76602 15.3996 4.99849ZM13.2806 1.46553C14.0745 1.46553 14.7454 2.15884 14.7454 2.9791C14.7454 3.78667 14.0882 4.44385 13.2806 4.44385C12.4604 4.44385 11.7671 3.773 11.7671 2.9791C11.7671 2.173 12.4745 1.46553 13.2806 1.46553ZM10.3023 8.88691C10.3023 7.27227 11.666 5.90859 13.2806 5.90859C14.8958 5.90859 16.2101 7.24443 16.2101 8.88691H10.3023Z" fill="#033603"/>
</g>
<defs>
<clipPath id="clip0">
<rect width="25" height="25" fill="white" transform="translate(0 0.00012207)"/>
</clipPath>
</defs>
</svg>
