<svg width="22" height="20" viewBox="0 0 22 20" fill="none" xmlns="http://www.w3.org/2000/svg">
<path d="M21.6141 6.7655L18.7841 1.1056C18.6471 0.865153 18.4548 0.7146 18.1512 0.7146H4.00142C3.7056 0.7146 3.50778 0.861379 3.36846 1.1056L0.538507 6.7655C0.407481 7.04378 0.452335 7.32343 0.638027 7.54657L10.5428 18.9135C10.6773 19.0678 10.8716 19.1564 11.0763 19.1564C11.281 19.1564 11.4753 19.0678 11.6097 18.9135L21.5146 7.54657C21.6991 7.32456 21.7459 7.04524 21.6141 6.7655ZM17.0064 2.12957L15.2005 5.74153L12.4913 2.12957H17.0064ZM13.9062 6.3745H8.24634L11.0763 2.60123L13.9062 6.3745ZM9.66132 2.12957L6.95211 5.74153L5.14613 2.12957H9.66132ZM4.00142 3.00403L5.68665 6.3745H2.31619L4.00142 3.00403ZM2.72653 7.78947H6.36396L9.85187 15.9671L2.72653 7.78947ZM11.0763 15.2308L7.9025 7.78947H14.2501L11.0763 15.2308ZM12.3007 15.9671L15.7886 7.78947H19.4261L12.3007 15.9671ZM16.4659 6.3745L18.1512 3.00403L19.8364 6.3745H16.4659Z" fill="#033603"/>
</svg>
