<svg width="24" height="24" viewBox="0 0 24 24" fill="none" xmlns="http://www.w3.org/2000/svg">
<g clip-path="url(#clip0)">
<path d="M23.2971 22.5895H22.5894V21.1367H23.2925C23.6807 21.1367 23.9954 20.822 23.9954 20.4336C23.9954 19.7775 23.1987 19.7307 23.1987 19.7307V14.9974C23.1987 14.609 22.884 14.2943 22.4956 14.2943H21.371V6.28009C21.371 5.89191 21.0562 5.57715 20.6678 5.57715H15.1377V0.703064C15.1377 0.31488 14.8229 0.00012207 14.4348 0.00012207H2.81195C2.42377 0.00012207 2.10901 0.31488 2.10901 0.703064V14.2943H1.64447C1.25629 14.2943 0.941528 14.609 0.941528 14.9972V19.7307H0.702942C0.314758 19.7307 0 20.0454 0 20.4336C0 20.8218 0.314758 21.1365 0.702942 21.1365H1.40607V22.5895H0.702942C0.314758 22.5895 0 22.9042 0 23.2924C0 23.6806 0.314758 23.9954 0.702942 23.9954H23.2971C23.6852 23.9954 24 23.6806 24 23.2924C24 22.9042 23.6852 22.5895 23.2971 22.5895ZM9.06866 10.8497C9.45685 10.8497 9.77161 10.5349 9.77161 10.1465V9.46704H11.4353V14.2943H6.70184V9.46704H8.36554V10.1465C8.36554 10.5349 8.6803 10.8497 9.06866 10.8497ZM9.88879 21.1367V22.5895H5.6239V21.1367H9.88879ZM14.2004 21.1367H18.3715V22.5895H14.1066V21.1367H14.2004ZM21.7927 19.7307H14.9033V15.7003H17.6451V16.4033C17.6451 16.7914 17.9599 17.1062 18.3481 17.1062C18.7363 17.1062 19.051 16.7914 19.051 16.4033V15.7003H21.7927V19.7307ZM19.9649 14.2943H12.8414V6.98322H15.7002V7.77991C15.7002 8.16809 16.015 8.48285 16.4031 8.48285C16.7913 8.48285 17.1061 8.16809 17.1061 7.77991V6.98322H19.9649V14.2943ZM3.51489 1.40619H7.92041V2.10913C7.92041 2.49731 8.23517 2.81207 8.62335 2.81207C9.01154 2.81207 9.32629 2.49731 9.32629 2.10913V1.40619H13.7318V5.57715H12.1382C11.7501 5.57715 11.4353 5.89191 11.4353 6.28009V8.06116H5.9989C5.61053 8.06116 5.29578 8.37592 5.29578 8.7641V14.2943H3.51489V1.40619ZM2.34741 15.7003H13.4974V19.7307H2.34741V15.7003ZM2.81195 22.5895V21.1367H4.21802V22.5895H2.81195ZM11.2947 22.5895V21.1367H12.7007V22.5895H11.2947ZM19.7774 22.5895V21.1367H21.1835V22.5895H19.7774Z" fill="#033603"/>
</g>
<defs>
<clipPath id="clip0">
<rect width="24" height="24" fill="white" transform="translate(0 0.00012207)"/>
</clipPath>
</defs>
</svg>
