<svg width="23" height="23" viewBox="0 0 23 23" fill="none" xmlns="http://www.w3.org/2000/svg">
<g clip-path="url(#clip0)">
<path d="M18.6464 11.2382C21.0037 9.11903 21.1967 5.49024 19.0776 3.13301C17.134 0.971039 13.8808 0.603756 11.5041 2.27802C8.91328 0.449547 5.33075 1.06759 3.50228 3.6584C1.82451 6.0357 2.1903 9.29225 4.35366 11.2381C1.66563 12.6551 -0.0120501 15.4486 0.000126877 18.4872V20.9514C0.000126877 21.4051 0.36789 21.7729 0.821567 21.7729H22.1786C22.6322 21.7729 23 21.4051 23 20.9514V18.4872C23.0121 15.4486 21.3345 12.6551 18.6464 11.2382ZM14.7857 2.88013C17.0508 2.87763 18.8891 4.71183 18.8917 6.97694C18.8934 8.59238 17.9468 10.0584 16.4737 10.7214C16.4105 10.7502 16.3472 10.7764 16.2832 10.8036C16.0805 10.8854 15.8714 10.9504 15.6581 10.9983C15.617 11.0073 15.5759 11.0122 15.534 11.0205C15.2957 11.0661 15.0538 11.0906 14.8112 11.0936C14.7019 11.0936 14.5918 11.0853 14.4826 11.0755C14.4415 11.0755 14.4004 11.0755 14.3594 11.0673C13.8925 11.0123 13.4383 10.8785 13.0163 10.6714C13.0007 10.664 12.9826 10.6648 12.9671 10.6582C12.8849 10.6188 12.8028 10.5843 12.7297 10.5399C12.7363 10.5317 12.7404 10.5227 12.7469 10.5145C13.1236 10.0305 13.4205 9.48949 13.6266 8.91187L13.6521 8.84285C13.7458 8.56697 13.8186 8.28445 13.8698 7.99759C13.8772 7.95572 13.8829 7.91543 13.8895 7.87028C13.937 7.57828 13.962 7.28309 13.9643 6.98724C13.9619 6.69196 13.9369 6.3973 13.8895 6.10583C13.8829 6.06313 13.8772 6.02367 13.8698 5.97852C13.8186 5.69171 13.7458 5.40914 13.6521 5.13326L13.6266 5.06424C13.4205 4.48662 13.1235 3.94564 12.7469 3.46164C12.7403 3.45341 12.7362 3.44441 12.7297 3.43618C13.3537 3.07212 14.0632 2.88018 14.7857 2.88013ZM4.10723 6.98729C4.10141 4.72487 5.93069 2.8861 8.19311 2.88027C9.25361 2.87753 10.2739 3.28621 11.0392 4.02029C11.0869 4.0663 11.1337 4.11227 11.1797 4.15992C11.3208 4.30772 11.4509 4.46559 11.5691 4.63222C11.6052 4.68314 11.6381 4.73738 11.6717 4.78994C11.7865 4.96663 11.8873 5.15203 11.9732 5.3444C11.9937 5.39123 12.0093 5.43888 12.0274 5.48567C12.1139 5.69845 12.1821 5.91831 12.2311 6.14279C12.2369 6.16743 12.2385 6.19208 12.2434 6.21754C12.3475 6.72757 12.3475 7.2534 12.2434 7.76344C12.2385 7.7889 12.2368 7.81354 12.2311 7.83818C12.1821 8.06266 12.114 8.28252 12.0274 8.49531C12.0093 8.54214 11.9937 8.58979 11.9732 8.63657C11.8872 8.82866 11.7864 9.01377 11.6717 9.19021C11.638 9.24277 11.6052 9.29701 11.5691 9.34793C11.4509 9.51461 11.3208 9.67243 11.1797 9.82024C11.1337 9.86789 11.0868 9.9139 11.0392 9.95986C10.7067 10.2768 10.3232 10.5356 9.90486 10.7254C9.83834 10.7558 9.77096 10.7838 9.70281 10.8076C9.5048 10.8862 9.30106 10.9493 9.09333 10.9965C9.04159 11.008 8.98817 11.0145 8.93561 11.0236C8.71258 11.0651 8.48641 11.0879 8.25957 11.0918H8.16923C7.9424 11.0879 7.71623 11.0651 7.49319 11.0236C7.44064 11.0145 7.38721 11.008 7.33547 10.9965C7.12774 10.9493 6.92396 10.8862 6.726 10.8076C6.6578 10.7805 6.59046 10.7526 6.52395 10.7254C5.05434 10.0619 4.10911 8.5997 4.10723 6.98729ZM14.7857 20.13H1.64296V18.4872C1.63093 15.7037 3.3847 13.2185 6.01126 12.297C7.42129 12.884 9.00733 12.884 10.4174 12.297C10.6916 12.3972 10.9589 12.5154 11.2175 12.651C11.3883 12.7389 11.5461 12.8391 11.7103 12.9401C11.8171 13.0067 11.9255 13.0716 12.0282 13.1447C12.1868 13.2572 12.3363 13.3796 12.4833 13.5053C12.5778 13.5874 12.6714 13.6696 12.7601 13.7517C12.8956 13.8798 13.0229 14.0154 13.1453 14.1542C13.2332 14.2544 13.3186 14.3563 13.4 14.4614C13.5076 14.5994 13.6103 14.7407 13.7056 14.8861C13.7877 15.0093 13.8608 15.1374 13.9331 15.2656C14.0152 15.4069 14.0908 15.5482 14.1598 15.6952C14.2288 15.8423 14.2896 16.0033 14.3487 16.1602C14.4004 16.2965 14.4555 16.432 14.4982 16.5709C14.5557 16.7614 14.5959 16.9585 14.6362 17.1557C14.6608 17.2723 14.6929 17.3865 14.7109 17.5048C14.7596 17.83 14.7845 18.1583 14.7857 18.4872V20.13H14.7857ZM21.3571 20.13H16.4286V18.4872C16.4286 18.2301 16.4138 17.9754 16.3908 17.7233C16.3842 17.6494 16.3728 17.5763 16.3645 17.5023C16.3423 17.3208 16.3169 17.1409 16.2824 16.9626C16.2676 16.8865 16.252 16.8101 16.2355 16.7334C16.1961 16.5505 16.1504 16.3693 16.0984 16.1897C16.0811 16.1305 16.0655 16.0705 16.0474 16.0123C15.8174 15.277 15.4841 14.5781 15.0576 13.9365L15.0256 13.8897C14.8843 13.68 14.7334 13.4771 14.573 13.2811L14.5672 13.2736C14.403 13.07 14.2247 12.8719 14.0374 12.6847C14.0481 12.6847 14.0596 12.6847 14.0711 12.6847C14.3029 12.7151 14.5363 12.7316 14.7702 12.734H14.8154C15.0317 12.7321 15.2478 12.7181 15.4627 12.6921C15.53 12.6838 15.5966 12.6715 15.6639 12.6608C15.8386 12.634 16.0111 12.5992 16.1814 12.5565C16.2299 12.5442 16.2791 12.5327 16.3284 12.5188C16.5519 12.458 16.7714 12.3833 16.9855 12.2953C19.614 13.2159 21.3694 15.7022 21.3572 18.4873V20.13H21.3571Z" fill="#033603"/>
</g>
<defs>
<clipPath id="clip0">
<rect width="23" height="23" fill="white" transform="translate(0 -0.00012207)"/>
</clipPath>
</defs>
</svg>
