<svg class="d-block" fill="#033603" version="1.0" viewBox="0 0 512 452" xmlns="http://www.w3.org/2000/svg"><metadata>Created by potrace 1.15, written by Peter Selinger 2001-2017</metadata><g transform="translate(0 452) scale(.1 -.1)"><path d="m1008 4473c-19-27-51-78-71-115-21-36-51-83-67-103-17-21-30-42-30-47s-22-42-48-81c-74-112-112-184-112-215 0-20 17-51 53-96 28-37 62-81 74-97 12-17 37-48 55-69s49-60 68-86c19-25 53-68 75-94s60-73 85-105 64-80 87-109c23-28 62-75 85-104 24-29 59-71 79-95 19-23 42-51 50-63 8-11 30-41 50-65 21-24 75-91 120-148 124-155 141-171 179-171 26 0 41 10 76 48 24 26 44 50 44 54s19 30 43 57c23 28 62 76 87 107s59 72 76 92c16 21 39 49 50 63 10 15 73 93 139 174s137 171 157 199c21 28 44 56 51 61 7 6 18 18 23 27s26 36 46 60 71 86 112 138 91 114 111 138c56 69 49 121-31 232-19 26-34 52-34 58s-10 23-23 39c-13 15-45 64-71 108-81 135-114 189-138 222l-23 32-697 1h-696l-34-47zm572-87c0-3-48-63-107-136-60-72-119-144-132-161s-27-27-32-22c-4 4-24 60-44 123-21 63-46 132-56 152-11 21-19 40-19 43s88 5 195 5 195-2 195-4zm700 2c0-14-53-155-61-165-6-7-21-45-33-85-13-40-27-71-32-69-9 5-159 186-198 240-11 14-31 38-45 54l-25 27h197c108 0 197-1 197-2zm-513-74c17-24 35-47 143-179 69-84 110-137 110-141 0-2-129-4-286-4h-286l19 24c33 42 217 270 242 298 30 34 35 35 58 2zm-653-144c21-66 44-127 52-137 30-40 21-43-136-43h-151l16 28c13 23 76 124 153 244 9 16 19 28 22 28s23-54 44-120zm1335 58c19-35 41-72 51-83 17-20 90-143 90-151 0-2-65-4-145-4-87 0-145 4-145 10 0 19 49 159 64 182 8 13 19 42 26 66 6 23 14 42 18 42s23-28 41-62zm-1196-440c14-29 42-106 62-170 20-65 41-120 45-123 5-3 23-51 40-108 17-56 37-111 44-122s15-29 19-40c3-11 15-49 26-85l20-65-20 25c-113 139-309 386-333 419-11 14-36 45-55 68-20 23-54 65-76 93-22 27-59 73-82 100-24 28-43 53-43 55 0 3 74 5 164 5h165l24-52zm806-5c-11-32-26-69-34-83-7-14-27-65-43-115-16-49-43-124-60-165-43-109-87-228-135-366-23-66-46-121-51-123-11-3-55 105-97 238-17 53-38 107-45 121-8 14-28 68-45 120s-36 104-42 115c-5 11-29 77-53 147s-48 137-54 148c-11 20-9 20 335 20h345l-21-57zm511 51c0-3-44-60-97-126-54-66-107-132-117-147-11-14-36-45-55-68-20-24-55-66-79-95-23-29-63-77-87-106-25-29-45-56-45-60s-17-26-38-48c-20-23-50-58-65-79-36-45-45-40-19 12 11 21 36 89 56 152 21 63 43 123 51 135 7 12 30 73 50 136 21 63 41 120 46 125 4 6 20 48 35 93l26 82h169c93 0 169-3 169-6z"></path><path d="m3212 4487c-24-33-57-87-138-222-26-44-58-93-71-108-13-16-23-33-23-39s-15-32-34-58c-80-111-87-163-31-232 20-24 90-110 155-193 66-82 127-158 137-167 9-10 32-40 52-67 20-26 90-115 156-196s129-159 139-174c11-14 36-45 55-68 20-23 54-65 76-93 22-27 59-73 83-100 23-28 42-54 42-58s20-28 44-54c35-38 50-48 76-48 38 0 55 16 179 171 45 57 99 124 120 148 20 24 42 54 50 65 8 12 31 40 50 63 20 24 55 66 79 95 23 29 62 76 85 104 23 29 62 77 87 109s63 79 85 105 56 69 75 94c19 26 50 65 68 86s43 52 55 69c12 16 46 60 75 97 35 45 52 76 52 96 0 31-38 103-112 215-26 39-48 76-48 81 0 6-11 24-25 40-13 16-43 62-65 102-23 39-57 94-77 121l-35 49h-696l-697-1-23-32zm542-131c-16-18-51-62-79-96-27-35-67-83-88-108s-45-55-54-68c-22-34-29-30-42 24-7 26-21 65-31 87-15 32-70 182-70 193 0 1 88 2 196 2h196l-28-34zm726 29c0-3-9-24-20-46-11-21-37-88-56-147s-40-111-45-117c-7-7-17-2-30 15-70 87-192 238-208 255-41 46-44 45 163 45 108 0 196-2 196-5zm-519-73c13-15 60-72 104-127 43-55 97-120 120-145l40-45-142-3c-78-1-208-1-289 0l-147 3 36 45c20 25 54 68 77 95 108 132 126 155 143 179 23 33 28 32 58-2zm-686-49c3-16 15-46 25-68 18-40 70-186 70-198 0-4-65-7-145-7s-145 2-145 4c0 8 73 131 90 151 10 11 32 48 51 83 18 34 37 62 40 62 4 0 10-12 14-27zm1347-1c77-120 140-221 153-244l16-28h-151c-143 0-150 1-150 20 0 11 4 20 9 20 4 0 28 59 51 130 24 72 46 130 49 130s14-12 23-28zm-1162-507c15-45 32-90 39-100 6-11 29-76 51-144 22-69 44-129 49-135s25-63 46-126 44-128 52-145l14-30-23 26c-54 62-104 123-112 138-5 9-25 35-45 58-20 24-55 66-79 95-23 29-58 72-78 95-19 23-48 58-62 77-52 67-151 191-181 226-17 19-31 38-31 43 0 4 75 6 167 5l166-3 27-80zm805 68c-5-10-27-72-51-138-105-297-125-351-136-370-6-10-28-69-49-130-21-60-49-139-64-175-14-36-30-74-34-85-6-15-17 9-49 100-74 217-132 378-141 389-4 6-25 65-46 131s-44 131-51 145c-12 24-54 136-54 145 0 3 153 5 341 5 321 0 341-1 334-17zm505 12c0-2-19-27-42-55-24-27-61-73-83-100-22-28-56-70-76-93-19-23-44-54-55-68-10-15-62-80-114-145-53-66-104-131-115-145-58-76-128-159-131-156-5 4 56 189 67 202 4 6 24 60 45 120 20 61 41 115 46 122 5 6 25 59 44 118 18 58 44 128 56 155l23 50h168c92 0 167-2 167-5z"></path><path d="m4598 2997c-92-26-103-36-547-496l-215-221-35 34c-58 54-153 96-221 96-21 0-42 5-45 10-4 6-205 10-569 10-543 0-565 1-622 21-135 47-240 62-429 63-260 1-399-27-593-120-137-65-200-108-314-211-82-74-177-188-202-243-21-47-43-60-99-60-115 0-127-8-415-294-145-144-270-273-278-288s-14-47-14-72c0-58 1-59 388-446 174-174 420-421 545-548l228-232h72 72l272 273c149 149 279 288 289 307 14 27 19 60 20 140l1 104 69 59c121 102 26 91 904 98 840 6 817 5 981 64 40 14 94 41 120 60 25 19 51 35 55 35 14 0 128 100 138 121 5 10 12 19 16 19 5 0 38 37 75 83 37 45 89 108 117 139s58 69 68 85c9 15 32 42 49 58 18 17 53 57 77 90 25 33 66 83 90 110 55 62 144 166 249 295 44 53 103 125 132 158 84 100 93 129 93 306 0 142-2 154-25 194-46 80-92 126-167 167-70 38-77 40-178 42-64 2-123-2-152-10zm230-249c55-33 87-118 71-189-12-52-92-158-279-369-26-30-65-77-86-105-20-27-59-72-86-99-26-28-48-53-48-58 0-4-30-43-67-86-149-174-309-365-318-382-25-44-174-153-260-190-110-47-161-50-925-50-446 0-738-4-771-10-84-16-167-61-248-135l-74-67-755 755 26 41c53 85 104 156 117 163 7 5 44 36 81 70 68 61 198 137 279 163 22 7 49 19 60 26 77 48 440 67 600 31 44-10 108-31 141-48l61-29h604c575 0 606-1 644-20 61-29 85-55 101-107 29-96-26-195-123-222-24-7-198-11-474-11-422 0-437-1-462-20-57-45-59-139-5-185l30-26 492 3 491 3 66 32c135 67 219 192 227 341l5 83 166 168c91 92 246 249 344 350 144 148 186 186 220 197 51 16 110 9 155-18zm-4076-1107c23-9 848-825 880-871 10-14 18-39 18-56 0-27-26-57-207-238l-207-207-479 482-480 481 189 190c169 170 234 228 256 228 4 0 17-4 30-9z"></path><path d="m2229 1820c-83-44-77-165 10-204 104-48 205 54 156 158-31 64-97 82-166 46z"></path></g></svg>
