<svg width="25" height="25" viewBox="0 0 25 25" fill="none" xmlns="http://www.w3.org/2000/svg">
<path d="M23.216 16.0713C22.7228 16.0713 22.3231 16.471 22.3231 16.9642V22.3213C22.3231 22.8144 21.9233 23.2142 21.4302 23.2142H3.57315C3.08002 23.2142 2.68028 22.8144 2.68028 22.3213V16.9642C2.68028 16.471 2.28053 16.0713 1.78741 16.0713C1.29428 16.0713 0.894531 16.471 0.894531 16.9642V22.3213C0.894531 23.8006 2.09377 24.9999 3.5731 24.9999H21.4303C22.9096 24.9999 24.1088 23.8006 24.1088 22.3213V16.9642C24.1088 16.471 23.7091 16.0713 23.216 16.0713Z" fill="#033603"/>
<path d="M17.5739 15.4402C17.2279 15.106 16.6794 15.106 16.3334 15.4402L13.3914 18.3803V0.892874C13.3914 0.399745 12.9917 0 12.4985 0C12.0054 0 11.6057 0.399745 11.6057 0.892874V18.3804L8.66547 15.4402C8.31077 15.0976 7.74555 15.1074 7.40299 15.4621C7.0688 15.8081 7.0688 16.3566 7.40299 16.7027L11.8673 21.1669C12.2155 21.516 12.7808 21.5168 13.1299 21.1685C13.1305 21.168 13.131 21.1675 13.1316 21.1669L17.5958 16.7027C17.9384 16.348 17.9286 15.7827 17.5739 15.4402Z" fill="#033603"/>
</svg>
