<svg width="30" height="30" viewBox="0 0 30 30" fill="none" xmlns="http://www.w3.org/2000/svg">
<path d="M14.9991 11.1364C12.7423 11.1364 10.9082 12.9704 10.9082 15.2273C10.9082 17.4841 12.7423 19.3182 14.9991 19.3182C17.2559 19.3182 19.09 17.4841 19.09 15.2273C19.09 12.9704 17.2559 11.1364 14.9991 11.1364Z" fill="black"/>
<path d="M15 5C8.18181 5 2.35911 9.24086 0 15.2273C2.35911 21.2136 8.18181 25.4545 15 25.4545C21.825 25.4545 27.6409 21.2136 30 15.2273C27.6409 9.24086 21.825 5 15 5ZM15 22.0454C11.2364 22.0454 8.18181 18.9908 8.18181 15.2272C8.18181 11.4636 11.2364 8.40906 15 8.40906C18.7636 8.40906 21.8182 11.4636 21.8182 15.2273C21.8182 18.9909 18.7636 22.0454 15 22.0454Z" fill="black"/>
</svg>
