<svg width="24" height="24" viewBox="0 0 24 24" fill="none" xmlns="http://www.w3.org/2000/svg">
<path d="M23.8285 5.30304C23.6282 5.07005 23.2858 5.01002 22.943 5.15748L20.0708 6.39335C18.171 3.27034 14.7349 1.18018 10.8199 1.18018C4.85379 1.18018 0 6.03396 0 12.0001C0 17.9662 4.85379 22.82 10.8199 22.82C11.6539 22.82 12.3299 22.144 12.3299 21.31C12.3299 20.476 11.6539 19.8 10.8199 19.8C6.51903 19.7999 3.02003 16.3009 3.02003 12.0001C3.02003 7.69928 6.51903 4.2002 10.8199 4.2002C13.4911 4.2002 15.8526 5.55016 17.2589 7.60332L14.5204 8.78166C14.2271 8.9079 14.0437 9.13115 14.0172 9.3942C13.9907 9.65717 14.1259 9.91258 14.3881 10.0948L21.4476 15.0007C21.6084 15.1124 21.7835 15.1715 21.9539 15.1715C21.954 15.1715 21.954 15.1715 21.954 15.1715C22.3336 15.1715 22.632 14.8869 22.6963 14.4634L23.9876 5.96412C24.0273 5.70327 23.9708 5.46854 23.8285 5.30304Z" fill="black"/>
</svg>
