<svg width="19" height="19" viewBox="0 0 19 19" fill="none" xmlns="http://www.w3.org/2000/svg">
<g clip-path="url(#clip0)">
<path d="M9.32611 0C4.32047 0 0.248047 4.07248 0.248047 9.07812C0.248047 14.0838 4.32047 18.1561 9.32611 18.1561C14.3318 18.1561 18.4042 14.0838 18.4042 9.07812C18.4042 4.07248 14.3318 0 9.32611 0ZM9.32611 16.5056C5.23053 16.5056 1.8986 13.1737 1.8986 9.07812C1.8986 4.98259 5.23053 1.65056 9.32611 1.65056C13.4217 1.65056 16.7536 4.98259 16.7536 9.07812C16.7536 13.1737 13.4216 16.5056 9.32611 16.5056Z" fill="#033603"/>
<path d="M9.32671 3.85132C8.72008 3.85132 8.22656 4.34517 8.22656 4.95219C8.22656 5.55866 8.72008 6.05206 9.32671 6.05206C9.93335 6.05206 10.4269 5.55866 10.4269 4.95219C10.4269 4.34517 9.93335 3.85132 9.32671 3.85132Z" fill="#033603"/>
<path d="M9.32626 7.70264C8.87048 7.70264 8.50098 8.07214 8.50098 8.52792V13.4796C8.50098 13.9354 8.87048 14.3049 9.32626 14.3049C9.78203 14.3049 10.1515 13.9354 10.1515 13.4796V8.52792C10.1515 8.07214 9.78203 7.70264 9.32626 7.70264Z" fill="#033603"/>
</g>
<defs>
<clipPath id="clip0">
<rect width="18.1561" height="18.1561" fill="white" transform="translate(0.248047)"/>
</clipPath>
</defs>
</svg>
