<svg width="542" height="85" viewBox="0 0 542 85" fill="none" xmlns="http://www.w3.org/2000/svg">
<path d="M130.48 24.4221L126.439 27.7144V34.93C126.439 35.3374 126.531 35.6528 126.715 35.8763C126.912 36.0866 127.24 36.2508 127.7 36.3691V37H119.302V36.3691C119.775 36.2377 120.104 36.0668 120.288 35.8566C120.472 35.6463 120.564 35.3374 120.564 34.93V12.1399C120.564 11.7457 120.472 11.4434 120.288 11.2331C120.104 11.0228 119.775 10.8519 119.302 10.7205V10.0896H127.7V10.7205C127.227 10.8388 126.899 11.0096 126.715 11.2331C126.531 11.4434 126.439 11.7457 126.439 12.1399V21.5635L137.518 12.5145C138.031 12.0939 138.287 11.7588 138.287 11.5091C138.287 11.1279 137.906 10.8651 137.144 10.7205V10.0896H148.144V10.7205C147.684 10.8125 147.356 10.9176 147.159 11.0359C146.961 11.1542 146.39 11.6011 145.443 12.3765L143.925 13.6383L134.778 20.9918L145.148 33.4711C146.107 34.6277 146.797 35.3768 147.218 35.7186C147.651 36.0471 148.19 36.264 148.834 36.3691V37H138.326V36.3691C139.023 36.2246 139.371 35.9748 139.371 35.62C139.371 35.436 139.056 34.9497 138.425 34.1611L130.48 24.4221ZM173.225 16.9306V28.6213C173.225 31.2894 172.699 33.2477 171.648 34.4963C169.952 36.4809 166.759 37.4731 162.067 37.4731C158.925 37.4731 156.389 36.9934 154.457 36.034C153.064 35.3374 152.111 34.3451 151.598 33.0571C151.125 31.8742 150.888 30.3956 150.888 28.6213V16.9306C150.888 16.5232 150.796 16.2143 150.612 16.004C150.428 15.7937 150.1 15.6163 149.627 15.4717V14.9197H157.453V15.4717C156.967 15.6031 156.632 15.7806 156.448 16.004C156.264 16.2143 156.172 16.5232 156.172 16.9306V27.5567C156.172 28.7922 156.277 29.7385 156.487 30.3956C156.711 31.0528 157.092 31.5916 157.631 32.0122C158.709 32.8665 160.266 33.2937 162.303 33.2937C164.34 33.2937 165.898 32.8665 166.976 32.0122C167.501 31.5916 167.869 31.0528 168.08 30.3956C168.29 29.7385 168.395 28.7922 168.395 27.5567V16.9306C168.395 16.5232 168.303 16.2143 168.119 16.004C167.948 15.7937 167.62 15.6163 167.133 15.4717V14.9197H174.487V15.4717C174.014 15.6031 173.685 15.7806 173.501 16.004C173.317 16.2143 173.225 16.5232 173.225 16.9306ZM188.626 26.9259L185.491 29.4888V34.9891C185.491 35.3965 185.583 35.712 185.767 35.9354C185.951 36.1457 186.28 36.3231 186.753 36.4677V37H178.946V36.448C179.406 36.3297 179.728 36.1588 179.912 35.9354C180.109 35.712 180.208 35.3965 180.208 34.9891V16.9306C180.208 16.5232 180.116 16.2143 179.932 16.004C179.748 15.7937 179.419 15.6163 178.946 15.4717V14.9197H186.753V15.4717C186.28 15.6031 185.951 15.7806 185.767 16.004C185.583 16.2143 185.491 16.5232 185.491 16.9306V24.1658L193.791 17.5417C194.409 17.0554 194.718 16.6283 194.718 16.2603C194.718 15.866 194.337 15.6031 193.574 15.4717V14.9197H203.511V15.452C203.011 15.5309 202.591 15.682 202.249 15.9054C201.92 16.1289 201.092 16.8189 199.765 17.9755L192.313 23.9095L200.514 33.3331C201.565 34.5554 202.315 35.3505 202.761 35.7186C203.221 36.0866 203.747 36.3363 204.339 36.4677V37H194.678V36.4677C195.401 36.2968 195.763 36.034 195.763 35.6791C195.763 35.5477 195.717 35.4228 195.625 35.3045C195.546 35.1731 195.244 34.8051 194.718 34.2005L188.626 26.9259ZM225.555 31.4799H215.402L214.259 33.8851C213.983 34.4634 213.845 34.9168 213.845 35.2454C213.845 35.8763 214.266 36.2771 215.107 36.448V37H206.984V36.448C207.484 36.3691 207.852 36.218 208.088 35.9946C208.338 35.7711 208.627 35.3308 208.956 34.6737L217.019 18.35C217.321 17.7323 217.472 17.1934 217.472 16.7334C217.472 16.1946 217.104 15.774 216.368 15.4717V14.9197H224.944V15.4717C224.221 15.7609 223.86 16.2077 223.86 16.8123C223.86 17.246 224.024 17.7783 224.353 18.4092L232.712 34.24C233.172 35.1074 233.533 35.6726 233.796 35.9354C234.059 36.1851 234.46 36.3626 234.999 36.4677V37H225.989V36.4677C226.843 36.3231 227.271 35.9223 227.271 35.2651C227.271 34.8577 227.106 34.3517 226.778 33.7471L225.555 31.4799ZM223.959 28.3847L220.351 21.3072L216.92 28.3847H223.959ZM239.123 34.9891V16.9306C239.123 16.5232 239.031 16.2143 238.847 16.004C238.663 15.7937 238.334 15.6163 237.861 15.4717V14.9197H250.814C253.508 14.9197 255.631 15.2548 257.181 15.9251C259.363 16.8714 260.934 18.4355 261.893 20.6172C262.564 22.1418 262.899 23.9227 262.899 25.9599C262.899 29.7319 261.775 32.5905 259.528 34.5357C258.515 35.4031 257.319 36.034 255.939 36.4283C254.573 36.8094 252.864 37 250.814 37H237.861V36.448C238.321 36.3297 238.643 36.1588 238.827 35.9354C239.024 35.712 239.123 35.3965 239.123 34.9891ZM244.406 32.9979H250.045C252.634 32.9979 254.513 32.4065 255.683 31.2236C256.905 29.9882 257.517 28.2336 257.517 25.9599C257.517 23.6861 256.905 21.9315 255.683 20.6961C255.079 20.0783 254.329 19.6315 253.436 19.3555C252.542 19.0663 251.412 18.9218 250.045 18.9218H244.406V32.9979ZM273.844 16.9306V34.9891C273.844 35.3965 273.936 35.712 274.12 35.9354C274.304 36.1457 274.633 36.3231 275.106 36.4677V37H267.299V36.448C267.759 36.3297 268.081 36.1588 268.265 35.9354C268.462 35.712 268.561 35.3965 268.561 34.9891V16.9306C268.561 16.5232 268.469 16.2143 268.285 16.004C268.101 15.7937 267.772 15.6163 267.299 15.4717V14.9197H275.106V15.4717C274.633 15.6031 274.304 15.7806 274.12 16.004C273.936 16.2143 273.844 16.5232 273.844 16.9306ZM296.756 31.4799H286.603L285.46 33.8851C285.184 34.4634 285.046 34.9168 285.046 35.2454C285.046 35.8763 285.467 36.2771 286.308 36.448V37H278.185V36.448C278.685 36.3691 279.053 36.218 279.289 35.9946C279.539 35.7711 279.828 35.3308 280.157 34.6737L288.22 18.35C288.522 17.7323 288.674 17.1934 288.674 16.7334C288.674 16.1946 288.306 15.774 287.569 15.4717V14.9197H296.145V15.4717C295.422 15.7609 295.061 16.2077 295.061 16.8123C295.061 17.246 295.225 17.7783 295.554 18.4092L303.913 34.24C304.373 35.1074 304.734 35.6726 304.997 35.9354C305.26 36.1851 305.661 36.3626 306.2 36.4677V37H297.19V36.4677C298.044 36.3231 298.472 35.9223 298.472 35.2651C298.472 34.8577 298.307 34.3517 297.979 33.7471L296.756 31.4799ZM295.16 28.3847L291.552 21.3072L288.121 28.3847H295.16ZM333.946 29.193L341.083 13.382C341.385 12.7117 341.536 12.1925 341.536 11.8245C341.536 11.2594 341.102 10.8914 340.235 10.7205V10.0896H349.442V10.7205C348.863 10.7994 348.462 10.9636 348.239 11.2134C348.016 11.4631 347.628 12.1859 347.076 13.382L337.751 33.5105C337.357 34.3648 337.159 34.9234 337.159 35.1863C337.159 35.8566 337.573 36.2508 338.401 36.3691V37H329.136V36.3691C329.964 36.2508 330.378 35.85 330.378 35.1665C330.378 34.9168 330.181 34.3648 329.786 33.5105L320.461 13.382C319.909 12.1859 319.522 11.4631 319.298 11.2134C319.075 10.9636 318.674 10.7994 318.096 10.7205V10.0896H327.657V10.7205C326.79 10.8914 326.356 11.2594 326.356 11.8245C326.356 12.1925 326.507 12.7117 326.809 13.382L333.946 29.193ZM358.12 27.6159V32.9979H372.137C372.544 32.9979 372.853 32.9059 373.064 32.7219C373.287 32.5379 373.464 32.2028 373.596 31.7165H374.148V38.2617H373.596C373.478 37.8017 373.307 37.4731 373.083 37.276C372.86 37.092 372.544 37 372.137 37H351.575V36.448C352.035 36.3297 352.357 36.1588 352.541 35.9354C352.738 35.712 352.836 35.3965 352.836 34.9891V16.9306C352.836 16.5232 352.744 16.2143 352.56 16.004C352.376 15.7937 352.048 15.6163 351.575 15.4717V14.9197H371.526C371.946 14.9197 372.262 14.8277 372.472 14.6437C372.696 14.4597 372.873 14.1311 373.004 13.658H373.537V20.2032H373.004C372.873 19.7169 372.696 19.3818 372.472 19.1978C372.262 19.0138 371.946 18.9218 371.526 18.9218H358.12V23.7715H366.44C366.847 23.7715 367.156 23.6795 367.366 23.4955C367.59 23.3115 367.774 22.983 367.918 22.5098H368.45V28.8973H367.918C367.787 28.4242 367.609 28.0956 367.386 27.9116C367.176 27.7144 366.86 27.6159 366.44 27.6159H358.12ZM384.561 22.4507V34.9891C384.561 35.3965 384.653 35.712 384.837 35.9354C385.034 36.1588 385.363 36.3363 385.823 36.4677V37H378.489V36.448C378.949 36.3297 379.271 36.1588 379.455 35.9354C379.652 35.712 379.751 35.3965 379.751 34.9891V16.9306C379.751 16.5232 379.659 16.2143 379.475 16.004C379.291 15.7937 378.962 15.6163 378.489 15.4717V14.9197H386.966V15.4717C386.388 15.6163 386.099 15.8726 386.099 16.2406C386.099 16.556 386.309 16.924 386.73 17.3446L398.558 29.0945V16.9306C398.558 16.5232 398.466 16.2143 398.282 16.004C398.098 15.7806 397.77 15.6031 397.297 15.4717V14.9197H404.631V15.4717C404.157 15.6031 403.829 15.7806 403.645 16.004C403.461 16.2143 403.369 16.5232 403.369 16.9306V34.9891C403.369 35.3965 403.461 35.712 403.645 35.9354C403.829 36.1457 404.157 36.3231 404.631 36.4677V37H396.725V36.4677C397.303 36.3494 397.592 36.1063 397.592 35.7383C397.592 35.5543 397.514 35.3637 397.356 35.1665C397.198 34.9694 396.837 34.5817 396.272 34.0034L384.561 22.4507ZM421.727 18.9218V34.9891C421.727 35.3965 421.819 35.712 422.003 35.9354C422.187 36.1457 422.516 36.3231 422.989 36.4677V37H415.182V36.448C415.642 36.3297 415.964 36.1588 416.148 35.9354C416.345 35.712 416.444 35.3965 416.444 34.9891V18.9218H409.938C409.517 18.9218 409.195 19.0203 408.972 19.2175C408.761 19.4015 408.591 19.7301 408.459 20.2032H407.927V13.658H408.479C408.597 14.118 408.761 14.4466 408.972 14.6437C409.195 14.8277 409.517 14.9197 409.938 14.9197H428.233C428.653 14.9197 428.969 14.8277 429.179 14.6437C429.403 14.4597 429.58 14.1311 429.711 13.658H430.244V20.2032H429.711C429.58 19.7301 429.403 19.4015 429.179 19.2175C428.969 19.0203 428.653 18.9218 428.233 18.9218H421.727ZM456.705 16.9306V28.6213C456.705 31.2894 456.179 33.2477 455.127 34.4963C453.432 36.4809 450.238 37.4731 445.546 37.4731C442.405 37.4731 439.868 36.9934 437.936 36.034C436.543 35.3374 435.59 34.3451 435.078 33.0571C434.605 31.8742 434.368 30.3956 434.368 28.6213V16.9306C434.368 16.5232 434.276 16.2143 434.092 16.004C433.908 15.7937 433.579 15.6163 433.106 15.4717V14.9197H440.933V15.4717C440.447 15.6031 440.112 15.7806 439.928 16.004C439.744 16.2143 439.652 16.5232 439.652 16.9306V27.5567C439.652 28.7922 439.757 29.7385 439.967 30.3956C440.19 31.0528 440.572 31.5916 441.11 32.0122C442.188 32.8665 443.746 33.2937 445.783 33.2937C447.82 33.2937 449.377 32.8665 450.455 32.0122C450.981 31.5916 451.349 31.0528 451.559 30.3956C451.769 29.7385 451.875 28.7922 451.875 27.5567V16.9306C451.875 16.5232 451.783 16.2143 451.599 16.004C451.428 15.7937 451.099 15.6163 450.613 15.4717V14.9197H457.966V15.4717C457.493 15.6031 457.165 15.7806 456.981 16.004C456.797 16.2143 456.705 16.5232 456.705 16.9306ZM468.971 27.9313V34.9891C468.971 35.3965 469.063 35.712 469.247 35.9354C469.431 36.1457 469.76 36.3231 470.233 36.4677V37H462.426V36.448C462.886 36.3297 463.208 36.1588 463.392 35.9354C463.589 35.712 463.687 35.3965 463.687 34.9891V16.9306C463.687 16.5232 463.595 16.2143 463.411 16.004C463.227 15.7937 462.899 15.6163 462.426 15.4717V14.9197H476.896C478.776 14.9197 480.208 15.0183 481.194 15.2154C482.18 15.3994 483.06 15.7411 483.836 16.2406C485.426 17.2789 486.221 18.9743 486.221 21.3269C486.221 23.1144 485.728 24.5141 484.743 25.5261C483.77 26.525 482.193 27.2479 480.011 27.6947L484.191 33.5302C484.953 34.608 485.557 35.344 486.004 35.7383C486.464 36.1194 486.984 36.3626 487.562 36.4677V37H478.296V36.4677C478.979 36.2837 479.321 35.988 479.321 35.5806C479.321 35.2914 479.111 34.8511 478.69 34.2597L474.274 27.9313H468.971ZM468.971 23.9293H476.936C478.145 23.9293 479.039 23.7978 479.617 23.535C480.432 23.1801 480.839 22.4769 480.839 21.4255C480.839 20.4923 480.55 19.8418 479.972 19.4738C479.407 19.1058 478.395 18.9218 476.936 18.9218H468.971V23.9293ZM497.778 27.6159V32.9979H511.795C512.202 32.9979 512.511 32.9059 512.722 32.7219C512.945 32.5379 513.122 32.2028 513.254 31.7165H513.806V38.2617H513.254C513.136 37.8017 512.965 37.4731 512.741 37.276C512.518 37.092 512.202 37 511.795 37H491.233V36.448C491.693 36.3297 492.015 36.1588 492.199 35.9354C492.396 35.712 492.494 35.3965 492.494 34.9891V16.9306C492.494 16.5232 492.402 16.2143 492.218 16.004C492.034 15.7937 491.706 15.6163 491.233 15.4717V14.9197H511.184C511.604 14.9197 511.92 14.8277 512.13 14.6437C512.354 14.4597 512.531 14.1311 512.662 13.658H513.195V20.2032H512.662C512.531 19.7169 512.354 19.3818 512.13 19.1978C511.92 19.0138 511.604 18.9218 511.184 18.9218H497.778V23.7715H506.097C506.505 23.7715 506.814 23.6795 507.024 23.4955C507.247 23.3115 507.431 22.983 507.576 22.5098H508.108V28.8973H507.576C507.445 28.4242 507.267 28.0956 507.044 27.9116C506.833 27.7144 506.518 27.6159 506.097 27.6159H497.778ZM539.38 16.9109L536.718 22.0564L536.245 21.8001C536.245 21.3664 536.107 21.0246 535.831 20.7749C535.082 20.1046 533.978 19.5526 532.519 19.1189C531.06 18.6852 529.581 18.4683 528.083 18.4683C526.808 18.4683 525.678 18.6458 524.692 19.0006C523.273 19.5132 522.563 20.2558 522.563 21.2284C522.563 21.8724 522.905 22.3324 523.588 22.6084C524.272 22.8712 525.592 23.0815 527.551 23.2392L530.666 23.4758C533.386 23.6861 535.456 24.2118 536.876 25.053C537.664 25.5261 538.315 26.157 538.828 26.9456C539.472 27.9313 539.794 29.0419 539.794 30.2773C539.794 32.5248 538.782 34.2991 536.757 35.6003C534.825 36.8489 532.21 37.4731 528.911 37.4731C525.586 37.4731 522.372 36.77 519.271 35.3637C519.06 35.2717 518.883 35.2257 518.738 35.2257C518.476 35.2257 518.232 35.3834 518.009 35.6988L517.516 35.5017L519.783 30.0999L520.276 30.2971C520.276 30.3759 520.276 30.4285 520.276 30.4548C520.276 30.7965 520.408 31.0856 520.67 31.3222C521.328 31.9005 522.464 32.4065 524.081 32.8402C525.698 33.2608 527.295 33.4711 528.872 33.4711C530.265 33.4711 531.513 33.2871 532.617 32.9191C533.984 32.4722 534.668 31.7494 534.668 30.7505C534.668 29.9488 534.195 29.3902 533.248 29.0747C532.617 28.8645 531.481 28.687 529.838 28.5425L526.743 28.2862C525.073 28.1547 523.798 27.9839 522.918 27.7736C522.037 27.5633 521.268 27.2544 520.611 26.847C519.77 26.3213 519.113 25.605 518.64 24.6981C518.167 23.7912 517.93 22.799 517.93 21.7212C517.93 19.3029 518.968 17.4563 521.045 16.1814C522.938 15.0248 525.277 14.4466 528.063 14.4466C529.575 14.4466 530.981 14.6174 532.282 14.9591C533.597 15.2877 535.161 15.8726 536.974 16.7137C537.513 16.9634 537.888 17.0883 538.098 17.0883C538.308 17.0883 538.578 16.9437 538.906 16.6546L539.38 16.9109Z" fill="white"/>
<path d="M121.784 63.9997V68.0858C121.784 68.3217 121.837 68.5043 121.944 68.6337C122.05 68.7554 122.24 68.8581 122.514 68.9418V69.25H117.995V68.9304C118.261 68.8619 118.447 68.763 118.554 68.6337C118.668 68.5043 118.725 68.3217 118.725 68.0858V57.6309C118.725 57.395 118.672 57.2162 118.565 57.0944C118.459 56.9727 118.268 56.87 117.995 56.7863V56.4667H126.327C127.978 56.4667 129.222 56.714 130.059 57.2086C130.546 57.4977 130.926 57.9086 131.2 58.4412C131.474 58.9739 131.611 59.5712 131.611 60.2332C131.611 61.5039 131.177 62.4512 130.31 63.0752C129.442 63.6915 128.115 63.9997 126.327 63.9997H121.784ZM121.784 61.6827H126.144C126.943 61.6827 127.498 61.6066 127.81 61.4545C128.267 61.2338 128.495 60.8267 128.495 60.2332C128.495 59.6397 128.267 59.2326 127.81 59.0119C127.506 58.8597 126.95 58.7836 126.144 58.7836H121.784V61.6827ZM153.278 63.9997V68.0858C153.278 68.3217 153.332 68.5043 153.438 68.6337C153.545 68.7554 153.735 68.8581 154.009 68.9418V69.25H149.489V68.9304C149.755 68.8619 149.942 68.763 150.048 68.6337C150.162 68.5043 150.219 68.3217 150.219 68.0858V57.6309C150.219 57.395 150.166 57.2162 150.06 57.0944C149.953 56.9727 149.763 56.87 149.489 56.7863V56.4667H157.867C158.955 56.4667 159.784 56.5237 160.355 56.6379C160.926 56.7444 161.435 56.9422 161.884 57.2314C162.805 57.8325 163.265 58.8141 163.265 60.1761C163.265 61.211 162.98 62.0213 162.409 62.6072C161.846 63.1855 160.933 63.604 159.67 63.8627L162.09 67.2412C162.531 67.8651 162.881 68.2913 163.14 68.5195C163.406 68.7402 163.707 68.881 164.041 68.9418V69.25H158.677V68.9418C159.073 68.8353 159.271 68.6641 159.271 68.4282C159.271 68.2608 159.149 68.0059 158.905 67.6635L156.349 63.9997H153.278ZM153.278 61.6827H157.889C158.59 61.6827 159.107 61.6066 159.442 61.4545C159.913 61.249 160.149 60.8419 160.149 60.2332C160.149 59.6929 159.982 59.3163 159.647 59.1032C159.32 58.8902 158.734 58.7836 157.889 58.7836H153.278V61.6827ZM185.617 57.6309V68.0858C185.617 68.3217 185.671 68.5043 185.777 68.6337C185.884 68.7554 186.074 68.8581 186.348 68.9418V69.25H181.828V68.9304C182.094 68.8619 182.281 68.763 182.387 68.6337C182.501 68.5043 182.559 68.3217 182.559 68.0858V57.6309C182.559 57.395 182.505 57.2162 182.399 57.0944C182.292 56.9727 182.102 56.87 181.828 56.7863V56.4667H186.348V56.7863C186.074 56.8623 185.884 56.9651 185.777 57.0944C185.671 57.2162 185.617 57.395 185.617 57.6309ZM211.428 65.2096L214.521 58.4412C214.704 58.0532 214.795 57.764 214.795 57.5738C214.795 57.1933 214.548 56.9308 214.053 56.7863V56.4667H218.995V56.7863C218.691 56.8852 218.47 57.0069 218.333 57.1515C218.196 57.2961 218.021 57.5928 217.808 58.0418L213.334 67.4581C213.174 67.7929 213.094 68.0478 213.094 68.2228C213.094 68.6032 213.345 68.8429 213.848 68.9418V69.25H208.837V68.9418C209.332 68.8429 209.579 68.6032 209.579 68.2228C209.579 68.0478 209.499 67.7929 209.339 67.4581L204.865 58.0418C204.652 57.5852 204.477 57.2885 204.34 57.1515C204.211 57.0069 203.99 56.8852 203.678 56.7863V56.4667H208.803V56.7863C208.316 56.9384 208.072 57.201 208.072 57.5738C208.072 57.7412 208.167 58.0303 208.358 58.4412L211.428 65.2096ZM244.303 66.0542H238.425L237.763 67.4466C237.604 67.7814 237.524 68.044 237.524 68.2342C237.524 68.5994 237.767 68.8315 238.254 68.9304V69.25H233.552V68.9304C233.841 68.8848 234.054 68.7973 234.191 68.6679C234.335 68.5385 234.503 68.2836 234.693 67.9032L239.361 58.4527C239.536 58.095 239.624 57.783 239.624 57.5167C239.624 57.2048 239.411 56.9613 238.985 56.7863V56.4667H243.95V56.7863C243.531 56.9537 243.322 57.2124 243.322 57.5624C243.322 57.8135 243.417 58.1217 243.607 58.4869L248.447 67.6521C248.713 68.1543 248.922 68.4815 249.074 68.6337C249.227 68.7782 249.459 68.881 249.771 68.9418V69.25H244.555V68.9418C245.049 68.8581 245.296 68.6261 245.296 68.2456C245.296 68.0097 245.201 67.7168 245.011 67.3667L244.303 66.0542ZM243.379 64.2622L241.29 60.1647L239.304 64.2622H243.379ZM274.143 58.7836V68.0858C274.143 68.3217 274.196 68.5043 274.303 68.6337C274.409 68.7554 274.599 68.8581 274.873 68.9418V69.25H270.354V68.9304C270.62 68.8619 270.806 68.763 270.913 68.6337C271.027 68.5043 271.084 68.3217 271.084 68.0858V58.7836H267.318C267.074 58.7836 266.888 58.8407 266.758 58.9549C266.637 59.0614 266.538 59.2516 266.461 59.5255H266.153V55.7362H266.473C266.541 56.0025 266.637 56.1927 266.758 56.3069C266.888 56.4134 267.074 56.4667 267.318 56.4667H277.909C278.153 56.4667 278.336 56.4134 278.457 56.3069C278.587 56.2004 278.689 56.0101 278.765 55.7362H279.074V59.5255H278.765C278.689 59.2516 278.587 59.0614 278.457 58.9549C278.336 58.8407 278.153 58.7836 277.909 58.7836H274.143ZM300.593 63.8171V66.933H308.708C308.944 66.933 309.122 66.8798 309.244 66.7732C309.373 66.6667 309.476 66.4727 309.552 66.1911H309.872V69.9805H309.552C309.484 69.7142 309.385 69.5239 309.256 69.4098C309.126 69.3033 308.944 69.25 308.708 69.25H296.803V68.9304C297.069 68.8619 297.256 68.763 297.362 68.6337C297.477 68.5043 297.534 68.3217 297.534 68.0858V57.6309C297.534 57.395 297.48 57.2162 297.374 57.0944C297.267 56.9727 297.077 56.87 296.803 56.7863V56.4667H308.354C308.597 56.4667 308.78 56.4134 308.902 56.3069C309.031 56.2004 309.134 56.0101 309.21 55.7362H309.518V59.5255H309.21C309.134 59.244 309.031 59.05 308.902 58.9434C308.78 58.8369 308.597 58.7836 308.354 58.7836H300.593V61.5914H305.409C305.645 61.5914 305.824 61.5382 305.946 61.4316C306.075 61.3251 306.181 61.1349 306.265 60.8609H306.573V64.559H306.265C306.189 64.285 306.086 64.0948 305.957 63.9883C305.835 63.8742 305.653 63.8171 305.409 63.8171H300.593ZM353.925 66.933H361.082C361.325 66.933 361.508 66.8798 361.63 66.7732C361.751 66.6667 361.854 66.4727 361.938 66.1911H362.246V69.9805H361.938C361.862 69.7065 361.759 69.5163 361.63 69.4098C361.508 69.3033 361.325 69.25 361.082 69.25H350.136V68.9304C350.402 68.8619 350.589 68.763 350.695 68.6337C350.81 68.5043 350.867 68.3217 350.867 68.0858V57.6309C350.867 57.395 350.813 57.2162 350.707 57.0944C350.6 56.9727 350.41 56.87 350.136 56.7863V56.4667H354.656V56.7863C354.382 56.8623 354.192 56.9651 354.085 57.0944C353.979 57.2162 353.925 57.395 353.925 57.6309V66.933ZM383.594 57.6309V68.0858C383.594 68.3217 383.647 68.5043 383.754 68.6337C383.86 68.7554 384.05 68.8581 384.324 68.9418V69.25H379.804V68.9304C380.071 68.8619 380.257 68.763 380.364 68.6337C380.478 68.5043 380.535 68.3217 380.535 68.0858V57.6309C380.535 57.395 380.482 57.2162 380.375 57.0944C380.269 56.9727 380.078 56.87 379.804 56.7863V56.4667H384.324V56.7863C384.05 56.8623 383.86 56.9651 383.754 57.0944C383.647 57.2162 383.594 57.395 383.594 57.6309ZM411.002 68.8505L406.345 60.8495V68.0858C406.345 68.3217 406.399 68.5043 406.505 68.6337C406.612 68.7554 406.802 68.8581 407.076 68.9418V69.25H402.83V68.9304C403.096 68.8619 403.283 68.763 403.389 68.6337C403.503 68.5043 403.56 68.3217 403.56 68.0858V57.6309C403.56 57.395 403.507 57.2162 403.401 57.0944C403.294 56.9651 403.104 56.8623 402.83 56.7863V56.4667H408.229V56.7863C407.871 56.9004 407.692 57.1172 407.692 57.4368C407.692 57.7488 407.822 58.1293 408.08 58.5782L411.265 63.954L414.472 58.6581C414.837 58.057 415.02 57.6309 415.02 57.3798C415.02 57.0678 414.833 56.87 414.46 56.7863V56.4667H419.722V56.7863C419.448 56.8623 419.258 56.9651 419.152 57.0944C419.045 57.2162 418.992 57.395 418.992 57.6309V68.0858C418.992 68.3217 419.045 68.5043 419.152 68.6337C419.258 68.763 419.448 68.8657 419.722 68.9418V69.25H415.202V68.9304C415.469 68.8619 415.655 68.763 415.762 68.6337C415.876 68.5043 415.933 68.3217 415.933 68.0858V60.8495L411.002 68.8505ZM442.017 57.6309V68.0858C442.017 68.3217 442.071 68.5043 442.177 68.6337C442.284 68.7554 442.474 68.8581 442.748 68.9418V69.25H438.228V68.9304C438.494 68.8619 438.681 68.763 438.787 68.6337C438.901 68.5043 438.958 68.3217 438.958 68.0858V57.6309C438.958 57.395 438.905 57.2162 438.799 57.0944C438.692 56.9727 438.502 56.87 438.228 56.7863V56.4667H442.748V56.7863C442.474 56.8623 442.284 56.9651 442.177 57.0944C442.071 57.2162 442.017 57.395 442.017 57.6309ZM468.307 58.7836V68.0858C468.307 68.3217 468.36 68.5043 468.467 68.6337C468.573 68.7554 468.764 68.8581 469.038 68.9418V69.25H464.518V68.9304C464.784 68.8619 464.97 68.763 465.077 68.6337C465.191 68.5043 465.248 68.3217 465.248 68.0858V58.7836H461.482C461.238 58.7836 461.052 58.8407 460.922 58.9549C460.801 59.0614 460.702 59.2516 460.626 59.5255H460.318V55.7362H460.637C460.706 56.0025 460.801 56.1927 460.922 56.3069C461.052 56.4134 461.238 56.4667 461.482 56.4667H472.074C472.317 56.4667 472.5 56.4134 472.621 56.3069C472.751 56.2004 472.854 56.0101 472.93 55.7362H473.238V59.5255H472.93C472.854 59.2516 472.751 59.0614 472.621 58.9549C472.5 58.8407 472.317 58.7836 472.074 58.7836H468.307ZM494.757 63.8171V66.933H502.872C503.108 66.933 503.287 66.8798 503.408 66.7732C503.538 66.6667 503.64 66.4727 503.716 66.1911H504.036V69.9805H503.716C503.648 69.7142 503.549 69.5239 503.42 69.4098C503.29 69.3033 503.108 69.25 502.872 69.25H490.967V68.9304C491.234 68.8619 491.42 68.763 491.527 68.6337C491.641 68.5043 491.698 68.3217 491.698 68.0858V57.6309C491.698 57.395 491.645 57.2162 491.538 57.0944C491.432 56.9727 491.241 56.87 490.967 56.7863V56.4667H502.518C502.762 56.4667 502.944 56.4134 503.066 56.3069C503.195 56.2004 503.298 56.0101 503.374 55.7362H503.682V59.5255H503.374C503.298 59.244 503.195 59.05 503.066 58.9434C502.944 58.8369 502.762 58.7836 502.518 58.7836H494.757V61.5914H499.573C499.809 61.5914 499.988 61.5382 500.11 61.4316C500.239 61.3251 500.346 61.1349 500.429 60.8609H500.737V64.559H500.429C500.353 64.285 500.25 64.0948 500.121 63.9883C499.999 63.8742 499.817 63.8171 499.573 63.8171H494.757ZM522.941 68.0858V57.6309C522.941 57.395 522.888 57.2162 522.781 57.0944C522.675 56.9727 522.485 56.87 522.211 56.7863V56.4667H529.71C531.269 56.4667 532.498 56.6607 533.396 57.0488C534.659 57.5966 535.569 58.5021 536.124 59.7652C536.512 60.6479 536.706 61.6789 536.706 62.8583C536.706 65.0422 536.056 66.6971 534.754 67.8233C534.168 68.3255 533.476 68.6907 532.677 68.919C531.886 69.1397 530.897 69.25 529.71 69.25H522.211V68.9304C522.477 68.8619 522.663 68.763 522.77 68.6337C522.884 68.5043 522.941 68.3217 522.941 68.0858ZM526 66.933H529.264C530.763 66.933 531.851 66.5906 532.529 65.9058C533.236 65.1905 533.59 64.1747 533.59 62.8583C533.59 61.542 533.236 60.5261 532.529 59.8109C532.179 59.4533 531.745 59.1945 531.228 59.0347C530.71 58.8673 530.056 58.7836 529.264 58.7836H526V66.933Z" fill="white"/>
<path d="M44.8159 80.7559L0 24.6354V24.6352L22.4944 2.14062H47.9848L45.0305 6.43934H24.2752L5.75813 24.9568L44.8458 73.9043L60.6789 54.4271L64.0148 57.139L44.8159 80.7559Z" fill="white"/>
<path d="M67.8378 53.0182L65.0297 49.6723L85.7708 24.795L65.8245 6.43739H53.4639V2.13867H67.5018L91.6918 24.4023L67.8378 53.0182Z" fill="white"/>
<path d="M28.642 57.2085L20.4609 46.8658L52.0237 2.12695H67.5015L28.642 57.2085Z" fill="white"/>
<path d="M77.5478 70.0153H61.4256L32.2871 35.2891L46.0646 32.4941L77.5478 70.0153Z" fill="white"/>
</svg>
