<svg width="25" height="25" viewBox="0 0 25 25" fill="none" xmlns="http://www.w3.org/2000/svg">
<g clip-path="url(#clip0)">
<path d="M24.1856 13.315H8.42459C7.97459 13.315 7.60938 12.9498 7.60938 12.4998C7.60938 12.0498 7.97459 11.6846 8.42459 11.6846H24.1856C24.6356 11.6846 25.0008 12.0498 25.0008 12.4998C25.0008 12.9498 24.6356 13.315 24.1856 13.315Z" fill="#DBF1DC"/>
<path d="M12.7721 17.6632C12.5634 17.6632 12.3548 17.584 12.196 17.4242L7.84821 13.0764C7.52976 12.7577 7.52976 12.2415 7.84821 11.923L12.196 7.57526C12.5144 7.25681 13.0307 7.25681 13.3493 7.57526C13.6678 7.8937 13.6678 8.40998 13.3493 8.72843L9.57756 12.5002L13.3493 16.272C13.6678 16.5904 13.6678 17.1067 13.3493 17.4252C13.1895 17.584 12.9807 17.6632 12.7721 17.6632Z" fill="#DBF1DC"/>
<path d="M11.9566 24.4566C5.36419 24.4566 0 19.0924 0 12.5C0 5.90765 5.36419 0.543457 11.9566 0.543457C16.9032 0.543457 21.2707 3.51952 23.0848 8.12621C23.25 8.54457 23.0434 9.01746 22.6251 9.18365C22.2065 9.34685 21.7336 9.14344 21.5674 8.7229C20.0011 4.74453 16.2283 2.17389 11.9566 2.17389C6.263 2.17389 1.63043 6.80666 1.63043 12.5C1.63043 18.1934 6.263 22.8262 11.9566 22.8262C16.2283 22.8262 20.0011 20.2556 21.5674 16.2784C21.7326 15.8576 22.2055 15.6544 22.6251 15.8174C23.0434 15.9826 23.25 16.4565 23.0848 16.8751C21.2707 21.4806 16.9032 24.4566 11.9566 24.4566Z" fill="#DBF1DC"/>
</g>
<defs>
<clipPath id="clip0">
<rect width="25" height="25" fill="white"/>
</clipPath>
</defs>
</svg>
