<svg width="32" height="44" viewBox="0 0 32 44" fill="none" xmlns="http://www.w3.org/2000/svg">
<path d="M0.301452 7.05492C0.215309 7.07077 0.137646 7.11683 0.082417 7.18481C0.0271879 7.25279 -0.00202305 7.33824 0.00010898 7.4258L0.162371 37.0038C0.163806 37.0526 0.174871 37.1006 0.194877 37.1451C0.214884 37.1896 0.243471 37.2297 0.278996 37.2631C0.314521 37.2965 0.356337 37.3226 0.40196 37.3399C0.447584 37.3572 0.496085 37.3653 0.544845 37.3638C0.593605 37.3623 0.641642 37.3511 0.6861 37.331C0.730557 37.311 0.770621 37.2823 0.803993 37.2467C0.837364 37.2111 0.863402 37.1693 0.880596 37.1237C0.89779 37.078 0.905746 37.0294 0.904139 36.9807L0.741877 7.42585C0.743398 7.37053 0.732384 7.31557 0.709733 7.26508C0.687081 7.21459 0.653365 7.16988 0.611035 7.13424C0.568706 7.0986 0.518861 7.07295 0.465253 7.05922C0.411645 7.0455 0.355702 7.04405 0.301452 7.05497V7.05492Z" fill="#033603"/>
<path d="M2.78184 8.28346C2.69146 8.29421 2.60825 8.33807 2.54832 8.40656C2.48838 8.47506 2.45597 8.56334 2.45732 8.65435V36.0534C2.45732 36.1518 2.49642 36.2461 2.56597 36.3157C2.63553 36.3852 2.72984 36.4243 2.8282 36.4243C2.92656 36.4243 3.02087 36.3852 3.09043 36.3157C3.15998 36.2461 3.19908 36.1518 3.19908 36.0534V8.65435C3.19998 8.60134 3.18943 8.54878 3.16812 8.50024C3.14681 8.45169 3.1152 8.40833 3.07558 8.37311C3.03595 8.33789 2.98919 8.31166 2.93849 8.29619C2.88778 8.28071 2.83437 8.27636 2.78184 8.28346Z" fill="#033603"/>
<path d="M5.40106 9.60477C5.31492 9.62062 5.23726 9.66668 5.18203 9.73466C5.1268 9.80264 5.09759 9.88809 5.09972 9.97565V34.6626C5.09972 34.761 5.13882 34.8553 5.20838 34.9249C5.27793 34.9944 5.37224 35.0335 5.4706 35.0335C5.56897 35.0335 5.66327 34.9944 5.73283 34.9249C5.80238 34.8553 5.84149 34.761 5.84149 34.6626V9.97565C5.84301 9.92034 5.83199 9.86538 5.80934 9.81489C5.78669 9.7644 5.75297 9.71969 5.71064 9.68405C5.66832 9.6484 5.61847 9.62275 5.56486 9.60903C5.51125 9.5953 5.45531 9.59385 5.40106 9.60477Z" fill="#033603"/>
<path d="M8.90122 11.2505C8.81084 11.2612 8.72764 11.3051 8.6677 11.3736C8.60777 11.4421 8.57535 11.5304 8.5767 11.6214V32.9704C8.5767 33.0688 8.6158 33.1631 8.68536 33.2327C8.75491 33.3022 8.84922 33.3413 8.94758 33.3413C9.04595 33.3413 9.14026 33.3022 9.20981 33.2327C9.27937 33.1631 9.31847 33.0688 9.31847 32.9704V11.6214C9.31936 11.5684 9.30881 11.5158 9.2875 11.4673C9.26619 11.4187 9.23458 11.3754 9.19496 11.3401C9.15534 11.3049 9.10858 11.2787 9.05787 11.2632C9.00717 11.2478 8.95376 11.2434 8.90122 11.2505Z" fill="#033603"/>
<path d="M23.6439 11.0651C23.5535 11.0758 23.4703 11.1197 23.4104 11.1882C23.3504 11.2567 23.318 11.345 23.3194 11.436V33.4108C23.3194 33.5092 23.3584 33.6036 23.428 33.6731C23.4975 33.7427 23.5919 33.7817 23.6903 33.7817C23.7886 33.7817 23.883 33.7427 23.9525 33.6731C24.0221 33.6036 24.0611 33.5092 24.0611 33.4108V11.436C24.062 11.383 24.0515 11.3304 24.0302 11.2819C24.0089 11.2333 23.9773 11.1899 23.9377 11.1547C23.8981 11.1195 23.8513 11.0933 23.8006 11.0778C23.7499 11.0623 23.6964 11.058 23.6439 11.0651Z" fill="#033603"/>
<path d="M26.6109 9.48891C26.5206 9.49965 26.4374 9.54351 26.3774 9.61201C26.3175 9.68051 26.2851 9.76878 26.2864 9.85979V34.709C26.2864 34.8074 26.3255 34.9017 26.395 34.9713C26.4646 35.0409 26.5589 35.0799 26.6573 35.0799C26.7557 35.0799 26.85 35.0409 26.9196 34.9713C26.9891 34.9017 27.0282 34.8074 27.0282 34.709V9.85979C27.0291 9.80679 27.0185 9.75422 26.9972 9.70568C26.9759 9.65714 26.9443 9.61377 26.9047 9.57855C26.8651 9.54333 26.8183 9.5171 26.7676 9.50163C26.7169 9.48616 26.6635 9.48181 26.6109 9.48891Z" fill="#033603"/>
<path d="M29.2073 8.16763C29.1297 8.19251 29.0626 8.2424 29.0164 8.30952C28.9703 8.37664 28.9477 8.45719 28.9522 8.53852V36.4707C28.9522 36.5691 28.9913 36.6634 29.0609 36.733C29.1304 36.8025 29.2247 36.8416 29.3231 36.8416C29.4215 36.8416 29.5158 36.8025 29.5854 36.733C29.6549 36.6634 29.694 36.5691 29.694 36.4707V8.53852C29.6977 8.47812 29.6866 8.41771 29.6614 8.36267C29.6362 8.30764 29.5979 8.25968 29.5498 8.223C29.5016 8.18633 29.4452 8.16208 29.3855 8.15242C29.3257 8.14276 29.2645 8.14799 29.2073 8.16763Z" fill="#033603"/>
<path d="M31.5253 7.03177C31.4391 7.04762 31.3615 7.09368 31.3062 7.16166C31.251 7.22965 31.2219 7.31509 31.224 7.40266V37.6761C31.224 37.7744 31.263 37.8688 31.3326 37.9383C31.4022 38.0079 31.4965 38.0469 31.5949 38.0469C31.6932 38.0469 31.7875 38.0079 31.8571 37.9383C31.9267 37.8688 31.9658 37.7744 31.9658 37.6761V7.40266C31.9673 7.34734 31.9563 7.29238 31.9337 7.24189C31.911 7.1914 31.8772 7.14669 31.8349 7.11105C31.7926 7.0754 31.7428 7.04975 31.6892 7.03603C31.6356 7.0223 31.5795 7.02086 31.5253 7.03177Z" fill="#033603"/>
<path d="M7.46391 0.332719C7.41521 0.340332 7.36846 0.357483 7.32637 0.383155C7.28429 0.408826 7.24768 0.442527 7.21862 0.48235C7.18956 0.522173 7.16865 0.567318 7.15705 0.615229C7.14544 0.66314 7.14337 0.712849 7.15098 0.761554C7.15859 0.810259 7.17574 0.857012 7.20142 0.899096C7.22709 0.941181 7.26083 0.977791 7.30066 1.00685C7.34048 1.03591 7.38558 1.05682 7.43349 1.06842C7.4814 1.08003 7.53111 1.0821 7.57982 1.07449H25.1969C25.2952 1.07449 25.3895 1.03543 25.4591 0.965875C25.5286 0.896321 25.5677 0.801968 25.5677 0.703604C25.5677 0.605239 25.5286 0.510886 25.4591 0.441332C25.3895 0.371777 25.2952 0.332719 25.1969 0.332719H7.57982C7.54141 0.326594 7.50232 0.326594 7.46391 0.332719Z" fill="#033603"/>
<path d="M9.04054 2.72016C8.94218 2.72941 8.85147 2.77736 8.78846 2.85345C8.72544 2.92954 8.69527 3.02754 8.70452 3.12591C8.71376 3.22427 8.76171 3.31493 8.8378 3.37795C8.9139 3.44096 9.0119 3.47118 9.11026 3.46193C9.11026 3.46193 22.9392 3.48506 23.5285 3.48506C23.6268 3.48506 23.7211 3.44601 23.7907 3.37645C23.8603 3.3069 23.8994 3.21254 23.8994 3.11418C23.8994 3.01582 23.8603 2.92151 23.7907 2.85195C23.7211 2.7824 23.6268 2.7433 23.5285 2.7433C22.9612 2.7433 9.11026 2.72016 9.11026 2.72016C9.08707 2.71795 9.06373 2.71795 9.04054 2.72016Z" fill="#033603"/>
<path d="M10.3616 4.85279C10.3129 4.85887 10.2659 4.87448 10.2232 4.89874C10.1806 4.923 10.1431 4.95543 10.1129 4.99418C10.0828 5.03292 10.0606 5.07724 10.0476 5.12456C10.0346 5.17189 10.031 5.22132 10.0371 5.27003C10.0432 5.31874 10.0588 5.36576 10.0831 5.40843C10.1073 5.4511 10.1398 5.48858 10.1785 5.51872C10.2172 5.54885 10.2616 5.57104 10.3089 5.58405C10.3562 5.59706 10.4056 5.60064 10.4543 5.59455H22.1603C22.2587 5.59455 22.3531 5.5555 22.4226 5.48594C22.4922 5.41639 22.5312 5.32203 22.5312 5.22367C22.5312 5.1253 22.4922 5.03095 22.4226 4.9614C22.3531 4.89184 22.2587 4.85279 22.1603 4.85279H10.4543C10.4235 4.84888 10.3924 4.84888 10.3616 4.85279Z" fill="#033603"/>
<path d="M12.2857 7.63447C12.1873 7.64371 12.0966 7.69166 12.0336 7.76775C11.9706 7.84385 11.9404 7.94185 11.9496 8.04021C11.9589 8.13858 12.0068 8.22924 12.0829 8.29225C12.159 8.35527 12.257 8.38548 12.3554 8.37624H20.0281C20.1265 8.37624 20.2208 8.33718 20.2904 8.26762C20.3599 8.19807 20.399 8.10372 20.399 8.00535C20.399 7.90699 20.3599 7.81263 20.2904 7.74308C20.2208 7.67353 20.1265 7.63447 20.0281 7.63447H12.3554C12.3322 7.63226 12.3088 7.63226 12.2857 7.63447Z" fill="#033603"/>
<path d="M25.1506 0.332684C25.0633 0.35908 24.989 0.416899 24.942 0.494946L19.935 7.79673C19.8881 7.86744 19.867 7.95223 19.8753 8.03672C19.8837 8.12122 19.9211 8.20022 19.981 8.26033L23.3654 11.7837C23.4211 11.8419 23.4943 11.8802 23.5739 11.8928C23.6534 11.9053 23.7349 11.8914 23.8058 11.8532L31.803 7.79668C31.8511 7.77143 31.893 7.73587 31.9257 7.6925C31.9584 7.64914 31.9811 7.59905 31.9922 7.54586C32.0033 7.49268 32.0025 7.43774 31.9898 7.38491C31.9771 7.33209 31.9529 7.2827 31.9188 7.24035C28.6641 3.30315 29.8062 4.47093 25.4979 0.42536C25.4528 0.381425 25.3971 0.349825 25.3362 0.33359C25.2753 0.317354 25.2112 0.317027 25.1502 0.332639L25.1506 0.332684ZM25.3129 1.25989C28.7739 4.50351 28.4971 4.26469 31.0384 7.3563L23.7135 11.0883L20.7232 7.98217L25.3129 1.25989Z" fill="#033603"/>
<path d="M7.37143 0.332647C7.30201 0.345143 7.23764 0.377327 7.18599 0.425368C5.2209 2.25945 3.5804 3.67881 0.185553 6.91584C0.141393 6.95673 0.107943 7.00782 0.0881231 7.06465C0.0683036 7.12148 0.0627632 7.18232 0.071915 7.24181C0.0810668 7.3013 0.104656 7.35764 0.140641 7.40588C0.176626 7.45413 0.223864 7.4928 0.278274 7.51853L8.87815 11.7837C8.94905 11.8219 9.03058 11.8358 9.11013 11.8232C9.18968 11.8107 9.26288 11.7724 9.31857 11.7142L12.6333 8.39942C12.6934 8.33941 12.7309 8.26045 12.7394 8.17595C12.7479 8.09145 12.727 8.00662 12.6801 7.93582L7.76586 0.494954C7.72512 0.43036 7.66525 0.380012 7.59463 0.350938C7.52402 0.321864 7.44611 0.315505 7.3717 0.332692L7.37143 0.332647ZM7.37143 1.25986L11.8916 8.07485L8.97087 10.9956L1.0664 7.10128C3.95403 4.36251 5.61433 2.88988 7.37143 1.25986Z" fill="#033603"/>
<path d="M7.53365 43.2393C7.48494 43.2423 7.43731 43.255 7.39348 43.2764C7.34966 43.2979 7.31049 43.3278 7.27822 43.3644C7.24594 43.401 7.22113 43.4436 7.20533 43.4898C7.18952 43.536 7.18297 43.5848 7.18604 43.6335C7.18911 43.6822 7.20178 43.7299 7.22325 43.7737C7.24473 43.8175 7.27465 43.8567 7.31127 43.8889C7.34788 43.9212 7.39041 43.9459 7.43658 43.9617C7.48276 43.9776 7.53167 43.9841 7.58037 43.981H24.1078C24.2062 43.981 24.3005 43.942 24.3701 43.8724C24.4396 43.8029 24.4787 43.7085 24.4787 43.6102C24.4787 43.5118 24.4396 43.4174 24.3701 43.3479C24.3005 43.2783 24.2062 43.2393 24.1078 43.2393H7.58037C7.56481 43.2383 7.54921 43.2383 7.53365 43.2393Z" fill="#033603"/>
<path d="M9.31875 40.9445C9.23635 40.9704 9.1657 41.0246 9.11918 41.0973C9.07266 41.1701 9.05325 41.2569 9.06431 41.3426C9.07536 41.4283 9.11619 41.5073 9.17967 41.5659C9.24314 41.6245 9.32519 41.6589 9.41147 41.6631H23.0878C23.1416 41.675 23.1974 41.6747 23.251 41.6622C23.3047 41.6497 23.3548 41.6253 23.3978 41.5908C23.4407 41.5563 23.4754 41.5126 23.4992 41.4629C23.523 41.4133 23.5354 41.3589 23.5354 41.3038C23.5354 41.2487 23.523 41.1943 23.4992 41.1447C23.4754 41.095 23.4407 41.0513 23.3978 41.0168C23.3548 40.9823 23.3047 40.9579 23.251 40.9454C23.1974 40.9329 23.1416 40.9326 23.0878 40.9445H9.41147C9.38069 40.9406 9.34953 40.9406 9.31875 40.9445Z" fill="#033603"/>
<path d="M10.5471 38.6264C10.4488 38.6357 10.3582 38.6836 10.2951 38.7597C10.2321 38.8358 10.2019 38.9338 10.2111 39.0322C10.2204 39.1305 10.2683 39.2212 10.3444 39.2842C10.4205 39.3472 10.5185 39.3774 10.6169 39.3682H22.1607C22.259 39.3682 22.3534 39.3291 22.4229 39.2596C22.4925 39.19 22.5315 39.0957 22.5315 38.9973C22.5315 38.8989 22.4925 38.8046 22.4229 38.735C22.3534 38.6655 22.259 38.6264 22.1607 38.6264H10.6169C10.5937 38.6242 10.5703 38.6242 10.5471 38.6264Z" fill="#033603"/>
<path d="M12.2624 35.8449C12.18 35.8708 12.1094 35.925 12.0629 35.9977C12.0163 36.0705 11.9968 36.1573 12.0079 36.243C12.019 36.3287 12.0598 36.4077 12.1233 36.4663C12.1867 36.5249 12.2689 36.5593 12.3552 36.5635H20.9782C21.0319 36.5754 21.0877 36.5751 21.1414 36.5626C21.195 36.5501 21.2452 36.5257 21.2881 36.4912C21.3311 36.4567 21.3657 36.413 21.3896 36.3633C21.4134 36.3137 21.4257 36.2593 21.4257 36.2042C21.4257 36.1491 21.4134 36.0947 21.3896 36.0451C21.3657 35.9954 21.3311 35.9517 21.2881 35.9172C21.2452 35.8827 21.195 35.8583 21.1414 35.8458C21.0877 35.8333 21.0319 35.833 20.9782 35.8449H12.3552C12.3244 35.841 12.2932 35.841 12.2624 35.8449Z" fill="#033603"/>
<path d="M23.6208 32.8777C23.5596 32.8941 23.5037 32.9261 23.4585 32.9704L20.6305 35.8911C20.5774 35.9451 20.5422 36.0141 20.5297 36.0887C20.5172 36.1634 20.5281 36.2401 20.5608 36.3084L23.9682 43.7724C23.9913 43.8224 24.0253 43.8665 24.0677 43.9016C24.11 43.9367 24.1597 43.9619 24.2131 43.9752C24.2665 43.9885 24.3222 43.9897 24.3761 43.9787C24.43 43.9677 24.4807 43.9447 24.5246 43.9115C28.4633 40.9969 28.531 41.0528 31.8728 38.0005C31.9131 37.9611 31.9438 37.9129 31.9625 37.8596C31.9812 37.8064 31.9874 37.7496 31.9807 37.6936C31.9739 37.6376 31.9544 37.5839 31.9236 37.5366C31.8928 37.4893 31.8516 37.4498 31.803 37.421L23.8986 32.9241C23.8576 32.8984 23.8119 32.8811 23.7641 32.8732C23.7164 32.8652 23.6676 32.8668 23.6204 32.8777H23.6208ZM23.783 33.689L31.0153 37.7919C28.3258 40.2352 27.6752 40.6796 24.4553 43.0538L21.3259 36.2157L23.783 33.689Z" fill="#033603"/>
<path d="M8.83162 32.7387C8.80669 32.7514 8.7833 32.767 8.7619 32.785L0.393738 36.9343C0.341801 36.9588 0.296367 36.9952 0.260995 37.0404C0.225622 37.0857 0.201266 37.1386 0.190005 37.1949C0.178744 37.2512 0.180819 37.3094 0.196072 37.3648C0.211325 37.4201 0.239414 37.4712 0.277927 37.5138C2.73021 40.2034 3.26792 40.5237 7.41744 43.9115C7.45829 43.9465 7.50627 43.9721 7.55807 43.9865C7.60986 44.0009 7.66413 44.0038 7.71716 43.995C7.77019 43.9861 7.8207 43.9658 7.86502 43.9354C7.90934 43.9049 7.94647 43.8651 7.97377 43.8188L12.7953 36.5402C12.8485 36.4675 12.8732 36.3778 12.8647 36.288C12.8562 36.1983 12.8151 36.1148 12.7491 36.0534L9.15615 32.8314C9.11336 32.7911 9.06158 32.7617 9.00511 32.7456C8.94864 32.7295 8.8892 32.7271 8.83162 32.7387ZM8.85462 33.55L12.0071 36.4011L7.57971 43.0771C4.06261 40.2125 3.18659 39.5206 1.18196 37.3515L8.85462 33.55Z" fill="#033603"/>
<path d="M29.045 36.1925L23.1108 41.1067L23.5744 41.663L29.5318 36.7488L29.045 36.1925Z" fill="#033603"/>
<path d="M26.4025 34.5004L21.8591 38.7192L22.369 39.2523L26.9123 35.0335L26.4025 34.5004Z" fill="#033603"/>
<path d="M3.15257 35.9143L2.68896 36.4938L9.10989 41.5935L9.5735 41.014L3.15257 35.9143Z" fill="#033603"/>
<path d="M5.88768 34.5468L5.42407 35.1263L10.4774 39.3219L10.941 38.7656L5.88768 34.5468Z" fill="#033603"/>
<path d="M8.80851 2.88245L2.61938 8.02846L3.08299 8.60797L9.2953 3.46195L8.80851 2.88245Z" fill="#033603"/>
<path d="M10.3387 5.10779L5.2854 9.46568L5.77219 10.022L10.8255 5.66411L10.3387 5.10779Z" fill="#033603"/>
<path d="M23.7829 2.95203L23.2729 3.48517L28.9289 9.02525L29.4389 8.49211L23.7829 2.95203Z" fill="#033603"/>
<path d="M22.0679 5.10779L21.5347 5.64093L26.333 10.3697L26.843 9.83656L22.0679 5.10779Z" fill="#033603"/>
</svg>
