<svg width="37" height="41" viewBox="0 0 37 41" fill="none" xmlns="http://www.w3.org/2000/svg">
<path d="M36.9488 19.7946L36.8157 19.5301V8.90538C36.8157 4.01183 32.7793 0 27.8557 0H18.4079H8.95997C4.03642 0 0 4.01183 0 8.90538V20.5V32.0946C0 36.9882 4.03642 41 8.95997 41H27.8557C32.7793 41 36.8157 36.9882 36.8157 32.0946V20.6323L36.9488 20.3237C37.0375 20.1473 36.9931 19.971 36.9488 19.7946ZM1.33069 23.6301L4.34691 30.3753H1.33069V23.6301ZM1.33069 10.5806H4.30256L1.33069 17.3258V10.5806ZM20.8918 31.7419H26.1258V34.7398L20.8918 31.7419ZM10.6455 34.7398V31.7419H15.8795L10.6455 34.7398ZM18.4079 31.8301L25.4605 35.8419L18.4079 39.5892L11.3552 35.8419L18.4079 31.8301ZM18.4079 30.4194H10.6455V20.6323L10.6899 20.5441C10.7786 20.3677 10.7786 20.1914 10.6899 20.0151L10.6455 19.9269V10.5806H26.1258V20.5V30.4194H18.4079ZM5.32275 11.5505L9.31482 20.1914V20.3677L5.32275 29.4054L1.37504 20.5L5.32275 11.5505ZM6.34295 10.5806H9.31482V17.0172L6.34295 10.5806ZM9.31482 23.6301V30.3753H6.29859L9.31482 23.6301ZM15.9239 9.25806H10.6455V6.21613L15.9239 9.25806ZM26.1258 6.26022V9.30215H20.8918L26.1258 6.26022ZM18.4079 9.16989L11.3552 5.11398L18.4079 1.41075L25.4605 5.11398L18.4079 9.16989ZM27.4565 23.6301L30.4728 30.3753H27.4565V23.6301ZM27.4565 10.5806H30.4284L27.4565 17.3258V10.5806ZM31.005 9.25806H27.4565V5.64301L32.7349 4.62903L31.005 9.25806ZM21.0692 1.32258H26.1258V4.01183L21.0692 1.32258ZM10.6455 4.01183V1.32258H15.7465L10.6455 4.01183ZM9.31482 9.25806H5.76632L4.08078 4.62903L9.31482 5.64301V9.25806ZM9.31482 31.7419V35.357L4.08078 36.371L5.76632 31.7419H9.31482ZM15.7465 39.6774H10.6455V36.9882L15.7465 39.6774ZM26.1258 36.9882V39.6774H21.0692L26.1258 36.9882ZM27.4565 31.7419H31.005L32.6906 36.371L27.4565 35.357V31.7419ZM31.493 29.4054L27.5452 20.5L31.493 11.5505L35.485 19.8387V20.3677L31.493 29.4054ZM32.5132 10.5806H35.4407V16.7527L32.5132 10.5806ZM35.485 9.25806H32.4244L34.1543 4.62903C34.9971 5.86344 35.485 7.31828 35.485 8.90538V9.25806ZM32.9124 3.26237L27.4565 4.32043V1.32258H27.8114C29.8074 1.32258 31.5373 2.07204 32.9124 3.26237ZM9.31482 1.32258V4.27634L3.859 3.21828C5.18968 2.02796 6.96394 1.27849 8.91561 1.27849H9.31482V1.32258ZM2.66138 4.62903L4.39127 9.25806H1.33069V8.90538C1.33069 7.31828 1.81861 5.86344 2.66138 4.62903ZM1.33069 31.7419H4.34691L2.66138 36.371C1.81861 35.1366 1.33069 33.6817 1.33069 32.0946V31.7419ZM3.859 37.7376L9.31482 36.6796V39.6774H8.95997C7.00829 39.6774 5.18968 38.928 3.859 37.7376ZM27.4565 39.6774V36.6796L32.9124 37.7376C31.5373 38.928 29.7631 39.6774 27.8114 39.6774H27.4565ZM34.1543 36.371L32.4244 31.7419H35.4407V32.0946C35.485 33.6817 34.9971 35.1366 34.1543 36.371ZM35.485 30.4194H32.4688L35.485 23.6742V30.4194Z" fill="#033603"/>
</svg>
