<svg width="41" height="41" viewBox="0 0 41 41" fill="none" xmlns="http://www.w3.org/2000/svg">
<path d="M34.5194 0H6.48065L0 5.55484V35.4452L6.48065 41H34.5194L41 35.4452V5.55484L34.5194 0ZM36.6355 7.75914L32.5796 4.27634L34.3871 1.63118L39.2366 5.81936L36.6355 7.75914ZM28.8763 32.2269H12.1237L8.77312 29.3613V11.6387L12.1237 8.72903H28.8763L32.2269 11.5946V29.3172L28.8763 32.2269ZM28.7882 7.45054H12.2118L10.5366 5.06989H30.4194L28.7882 7.45054ZM11.0215 7.97957L8.06774 10.4925L5.42258 8.55269L9.16989 5.33441L11.0215 7.97957ZM7.45054 11.6828V29.3172L5.06989 31.0806V9.91935L7.45054 11.6828ZM8.06774 30.5075L11.0215 33.0204L9.21398 35.6656L5.46667 32.4473L8.06774 30.5075ZM12.2118 33.5495H28.7441L30.4194 35.9301H10.5806L12.2118 33.5495ZM29.9785 33.0204L32.9323 30.5075L35.5774 32.4473L31.8301 35.6656L29.9785 33.0204ZM33.5495 29.3172V11.6828L35.9301 9.91935V31.0806L33.5495 29.3172ZM32.9323 10.4925L29.9785 7.97957L31.786 5.33441L35.5333 8.55269L32.9323 10.4925ZM31.3452 3.70323H9.65484L7.97957 1.32258H33.0204L31.3452 3.70323ZM8.42043 4.27634L4.36452 7.75914L1.71935 5.81936L6.56882 1.63118L8.42043 4.27634ZM3.70323 8.94946V32.0505L1.32258 33.814V7.18602L3.70323 8.94946ZM4.36452 33.2409L8.42043 36.7237L6.6129 39.3688L1.76344 35.1806L4.36452 33.2409ZM9.65484 37.2968H31.3452L33.0204 39.6774H7.97957L9.65484 37.2968ZM32.5796 36.7237L36.6355 33.2409L39.2806 35.1806L34.4312 39.3688L32.5796 36.7237ZM37.2968 32.0505V8.94946L39.6774 7.18602V33.8581L37.2968 32.0505Z" fill="#033603"/>
</svg>
