<svg width="46" height="46" viewBox="0 0 46 46" fill="none" xmlns="http://www.w3.org/2000/svg">
<path d="M23.3083 0.00176157C21.9428 -0.0147473 20.5742 0.084759 19.2654 0.301209C14.3469 1.11463 10.0626 3.34809 6.53812 6.93514C5.33818 8.15639 4.5716 9.10806 3.68889 10.4735C1.35435 14.0849 0.118545 18.0814 0.00797066 22.377C-0.111804 27.0301 1.11999 31.4922 3.58945 35.3422C6.9159 40.5282 12.1386 44.1931 18.0402 45.4772C18.9183 45.6684 20.4953 45.9114 21.2826 45.975C21.2827 45.975 21.2827 45.9749 21.283 45.975C21.2883 45.975 21.3067 45.975 21.3124 45.975C22.1839 46.0411 24.9526 45.9673 25.8114 45.8558H25.8118C31.0453 45.1711 35.5672 42.9541 39.2724 39.2551C42.9287 35.6049 45.1336 31.1019 45.868 25.7973C46.0433 24.5322 46.0442 21.4532 45.8696 20.183C45.7044 18.9796 45.4141 17.5589 45.137 16.6067C42.7146 8.28424 35.8421 2.02787 27.3322 0.398852C26.0364 0.1508 24.6738 0.0182858 23.3082 0.00176157H23.3083ZM24.1923 0.969796C25.8682 1.06986 27.6681 1.36844 29.2136 1.81551C29.6194 1.93292 30.1953 2.12723 30.6688 2.29989C30.89 2.38059 31.0811 2.45437 31.2289 2.51489C31.1869 2.62405 31.1426 2.73875 31.0762 2.90162C30.9046 3.32285 30.6613 3.89924 30.3894 4.52577C30.1171 5.15329 29.8645 5.72682 29.6775 6.14417C29.6334 6.24257 29.6074 6.29783 29.5713 6.37742C29.5016 6.3102 29.4521 6.2634 29.3638 6.17708C29.0105 5.83165 28.5174 5.34259 27.9544 4.77976C26.8283 3.65411 25.4216 2.23228 24.2828 1.06282L24.1923 0.969796ZM21.7945 0.975068L20.9574 1.8011C20.115 2.63237 18.7799 3.94802 17.9912 4.72455C16.9753 5.72475 16.5169 6.17402 16.2556 6.41236C16.2039 6.29505 16.1499 6.1715 16.0788 6.00847C15.8972 5.59163 15.6634 5.05105 15.4317 4.51276C15.2001 3.97448 14.9705 3.43835 14.7975 3.03137C14.7209 2.85115 14.661 2.70922 14.6115 2.59098C14.7747 2.51304 15.022 2.41121 15.3208 2.30192C15.9305 2.07893 16.742 1.82414 17.4915 1.6333C18.957 1.26014 20.2728 1.06456 21.7945 0.975068ZM23.0007 1.12066L25.9884 4.13713C26.8801 5.0376 27.6906 5.86134 28.2774 6.46243C28.539 6.73034 28.7363 6.93466 28.8959 7.10066C28.7687 7.16458 28.6515 7.22386 28.472 7.31207C27.9453 7.57084 27.2171 7.92223 26.4166 8.30338C24.8133 9.06669 23.3203 9.77663 23.1119 9.87459L22.878 9.98439L22.4477 9.77941C21.6937 9.41967 20.3397 8.76699 18.5385 7.89556C17.8069 7.5416 17.1759 7.24221 16.9116 7.12318C16.9139 7.12012 16.9153 7.11962 16.9176 7.11645C17.1188 6.91083 17.3987 6.63097 17.7064 6.32907C18.3253 5.72184 19.8278 4.24419 21.046 3.04466L23.0006 1.12038L23.0007 1.12066ZM32.1293 2.899C32.1549 2.9081 32.1521 2.90425 32.1841 2.91759C32.4208 3.01524 32.8291 3.22103 33.4461 3.55296C35.0402 4.41055 36.7454 5.62661 37.9838 6.77691L34.4005 6.77894L30.4438 6.781L30.4556 6.75314C30.8032 5.93828 31.2359 4.93649 31.5877 4.12911C31.7636 3.72542 31.9194 3.3704 32.0338 3.11204C32.0735 3.02255 32.1006 2.96247 32.1293 2.89847L32.1293 2.899ZM13.7311 2.95946C13.7386 2.97515 13.745 2.98266 13.7519 2.99917C13.8368 3.20241 14.2673 4.19761 14.7206 5.23896C14.947 5.75935 15.1568 6.24176 15.3122 6.59947C15.3514 6.6896 15.3463 6.67799 15.3788 6.75292C15.2676 6.7565 15.2076 6.76207 15.0411 6.76509C14.3857 6.7769 13.2819 6.78047 11.5254 6.77935L8.04447 6.77732C9.05711 5.8485 10.2644 4.92229 11.4002 4.22554C11.8044 3.97759 12.4304 3.62884 12.9653 3.34622C13.2327 3.20492 13.4783 3.07951 13.6607 2.99172C13.6902 2.97751 13.7051 2.97166 13.7311 2.95949L13.7311 2.95946ZM7.37053 7.7106H11.4693C12.6964 7.7106 13.8123 7.7152 14.6201 7.72133C14.971 7.7244 15.2321 7.72738 15.45 7.73131C15.3729 7.9854 15.2696 8.32111 15.1545 8.69111C14.9178 9.45218 14.6576 10.2931 14.5746 10.5653C14.2983 11.4714 14.0402 12.2969 13.8456 12.9017C13.7483 13.2042 13.6667 13.4518 13.6074 13.6247C13.5821 13.6984 13.563 13.7506 13.5469 13.7939C13.4989 13.8158 13.419 13.8495 13.2568 13.9098C12.8959 14.0439 12.2125 14.2838 10.9248 14.7341C9.93851 15.079 8.64002 15.5351 8.03732 15.7482C7.78708 15.8367 7.57578 15.9103 7.3877 15.9754C7.38469 15.753 7.38169 15.4909 7.37952 15.1362C7.37426 14.3094 7.37058 13.1678 7.37058 11.9122V7.71057L7.37053 7.7106ZM34.3819 7.7106H38.5132V9.25317C38.5132 10.3075 38.5327 12.3326 38.5564 13.7618C38.5693 14.5361 38.5743 15.1828 38.5714 15.6317C38.5709 15.7309 38.5684 15.7795 38.567 15.8585C38.3798 15.7978 38.1617 15.7265 37.8819 15.6331C37.2326 15.4165 36.3799 15.1274 35.5306 14.8368C34.6813 14.5462 33.8349 14.2539 33.1979 14.0304C32.8795 13.9187 32.6131 13.824 32.4264 13.7561C32.3585 13.7313 32.3148 13.7146 32.27 13.6977C32.264 13.6822 32.261 13.675 32.2543 13.6566C32.2134 13.545 32.1571 13.3829 32.0905 13.1855C31.9573 12.7906 31.7829 12.253 31.6004 11.6719C31.1617 10.2748 30.8199 9.18197 30.5881 8.43434C30.4924 8.12579 30.4278 7.91467 30.3706 7.72707C30.5905 7.724 30.8537 7.72104 31.2073 7.7189C32.0213 7.71363 33.1455 7.7106 34.3817 7.7106H34.3819ZM16.3843 7.91702C16.5307 7.98379 16.6949 8.05969 16.8919 8.15383C18.7744 9.05313 20.1348 9.70537 21.0293 10.1371C21.3398 10.287 21.5223 10.3763 21.7226 10.4741C21.2838 10.6537 19.8418 11.2437 17.9236 12.0278C16.869 12.4589 15.9035 12.8508 15.1978 13.1347C14.9862 13.2198 14.8535 13.2723 14.6934 13.3361C14.7154 13.2665 14.7286 13.226 14.7535 13.1472C14.915 12.6348 15.1337 11.9356 15.3705 11.1725C15.8887 9.50288 16.1696 8.59863 16.3228 8.11019C16.3548 8.00809 16.3624 7.98587 16.3843 7.91702H16.3843ZM29.4346 7.92008C29.4808 8.06442 29.5304 8.21881 29.5977 8.43094C29.768 8.9672 29.9949 9.68681 30.2266 10.4225C30.6354 11.7205 30.9838 12.8365 31.1291 13.3105C30.6283 13.1097 29.5617 12.6826 27.6736 11.9268C26.5354 11.4712 25.4861 11.0501 24.7124 10.7394C24.4356 10.6283 24.2443 10.5514 24.0467 10.4718C24.4088 10.3009 24.974 10.0325 25.6746 9.69733C26.9753 9.07504 28.0064 8.58552 28.7131 8.25422C29.0283 8.10644 29.2544 8.00211 29.4346 7.92008ZM39.4472 8.29C40.3398 9.28917 41.282 10.5358 41.9859 11.7078C42.1978 12.0606 42.5042 12.6265 42.7714 13.1488C43.0179 13.6304 43.2109 14.0488 43.2837 14.232C43.2817 14.2325 43.2817 14.2326 43.2784 14.2336C43.1655 14.2792 43.0131 14.3416 42.8313 14.4167C42.4676 14.567 41.9864 14.7676 41.4748 14.983C40.5441 15.3751 39.7693 15.6976 39.5063 15.8048V14.4014C39.5063 13.3272 39.49 11.2949 39.4698 9.87811L39.4469 8.28975L39.4472 8.29ZM6.44011 8.43309L6.44088 11.5948H6.44052V11.9611C6.44088 13.2035 6.43975 14.333 6.43679 15.1511C6.43602 15.474 6.43454 15.7021 6.43306 15.9156C6.41668 15.9081 6.40962 15.905 6.39265 15.8973C6.05744 15.7455 5.59687 15.5363 5.09234 15.3064C4.08179 14.8458 3.07701 14.3932 2.82262 14.285L2.72675 14.2442C2.90973 13.7848 3.58965 12.4498 4.02098 11.7236C4.66719 10.6355 5.50999 9.51104 6.43988 8.43309H6.44011ZM22.8619 11.0278C22.8724 11.0313 22.8781 11.0338 22.8916 11.0385C22.954 11.0617 23.0457 11.0966 23.1624 11.1415C23.3957 11.2314 23.7286 11.3613 24.1354 11.5214C24.9488 11.8417 26.0582 12.2826 27.2665 12.7664L31.518 14.4689L33.1137 18.3918C34.0237 20.6287 34.8261 22.6035 34.8852 22.7509L34.9463 22.9037L34.7549 23.3515C34.6159 23.677 33.7878 25.625 32.9127 27.6849L31.3798 31.2926L28.0066 32.6982C26.0757 33.5029 24.0821 34.3321 23.5809 34.5388L22.8035 34.8593L20.7302 34.0129C17.9187 32.8653 16.2721 32.1918 15.3222 31.7978C14.8473 31.6008 14.5462 31.4734 14.3639 31.3931C14.2892 31.3599 14.2465 31.3406 14.2101 31.3233C14.2011 31.3054 14.1949 31.2927 14.1833 31.2677C14.1386 31.1729 14.0761 31.0356 14.0022 30.8681C13.8544 30.5333 13.6595 30.078 13.4539 29.5864C13.0408 28.5988 12.2399 26.6901 11.6739 25.3439C11.3913 24.6719 11.1345 24.0534 10.9488 23.5996C10.8559 23.3727 10.7807 23.1868 10.7295 23.0573C10.7157 23.022 10.7084 23.004 10.6984 22.9775C10.722 22.9189 10.7518 22.8467 10.7932 22.7468C10.887 22.5204 11.0233 22.1955 11.1917 21.7973C11.5284 21.0009 11.9933 19.9106 12.5045 18.7193L14.3049 14.5237L14.8422 14.3048C16.5515 13.6082 20.8596 11.8459 21.4521 11.601C22.1052 11.331 22.481 11.1776 22.6948 11.0966C22.8921 11.0219 22.9086 11.0315 22.8619 11.0279L22.8619 11.0278ZM32.7249 14.9082C32.8441 14.9466 32.9283 14.9731 33.0719 15.0198C33.6989 15.2236 34.5345 15.4985 35.3706 15.7757C36.2067 16.0529 37.0438 16.3324 37.6743 16.5455C37.9498 16.6386 38.1631 16.712 38.3418 16.7738C38.3266 16.8016 38.3192 16.8158 38.3025 16.8466C38.1534 17.1206 37.945 17.4997 37.713 17.9192C37.2488 18.7581 36.6898 19.7599 36.3196 20.4108C36.164 20.6844 35.8512 21.2479 35.6199 21.6704C35.5876 21.7297 35.5653 21.7661 35.5344 21.8214C35.5299 21.8106 35.5277 21.8071 35.5233 21.7958C35.3483 21.3815 35.1109 20.8076 34.8544 20.1763C34.3403 18.9111 33.5867 17.0563 33.1796 16.0545C32.9991 15.6106 32.8483 15.2275 32.7249 14.9082L32.7249 14.9082ZM13.0722 14.988C13.0352 15.0772 13.0278 15.0995 12.9796 15.214C12.6631 15.9663 12.0939 17.2939 11.1026 19.5975C10.7592 20.3954 10.4444 21.1233 10.2144 21.6526C10.1787 21.7347 10.1606 21.7756 10.1293 21.8476C10.1 21.792 10.0889 21.7732 10.0556 21.7099C9.7667 21.1608 9.32337 20.3029 8.69912 19.0866C8.36689 18.4392 7.93564 17.6085 7.73757 17.2342C7.67156 17.1094 7.62387 17.0125 7.57373 16.9119C7.75131 16.8466 7.9739 16.7666 8.25483 16.6665C8.87333 16.446 9.69421 16.1572 10.5142 15.8708C11.3342 15.5845 12.1532 15.3009 12.7682 15.0906C12.894 15.0476 12.9653 15.0242 13.0722 14.988H13.0722ZM43.6443 15.0996C43.7071 15.2898 43.7936 15.5488 43.9394 15.9782C44.5844 17.8777 44.9142 19.6068 45.0558 21.7943C44.9571 21.6978 44.8922 21.6352 44.7736 21.5189C44.2086 20.9646 43.4333 20.1996 42.5844 19.3581L39.8797 16.6776C40.0944 16.5849 40.4 16.4539 40.7486 16.3076C41.1795 16.1268 42.0578 15.7569 42.7013 15.4849C43.0207 15.3498 43.32 15.2271 43.5423 15.1389C43.5849 15.1221 43.6079 15.1137 43.6443 15.0996ZM2.38179 15.1261C2.49277 15.1741 2.60681 15.2237 2.76455 15.2932C3.17962 15.476 3.72962 15.7211 4.2802 15.9679C4.83078 16.2146 5.38241 16.4632 5.80015 16.6536C5.91163 16.7047 5.98186 16.7372 6.07166 16.7785C5.97338 16.8789 5.90678 16.9489 5.73504 17.1201C5.17364 17.68 4.18073 18.6575 2.47802 20.3294C1.76518 21.0294 1.28343 21.4947 0.961646 21.804C1.04951 20.413 1.24612 19.0088 1.534 17.8055C1.63447 17.3856 1.86874 16.6169 2.08488 15.9682C2.19296 15.6438 2.29727 15.3471 2.37714 15.1375C2.37939 15.1323 2.38015 15.1308 2.38164 15.1261L2.38179 15.1261ZM39.1524 17.3119C39.3125 17.4662 39.5147 17.6625 39.777 17.9189C40.3539 18.4828 41.1451 19.2615 42.0106 20.118L44.8949 22.972L42.0131 25.7954C41.1479 26.6428 40.3566 27.4134 39.7795 27.9714C39.52 28.2223 39.3214 28.4127 39.1617 28.5649C39.0729 28.4115 38.9755 28.243 38.8455 28.014C38.5235 27.4471 38.0976 26.6883 37.6718 25.9252C37.246 25.1621 36.8203 24.3945 36.4996 23.8095C36.3392 23.517 36.2051 23.27 36.1107 23.0934C36.0729 23.0227 36.0472 22.9724 36.0234 22.9266C36.0242 22.9266 36.0242 22.9266 36.0249 22.9189C36.0664 22.8267 36.1427 22.6744 36.2574 22.4585C36.4869 22.0267 36.8714 21.3358 37.468 20.2792C37.8329 19.6329 38.4081 18.6126 38.7464 18.0115C38.9009 17.737 39.0395 17.4985 39.1521 17.3088L39.1524 17.3119ZM6.77636 17.4446C6.78883 17.4672 6.79491 17.4769 6.80821 17.5017C6.95858 17.7789 7.16164 18.1647 7.37913 18.5888C7.81662 19.4421 8.52422 20.8148 8.95237 21.6411L9.64384 22.9755L8.1865 25.8581C7.76303 26.6959 7.37312 27.4578 7.08651 28.0088C6.98034 28.2129 6.90645 28.3521 6.83253 28.4911C6.76779 28.4302 6.72196 28.3875 6.63972 28.3094C6.30953 27.9956 5.8457 27.5507 5.30579 27.0301C4.22597 25.9886 2.84085 24.6437 1.60269 23.4309L1.13264 22.9704L2.05985 22.0586C4.02536 20.1257 5.28009 18.8944 6.04769 18.1474C6.39201 17.8123 6.60917 17.6032 6.77637 17.4444L6.77636 17.4446ZM35.5123 23.9977C35.5871 24.1297 35.6506 24.2414 35.7462 24.4116C36.0651 24.9795 36.4839 25.7312 36.8999 26.4812C37.3158 27.231 37.729 27.9793 38.0363 28.5406C38.1624 28.7708 38.2554 28.9425 38.3386 29.0965C38.2685 29.1195 38.2201 29.1354 38.134 29.1641C37.7596 29.287 37.2449 29.4548 36.6806 29.6377C35.5695 29.9981 34.0793 30.4843 33.3109 30.7371H33.3094L33.2536 30.756C32.9777 30.8469 32.7558 30.9181 32.536 30.9889C32.5923 30.8556 32.6411 30.7401 32.7152 30.5651C32.9532 30.003 33.2738 29.2476 33.6177 28.4382C34.3056 26.8194 35.087 24.9841 35.4879 24.0484C35.4971 24.0264 35.5028 24.0183 35.5119 23.9983L35.5123 23.9977ZM0.960219 24.1147C1.12818 24.2776 1.2945 24.4405 1.56655 24.7053C3.09977 26.1978 4.71369 27.7671 5.65742 28.6837C5.86006 28.8806 6.03343 29.0533 6.17612 29.1974C6.02846 29.2796 5.88565 29.3589 5.55583 29.5351C4.8214 29.9275 4.65077 30.0203 3.22636 30.8012C2.94968 30.9528 2.697 31.0898 2.50807 31.1904C2.45932 31.0707 2.40862 30.9457 2.34494 30.7715C2.178 30.3145 1.97608 29.7123 1.80837 29.1542C1.3685 27.6901 1.08261 25.966 0.960219 24.1147ZM10.1343 24.1223C10.2383 24.3662 10.3458 24.6179 10.4909 24.9609C10.8715 25.8599 11.3654 27.034 11.8284 28.1412C12.0089 28.5727 12.4024 29.5091 12.7034 30.2236C12.8151 30.4888 12.9035 30.7046 12.9899 30.9158C12.6412 30.7909 11.227 30.2934 9.83056 29.8043C9.1319 29.5596 8.49441 29.3348 8.03053 29.17C7.86901 29.1129 7.76115 29.0738 7.6467 29.0326C7.71647 28.8894 7.79342 28.7319 7.90246 28.5125C8.17183 27.9703 8.54709 27.2238 8.96238 26.4054C9.37765 25.5871 9.75791 24.8455 10.0352 24.3112C10.0768 24.231 10.0975 24.1928 10.1343 24.1223ZM45.0526 24.1484C44.8992 26.5485 44.5164 28.4161 43.7058 30.6653C43.6373 30.8555 43.5719 31.0139 43.5144 31.1472C43.4327 31.1068 43.3527 31.0676 43.2572 31.0163C42.96 30.8566 41.9903 30.3536 41.0841 29.8887C40.6331 29.6573 40.2227 29.4426 39.9272 29.2845C39.8974 29.2687 39.8849 29.261 39.8575 29.2462C39.8779 29.2252 39.8872 29.2155 39.9094 29.1929C40.1408 28.9586 40.4617 28.6387 40.8147 28.2917C43.1884 25.9577 44.6059 24.5757 45.0526 24.1484H45.0526ZM7.45567 29.9856C7.61059 30.0382 7.76392 30.0898 7.98224 30.1649C8.57967 30.37 9.37765 30.6471 10.1815 30.9279C10.9853 31.2087 11.7952 31.4931 12.4162 31.7136C12.7266 31.8237 12.9899 31.9182 13.181 31.9875C13.2765 32.0222 13.3539 32.0506 13.4092 32.0713C13.4305 32.0795 13.4224 32.0789 13.4385 32.0825C13.4684 32.1396 13.5245 32.2734 13.6045 32.4997C13.7644 32.952 14.027 33.7789 14.4884 35.255C14.7716 36.1609 15.029 36.9898 15.2156 37.5953C15.2867 37.8259 15.3362 37.9878 15.3841 38.1451C15.1685 38.1528 14.91 38.1548 14.5621 38.1584C13.7602 38.1676 12.652 38.1727 11.4331 38.1727H7.36692L7.40808 34.0236C7.42047 32.7811 7.43339 31.6499 7.44383 30.8283C7.44832 30.4733 7.45216 30.2088 7.45562 29.9858L7.45567 29.9856ZM38.5579 30.0389C38.5616 30.2649 38.5656 30.5388 38.5704 30.9029C38.5812 31.7305 38.594 32.8704 38.6065 34.1218L38.6484 38.3035H34.4187C33.1548 38.3035 32.0055 38.2958 31.1738 38.2891C30.8016 38.2891 30.52 38.2809 30.2942 38.2758C30.2987 38.26 30.3002 38.2534 30.3049 38.2375C30.3868 37.9521 30.4999 37.5638 30.6244 37.1428C30.8741 36.2983 31.3182 34.7835 31.6117 33.7747L32.0907 32.1281L35.4593 31.0341C36.4358 30.7169 37.325 30.4305 37.9705 30.2249C38.2183 30.146 38.3911 30.0918 38.5579 30.0396L38.5579 30.0389ZM6.50772 30.0937L6.46911 33.9559C6.45687 35.1882 6.44411 36.3105 6.43337 37.1255C6.43112 37.3033 6.42964 37.4008 6.42736 37.5473C6.18371 37.2685 5.91323 36.9549 5.71765 36.7113C5.18739 36.0507 4.55986 35.143 4.0657 34.3194C3.87431 34.0004 3.54591 33.3899 3.2712 32.8548C3.13386 32.5873 3.00893 32.3372 2.92028 32.1508C2.90511 32.1191 2.89851 32.1028 2.88559 32.0746C2.96655 32.0245 3.03689 31.9799 3.21969 31.8771C3.72945 31.5907 4.68031 31.0769 6.4152 30.1435L6.50784 30.0939L6.50772 30.0937ZM39.4955 30.1269L39.6918 30.2308C40.1055 30.4493 41.1133 30.9713 41.939 31.3945C42.3511 31.6056 42.7276 31.7991 43.0022 31.9407C43.0686 31.9755 43.1068 31.9948 43.1603 32.0227C43.1156 32.1209 43.0711 32.2195 43.0068 32.3524C42.8306 32.7169 42.5983 33.1744 42.398 33.5434C41.9176 34.4282 41.0091 35.8038 40.3458 36.6493C40.1238 36.9322 39.8192 37.284 39.5763 37.558L39.5748 36.5756C39.5733 35.5096 39.5522 33.487 39.5283 32.0734L39.4954 30.1269H39.4955ZM31.0097 32.4831C30.6889 33.572 29.7595 36.7376 29.5444 37.4746C29.4732 37.719 29.4089 37.9252 29.3534 38.0977C29.1759 38.0117 28.9528 37.9026 28.6738 37.7651C28.0641 37.4647 27.2591 37.0648 26.4577 36.6647C25.6563 36.2646 24.8585 35.8645 24.2631 35.5632C24.1375 35.4993 24.0668 35.4631 23.9612 35.4093C24.0485 35.3725 24.1015 35.3493 24.203 35.3063C24.7738 35.0654 25.5547 34.7392 26.4062 34.3869C27.016 34.1346 27.8668 33.7814 28.2978 33.6017C28.728 33.4222 29.6746 33.0275 30.4015 32.7242C30.6919 32.603 30.8274 32.5539 31.0097 32.4831ZM14.6358 32.5657C15.0293 32.7163 15.5486 32.919 16.1239 33.1477C17.319 33.6229 18.7059 34.1877 19.4396 34.505C19.6188 34.5824 20.326 34.8728 21.044 35.1647C21.2795 35.2604 21.4602 35.3351 21.6532 35.4147C21.2841 35.5892 20.614 35.9103 20.0441 36.1867C19.4354 36.4819 18.6431 36.8639 18.2867 37.0339C17.9277 37.205 17.2591 37.5248 16.8004 37.7447C16.6173 37.8324 16.4665 37.9039 16.3271 37.9697C16.2782 37.8175 16.2255 37.6527 16.1522 37.4206C15.9685 36.8394 15.7171 36.0372 15.4428 35.1546C15.1683 34.2715 14.9156 33.4598 14.7292 32.8633C14.6904 32.7393 14.6684 32.6699 14.6358 32.5657ZM22.8211 35.9371C22.8719 35.9596 22.9353 35.9889 23.0196 36.0287C23.2084 36.1172 23.4717 36.2435 23.7834 36.3946C24.4067 36.6969 25.2238 37.0984 26.0356 37.5007C26.8474 37.9029 27.6544 38.3059 28.257 38.6111C28.5 38.7342 28.6786 38.8262 28.8415 38.9105C28.7632 38.9934 28.6986 39.0619 28.5936 39.1713C28.2436 39.5365 27.7596 40.0354 27.2271 40.5784C26.1606 41.6659 24.7159 43.1377 24.017 43.8492L23.0032 44.8809L19.8914 41.8011C18.9642 40.8835 18.1213 40.0445 17.5108 39.4325C17.2353 39.1563 17.0258 38.9442 16.859 38.7747C16.9181 38.7445 16.9535 38.7261 17.0236 38.6905C17.39 38.5071 17.8981 38.2588 18.4566 37.9908C19.5767 37.4535 21.0323 36.7546 21.6918 36.4375C22.0169 36.2812 22.3257 36.141 22.5561 36.0433C22.667 35.9957 22.7575 35.9603 22.8211 35.9371ZM11.4603 39.1041C13.2166 39.1041 14.3204 39.1041 14.976 39.1184C15.1472 39.1184 15.2105 39.1266 15.3233 39.1307C14.9517 40.0322 13.792 42.8363 13.7136 43.0218C13.6091 42.9743 13.4944 42.922 13.3605 42.8552C11.2595 41.8058 9.42486 40.5324 7.94432 39.1056H11.4603V39.1041ZM30.3815 39.2325H34.3325H37.929C36.4862 40.5965 34.4803 41.9726 32.555 42.9033H32.5482C32.4001 42.9746 32.273 43.0332 32.1576 43.0857C32.1202 43.009 32.0884 42.9452 32.0392 42.8421C31.8781 42.5047 31.6616 42.0418 31.4318 41.5456C31.0278 40.6736 30.634 39.8014 30.3815 39.2249L30.3815 39.2325ZM16.1829 39.514C16.3488 39.6688 16.5472 39.8565 16.8118 40.1112C17.4205 40.6971 18.2552 41.5138 19.1674 42.4181L19.7916 43.0367L21.8084 45.0361C21.5627 45.0234 21.4344 45.0238 20.7277 44.9571C19.3998 44.8313 17.7956 44.5054 16.4673 44.091C16.1628 43.9959 15.6296 43.8091 15.1713 43.6406C14.9552 43.5612 14.7615 43.4876 14.609 43.4277C14.6511 43.3129 14.6958 43.1919 14.7603 43.0242C14.9266 42.5917 15.1549 42.0146 15.3881 41.4358C15.6212 40.8571 15.8595 40.2761 16.0452 39.8346C16.1006 39.7031 16.1386 39.6166 16.1829 39.514ZM29.5226 39.606C29.6371 39.8653 30.0159 40.7055 30.4048 41.5624C30.7998 42.4331 31.1854 43.283 31.2729 43.4771L30.8419 43.6406C28.8238 44.4071 26.7898 44.8568 24.5764 45.0247C24.3979 45.038 24.3429 45.039 24.1769 45.0492C24.7106 44.4915 25.9695 43.2028 27.2443 41.9076C27.9261 41.2148 28.5809 40.5516 29.0669 40.0623C29.2565 39.8714 29.3931 39.7351 29.5226 39.6059V39.606Z" fill="#033603"/>
</svg>
