<svg width="40" height="40" viewBox="0 0 40 40" fill="none" xmlns="http://www.w3.org/2000/svg">
<path d="M38.8944 1H1V38.8944H38.8944V1Z" stroke="#033603" stroke-width="1.5" stroke-miterlimit="10"/>
<path d="M8.77169 8.80709L20.0701 7.54395L31.3681 8.45594L32.6313 19.8946L31.5084 31.1926L19.9998 32.3155L8.91232 31.3332L7.64917 19.1927L8.77169 8.80709Z" stroke="#033603" stroke-miterlimit="10"/>
<path d="M1 1L4.07029 5.99996L8.77173 8.8071" stroke="#033603" stroke-miterlimit="10"/>
<path d="M8.80755 8.84256L6.05347 4.00092L1.0354 1.03589" stroke="#033603" stroke-miterlimit="10"/>
<path d="M31.1577 31.0524L34.2276 36.0523L38.9299 38.859" stroke="#033603" stroke-miterlimit="10"/>
<path d="M38.9643 38.894L36.2102 34.0524L31.1921 31.0878" stroke="#033603" stroke-miterlimit="10"/>
<path d="M9.08702 31.0697L4.08748 34.14L1.28076 38.8423" stroke="#033603" stroke-miterlimit="10"/>
<path d="M1.24561 38.8768L6.08767 36.1227L9.05186 31.1042" stroke="#033603" stroke-miterlimit="10"/>
<path d="M38.9815 1.17554L33.9815 4.24541L31.1748 8.94769" stroke="#033603" stroke-miterlimit="10"/>
<path d="M31.1404 8.98223L35.9816 6.22815L38.9462 1.21008" stroke="#033603" stroke-miterlimit="10"/>
<path d="M6.05249 4L20.0701 7.54397" stroke="#033603" stroke-miterlimit="10"/>
<path d="M20.0703 7.54398L33.9818 4.24548" stroke="#033603" stroke-miterlimit="10"/>
<path d="M6.05249 4L33.9815 4.24547" stroke="#033603" stroke-miterlimit="10"/>
<path d="M34.2276 36.0524L20.4382 32.6313" stroke="#033603" stroke-miterlimit="10"/>
<path d="M20.4383 32.6313L6.08765 36.1227" stroke="#033603" stroke-miterlimit="10"/>
<path d="M34.2276 36.0524L6.08765 36.1227" stroke="#033603" stroke-miterlimit="10"/>
<path d="M4.08765 34.14L7.6493 19.1927" stroke="#033603" stroke-miterlimit="10"/>
<path d="M7.64927 19.1927L4.19287 6.12292" stroke="#033603" stroke-miterlimit="10"/>
<path d="M4.08765 34.1399L4.19291 6.19275" stroke="#033603" stroke-miterlimit="10"/>
<path d="M36.0128 6.19739L32.6313 19.8945" stroke="#033603" stroke-miterlimit="10"/>
<path d="M32.6313 19.8947L36.2103 34.0524" stroke="#033603" stroke-miterlimit="10"/>
<path d="M36.0129 6.19739L36.2104 34.0523" stroke="#033603" stroke-miterlimit="10"/>
</svg>
