<svg width="32" height="46" viewBox="0 0 32 46" fill="none" xmlns="http://www.w3.org/2000/svg">
<path d="M20.1366 45.3954C17.8275 46.0472 15.3728 46.1697 13.008 45.7739C10.3275 45.329 7.76455 44.187 5.65206 42.476C2.89654 40.2644 0.886716 37.0906 0.232438 33.6036C4.31457e-05 32.4565 -0.024985 31.2802 0.0163855 30.1136C0.12722 26.7656 0.800909 23.4508 1.86328 20.2785C3.61722 15.101 6.34618 10.279 9.70798 5.98044C10.5431 4.91806 11.42 3.88736 12.3516 2.90977C13.3803 1.83923 14.4555 0.789111 15.7216 -5.19012e-06C16.997 0.775321 18.0517 1.84536 19.0921 2.90313C20.8802 4.78833 22.4825 6.84668 23.9386 8.99849C25.64 11.5293 27.1227 14.2097 28.3332 17.0102C30.1229 21.1739 31.2976 25.6415 31.4355 30.1857C31.4881 31.3078 31.436 32.4386 31.2276 33.5434C30.6893 36.4863 29.181 39.2173 27.0752 41.3288C25.1614 43.2482 22.7471 44.6651 20.1366 45.3954ZM20.7715 43.9224C20.463 43.1353 20.1575 42.3483 19.8266 41.5714C19.7469 41.6419 19.6687 41.7144 19.5962 41.7926C18.6753 42.7788 17.7427 43.7544 16.8289 44.7473C18.1727 44.6686 19.5073 44.3841 20.7715 43.9224ZM19.3878 40.9018C18.1804 39.9309 16.95 38.988 15.7237 38.0395C14.4989 38.9885 13.2685 39.9339 12.0595 40.9018C13.2833 42.194 14.4907 43.5026 15.7226 44.7876C16.9597 43.5072 18.164 42.1945 19.3878 40.9018ZM14.6194 44.7504C13.6357 43.6696 12.6162 42.6205 11.6248 41.5464C11.3434 42.2252 11.0804 42.9116 10.802 43.5915C10.756 43.7069 10.6973 43.8233 10.7091 43.9505C11.9737 44.3714 13.2858 44.6753 14.6194 44.7504ZM25.0592 41.5014C23.5494 41.431 22.0427 41.338 20.5345 41.2614C20.8588 42.0546 21.1596 42.8575 21.4983 43.6451C22.7757 43.1027 23.9964 42.3994 25.0592 41.5014ZM9.97561 43.6338C10.2739 42.8366 10.6049 42.0525 10.9169 41.2609C9.4051 41.338 7.89479 41.432 6.38244 41.5004C7.37586 42.3324 8.50208 42.9995 9.68193 43.5327C9.77642 43.5782 9.87601 43.6083 9.97561 43.6338ZM25.9505 40.766C25.8438 38.9742 25.7013 37.1856 25.6109 35.3923C23.9453 35.7651 22.2818 36.1538 20.6203 36.5435C20.5528 37.8618 20.4308 39.175 20.3741 40.4927C21.8926 40.5724 23.4085 40.6643 24.9264 40.7374C25.2661 40.7726 25.6088 40.7966 25.9505 40.766ZM7.21753 40.7077C8.50514 40.6316 9.79225 40.5627 11.0794 40.4958C11.0196 39.1744 10.8878 37.8567 10.8388 36.5343C9.37445 36.2151 7.9188 35.8596 6.4565 35.5302C6.25271 35.4868 6.05249 35.4158 5.84155 35.4112C5.75575 37.2024 5.57954 38.9901 5.51978 40.7818C6.08723 40.8022 6.65059 40.7067 7.21753 40.7077ZM19.6202 40.0923C19.7137 38.9849 19.7831 37.8761 19.8429 36.7662C18.7473 37.0563 17.6594 37.3766 16.5761 37.7106C16.8366 37.9599 17.139 38.1565 17.4153 38.3848C18.1523 38.9502 18.874 39.5366 19.6202 40.0923ZM14.8865 37.7157C13.8012 37.3684 12.6969 37.0788 11.6059 36.7483C11.6585 37.8649 11.7469 38.9798 11.821 40.0958C12.8547 39.3185 13.8671 38.511 14.8865 37.7157ZM26.8586 39.7884C27.7397 38.7679 28.5084 37.6376 29.0482 36.3995C28.1575 36.0905 27.2678 35.7774 26.375 35.4725C26.377 35.7325 26.3811 35.9924 26.4158 36.2499C26.498 37.492 26.5665 38.7337 26.6671 39.9743C26.733 39.915 26.8019 39.8573 26.8586 39.7884ZM4.77816 39.9687C4.87827 39.0324 4.89308 38.0901 4.98297 37.1524C4.98655 36.5905 5.08104 36.0338 5.07134 35.4715C4.17956 35.7789 3.29033 36.0936 2.39753 36.398C2.59366 36.8755 2.8521 37.3235 3.1131 37.7668C3.59985 38.5467 4.12542 39.318 4.77816 39.9687ZM19.8797 35.9495C19.9895 35.9168 20.0166 35.7912 20.0523 35.6987C20.9237 33.1608 21.8282 30.6326 22.6893 28.0905C22.2011 25.8264 21.6908 23.5647 21.1964 21.3016C20.9329 20.1631 20.7127 19.0124 20.4252 17.881C18.8694 16.2313 17.2947 14.5938 15.7185 12.962C14.1853 14.5652 12.6504 16.169 11.1146 17.7702C11.0656 17.8192 11.0257 17.8739 10.9956 17.9347C10.255 21.2873 9.51848 24.6399 8.77636 27.9914C8.74367 28.0767 8.77534 28.161 8.80241 28.2417C9.67222 30.7393 10.5446 33.2359 11.4113 35.735C11.4456 35.8116 11.467 35.9204 11.5625 35.9449C12.8384 36.3214 14.1183 36.6855 15.3942 37.0609C15.5847 37.1243 15.7931 37.1416 15.9852 37.0803C17.2835 36.7019 18.5818 36.3249 19.8797 35.9495ZM29.3654 35.6936C30.012 34.0444 30.3231 32.2619 30.2398 30.4901C30.0238 30.6698 29.8695 30.9084 29.6795 31.1132C28.6555 32.3298 27.6105 33.5285 26.5997 34.7549C27.5293 35.0434 28.4358 35.4056 29.3654 35.6936ZM25.4152 34.643C24.667 32.8268 23.882 31.0253 23.1419 29.206C22.9667 29.5339 22.8885 29.9006 22.7527 30.2454C22.127 32.0637 21.4768 33.8738 20.8654 35.6967C22.3844 35.3565 23.9029 35.0102 25.4152 34.643ZM10.5793 35.6967C10.5303 35.4939 10.4588 35.2973 10.3878 35.1012C9.77642 33.3416 9.16198 31.5841 8.54907 29.8245C8.48114 29.6289 8.42445 29.4287 8.3274 29.2438C8.22985 29.3787 8.17877 29.538 8.1134 29.6892C7.41979 31.341 6.72312 32.9928 6.03002 34.6445C7.5439 35.0046 9.06034 35.3586 10.5793 35.6967ZM4.84303 34.7569C4.74496 34.6119 4.6326 34.477 4.51614 34.3473C3.54316 33.2037 2.57221 32.0596 1.60024 30.9155C1.47817 30.771 1.36529 30.6157 1.2136 30.4977C1.12013 32.2665 1.44446 34.0413 2.07627 35.6921C3.0089 35.4122 3.91345 35.044 4.84303 34.7569ZM26.6441 33.5107C27.7964 32.1526 28.9517 30.7965 30.103 29.4379C30.2562 29.3036 30.1837 29.0686 30.0575 28.9425C28.5932 27.1181 27.1564 25.2681 25.6788 23.4544C24.9622 24.9417 24.2926 26.4525 23.5872 27.9455C23.5372 28.0435 23.4907 28.158 23.5581 28.2606C24.3881 30.2321 25.2166 32.2042 26.0481 34.1752C26.2764 33.9821 26.4444 33.7313 26.6441 33.5107ZM5.39567 34.1792C6.22769 32.2307 7.03672 30.2735 7.86466 28.3229C7.91471 28.2177 7.95353 28.0941 7.87845 27.9899C7.1731 26.4765 6.48664 24.953 5.7675 23.4457C4.28835 25.2865 2.83065 27.1467 1.35201 28.9884C1.24935 29.11 1.20951 29.3169 1.34129 29.4333C2.17126 30.4165 3.00788 31.3941 3.84041 32.3758C4.36343 32.9723 4.85069 33.6026 5.39567 34.1792ZM30.0641 27.7269C29.9916 27.3316 29.9569 26.9301 29.8889 26.5338C29.6683 25.0822 29.3312 23.6521 28.9395 22.2373C28.6591 22.2613 28.396 22.367 28.1233 22.4298C27.5068 22.6014 26.8816 22.747 26.2687 22.9334C27.516 24.5459 28.801 26.1282 30.0641 27.7269ZM5.19238 22.9385C4.44821 22.7148 3.69128 22.5335 2.942 22.3251C2.7995 22.2894 2.65648 22.2342 2.50683 22.2444C2.34901 22.864 2.16565 23.4774 2.03183 24.1026C1.74172 25.2972 1.5604 26.5133 1.38317 27.7284C2.65546 26.1333 3.92111 24.5331 5.19238 22.9385ZM23.3942 26.5613C23.9647 25.3049 24.5659 24.0602 25.1221 22.7966C25.0342 22.6377 24.8805 22.5294 24.7599 22.3956C23.8304 21.4221 22.8977 20.4501 21.9676 19.4766C21.8032 19.2979 21.6336 19.1227 21.4497 18.9628C22.0443 21.6106 22.6326 24.2619 23.2016 26.9158C23.2772 26.8045 23.34 26.6849 23.3942 26.5613ZM8.24517 26.927C8.81058 24.267 9.41123 21.6126 9.99502 18.9572C9.5333 19.399 9.11192 19.8822 8.66144 20.3357C7.88254 21.1555 7.08729 21.964 6.32116 22.7945C6.90188 24.0842 7.51122 25.3631 8.09603 26.6517C8.13638 26.7488 8.18694 26.8407 8.24517 26.927ZM28.6989 21.4737C28.1381 19.662 27.4429 17.8923 26.6288 16.1807C26.4511 18.186 26.2197 20.1871 26.0281 22.1913C26.9225 21.9707 27.8163 21.7383 28.6989 21.4737ZM5.41303 22.1903C5.24295 20.183 4.98808 18.1829 4.8226 16.1761C4.00181 17.8872 3.32149 19.6636 2.74484 21.4701C3.62386 21.7413 4.52074 21.9635 5.41303 22.1903ZM25.3054 21.8271C25.524 19.5476 25.7835 17.2712 25.9898 14.9907C23.8876 13.6438 21.7991 12.2755 19.6902 10.9383C20.1386 12.9962 20.5968 15.0525 21.0478 17.1103C21.0917 17.286 21.0999 17.4872 21.2413 17.617C22.4467 18.876 23.6516 20.136 24.8575 21.3945C25.0046 21.5416 25.1338 21.7081 25.3054 21.8271ZM9.52104 18.3377C9.77948 18.0404 10.0885 17.784 10.3209 17.4668C10.799 15.291 11.2893 13.1182 11.7546 10.9409C9.65026 12.2816 7.55719 13.6413 5.46002 14.9942C5.58669 16.5066 5.76954 18.0138 5.90898 19.5252C6.00959 20.2913 6.04075 21.0656 6.16793 21.8266C7.29721 20.6749 8.3984 19.4955 9.52104 18.3377ZM15.1281 12.4716C14.2905 11.8832 13.438 11.3153 12.5902 10.7427C12.1571 12.6402 11.7382 14.5417 11.3312 16.4448C12.5943 15.1184 13.8691 13.8027 15.1281 12.4716ZM20.1141 16.4024C19.6963 14.5162 19.2933 12.6249 18.8587 10.7402C18.0818 11.2647 17.3101 11.7964 16.5296 12.3174C16.4668 12.3705 16.3718 12.3971 16.3401 12.4788C16.454 12.6422 16.6103 12.7719 16.7436 12.9175C17.7539 13.9768 18.7672 15.0305 19.776 16.0878C19.8797 16.2027 19.9895 16.3125 20.1141 16.4024ZM25.3442 13.6591C24.3314 11.8179 23.1746 10.0537 21.9104 8.37486C21.2041 8.95354 20.4732 9.50107 19.7699 10.0818C21.6362 11.2606 23.4759 12.4829 25.3442 13.6591ZM8.2656 12.2765C9.40101 11.5375 10.5492 10.8163 11.678 10.067C10.9542 9.51435 10.2555 8.92954 9.53023 8.37894C8.27377 10.0629 7.11947 11.8245 6.09744 13.6602C6.83293 13.2199 7.54084 12.7331 8.2656 12.2765ZM15.8994 11.8286C16.8151 11.2039 17.7345 10.5854 18.6488 9.96024C17.9935 8.25534 17.3239 6.55555 16.6634 4.85269C16.3463 4.06561 16.0679 3.26168 15.7257 2.48431C15.3534 3.3291 15.05 4.20403 14.7052 5.06108C14.0688 6.69396 13.4344 8.32787 12.798 9.96024C13.7409 10.5997 14.6817 11.2422 15.6271 11.8776C15.715 11.9512 15.8217 11.8761 15.8994 11.8286ZM21.4451 7.78442C21.413 7.72977 21.3782 7.67665 21.343 7.62302C20.5207 6.57036 19.659 5.54885 18.7443 4.57432C18.0527 3.85109 17.3514 3.12889 16.5725 2.49759C17.4612 4.83175 18.3781 7.15722 19.2852 9.48473C20.0069 8.92034 20.7178 8.34115 21.4451 7.78442ZM12.1606 9.48013C13.0841 7.16181 13.9723 4.82868 14.884 2.50526C14.7854 2.5691 14.6914 2.64112 14.6031 2.71875C13.5213 3.6805 12.5248 4.73266 11.5784 5.82721C11.041 6.46872 10.4818 7.09694 10.0037 7.78442C10.732 8.3391 11.4379 8.92034 12.1606 9.48013Z" fill="#033603"/>
</svg>
