<svg width="43" height="44" viewBox="0 0 43 44" fill="none" xmlns="http://www.w3.org/2000/svg">
<g clip-path="url(#clip0)">
<path d="M21.4809 0.74585C12.4126 0.74585 5.03516 8.12334 5.03516 17.1915C5.03516 21.5966 7.70397 27.2536 12.9674 34.0046C15.3789 37.0896 17.9903 40.0128 20.7849 42.7555C20.9723 42.9347 21.2216 43.0348 21.4809 43.0348C21.7401 43.0348 21.9894 42.9347 22.1768 42.7555C24.9714 40.0128 27.5828 37.0896 29.9943 34.0046C35.2577 27.2536 37.9265 21.5966 37.9265 17.1915C37.9265 8.12334 30.5491 0.74585 21.4809 0.74585ZM21.4809 28.9385C15.0033 28.9385 9.73393 23.6691 9.73393 17.1915C9.73393 10.714 15.0033 5.44462 21.4809 5.44462C27.9584 5.44462 33.2278 10.714 33.2278 17.1915C33.2278 23.6691 27.9584 28.9385 21.4809 28.9385Z" fill="#033603"/>
<path d="M29.5416 15.7753L22.1578 9.06275C21.9725 8.89426 21.731 8.8009 21.4806 8.8009C21.2301 8.8009 20.9886 8.89426 20.8033 9.06275L13.4195 15.7753C13.2475 15.9317 13.1348 16.1428 13.1007 16.3728C13.0666 16.6028 13.1131 16.8375 13.2324 17.0371C13.3264 17.1891 13.4583 17.3141 13.615 17.4C13.7718 17.4859 13.9481 17.5297 14.1268 17.5272H15.1037V23.9041C15.1037 24.1711 15.2097 24.4272 15.3986 24.616C15.5874 24.8049 15.8435 24.9109 16.1105 24.9109H18.4599C18.727 24.9109 18.9831 24.8049 19.1719 24.616C19.3607 24.4272 19.4668 24.1711 19.4668 23.9041V20.2122C19.4668 19.9451 19.5729 19.689 19.7617 19.5002C19.9505 19.3114 20.2066 19.2053 20.4737 19.2053H22.4874C22.7545 19.2053 23.0106 19.3114 23.1994 19.5002C23.3882 19.689 23.4943 19.9451 23.4943 20.2122V23.9041C23.4943 24.1711 23.6004 24.4272 23.7892 24.616C23.978 24.8049 24.2341 24.9109 24.5012 24.9109H26.8506C27.1176 24.9109 27.3737 24.8049 27.5625 24.616C27.7514 24.4272 27.8575 24.1711 27.8575 23.9041V17.5272H28.8343C29.013 17.5297 29.1893 17.4859 29.3461 17.4C29.5028 17.3141 29.6347 17.1891 29.7287 17.0371C29.848 16.8375 29.8945 16.6028 29.8604 16.3728C29.8263 16.1428 29.7136 15.9317 29.5416 15.7753Z" fill="#033603"/>
</g>
<defs>
<clipPath id="clip0">
<rect width="42.9602" height="42.9602" fill="white" transform="translate(0 0.410278)"/>
</clipPath>
</defs>
</svg>
