<svg width="37" height="37" viewBox="0 0 37 37" fill="none" xmlns="http://www.w3.org/2000/svg">
<g clip-path="url(#clip0)">
<path d="M26.5209 24.719C25.3813 23.5551 23.9585 23.5551 22.8261 24.719C21.9622 25.6051 21.0984 26.4912 20.2491 27.3923C20.0168 27.6401 19.8208 27.6927 19.5377 27.5275C18.9787 27.2121 18.3835 26.9568 17.8463 26.6114C15.3419 24.9819 13.2441 22.8868 11.3857 20.5289C10.4638 19.3574 9.64357 18.1034 9.0701 16.6916C8.95395 16.4063 8.97573 16.2185 9.20076 15.9858C10.0646 15.1222 10.9066 14.2361 11.756 13.35C12.9392 12.1185 12.9392 10.6767 11.7487 9.43767C11.0736 8.73179 10.3985 8.04094 9.72342 7.33507C9.02654 6.61418 8.33693 5.88578 7.6328 5.1724C6.49312 4.02348 5.07034 4.02348 3.93793 5.17991C3.06684 6.066 2.23204 6.97462 1.34643 7.8457C0.526157 8.64919 0.11239 9.63291 0.0252807 10.7818C-0.112642 12.6516 0.330162 14.4163 0.954443 16.1359C2.23204 19.6953 4.17748 22.8567 6.53668 25.7553C9.72342 29.6752 13.5272 32.7765 17.977 35.0142C19.9805 36.0205 22.0566 36.7939 24.3142 36.9216C25.8676 37.0117 27.2178 36.6062 28.2994 35.3522C29.0398 34.4961 29.8746 33.7151 30.6586 32.8966C31.8201 31.6801 31.8273 30.2083 30.6731 29.0068C29.2939 27.5726 27.9074 26.1458 26.5209 24.719Z" fill="#033603"/>
<path d="M25.1345 18.7342L27.8131 18.2611C27.392 15.7155 26.2306 13.4101 24.4666 11.5779C22.6011 9.648 20.2418 8.43149 17.6431 8.05603L17.2656 10.842C19.2764 11.1348 21.1057 12.0735 22.5502 13.5678C23.9149 14.9796 24.8078 16.7668 25.1345 18.7342Z" fill="#033603"/>
<path d="M29.3227 6.68926C26.2304 3.49031 22.3177 1.47032 17.9986 0.847046L17.6211 3.63299C21.3523 4.17365 24.735 5.92331 27.4063 8.67922C29.9398 11.3 31.6021 14.6115 32.2046 18.2535L34.8832 17.7805C34.1791 13.5602 32.2554 9.73051 29.3227 6.68926Z" fill="#033603"/>
</g>
<defs>
<clipPath id="clip0">
<rect width="36.0866" height="36.0866" fill="white" transform="translate(0 0.847046)"/>
</clipPath>
</defs>
</svg>
