<svg width="26" height="26" viewBox="0 0 26 26" fill="none" xmlns="http://www.w3.org/2000/svg">
<g clip-path="url(#clip0)">
<path d="M5.81935 25.4745C5.53449 25.4745 5.25162 25.3856 5.0102 25.2111C4.5605 24.8851 4.35043 24.3249 4.47282 23.7844L6.14547 16.4163L0.472902 11.4416C0.0559295 11.0776 -0.103361 10.5012 0.0678317 9.97371C0.239024 9.44724 0.704796 9.0745 1.25626 9.02352L8.76177 8.34212L11.7292 1.3978C11.948 0.887597 12.4463 0.558105 12.9999 0.558105C13.5536 0.558105 14.0519 0.887597 14.2707 1.39661L17.2381 8.34212L24.7424 9.02352C25.2951 9.07331 25.7608 9.44724 25.932 9.97371C26.1032 10.5002 25.9449 11.0776 25.5279 11.4416L19.8554 16.4154L21.528 23.7832C21.6506 24.3249 21.4403 24.8851 20.9908 25.2101C20.5423 25.535 19.9442 25.56 19.4719 25.2761L12.9999 21.4085L6.52793 25.2783C6.30913 25.4082 6.06533 25.4745 5.81935 25.4745V25.4745ZM12.9999 19.7424C13.2459 19.7424 13.4895 19.8085 13.7085 19.9384L19.8165 23.5916L18.2379 16.6373C18.1252 16.1424 18.2932 15.6256 18.6757 15.2908L24.0318 10.5934L16.9455 9.9499C16.4353 9.90329 15.9965 9.58252 15.7971 9.11239L12.9999 2.55906L10.1993 9.11338C10.0022 9.58034 9.56338 9.9011 9.05436 9.94772L1.96702 10.5912L7.32299 15.2886C7.70664 15.6245 7.87446 16.1402 7.76079 16.6363L6.18336 23.5904L12.2914 19.9384C12.5102 19.8085 12.7539 19.7424 12.9999 19.7424V19.7424ZM8.70444 8.47642C8.70444 8.47642 8.70444 8.47761 8.70325 8.4786L8.70444 8.47642ZM17.2932 8.47324L17.2944 8.47542C17.2944 8.47423 17.2944 8.47423 17.2932 8.47324Z" fill="black"/>
</g>
<defs>
<clipPath id="clip0">
<rect width="26" height="26" fill="white"/>
</clipPath>
</defs>
</svg>
