<svg width="27" height="27" viewBox="0 0 27 27" fill="none" xmlns="http://www.w3.org/2000/svg">
<g clip-path="url(#clip0)">
<path d="M17.7254 23.3139L21.6966 26.2923V23.3139H26.2138V9.86158H17.229V0.876831H0.79834V14.3291H5.31554V17.3075L9.2867 14.3291H9.78309V23.3139H17.7254ZM24.7246 21.8247H20.2074V23.3139L18.2218 21.8247H11.2723V11.3508H24.7246V21.8247ZM8.7903 12.84L6.80472 14.3291V12.84H2.28753V2.36602H15.7398V9.86158H12.477L9.0385 2.98457L5.39407 10.2732L6.726 10.9393L7.63715 9.11699H10.4398L10.8121 9.86158H9.78309V12.84H8.7903ZM9.69525 7.6278H8.38174L9.0385 6.3143L9.69525 7.6278Z" fill="black"/>
<path d="M16.9293 17.7744C16.1308 18.4469 15.3769 18.7967 14.9951 18.7967V20.2859C15.9545 20.2859 17.1071 19.5838 17.9735 18.8398C18.8398 19.5838 19.9924 20.2859 20.9518 20.2859V18.7967C20.57 18.7967 19.8161 18.4469 19.0176 17.7744C19.45 17.2488 19.9049 16.5606 20.1037 15.8183H21.6964V14.3292H18.718V12.84H17.2289V14.3292H14.2505V15.8183H15.8432C16.042 16.5606 16.4969 17.2488 16.9293 17.7744ZM17.9735 16.6977C17.7386 16.3956 17.5517 16.096 17.4239 15.8178H18.523C18.3952 16.096 18.2083 16.3956 17.9735 16.6977Z" fill="black"/>
</g>
<defs>
<clipPath id="clip0">
<rect width="25.4154" height="25.4154" fill="white" transform="translate(0.79834 0.876831)"/>
</clipPath>
</defs>
</svg>
