<svg width="20" height="21" viewBox="0 0 20 21" fill="none" xmlns="http://www.w3.org/2000/svg">
<path d="M10 0.998047C4.48613 0.998047 0 5.48395 0 10.998C0 16.5121 4.48613 20.998 10 20.998C15.5141 20.998 20 16.5121 20 10.998C20 5.48395 15.5139 0.998047 10 0.998047ZM10 19.5382C5.29102 19.5382 1.45984 15.707 1.45984 10.998C1.45984 6.28906 5.29102 2.45789 10 2.45789C14.709 2.45789 18.5402 6.28902 18.5402 10.9978C18.5402 15.707 14.709 19.5382 10 19.5382Z" fill="black"/>
<path d="M13.4041 10.9977H10.2411V6.61811C10.2411 6.21494 9.91434 5.88818 9.51117 5.88818C9.10801 5.88818 8.78125 6.21494 8.78125 6.61811V11.7276C8.78125 12.1308 9.10801 12.4575 9.51117 12.4575H13.4041C13.8073 12.4575 14.134 12.1308 14.134 11.7276C14.134 11.3244 13.8073 10.9977 13.4041 10.9977Z" fill="black"/>
</svg>
