<svg width="22" height="20" viewBox="0 0 22 20" fill="none" xmlns="http://www.w3.org/2000/svg">
<path d="M15.1952 8.88976L9.1552 5.11476C8.92241 4.9693 8.62907 4.9616 8.38903 5.09463C8.14894 5.22766 8 5.48054 8 5.755V13.305C8 13.5795 8.14894 13.8323 8.38903 13.9654C8.50308 14.0286 8.62912 14.06 8.755 14.06C8.89407 14.06 9.03294 14.0216 9.15515 13.9452L15.1952 10.1702C15.4159 10.0323 15.55 9.79033 15.55 9.53C15.55 9.26968 15.416 9.02773 15.1952 8.88976ZM9.51005 11.9428V7.11717L13.3705 9.53L9.51005 11.9428Z" fill="black"/>
<path d="M17.4103 0H3.84615C1.72538 0 0 1.72538 0 3.84615V16.1538C0 18.2746 1.72538 20 3.84615 20H17.4103C19.531 20 21.2564 18.2746 21.2564 16.1538V3.84615C21.2564 1.72538 19.531 0 17.4103 0ZM19.7179 16.1538C19.7179 17.4263 18.6827 18.4615 17.4103 18.4615H3.84615C2.57369 18.4615 1.53846 17.4263 1.53846 16.1538V3.84615C1.53846 2.57369 2.57369 1.53846 3.84615 1.53846H17.4103C18.6827 1.53846 19.7179 2.57369 19.7179 3.84615V16.1538Z" fill="black"/>
</svg>
