<svg width="510" height="80" viewBox="0 0 510 80" fill="none" xmlns="http://www.w3.org/2000/svg">
<path d="M122.803 23.1621L118.999 26.2607V33.0518C118.999 33.4352 119.086 33.7321 119.259 33.9424C119.444 34.1403 119.754 34.2949 120.187 34.4063V35H112.282V34.4063C112.728 34.2826 113.037 34.1217 113.21 33.9238C113.383 33.7259 113.47 33.4352 113.47 33.0518V11.6025C113.47 11.2315 113.383 10.9469 113.21 10.749C113.037 10.5511 112.728 10.3903 112.282 10.2666V9.67286H120.187V10.2666C119.741 10.3779 119.432 10.5387 119.259 10.749C119.086 10.9469 118.999 11.2315 118.999 11.6025V20.4717L129.427 11.9551C129.909 11.5593 130.15 11.2438 130.15 11.0088C130.15 10.6501 129.792 10.4027 129.074 10.2666V9.67286H139.428V10.2666C138.995 10.3532 138.686 10.4522 138.5 10.5635C138.314 10.6748 137.776 11.0954 136.886 11.8252L135.457 13.0127L126.848 19.9336L136.607 31.6787C137.51 32.7673 138.16 33.4723 138.556 33.7939C138.964 34.1032 139.471 34.3073 140.077 34.4063V35H130.187V34.4063C130.843 34.2702 131.171 34.0352 131.171 33.7012C131.171 33.528 130.874 33.0703 130.28 32.3281L122.803 23.1621ZM163.033 16.1113V27.1143C163.033 29.6253 162.538 31.4684 161.549 32.6436C159.953 34.5114 156.947 35.4453 152.531 35.4453C149.575 35.4453 147.187 34.9938 145.369 34.0908C144.058 33.4352 143.161 32.5013 142.679 31.2891C142.233 30.1758 142.011 28.7842 142.011 27.1143V16.1113C142.011 15.7279 141.924 15.4372 141.751 15.2393C141.578 15.0413 141.268 14.8744 140.823 14.7383V14.2188H148.189V14.7383C147.732 14.862 147.416 15.029 147.243 15.2393C147.07 15.4372 146.983 15.7279 146.983 16.1113V26.1123C146.983 27.2751 147.082 28.1657 147.28 28.7842C147.49 29.4027 147.849 29.9098 148.356 30.3057C149.371 31.1097 150.836 31.5117 152.754 31.5117C154.671 31.5117 156.137 31.1097 157.151 30.3057C157.646 29.9098 157.992 29.4027 158.19 28.7842C158.388 28.1657 158.487 27.2751 158.487 26.1123V16.1113C158.487 15.7279 158.401 15.4372 158.227 15.2393C158.067 15.0413 157.757 14.8744 157.3 14.7383V14.2188H164.22V14.7383C163.775 14.862 163.466 15.029 163.293 15.2393C163.12 15.4372 163.033 15.7279 163.033 16.1113ZM177.528 25.5186L174.578 27.9307V33.1074C174.578 33.4909 174.664 33.7878 174.837 33.998C175.011 34.196 175.32 34.363 175.765 34.499V35H168.418V34.4805C168.85 34.3691 169.154 34.2083 169.327 33.998C169.512 33.7878 169.605 33.4909 169.605 33.1074V16.1113C169.605 15.7279 169.518 15.4372 169.345 15.2393C169.172 15.0413 168.863 14.8744 168.418 14.7383V14.2188H175.765V14.7383C175.32 14.862 175.011 15.029 174.837 15.2393C174.664 15.4372 174.578 15.7279 174.578 16.1113V22.9209L182.389 16.6865C182.971 16.2288 183.261 15.8268 183.261 15.4805C183.261 15.1094 182.903 14.862 182.185 14.7383V14.2188H191.537V14.7197C191.067 14.794 190.671 14.9362 190.349 15.1465C190.04 15.3568 189.261 16.0062 188.011 17.0947L180.998 22.6797L188.716 31.5488C189.706 32.6992 190.411 33.4476 190.832 33.7939C191.265 34.1403 191.759 34.3753 192.316 34.499V35H183.224V34.499C183.905 34.3382 184.245 34.0908 184.245 33.7568C184.245 33.6331 184.201 33.5156 184.115 33.4043C184.041 33.2806 183.756 32.9342 183.261 32.3652L177.528 25.5186ZM212.285 29.8047H202.729L201.653 32.0684C201.393 32.6126 201.263 33.0394 201.263 33.3486C201.263 33.9424 201.659 34.3197 202.451 34.4805V35H194.806V34.4805C195.276 34.4063 195.622 34.264 195.845 34.0537C196.08 33.8434 196.352 33.429 196.661 32.8105L204.25 17.4473C204.535 16.8659 204.677 16.3587 204.677 15.9258C204.677 15.4186 204.331 15.0228 203.638 14.7383V14.2188H211.709V14.7383C211.029 15.0104 210.689 15.431 210.689 16C210.689 16.4082 210.843 16.9092 211.153 17.5029L219.02 32.4023C219.453 33.2188 219.793 33.7507 220.04 33.998C220.288 34.2331 220.665 34.4001 221.172 34.499V35H212.693V34.499C213.497 34.363 213.899 33.9857 213.899 33.3672C213.899 32.9837 213.744 32.5075 213.435 31.9385L212.285 29.8047ZM210.782 26.8916L207.386 20.2305L204.158 26.8916H210.782ZM225.054 33.1074V16.1113C225.054 15.7279 224.967 15.4372 224.794 15.2393C224.621 15.0413 224.312 14.8744 223.866 14.7383V14.2188H236.057C238.593 14.2188 240.59 14.5342 242.05 15.165C244.103 16.0557 245.582 17.5277 246.485 19.5811C247.115 21.016 247.431 22.6921 247.431 24.6094C247.431 28.1595 246.373 30.8499 244.258 32.6807C243.305 33.4971 242.18 34.0908 240.881 34.4619C239.595 34.8206 237.986 35 236.057 35H223.866V34.4805C224.299 34.3691 224.602 34.2083 224.776 33.998C224.961 33.7878 225.054 33.4909 225.054 33.1074ZM230.027 31.2334H235.333C237.77 31.2334 239.539 30.6768 240.64 29.5635C241.79 28.4007 242.365 26.7494 242.365 24.6094C242.365 22.4694 241.79 20.818 240.64 19.6553C240.071 19.0739 239.366 18.6533 238.525 18.3936C237.683 18.1214 236.62 17.9854 235.333 17.9854H230.027V31.2334ZM257.732 16.1113V33.1074C257.732 33.4909 257.819 33.7878 257.992 33.998C258.165 34.196 258.475 34.363 258.92 34.499V35H251.572V34.4805C252.005 34.3691 252.308 34.2083 252.481 33.998C252.667 33.7878 252.76 33.4909 252.76 33.1074V16.1113C252.76 15.7279 252.673 15.4372 252.5 15.2393C252.327 15.0413 252.018 14.8744 251.572 14.7383V14.2188H258.92V14.7383C258.475 14.862 258.165 15.029 257.992 15.2393C257.819 15.4372 257.732 15.7279 257.732 16.1113ZM279.297 29.8047H269.741L268.665 32.0684C268.405 32.6126 268.275 33.0394 268.275 33.3486C268.275 33.9424 268.671 34.3197 269.463 34.4805V35H261.818V34.4805C262.288 34.4063 262.635 34.264 262.857 34.0537C263.092 33.8434 263.364 33.429 263.674 32.8105L271.262 17.4473C271.547 16.8659 271.689 16.3587 271.689 15.9258C271.689 15.4186 271.343 15.0228 270.65 14.7383V14.2188H278.721V14.7383C278.041 15.0104 277.701 15.431 277.701 16C277.701 16.4082 277.856 16.9092 278.165 17.5029L286.032 32.4023C286.465 33.2188 286.805 33.7507 287.052 33.998C287.3 34.2331 287.677 34.4001 288.184 34.499V35H279.705V34.499C280.509 34.363 280.911 33.9857 280.911 33.3672C280.911 32.9837 280.756 32.5075 280.447 31.9385L279.297 29.8047ZM277.794 26.8916L274.398 20.2305L271.17 26.8916H277.794ZM314.298 27.6523L321.015 12.7715C321.299 12.1406 321.442 11.652 321.442 11.3057C321.442 10.7738 321.033 10.4274 320.217 10.2666V9.67286H328.882V10.2666C328.338 10.3408 327.961 10.4955 327.75 10.7305C327.54 10.9655 327.175 11.6458 326.656 12.7715L317.879 31.7158C317.508 32.5199 317.323 33.0456 317.323 33.293C317.323 33.9238 317.712 34.2949 318.492 34.4063V35H309.771V34.4063C310.55 34.2949 310.94 33.9176 310.94 33.2744C310.94 33.0394 310.754 32.5199 310.383 31.7158L301.607 12.7715C301.087 11.6458 300.722 10.9655 300.512 10.7305C300.302 10.4955 299.924 10.3408 299.38 10.2666V9.67286H308.379V10.2666C307.563 10.4274 307.155 10.7738 307.155 11.3057C307.155 11.652 307.297 12.1406 307.581 12.7715L314.298 27.6523ZM337.05 26.168V31.2334H350.242C350.626 31.2334 350.916 31.1468 351.114 30.9736C351.325 30.8005 351.492 30.485 351.615 30.0273H352.135V36.1875H351.615C351.504 35.7546 351.343 35.4453 351.133 35.2598C350.923 35.0866 350.626 35 350.242 35H330.89V34.4805C331.323 34.3691 331.626 34.2083 331.799 33.998C331.984 33.7878 332.077 33.4909 332.077 33.1074V16.1113C332.077 15.7279 331.991 15.4372 331.817 15.2393C331.644 15.0413 331.335 14.8744 330.89 14.7383V14.2188H349.667C350.063 14.2188 350.36 14.1322 350.558 13.959C350.768 13.7858 350.935 13.4766 351.059 13.0313H351.56V19.1914H351.059C350.935 18.7337 350.768 18.4183 350.558 18.2451C350.36 18.0719 350.063 17.9854 349.667 17.9854H337.05V22.5498H344.88C345.263 22.5498 345.554 22.4632 345.752 22.29C345.962 22.1169 346.136 21.8076 346.272 21.3623H346.773V27.374H346.272C346.148 26.9287 345.981 26.6195 345.771 26.4463C345.573 26.2607 345.276 26.168 344.88 26.168H337.05ZM361.935 21.3066V33.1074C361.935 33.4909 362.022 33.7878 362.195 33.998C362.381 34.2083 362.69 34.3753 363.123 34.499V35H356.221V34.4805C356.654 34.3691 356.957 34.2083 357.13 33.998C357.315 33.7878 357.408 33.4909 357.408 33.1074V16.1113C357.408 15.7279 357.322 15.4372 357.148 15.2393C356.975 15.0413 356.666 14.8744 356.221 14.7383V14.2188H364.199V14.7383C363.655 14.8744 363.383 15.1156 363.383 15.4619C363.383 15.7588 363.581 16.1052 363.976 16.501L375.109 27.5596V16.1113C375.109 15.7279 375.023 15.4372 374.849 15.2393C374.676 15.029 374.367 14.862 373.922 14.7383V14.2188H380.824V14.7383C380.379 14.862 380.07 15.029 379.896 15.2393C379.723 15.4372 379.637 15.7279 379.637 16.1113V33.1074C379.637 33.4909 379.723 33.7878 379.896 33.998C380.07 34.196 380.379 34.363 380.824 34.499V35H373.384V34.499C373.928 34.3877 374.2 34.1589 374.2 33.8125C374.2 33.6393 374.126 33.46 373.977 33.2744C373.829 33.0889 373.489 32.724 372.957 32.1797L361.935 21.3066ZM396.915 17.9854V33.1074C396.915 33.4909 397.001 33.7878 397.174 33.998C397.348 34.196 397.657 34.363 398.102 34.499V35H390.755V34.4805C391.188 34.3691 391.491 34.2083 391.664 33.998C391.849 33.7878 391.942 33.4909 391.942 33.1074V17.9854H385.819C385.423 17.9854 385.12 18.0781 384.91 18.2637C384.712 18.4369 384.551 18.7461 384.427 19.1914H383.926V13.0313H384.446C384.557 13.4642 384.712 13.7734 384.91 13.959C385.12 14.1322 385.423 14.2188 385.819 14.2188H403.038C403.434 14.2188 403.73 14.1322 403.928 13.959C404.139 13.7858 404.306 13.4766 404.429 13.0313H404.93V19.1914H404.429C404.306 18.7461 404.139 18.4369 403.928 18.2637C403.73 18.0781 403.434 17.9854 403.038 17.9854H396.915ZM429.834 16.1113V27.1143C429.834 29.6253 429.34 31.4684 428.35 32.6436C426.754 34.5114 423.748 35.4453 419.332 35.4453C416.376 35.4453 413.989 34.9938 412.17 34.0908C410.859 33.4352 409.962 32.5013 409.48 31.2891C409.035 30.1758 408.812 28.7842 408.812 27.1143V16.1113C408.812 15.7279 408.725 15.4372 408.552 15.2393C408.379 15.0413 408.07 14.8744 407.624 14.7383V14.2188H414.991V14.7383C414.533 14.862 414.218 15.029 414.044 15.2393C413.871 15.4372 413.785 15.7279 413.785 16.1113V26.1123C413.785 27.2751 413.884 28.1657 414.082 28.7842C414.292 29.4027 414.651 29.9098 415.158 30.3057C416.172 31.1097 417.638 31.5117 419.555 31.5117C421.472 31.5117 422.938 31.1097 423.953 30.3057C424.447 29.9098 424.794 29.4027 424.992 28.7842C425.19 28.1657 425.289 27.2751 425.289 26.1123V16.1113C425.289 15.7279 425.202 15.4372 425.029 15.2393C424.868 15.0413 424.559 14.8744 424.101 14.7383V14.2188H431.022V14.7383C430.577 14.862 430.267 15.029 430.094 15.2393C429.921 15.4372 429.834 15.7279 429.834 16.1113ZM441.379 26.4648V33.1074C441.379 33.4909 441.466 33.7878 441.639 33.998C441.812 34.196 442.121 34.363 442.567 34.499V35H435.219V34.4805C435.652 34.3691 435.955 34.2083 436.128 33.998C436.314 33.7878 436.406 33.4909 436.406 33.1074V16.1113C436.406 15.7279 436.32 15.4372 436.147 15.2393C435.974 15.0413 435.664 14.8744 435.219 14.7383V14.2188H448.838C450.607 14.2188 451.955 14.3115 452.883 14.4971C453.811 14.6703 454.64 14.9919 455.369 15.4619C456.866 16.4391 457.614 18.0348 457.614 20.249C457.614 21.9313 457.151 23.2487 456.223 24.2012C455.308 25.1413 453.823 25.8216 451.77 26.2422L455.703 31.7344C456.421 32.7487 456.99 33.4414 457.41 33.8125C457.843 34.1712 458.332 34.4001 458.876 34.499V35H450.156V34.499C450.799 34.3258 451.12 34.0475 451.12 33.6641C451.12 33.3919 450.922 32.9775 450.527 32.4209L446.37 26.4648H441.379ZM441.379 22.6982H448.875C450.013 22.6982 450.854 22.5745 451.399 22.3272C452.166 21.9932 452.549 21.3314 452.549 20.3418C452.549 19.4635 452.277 18.8512 451.733 18.5049C451.201 18.1585 450.248 17.9854 448.875 17.9854H441.379V22.6982ZM468.491 26.168V31.2334H481.684C482.067 31.2334 482.358 31.1468 482.556 30.9736C482.766 30.8005 482.933 30.485 483.057 30.0273H483.576V36.1875H483.057C482.945 35.7546 482.785 35.4453 482.574 35.2598C482.364 35.0866 482.067 35 481.684 35H462.331V34.4805C462.764 34.3691 463.067 34.2083 463.24 33.998C463.426 33.7878 463.519 33.4909 463.519 33.1074V16.1113C463.519 15.7279 463.432 15.4372 463.259 15.2393C463.086 15.0413 462.776 14.8744 462.331 14.7383V14.2188H481.108C481.504 14.2188 481.801 14.1322 481.999 13.959C482.209 13.7858 482.376 13.4766 482.5 13.0313H483.001V19.1914H482.5C482.376 18.7337 482.209 18.4183 481.999 18.2451C481.801 18.0719 481.504 17.9854 481.108 17.9854H468.491V22.5498H476.321C476.705 22.5498 476.995 22.4632 477.193 22.29C477.404 22.1169 477.577 21.8076 477.713 21.3623H478.214V27.374H477.713C477.589 26.9287 477.422 26.6195 477.212 26.4463C477.014 26.2607 476.717 26.168 476.321 26.168H468.491ZM507.645 16.0928L505.14 20.9356L504.695 20.6943C504.695 20.2861 504.565 19.9645 504.306 19.7295C503.6 19.0986 502.561 18.5791 501.188 18.1709C499.815 17.7627 498.424 17.5586 497.014 17.5586C495.814 17.5586 494.75 17.7256 493.822 18.0596C492.486 18.542 491.818 19.2409 491.818 20.1563C491.818 20.7624 492.14 21.1953 492.783 21.4551C493.426 21.7025 494.669 21.9004 496.513 22.0488L499.444 22.2715C502.005 22.4694 503.953 22.9642 505.289 23.7559C506.031 24.2012 506.643 24.7949 507.126 25.5371C507.732 26.4648 508.035 27.5101 508.035 28.6729C508.035 30.7881 507.083 32.458 505.178 33.6826C503.359 34.8577 500.898 35.4453 497.793 35.4453C494.663 35.4453 491.639 34.7835 488.72 33.46C488.522 33.3734 488.355 33.3301 488.219 33.3301C487.971 33.3301 487.742 33.4785 487.532 33.7754L487.068 33.5898L489.202 28.5059L489.666 28.6914C489.666 28.7656 489.666 28.8151 489.666 28.8398C489.666 29.1615 489.79 29.4336 490.037 29.6563C490.655 30.2005 491.725 30.6768 493.247 31.085C494.768 31.4808 496.271 31.6787 497.756 31.6787C499.067 31.6787 500.242 31.5055 501.281 31.1592C502.568 30.7386 503.211 30.0583 503.211 29.1182C503.211 28.3636 502.765 27.8379 501.875 27.541C501.281 27.3431 500.211 27.1761 498.665 27.04L495.752 26.7988C494.181 26.6751 492.981 26.5143 492.152 26.3164C491.323 26.1185 490.6 25.8278 489.981 25.4443C489.19 24.9495 488.571 24.2754 488.126 23.4219C487.681 22.5684 487.458 21.6344 487.458 20.6201C487.458 18.3441 488.435 16.6061 490.389 15.4063C492.171 14.3177 494.373 13.7734 496.995 13.7734C498.417 13.7734 499.741 13.9343 500.966 14.2559C502.203 14.5651 503.675 15.1156 505.382 15.9072C505.889 16.1423 506.241 16.2598 506.439 16.2598C506.637 16.2598 506.891 16.1237 507.2 15.8516L507.645 16.0928Z" fill="white"/>
<path d="M114.619 60.0586V63.9043C114.619 64.1263 114.669 64.2982 114.77 64.4199C114.87 64.5345 115.049 64.6312 115.307 64.71V65H111.053V64.6992C111.303 64.6348 111.479 64.5417 111.579 64.4199C111.687 64.2982 111.74 64.1263 111.74 63.9043V54.0645C111.74 53.8425 111.69 53.6742 111.59 53.5596C111.49 53.445 111.311 53.3483 111.053 53.2695V52.9688H118.895C120.449 52.9688 121.619 53.2015 122.407 53.667C122.866 53.9391 123.224 54.3259 123.481 54.8272C123.739 55.3285 123.868 55.8906 123.868 56.5137C123.868 57.7096 123.46 58.6012 122.644 59.1885C121.827 59.7686 120.577 60.0586 118.895 60.0586H114.619ZM114.619 57.8779H118.723C119.475 57.8779 119.997 57.8063 120.291 57.6631C120.721 57.4554 120.936 57.0723 120.936 56.5137C120.936 55.9551 120.721 55.5719 120.291 55.3643C120.005 55.221 119.482 55.1494 118.723 55.1494H114.619V57.8779ZM144.261 60.0586V63.9043C144.261 64.1263 144.311 64.2982 144.411 64.4199C144.511 64.5345 144.69 64.6312 144.948 64.71V65H140.694V64.6992C140.945 64.6348 141.12 64.5417 141.221 64.4199C141.328 64.2982 141.382 64.1263 141.382 63.9043V54.0645C141.382 53.8425 141.332 53.6742 141.231 53.5596C141.131 53.445 140.952 53.3483 140.694 53.2695V52.9688H148.579C149.603 52.9688 150.384 53.0225 150.921 53.1299C151.458 53.2301 151.938 53.4163 152.36 53.6885C153.227 54.2542 153.66 55.1781 153.66 56.46C153.66 57.4339 153.392 58.1966 152.854 58.748C152.324 59.2923 151.465 59.6862 150.276 59.9297L152.554 63.1094C152.969 63.6966 153.298 64.0977 153.542 64.3125C153.793 64.5202 154.075 64.6527 154.391 64.71V65H149.342V64.71C149.714 64.6097 149.9 64.4486 149.9 64.2266C149.9 64.069 149.786 63.8291 149.557 63.5068L147.15 60.0586H144.261ZM144.261 57.8779H148.601C149.259 57.8779 149.746 57.8063 150.061 57.6631C150.505 57.4697 150.727 57.0866 150.727 56.5137C150.727 56.0052 150.57 55.6507 150.255 55.4502C149.947 55.2497 149.395 55.1494 148.601 55.1494H144.261V57.8779ZM174.697 54.0645V63.9043C174.697 64.1263 174.747 64.2982 174.848 64.4199C174.948 64.5345 175.127 64.6312 175.385 64.71V65H171.131V64.6992C171.381 64.6348 171.557 64.5417 171.657 64.4199C171.765 64.2982 171.818 64.1263 171.818 63.9043V54.0645C171.818 53.8425 171.768 53.6742 171.668 53.5596C171.568 53.445 171.389 53.3483 171.131 53.2695V52.9688H175.385V53.2695C175.127 53.3412 174.948 53.4378 174.848 53.5596C174.747 53.6742 174.697 53.8425 174.697 54.0645ZM198.989 61.1973L201.9 54.8272C202.072 54.4619 202.158 54.1898 202.158 54.0107C202.158 53.6527 201.925 53.4056 201.46 53.2695V52.9688H206.111V53.2695C205.825 53.3626 205.617 53.4772 205.488 53.6133C205.359 53.7494 205.195 54.0287 204.994 54.4512L200.783 63.3135C200.633 63.6286 200.557 63.8685 200.557 64.0332C200.557 64.3913 200.794 64.6169 201.266 64.71V65H196.551V64.71C197.016 64.6169 197.249 64.3913 197.249 64.0332C197.249 63.8685 197.174 63.6286 197.023 63.3135L192.812 54.4512C192.612 54.0215 192.447 53.7422 192.318 53.6133C192.196 53.4772 191.989 53.3626 191.695 53.2695V52.9688H196.518V53.2695C196.06 53.4128 195.831 53.6598 195.831 54.0107C195.831 54.1683 195.92 54.4404 196.099 54.8272L198.989 61.1973ZM229.93 61.9922H224.398L223.775 63.3027C223.625 63.6178 223.55 63.8649 223.55 64.0439C223.55 64.3877 223.779 64.6061 224.237 64.6992V65H219.811V64.6992C220.083 64.6563 220.284 64.5739 220.413 64.4521C220.549 64.3304 220.706 64.0905 220.886 63.7324L225.279 54.8379C225.444 54.5013 225.526 54.2077 225.526 53.957C225.526 53.6634 225.326 53.4342 224.925 53.2695V52.9688H229.597V53.2695C229.204 53.4271 229.007 53.6706 229.007 54C229.007 54.2363 229.096 54.5264 229.275 54.8701L233.83 63.4961C234.081 63.9688 234.277 64.2767 234.421 64.4199C234.564 64.556 234.782 64.6527 235.076 64.71V65H230.167V64.71C230.632 64.6312 230.865 64.4128 230.865 64.0547C230.865 63.8327 230.776 63.557 230.596 63.2275L229.93 61.9922ZM229.06 60.3057L227.095 56.4492L225.225 60.3057H229.06ZM258.014 55.1494V63.9043C258.014 64.1263 258.065 64.2982 258.165 64.4199C258.265 64.5345 258.444 64.6312 258.702 64.71V65H254.448V64.6992C254.699 64.6348 254.874 64.5417 254.974 64.4199C255.082 64.2982 255.135 64.1263 255.135 63.9043V55.1494H251.591C251.361 55.1494 251.186 55.2031 251.064 55.3106C250.95 55.4108 250.857 55.5898 250.785 55.8477H250.495V52.2813H250.796C250.86 52.5319 250.95 52.7109 251.064 52.8184C251.186 52.9186 251.361 52.9688 251.591 52.9688H261.559C261.788 52.9688 261.96 52.9186 262.075 52.8184C262.197 52.7181 262.293 52.5391 262.365 52.2813H262.655V55.8477H262.365C262.293 55.5898 262.197 55.4108 262.075 55.3106C261.96 55.2031 261.788 55.1494 261.559 55.1494H258.014ZM282.908 59.8867V62.8193H290.546C290.768 62.8193 290.936 62.7692 291.05 62.6689C291.172 62.5687 291.269 62.3861 291.341 62.1211H291.641V65.6875H291.341C291.276 65.4368 291.183 65.2578 291.061 65.1504C290.939 65.0501 290.768 65 290.546 65H279.341V64.6992C279.592 64.6348 279.768 64.5417 279.868 64.4199C279.975 64.2982 280.029 64.1263 280.029 63.9043V54.0645C280.029 53.8425 279.979 53.6742 279.879 53.5596C279.778 53.445 279.599 53.3483 279.341 53.2695V52.9688H290.213C290.442 52.9688 290.614 52.9186 290.728 52.8184C290.85 52.7181 290.947 52.5391 291.018 52.2813H291.308V55.8477H291.018C290.947 55.5827 290.85 55.4001 290.728 55.2998C290.614 55.1995 290.442 55.1494 290.213 55.1494H282.908V57.792H287.441C287.663 57.792 287.831 57.7419 287.946 57.6416C288.068 57.5413 288.168 57.3623 288.247 57.1045H288.537V60.585H288.247C288.175 60.3272 288.078 60.1481 287.957 60.0479C287.842 59.9404 287.67 59.8867 287.441 59.8867H282.908ZM333.103 62.8193H339.838C340.068 62.8193 340.239 62.7692 340.354 62.6689C340.469 62.5687 340.565 62.3861 340.644 62.1211H340.934V65.6875H340.644C340.572 65.4297 340.476 65.2507 340.354 65.1504C340.239 65.0501 340.068 65 339.838 65H329.537V64.6992C329.787 64.6348 329.963 64.5417 330.063 64.4199C330.17 64.2982 330.224 64.1263 330.224 63.9043V54.0645C330.224 53.8425 330.174 53.6742 330.074 53.5596C329.974 53.445 329.795 53.3483 329.537 53.2695V52.9688H333.791V53.2695C333.533 53.3412 333.354 53.4378 333.253 53.5596C333.153 53.6742 333.103 53.8425 333.103 54.0645V62.8193ZM361.026 54.0645V63.9043C361.026 64.1263 361.076 64.2982 361.176 64.4199C361.277 64.5345 361.456 64.6312 361.713 64.71V65H357.46V64.6992C357.71 64.6348 357.886 64.5417 357.986 64.4199C358.093 64.2982 358.147 64.1263 358.147 63.9043V54.0645C358.147 53.8425 358.097 53.6742 357.997 53.5596C357.896 53.445 357.717 53.3483 357.46 53.2695V52.9688H361.713V53.2695C361.456 53.3412 361.277 53.4378 361.176 53.5596C361.076 53.6742 361.026 53.8425 361.026 54.0645ZM386.822 64.624L382.439 57.0938V63.9043C382.439 64.1263 382.489 64.2982 382.589 64.4199C382.69 64.5345 382.869 64.6312 383.126 64.71V65H379.13V64.6992C379.381 64.6348 379.556 64.5417 379.657 64.4199C379.764 64.2982 379.818 64.1263 379.818 63.9043V54.0645C379.818 53.8425 379.768 53.6742 379.667 53.5596C379.567 53.4378 379.388 53.3412 379.13 53.2695V52.9688H384.211V53.2695C383.875 53.377 383.707 53.5811 383.707 53.8818C383.707 54.1755 383.828 54.5335 384.072 54.9561L387.069 60.0156L390.087 55.0313C390.431 54.4655 390.603 54.0645 390.603 53.8281C390.603 53.5345 390.428 53.3483 390.077 53.2695V52.9688H395.029V53.2695C394.771 53.3412 394.592 53.4378 394.492 53.5596C394.391 53.6742 394.341 53.8425 394.341 54.0645V63.9043C394.341 64.1263 394.391 64.2982 394.492 64.4199C394.592 64.5417 394.771 64.6383 395.029 64.71V65H390.775V64.6992C391.026 64.6348 391.201 64.5417 391.301 64.4199C391.409 64.2982 391.462 64.1263 391.462 63.9043V57.0938L386.822 64.624ZM416.012 54.0645V63.9043C416.012 64.1263 416.062 64.2982 416.163 64.4199C416.263 64.5345 416.442 64.6312 416.7 64.71V65H412.446V64.6992C412.696 64.6348 412.872 64.5417 412.972 64.4199C413.08 64.2982 413.133 64.1263 413.133 63.9043V54.0645C413.133 53.8425 413.083 53.6742 412.983 53.5596C412.883 53.445 412.704 53.3483 412.446 53.2695V52.9688H416.7V53.2695C416.442 53.3412 416.263 53.4378 416.163 53.5596C416.062 53.6742 416.012 53.8425 416.012 54.0645ZM440.755 55.1494V63.9043C440.755 64.1263 440.805 64.2982 440.906 64.4199C441.006 64.5345 441.185 64.6312 441.443 64.71V65H437.189V64.6992C437.439 64.6348 437.615 64.5417 437.715 64.4199C437.823 64.2982 437.876 64.1263 437.876 63.9043V55.1494H434.331C434.102 55.1494 433.927 55.2031 433.805 55.3106C433.69 55.4108 433.597 55.5898 433.526 55.8477H433.236V52.2813H433.536C433.601 52.5319 433.69 52.7109 433.805 52.8184C433.927 52.9186 434.102 52.9688 434.331 52.9688H444.3C444.529 52.9688 444.701 52.9186 444.816 52.8184C444.938 52.7181 445.034 52.5391 445.106 52.2813H445.396V55.8477H445.106C445.034 55.5898 444.938 55.4108 444.816 55.3106C444.701 55.2031 444.529 55.1494 444.3 55.1494H440.755ZM465.649 59.8867V62.8193H473.286C473.508 62.8193 473.677 62.7692 473.791 62.6689C473.913 62.5687 474.01 62.3861 474.081 62.1211H474.382V65.6875H474.081C474.017 65.4368 473.924 65.2578 473.802 65.1504C473.68 65.0501 473.508 65 473.286 65H462.082V64.6992C462.333 64.6348 462.508 64.5417 462.609 64.4199C462.716 64.2982 462.77 64.1263 462.77 63.9043V54.0645C462.77 53.8425 462.72 53.6742 462.619 53.5596C462.519 53.445 462.34 53.3483 462.082 53.2695V52.9688H472.953C473.183 52.9688 473.354 52.9186 473.469 52.8184C473.591 52.7181 473.687 52.5391 473.759 52.2813H474.049V55.8477H473.759C473.687 55.5827 473.591 55.4001 473.469 55.2998C473.354 55.1995 473.183 55.1494 472.953 55.1494H465.649V57.792H470.182C470.404 57.792 470.572 57.7419 470.687 57.6416C470.809 57.5413 470.909 57.3623 470.988 57.1045H471.278V60.585H470.988C470.916 60.3272 470.819 60.1481 470.698 60.0479C470.583 59.9404 470.411 59.8867 470.182 59.8867H465.649ZM492.175 63.9043V54.0645C492.175 53.8425 492.125 53.6742 492.025 53.5596C491.924 53.445 491.745 53.3483 491.488 53.2695V52.9688H498.545C500.013 52.9688 501.17 53.1514 502.015 53.5166C503.204 54.0322 504.06 54.8844 504.582 56.0732C504.948 56.904 505.13 57.8744 505.13 58.9844C505.13 61.0397 504.518 62.5973 503.293 63.6572C502.742 64.1299 502.09 64.4736 501.338 64.6885C500.593 64.8962 499.662 65 498.545 65H491.488V64.6992C491.738 64.6348 491.914 64.5417 492.014 64.4199C492.121 64.2982 492.175 64.1263 492.175 63.9043ZM495.054 62.8193H498.126C499.537 62.8193 500.561 62.4971 501.199 61.8525C501.865 61.1794 502.198 60.2233 502.198 58.9844C502.198 57.7454 501.865 56.7894 501.199 56.1162C500.869 55.7796 500.461 55.5361 499.974 55.3857C499.487 55.2282 498.871 55.1494 498.126 55.1494H495.054V62.8193Z" fill="white"/>
<path d="M42.1793 76.0007L0 23.182V23.1818L21.171 2.01062H45.1617L42.3812 6.05643H22.847L5.41936 23.4844L42.2074 69.5522L57.1089 51.2209L60.2486 53.7732L42.1793 76.0007Z" fill="white"/>
<path d="M63.8486 49.8934L61.2057 46.7444L80.7265 23.3307L61.9537 6.05313H50.3203V2.00732H63.5323L86.2992 22.9611L63.8486 49.8934Z" fill="white"/>
<path d="M26.9576 53.8409L19.2578 44.1067L48.9636 2H63.5308L26.9576 53.8409Z" fill="white"/>
<path d="M72.9846 65.896H57.8109L30.3867 33.2128L43.3536 30.5823L72.9846 65.896Z" fill="white"/>
</svg>
