<svg width="302" height="65" viewBox="0 0 302 65" fill="none" xmlns="http://www.w3.org/2000/svg">
<path d="M100.202 32.8918L96.8741 35.6031V41.5453C96.8741 41.8808 96.9499 42.1406 97.1014 42.3246C97.2638 42.4978 97.5344 42.6331 97.9132 42.7305V43.25H90.9969V42.7305C91.3866 42.6222 91.6572 42.4815 91.8087 42.3083C91.9602 42.1352 92.036 41.8808 92.036 41.5453V22.7772C92.036 22.4525 91.9602 22.2036 91.8087 22.0304C91.6572 21.8572 91.3866 21.7165 90.9969 21.6083V21.0887H97.9132V21.6083C97.5236 21.7057 97.253 21.8464 97.1014 22.0304C96.9499 22.2036 96.8741 22.4525 96.8741 22.7772V30.5377L105.998 23.0857C106.421 22.7393 106.632 22.4633 106.632 22.2577C106.632 21.9438 106.318 21.7273 105.69 21.6083V21.0887H114.749V21.6083C114.37 21.684 114.1 21.7706 113.938 21.868C113.775 21.9655 113.304 22.3335 112.525 22.972L111.275 24.0111L103.742 30.0669L112.281 40.3439C113.072 41.2963 113.64 41.9133 113.986 42.1947C114.343 42.4653 114.787 42.6439 115.318 42.7305V43.25H106.664V42.7305C107.238 42.6114 107.525 42.4058 107.525 42.1135C107.525 41.962 107.265 41.5615 106.745 40.9121L100.202 32.8918ZM144.88 26.7224V36.35C144.88 38.5472 144.447 40.1599 143.581 41.1881C142.185 42.8225 139.555 43.6396 135.691 43.6396C133.104 43.6396 131.015 43.2446 129.424 42.4545C128.277 41.8808 127.492 41.0636 127.07 40.0029C126.68 39.0288 126.485 37.8112 126.485 36.35V26.7224C126.485 26.3869 126.41 26.1325 126.258 25.9594C126.107 25.7862 125.836 25.6401 125.446 25.521V25.0664H131.892V25.521C131.491 25.6292 131.215 25.7753 131.064 25.9594C130.912 26.1325 130.837 26.3869 130.837 26.7224V35.4733C130.837 36.4907 130.923 37.27 131.096 37.8112C131.28 38.3523 131.594 38.7961 132.038 39.1425C132.926 39.846 134.208 40.1978 135.886 40.1978C137.563 40.1978 138.846 39.846 139.734 39.1425C140.166 38.7961 140.47 38.3523 140.643 37.8112C140.816 37.27 140.902 36.4907 140.902 35.4733V26.7224C140.902 26.3869 140.827 26.1325 140.675 25.9594C140.534 25.7862 140.264 25.6401 139.863 25.521V25.0664H145.919V25.521C145.53 25.6292 145.259 25.7753 145.107 25.9594C144.956 26.1325 144.88 26.3869 144.88 26.7224ZM167.039 34.9537L164.458 37.0643V41.594C164.458 41.9295 164.534 42.1893 164.685 42.3733C164.837 42.5465 165.107 42.6926 165.497 42.8116V43.25H159.068V42.7954C159.447 42.698 159.712 42.5573 159.863 42.3733C160.026 42.1893 160.107 41.9295 160.107 41.594V26.7224C160.107 26.3869 160.031 26.1325 159.88 25.9594C159.728 25.7862 159.458 25.6401 159.068 25.521V25.0664H165.497V25.521C165.107 25.6292 164.837 25.7753 164.685 25.9594C164.534 26.1325 164.458 26.3869 164.458 26.7224V32.6808L171.293 27.2257C171.802 26.8252 172.056 26.4735 172.056 26.1704C172.056 25.8457 171.742 25.6292 171.115 25.521V25.0664H179.297V25.5048C178.886 25.5697 178.539 25.6942 178.258 25.8782C177.987 26.0622 177.306 26.6304 176.212 27.5829L170.075 32.4697L176.829 40.2302C177.695 41.2368 178.312 41.8916 178.68 42.1947C179.059 42.4978 179.492 42.7034 179.979 42.8116V43.25H172.024V42.8116C172.619 42.6709 172.917 42.4545 172.917 42.1622C172.917 42.054 172.879 41.9512 172.803 41.8538C172.738 41.7455 172.489 41.4425 172.056 40.9446L167.039 34.9537ZM206.928 38.7041H198.567L197.625 40.6848C197.398 41.1611 197.284 41.5345 197.284 41.8051C197.284 42.3246 197.63 42.6547 198.323 42.7954V43.25H191.634V42.7954C192.045 42.7305 192.348 42.606 192.543 42.422C192.749 42.238 192.987 41.8754 193.258 41.3342L199.898 27.8914C200.147 27.3826 200.271 26.9389 200.271 26.5601C200.271 26.1163 199.968 25.7699 199.362 25.521V25.0664H206.424V25.521C205.829 25.7591 205.532 26.1271 205.532 26.625C205.532 26.9822 205.667 27.4205 205.937 27.9401L212.821 40.9771C213.2 41.6914 213.498 42.1568 213.714 42.3733C213.931 42.5789 214.261 42.7251 214.704 42.8116V43.25H207.285V42.8116C207.988 42.6926 208.34 42.3625 208.34 41.8213C208.34 41.4858 208.205 41.0691 207.934 40.5712L206.928 38.7041ZM205.613 36.1552L202.642 30.3267L199.817 36.1552H205.613ZM227.577 41.594V26.7224C227.577 26.3869 227.501 26.1325 227.35 25.9594C227.198 25.7862 226.928 25.6401 226.538 25.521V25.0664H237.205C239.424 25.0664 241.172 25.3424 242.449 25.8944C244.245 26.6737 245.539 27.9617 246.329 29.7584C246.881 31.014 247.157 32.4806 247.157 34.1582C247.157 37.2646 246.232 39.6187 244.381 41.2206C243.547 41.9349 242.562 42.4545 241.426 42.7792C240.3 43.0931 238.893 43.25 237.205 43.25H226.538V42.7954C226.917 42.698 227.182 42.5573 227.334 42.3733C227.496 42.1893 227.577 41.9295 227.577 41.594ZM231.928 39.9542H236.572C238.704 39.9542 240.252 39.4672 241.215 38.493C242.221 37.4756 242.725 36.0307 242.725 34.1582C242.725 32.2857 242.221 30.8408 241.215 29.8234C240.717 29.3147 240.1 28.9467 239.364 28.7194C238.628 28.4812 237.697 28.3622 236.572 28.3622H231.928V39.9542ZM265.647 26.7224V41.594C265.647 41.9295 265.723 42.1893 265.874 42.3733C266.026 42.5465 266.297 42.6926 266.686 42.8116V43.25H260.257V42.7954C260.636 42.698 260.901 42.5573 261.053 42.3733C261.215 42.1893 261.296 41.9295 261.296 41.594V26.7224C261.296 26.3869 261.22 26.1325 261.069 25.9594C260.917 25.7862 260.647 25.6401 260.257 25.521V25.0664H266.686V25.521C266.297 25.6292 266.026 25.7753 265.874 25.9594C265.723 26.1325 265.647 26.3869 265.647 26.7224ZM293.992 38.7041H285.631L284.689 40.6848C284.462 41.1611 284.348 41.5345 284.348 41.8051C284.348 42.3246 284.695 42.6547 285.387 42.7954V43.25H278.698V42.7954C279.11 42.7305 279.413 42.606 279.608 42.422C279.813 42.238 280.051 41.8754 280.322 41.3342L286.962 27.8914C287.211 27.3826 287.336 26.9389 287.336 26.5601C287.336 26.1163 287.033 25.7699 286.426 25.521V25.0664H293.489V25.521C292.894 25.7591 292.596 26.1271 292.596 26.625C292.596 26.9822 292.731 27.4205 293.002 27.9401L299.886 40.9771C300.264 41.6914 300.562 42.1568 300.778 42.3733C300.995 42.5789 301.325 42.7251 301.769 42.8116V43.25H294.349V42.8116C295.053 42.6926 295.405 42.3625 295.405 41.8213C295.405 41.4858 295.269 41.0691 294.999 40.5712L293.992 38.7041ZM292.677 36.1552L289.706 30.3267L286.881 36.1552H292.677Z" fill="white"/>
<path d="M36.9069 64.7501L0 18.5337V18.5335L18.5246 0.00878906H39.5165L37.0835 3.54887H19.9912L4.74194 18.7984L36.9315 59.1077L49.9704 43.0678L52.7176 45.3011L36.9069 64.7501Z" fill="white"/>
<path d="M55.8667 41.9072L53.5541 39.1518L70.6348 18.6648L54.2086 3.54692H44.0294V0.00683594H55.59L75.5109 18.3414L55.8667 41.9072Z" fill="white"/>
<path d="M23.5879 45.3608L16.8506 36.8434L42.8432 0H55.5895L23.5879 45.3608Z" fill="white"/>
<path d="M63.8615 55.9087H50.5846L26.5884 27.311L37.9344 25.0093L63.8615 55.9087Z" fill="white"/>
</svg>
