<svg width="255" height="40" viewBox="0 0 255 40" fill="none" xmlns="http://www.w3.org/2000/svg">
<path d="M61.4014 11.0811L59.4995 12.6304V16.0259C59.4995 16.2176 59.5428 16.366 59.6294 16.4712C59.7222 16.5701 59.8768 16.6475 60.0933 16.7031V17H56.1411V16.7031C56.3638 16.6413 56.5184 16.5609 56.605 16.4619C56.6916 16.363 56.7349 16.2176 56.7349 16.0259V5.30127C56.7349 5.11572 56.6916 4.97347 56.605 4.87451C56.5184 4.77555 56.3638 4.69515 56.1411 4.6333V4.33643H60.0933V4.6333C59.8706 4.68896 59.716 4.76937 59.6294 4.87451C59.5428 4.97347 59.4995 5.11572 59.4995 5.30127V9.73584L64.7134 5.47754C64.9546 5.27962 65.0752 5.12191 65.0752 5.00439C65.0752 4.82503 64.8958 4.70133 64.5371 4.6333V4.33643H69.7139V4.6333C69.4974 4.6766 69.3428 4.72607 69.25 4.78174C69.1572 4.8374 68.8882 5.04769 68.4429 5.4126L67.7285 6.00635L63.4238 9.4668L68.3037 15.3394C68.7552 15.8836 69.0799 16.2362 69.2778 16.397C69.4819 16.5516 69.7355 16.6536 70.0386 16.7031V17H65.0938V16.7031C65.4215 16.6351 65.5854 16.5176 65.5854 16.3506C65.5854 16.264 65.437 16.0352 65.1401 15.6641L61.4014 11.0811ZM81.5165 7.55566V13.0571C81.5165 14.3127 81.2691 15.2342 80.7743 15.8218C79.9765 16.7557 78.4735 17.2227 76.2655 17.2227C74.7873 17.2227 73.5937 16.9969 72.6845 16.5454C72.0289 16.2176 71.5805 15.7507 71.3393 15.1445C71.1166 14.5879 71.0053 13.8921 71.0053 13.0571V7.55566C71.0053 7.36393 70.962 7.21859 70.8754 7.11963C70.7888 7.02067 70.6342 6.93717 70.4115 6.86914V6.60938H74.0946V6.86914C73.8658 6.93099 73.7081 7.01449 73.6215 7.11963C73.5349 7.21859 73.4916 7.36393 73.4916 7.55566V12.5562C73.4916 13.1375 73.5411 13.5828 73.64 13.8921C73.7452 14.2013 73.9245 14.4549 74.1781 14.6528C74.6853 15.0549 75.4182 15.2559 76.3769 15.2559C77.3355 15.2559 78.0684 15.0549 78.5756 14.6528C78.823 14.4549 78.9962 14.2013 79.0951 13.8921C79.1941 13.5828 79.2436 13.1375 79.2436 12.5562V7.55566C79.2436 7.36393 79.2003 7.21859 79.1137 7.11963C79.0333 7.02067 78.8786 6.93717 78.6498 6.86914V6.60938H82.1103V6.86914C81.8876 6.93099 81.733 7.01449 81.6464 7.11963C81.5598 7.21859 81.5165 7.36393 81.5165 7.55566ZM88.764 12.2593L87.2889 13.4653V16.0537C87.2889 16.2454 87.3322 16.3939 87.4188 16.499C87.5053 16.598 87.66 16.6815 87.8826 16.7495V17H84.2088V16.7402C84.4253 16.6846 84.5768 16.6042 84.6634 16.499C84.7562 16.3939 84.8025 16.2454 84.8025 16.0537V7.55566C84.8025 7.36393 84.7592 7.21859 84.6727 7.11963C84.5861 7.02067 84.4314 6.93717 84.2088 6.86914V6.60938H87.8826V6.86914C87.66 6.93099 87.5053 7.01449 87.4188 7.11963C87.3322 7.21859 87.2889 7.36393 87.2889 7.55566V10.9604L91.1946 7.84326C91.4853 7.61442 91.6307 7.41341 91.6307 7.24023C91.6307 7.05469 91.4513 6.93099 91.0926 6.86914V6.60938H95.7684V6.85986C95.5333 6.89697 95.3354 6.9681 95.1746 7.07324C95.02 7.17839 94.6303 7.50309 94.0057 8.04736L90.4988 10.8398L94.3582 15.2744C94.853 15.8496 95.2055 16.2238 95.4158 16.397C95.6323 16.5701 95.8797 16.6877 96.158 16.7495V17H91.6121V16.7495C91.9523 16.6691 92.1224 16.5454 92.1224 16.3784C92.1224 16.3166 92.1007 16.2578 92.0574 16.2021C92.0203 16.1403 91.8781 15.9671 91.6307 15.6826L88.764 12.2593ZM106.142 14.4023H101.364L100.826 15.5342C100.696 15.8063 100.632 16.0197 100.632 16.1743C100.632 16.4712 100.829 16.6598 101.225 16.7402V17H97.403V16.7402C97.6381 16.7031 97.8112 16.632 97.9226 16.5269C98.0401 16.4217 98.1761 16.2145 98.3308 15.9053L102.125 8.22363C102.267 7.93294 102.339 7.67936 102.339 7.46289C102.339 7.20931 102.165 7.01139 101.819 6.86914V6.60938H105.855V6.86914C105.515 7.00521 105.344 7.21549 105.344 7.5C105.344 7.7041 105.422 7.95459 105.576 8.25146L109.51 15.7012C109.726 16.1094 109.897 16.3753 110.02 16.499C110.144 16.6165 110.333 16.7 110.586 16.7495V17H106.346V16.7495C106.748 16.6815 106.949 16.4928 106.949 16.1836C106.949 15.9919 106.872 15.7537 106.717 15.4692L106.142 14.4023ZM105.391 12.9458L103.693 9.61523L102.079 12.9458H105.391ZM112.527 16.0537V7.55566C112.527 7.36393 112.484 7.21859 112.397 7.11963C112.31 7.02067 112.156 6.93717 111.933 6.86914V6.60938H118.028C119.296 6.60938 120.295 6.76709 121.025 7.08252C122.052 7.52783 122.791 8.26383 123.242 9.29053C123.558 10.008 123.715 10.846 123.715 11.8047C123.715 13.5798 123.187 14.925 122.129 15.8403C121.653 16.2485 121.09 16.5454 120.441 16.731C119.797 16.9103 118.993 17 118.028 17H111.933V16.7402C112.15 16.6846 112.301 16.6042 112.388 16.499C112.481 16.3939 112.527 16.2454 112.527 16.0537ZM115.013 15.1167H117.667C118.885 15.1167 119.769 14.8384 120.32 14.2817C120.895 13.7004 121.183 12.8747 121.183 11.8047C121.183 10.7347 120.895 9.90902 120.32 9.32764C120.035 9.03695 119.683 8.82666 119.262 8.69678C118.842 8.56071 118.31 8.49268 117.667 8.49268H115.013V15.1167ZM128.866 7.55566V16.0537C128.866 16.2454 128.91 16.3939 128.996 16.499C129.083 16.598 129.237 16.6815 129.46 16.7495V17H125.786V16.7402C126.003 16.6846 126.154 16.6042 126.241 16.499C126.333 16.3939 126.38 16.2454 126.38 16.0537V7.55566C126.38 7.36393 126.337 7.21859 126.25 7.11963C126.163 7.02067 126.009 6.93717 125.786 6.86914V6.60938H129.46V6.86914C129.237 6.93099 129.083 7.01449 128.996 7.11963C128.91 7.21859 128.866 7.36393 128.866 7.55566ZM139.648 14.4023H134.871L134.332 15.5342C134.203 15.8063 134.138 16.0197 134.138 16.1743C134.138 16.4712 134.336 16.6598 134.731 16.7402V17H130.909V16.7402C131.144 16.7031 131.317 16.632 131.429 16.5269C131.546 16.4217 131.682 16.2145 131.837 15.9053L135.631 8.22363C135.774 7.93294 135.845 7.67936 135.845 7.46289C135.845 7.20931 135.671 7.01139 135.325 6.86914V6.60938H139.361V6.86914C139.021 7.00521 138.85 7.21549 138.85 7.5C138.85 7.7041 138.928 7.95459 139.082 8.25146L143.016 15.7012C143.232 16.1094 143.403 16.3753 143.526 16.499C143.65 16.6165 143.839 16.7 144.092 16.7495V17H139.852V16.7495C140.254 16.6815 140.455 16.4928 140.455 16.1836C140.455 15.9919 140.378 15.7537 140.224 15.4692L139.648 14.4023ZM138.897 12.9458L137.199 9.61523L135.585 12.9458H138.897ZM157.149 13.3262L160.508 5.88574C160.65 5.57031 160.721 5.32601 160.721 5.15283C160.721 4.88688 160.517 4.7137 160.109 4.6333V4.33643H164.441V4.6333C164.169 4.67041 163.98 4.74772 163.875 4.86523C163.77 4.98275 163.588 5.32292 163.328 5.88574L158.94 15.3579C158.754 15.7599 158.661 16.0228 158.661 16.1465C158.661 16.4619 158.856 16.6475 159.246 16.7031V17H154.885V16.7031C155.275 16.6475 155.47 16.4588 155.47 16.1372C155.47 16.0197 155.377 15.7599 155.192 15.3579L150.803 5.88574C150.544 5.32292 150.361 4.98275 150.256 4.86523C150.151 4.74772 149.962 4.67041 149.69 4.6333V4.33643H154.19V4.6333C153.781 4.7137 153.577 4.88688 153.577 5.15283C153.577 5.32601 153.648 5.57031 153.791 5.88574L157.149 13.3262ZM168.525 12.584V15.1167H175.121C175.313 15.1167 175.458 15.0734 175.557 14.9868C175.662 14.9002 175.746 14.7425 175.808 14.5137H176.067V17.5938H175.808C175.752 17.3773 175.672 17.2227 175.567 17.1299C175.461 17.0433 175.313 17 175.121 17H165.445V16.7402C165.661 16.6846 165.813 16.6042 165.9 16.499C165.992 16.3939 166.039 16.2454 166.039 16.0537V7.55566C166.039 7.36393 165.995 7.21859 165.909 7.11963C165.822 7.02067 165.668 6.93717 165.445 6.86914V6.60938H174.834C175.032 6.60938 175.18 6.56608 175.279 6.47949C175.384 6.3929 175.468 6.23828 175.529 6.01562H175.78V9.0957H175.529C175.468 8.86686 175.384 8.70915 175.279 8.62256C175.18 8.53597 175.032 8.49268 174.834 8.49268H168.525V10.7749H172.44C172.632 10.7749 172.777 10.7316 172.876 10.645C172.981 10.5584 173.068 10.4038 173.136 10.1812H173.386V13.187H173.136C173.074 12.9644 172.99 12.8097 172.885 12.7231C172.786 12.6304 172.638 12.584 172.44 12.584H168.525ZM180.968 10.1533V16.0537C180.968 16.2454 181.011 16.3939 181.098 16.499C181.19 16.6042 181.345 16.6877 181.562 16.7495V17H178.11V16.7402C178.327 16.6846 178.478 16.6042 178.565 16.499C178.658 16.3939 178.704 16.2454 178.704 16.0537V7.55566C178.704 7.36393 178.661 7.21859 178.574 7.11963C178.488 7.02067 178.333 6.93717 178.11 6.86914V6.60938H182.1V6.86914C181.827 6.93717 181.691 7.05778 181.691 7.23096C181.691 7.37939 181.79 7.55257 181.988 7.75049L187.555 13.2798V7.55566C187.555 7.36393 187.511 7.21859 187.425 7.11963C187.338 7.01449 187.184 6.93099 186.961 6.86914V6.60938H190.412V6.86914C190.189 6.93099 190.035 7.01449 189.948 7.11963C189.862 7.21859 189.818 7.36393 189.818 7.55566V16.0537C189.818 16.2454 189.862 16.3939 189.948 16.499C190.035 16.598 190.189 16.6815 190.412 16.7495V17H186.692V16.7495C186.964 16.6938 187.1 16.5794 187.1 16.4062C187.1 16.3197 187.063 16.23 186.989 16.1372C186.915 16.0444 186.744 15.862 186.479 15.5898L180.968 10.1533ZM198.457 8.49268V16.0537C198.457 16.2454 198.501 16.3939 198.587 16.499C198.674 16.598 198.829 16.6815 199.051 16.7495V17H195.377V16.7402C195.594 16.6846 195.745 16.6042 195.832 16.499C195.925 16.3939 195.971 16.2454 195.971 16.0537V8.49268H192.91C192.712 8.49268 192.56 8.53906 192.455 8.63184C192.356 8.71842 192.276 8.87305 192.214 9.0957H191.963V6.01562H192.223C192.279 6.2321 192.356 6.38672 192.455 6.47949C192.56 6.56608 192.712 6.60938 192.91 6.60938H201.519C201.717 6.60938 201.865 6.56608 201.964 6.47949C202.069 6.3929 202.153 6.23828 202.215 6.01562H202.465V9.0957H202.215C202.153 8.87305 202.069 8.71842 201.964 8.63184C201.865 8.53906 201.717 8.49268 201.519 8.49268H198.457ZM214.917 7.55566V13.0571C214.917 14.3127 214.67 15.2342 214.175 15.8218C213.377 16.7557 211.874 17.2227 209.666 17.2227C208.188 17.2227 206.994 16.9969 206.085 16.5454C205.43 16.2176 204.981 15.7507 204.74 15.1445C204.517 14.5879 204.406 13.8921 204.406 13.0571V7.55566C204.406 7.36393 204.363 7.21859 204.276 7.11963C204.19 7.02067 204.035 6.93717 203.812 6.86914V6.60938H207.495V6.86914C207.267 6.93099 207.109 7.01449 207.022 7.11963C206.936 7.21859 206.892 7.36393 206.892 7.55566V12.5562C206.892 13.1375 206.942 13.5828 207.041 13.8921C207.146 14.2013 207.325 14.4549 207.579 14.6528C208.086 15.0549 208.819 15.2559 209.778 15.2559C210.736 15.2559 211.469 15.0549 211.976 14.6528C212.224 14.4549 212.397 14.2013 212.496 13.8921C212.595 13.5828 212.644 13.1375 212.644 12.5562V7.55566C212.644 7.36393 212.601 7.21859 212.514 7.11963C212.434 7.02067 212.279 6.93717 212.051 6.86914V6.60938H215.511V6.86914C215.288 6.93099 215.134 7.01449 215.047 7.11963C214.961 7.21859 214.917 7.36393 214.917 7.55566ZM220.69 12.7324V16.0537C220.69 16.2454 220.733 16.3939 220.82 16.499C220.906 16.598 221.061 16.6815 221.283 16.7495V17H217.61V16.7402C217.826 16.6846 217.978 16.6042 218.064 16.499C218.157 16.3939 218.203 16.2454 218.203 16.0537V7.55566C218.203 7.36393 218.16 7.21859 218.073 7.11963C217.987 7.02067 217.832 6.93717 217.61 6.86914V6.60938H224.419C225.304 6.60938 225.978 6.65576 226.442 6.74854C226.905 6.83512 227.32 6.99593 227.685 7.23096C228.433 7.71956 228.807 8.51742 228.807 9.62451C228.807 10.4657 228.575 11.1243 228.112 11.6006C227.654 12.0706 226.912 12.4108 225.885 12.6211L227.852 15.3672C228.21 15.8743 228.495 16.2207 228.705 16.4062C228.922 16.5856 229.166 16.7 229.438 16.7495V17H225.078V16.7495C225.399 16.6629 225.56 16.5238 225.56 16.332C225.56 16.196 225.461 15.9888 225.263 15.7104L223.185 12.7324H220.69ZM220.69 10.8491H224.438C225.007 10.8491 225.427 10.7873 225.699 10.6636C226.083 10.4966 226.275 10.1657 226.275 9.6709C226.275 9.23177 226.139 8.92562 225.866 8.75244C225.6 8.57926 225.124 8.49268 224.438 8.49268H220.69V10.8491ZM234.246 12.584V15.1167H240.842C241.034 15.1167 241.179 15.0734 241.278 14.9868C241.383 14.9002 241.467 14.7425 241.528 14.5137H241.788V17.5938H241.528C241.473 17.3773 241.392 17.2227 241.287 17.1299C241.182 17.0433 241.034 17 240.842 17H231.166V16.7402C231.382 16.6846 231.534 16.6042 231.62 16.499C231.713 16.3939 231.759 16.2454 231.759 16.0537V7.55566C231.759 7.36393 231.716 7.21859 231.629 7.11963C231.543 7.02067 231.388 6.93717 231.166 6.86914V6.60938H240.554C240.752 6.60938 240.901 6.56608 241 6.47949C241.105 6.3929 241.188 6.23828 241.25 6.01562H241.501V9.0957H241.25C241.188 8.86686 241.105 8.70915 241 8.62256C240.901 8.53597 240.752 8.49268 240.554 8.49268H234.246V10.7749H238.161C238.352 10.7749 238.498 10.7316 238.597 10.645C238.702 10.5584 238.789 10.4038 238.857 10.1812H239.107V13.187H238.857C238.795 12.9644 238.711 12.8097 238.606 12.7231C238.507 12.6304 238.359 12.584 238.161 12.584H234.246ZM253.823 7.54639L252.57 9.96777L252.348 9.84717C252.348 9.64307 252.283 9.48226 252.153 9.36475C251.8 9.04932 251.281 8.78955 250.594 8.58545C249.908 8.38135 249.212 8.2793 248.507 8.2793C247.907 8.2793 247.375 8.36279 246.911 8.52979C246.243 8.771 245.909 9.12044 245.909 9.57812C245.909 9.88118 246.07 10.0977 246.392 10.2275C246.713 10.3512 247.335 10.4502 248.256 10.5244L249.722 10.6357C251.002 10.7347 251.977 10.9821 252.645 11.3779C253.016 11.6006 253.322 11.8975 253.563 12.2686C253.866 12.7324 254.018 13.255 254.018 13.8364C254.018 14.894 253.541 15.729 252.589 16.3413C251.68 16.9289 250.449 17.2227 248.896 17.2227C247.332 17.2227 245.819 16.8918 244.36 16.23C244.261 16.1867 244.177 16.165 244.109 16.165C243.986 16.165 243.871 16.2393 243.766 16.3877L243.534 16.2949L244.601 13.7529L244.833 13.8457C244.833 13.8828 244.833 13.9076 244.833 13.9199C244.833 14.0807 244.895 14.2168 245.019 14.3281C245.328 14.6003 245.863 14.8384 246.624 15.0425C247.384 15.2404 248.136 15.3394 248.878 15.3394C249.534 15.3394 250.121 15.2528 250.641 15.0796C251.284 14.8693 251.605 14.5291 251.605 14.0591C251.605 13.6818 251.383 13.4189 250.938 13.2705C250.641 13.1715 250.106 13.0881 249.333 13.02L247.876 12.8994C247.09 12.8376 246.491 12.7572 246.076 12.6582C245.662 12.5592 245.3 12.4139 244.991 12.2222C244.595 11.9748 244.286 11.6377 244.063 11.2109C243.84 10.7842 243.729 10.3172 243.729 9.81006C243.729 8.67204 244.218 7.80306 245.195 7.20312C246.085 6.65885 247.186 6.38672 248.498 6.38672C249.209 6.38672 249.871 6.46712 250.483 6.62793C251.101 6.78255 251.837 7.05778 252.691 7.45361C252.944 7.57113 253.121 7.62988 253.22 7.62988C253.319 7.62988 253.445 7.56185 253.6 7.42578L253.823 7.54639Z" fill="white"/>
<path d="M57.3096 30.5293V32.4521C57.3096 32.5632 57.3346 32.6491 57.3848 32.71C57.4349 32.7673 57.5244 32.8156 57.6533 32.855V33H55.5264V32.8496C55.6517 32.8174 55.7394 32.7708 55.7896 32.71C55.8433 32.6491 55.8701 32.5632 55.8701 32.4521V27.5322C55.8701 27.4212 55.8451 27.3371 55.7949 27.2798C55.7448 27.2225 55.6553 27.1742 55.5264 27.1348V26.9844H59.4473C60.2243 26.9844 60.8097 27.1007 61.2036 27.3335C61.4328 27.4696 61.6118 27.6629 61.7407 27.9136C61.8696 28.1642 61.9341 28.4453 61.9341 28.7568C61.9341 29.3548 61.73 29.8006 61.3218 30.0942C60.9136 30.3843 60.2887 30.5293 59.4473 30.5293H57.3096ZM57.3096 29.439H59.3613C59.7373 29.439 59.9987 29.4032 60.1455 29.3315C60.3604 29.2277 60.4678 29.0361 60.4678 28.7568C60.4678 28.4775 60.3604 28.286 60.1455 28.1821C60.0023 28.1105 59.7409 28.0747 59.3613 28.0747H57.3096V29.439ZM72.1304 30.5293V32.4521C72.1304 32.5632 72.1554 32.6491 72.2055 32.71C72.2557 32.7673 72.3452 32.8156 72.4741 32.855V33H70.3471V32.8496C70.4725 32.8174 70.5602 32.7708 70.6103 32.71C70.664 32.6491 70.6909 32.5632 70.6909 32.4521V27.5322C70.6909 27.4212 70.6658 27.3371 70.6157 27.2798C70.5656 27.2225 70.4761 27.1742 70.3471 27.1348V26.9844H74.2895C74.8016 26.9844 75.1919 27.0112 75.4604 27.0649C75.729 27.1151 75.9689 27.2082 76.1802 27.3442C76.6134 27.6271 76.8301 28.089 76.8301 28.73C76.8301 29.217 76.6958 29.5983 76.4272 29.874C76.1623 30.1462 75.7326 30.3431 75.1382 30.4648L76.2768 32.0547C76.4845 32.3483 76.6492 32.5488 76.771 32.6562C76.8963 32.7601 77.0377 32.8263 77.1953 32.855V33H74.6709V32.855C74.8571 32.8049 74.9502 32.7243 74.9502 32.6133C74.9502 32.5345 74.8929 32.4146 74.7783 32.2534L73.5752 30.5293H72.1304ZM72.1304 29.439H74.3003C74.6297 29.439 74.8732 29.4032 75.0307 29.3315C75.2527 29.2349 75.3638 29.0433 75.3638 28.7568C75.3638 28.5026 75.285 28.3254 75.1274 28.2251C74.9735 28.1248 74.6977 28.0747 74.3003 28.0747H72.1304V29.439ZM87.3486 27.5322V32.4521C87.3486 32.5632 87.3737 32.6491 87.4238 32.71C87.4739 32.7673 87.5634 32.8156 87.6923 32.855V33H85.5654V32.8496C85.6907 32.8174 85.7784 32.7708 85.8286 32.71C85.8823 32.6491 85.9091 32.5632 85.9091 32.4521V27.5322C85.9091 27.4212 85.8841 27.3371 85.8339 27.2798C85.7838 27.2225 85.6943 27.1742 85.5654 27.1348V26.9844H87.6923V27.1348C87.5634 27.1706 87.4739 27.2189 87.4238 27.2798C87.3737 27.3371 87.3486 27.4212 87.3486 27.5322ZM99.4946 31.0986L100.95 27.9136C101.036 27.731 101.079 27.5949 101.079 27.5054C101.079 27.3263 100.963 27.2028 100.73 27.1348V26.9844H103.056V27.1348C102.912 27.1813 102.809 27.2386 102.744 27.3066C102.68 27.3747 102.597 27.5143 102.497 27.7256L100.392 32.1567C100.316 32.3143 100.279 32.4342 100.279 32.5166C100.279 32.6956 100.397 32.8084 100.633 32.855V33H98.2753V32.855C98.5081 32.8084 98.6245 32.6956 98.6245 32.5166C98.6245 32.4342 98.5869 32.3143 98.5117 32.1567L96.4062 27.7256C96.3059 27.5107 96.2236 27.3711 96.1591 27.3066C96.0983 27.2386 95.9944 27.1813 95.8476 27.1348V26.9844H98.2592V27.1348C98.0301 27.2064 97.9155 27.3299 97.9155 27.5054C97.9155 27.5841 97.9602 27.7202 98.0497 27.9136L99.4946 31.0986ZM114.965 31.4961H112.199L111.888 32.1514C111.812 32.3089 111.775 32.4325 111.775 32.522C111.775 32.6938 111.889 32.8031 112.119 32.8496V33H109.906V32.8496C110.042 32.8281 110.142 32.7869 110.206 32.7261C110.275 32.6652 110.353 32.5452 110.443 32.3662L112.64 27.9189C112.722 27.7507 112.763 27.6038 112.763 27.4785C112.763 27.3317 112.663 27.2171 112.462 27.1348V26.9844H114.799V27.1348C114.602 27.2135 114.503 27.3353 114.503 27.5C114.503 27.6182 114.548 27.7632 114.638 27.9351L116.915 32.248C117.04 32.4844 117.139 32.6383 117.21 32.71C117.282 32.778 117.391 32.8263 117.538 32.855V33H115.083V32.855C115.316 32.8156 115.433 32.7064 115.433 32.5273C115.433 32.4163 115.388 32.2785 115.298 32.1138L114.965 31.4961ZM114.53 30.6528L113.547 28.7246L112.613 30.6528H114.53ZM129.007 28.0747V32.4521C129.007 32.5632 129.032 32.6491 129.082 32.71C129.133 32.7673 129.222 32.8156 129.351 32.855V33H127.224V32.8496C127.349 32.8174 127.437 32.7708 127.487 32.71C127.541 32.6491 127.568 32.5632 127.568 32.4521V28.0747H125.795C125.681 28.0747 125.593 28.1016 125.532 28.1553C125.475 28.2054 125.428 28.2949 125.392 28.4238H125.247V26.6406H125.398C125.43 26.766 125.475 26.8555 125.532 26.9092C125.593 26.9593 125.681 26.9844 125.795 26.9844H130.78C130.894 26.9844 130.98 26.9593 131.037 26.9092C131.098 26.859 131.147 26.7695 131.183 26.6406H131.328V28.4238H131.183C131.147 28.2949 131.098 28.2054 131.037 28.1553C130.98 28.1016 130.894 28.0747 130.78 28.0747H129.007ZM141.454 30.4434V31.9097H145.273C145.384 31.9097 145.468 31.8846 145.525 31.8345C145.586 31.7843 145.634 31.693 145.67 31.5605H145.821V33.3438H145.67C145.638 33.2184 145.592 33.1289 145.531 33.0752C145.47 33.0251 145.384 33 145.273 33H139.671V32.8496C139.796 32.8174 139.884 32.7708 139.934 32.71C139.988 32.6491 140.015 32.5632 140.015 32.4521V27.5322C140.015 27.4212 139.989 27.3371 139.939 27.2798C139.889 27.2225 139.8 27.1742 139.671 27.1348V26.9844H145.106C145.221 26.9844 145.307 26.9593 145.364 26.9092C145.425 26.859 145.473 26.7695 145.509 26.6406H145.654V28.4238H145.509C145.473 28.2913 145.425 28.2 145.364 28.1499C145.307 28.0998 145.221 28.0747 145.106 28.0747H141.454V29.396H143.721C143.832 29.396 143.916 29.3709 143.973 29.3208C144.034 29.2707 144.084 29.1812 144.123 29.0522H144.268V30.7925H144.123C144.088 30.6636 144.039 30.5741 143.978 30.5239C143.921 30.4702 143.835 30.4434 143.721 30.4434H141.454ZM166.552 31.9097H169.919C170.034 31.9097 170.12 31.8846 170.177 31.8345C170.234 31.7843 170.283 31.693 170.322 31.5605H170.467V33.3438H170.322C170.286 33.2148 170.238 33.1253 170.177 33.0752C170.12 33.0251 170.034 33 169.919 33H164.768V32.8496C164.894 32.8174 164.981 32.7708 165.032 32.71C165.085 32.6491 165.112 32.5632 165.112 32.4521V27.5322C165.112 27.4212 165.087 27.3371 165.037 27.2798C164.987 27.2225 164.897 27.1742 164.768 27.1348V26.9844H166.895V27.1348C166.766 27.1706 166.677 27.2189 166.627 27.2798C166.577 27.3371 166.552 27.4212 166.552 27.5322V31.9097ZM180.513 27.5322V32.4521C180.513 32.5632 180.538 32.6491 180.588 32.71C180.638 32.7673 180.728 32.8156 180.857 32.855V33H178.73V32.8496C178.855 32.8174 178.943 32.7708 178.993 32.71C179.047 32.6491 179.074 32.5632 179.074 32.4521V27.5322C179.074 27.4212 179.048 27.3371 178.998 27.2798C178.948 27.2225 178.859 27.1742 178.73 27.1348V26.9844H180.857V27.1348C180.728 27.1706 180.638 27.2189 180.588 27.2798C180.538 27.3371 180.513 27.4212 180.513 27.5322ZM193.411 32.812L191.22 29.0469V32.4521C191.22 32.5632 191.245 32.6491 191.295 32.71C191.345 32.7673 191.434 32.8156 191.563 32.855V33H189.565V32.8496C189.691 32.8174 189.778 32.7708 189.828 32.71C189.882 32.6491 189.909 32.5632 189.909 32.4521V27.5322C189.909 27.4212 189.884 27.3371 189.834 27.2798C189.784 27.2189 189.694 27.1706 189.565 27.1348V26.9844H192.106V27.1348C191.937 27.1885 191.853 27.2905 191.853 27.4409C191.853 27.5877 191.914 27.7668 192.036 27.978L193.534 30.5078L195.044 28.0156C195.216 27.7327 195.302 27.5322 195.302 27.4141C195.302 27.2673 195.214 27.1742 195.038 27.1348V26.9844H197.514V27.1348C197.386 27.1706 197.296 27.2189 197.246 27.2798C197.196 27.3371 197.171 27.4212 197.171 27.5322V32.4521C197.171 32.5632 197.196 32.6491 197.246 32.71C197.296 32.7708 197.386 32.8192 197.514 32.855V33H195.387V32.8496C195.513 32.8174 195.601 32.7708 195.651 32.71C195.704 32.6491 195.731 32.5632 195.731 32.4521V29.0469L193.411 32.812ZM208.006 27.5322V32.4521C208.006 32.5632 208.031 32.6491 208.081 32.71C208.131 32.7673 208.221 32.8156 208.35 32.855V33H206.223V32.8496C206.348 32.8174 206.436 32.7708 206.486 32.71C206.54 32.6491 206.567 32.5632 206.567 32.4521V27.5322C206.567 27.4212 206.542 27.3371 206.491 27.2798C206.441 27.2225 206.352 27.1742 206.223 27.1348V26.9844H208.35V27.1348C208.221 27.1706 208.131 27.2189 208.081 27.2798C208.031 27.3371 208.006 27.4212 208.006 27.5322ZM220.378 28.0747V32.4521C220.378 32.5632 220.403 32.6491 220.453 32.71C220.503 32.7673 220.593 32.8156 220.721 32.855V33H218.594V32.8496C218.72 32.8174 218.808 32.7708 218.858 32.71C218.911 32.6491 218.938 32.5632 218.938 32.4521V28.0747H217.166C217.051 28.0747 216.963 28.1016 216.903 28.1553C216.845 28.2054 216.799 28.2949 216.763 28.4238H216.618V26.6406H216.768C216.801 26.766 216.845 26.8555 216.903 26.9092C216.963 26.9593 217.051 26.9844 217.166 26.9844H222.15C222.265 26.9844 222.351 26.9593 222.408 26.9092C222.469 26.859 222.517 26.7695 222.553 26.6406H222.698V28.4238H222.553C222.517 28.2949 222.469 28.2054 222.408 28.1553C222.351 28.1016 222.265 28.0747 222.15 28.0747H220.378ZM232.824 30.4434V31.9097H236.643C236.754 31.9097 236.838 31.8846 236.896 31.8345C236.957 31.7843 237.005 31.693 237.041 31.5605H237.191V33.3438H237.041C237.009 33.2184 236.962 33.1289 236.901 33.0752C236.84 33.0251 236.754 33 236.643 33H231.041V32.8496C231.167 32.8174 231.254 32.7708 231.304 32.71C231.358 32.6491 231.385 32.5632 231.385 32.4521V27.5322C231.385 27.4212 231.36 27.3371 231.31 27.2798C231.26 27.2225 231.17 27.1742 231.041 27.1348V26.9844H236.477C236.591 26.9844 236.677 26.9593 236.735 26.9092C236.795 26.859 236.844 26.7695 236.88 26.6406H237.025V28.4238H236.88C236.844 28.2913 236.795 28.2 236.735 28.1499C236.677 28.0998 236.591 28.0747 236.477 28.0747H232.824V29.396H235.091C235.202 29.396 235.286 29.3709 235.343 29.3208C235.404 29.2707 235.454 29.1812 235.494 29.0522H235.639V30.7925H235.494C235.458 30.6636 235.41 30.5741 235.349 30.5239C235.292 30.4702 235.206 30.4434 235.091 30.4434H232.824ZM246.088 32.4521V27.5322C246.088 27.4212 246.063 27.3371 246.012 27.2798C245.962 27.2225 245.873 27.1742 245.744 27.1348V26.9844H249.273C250.007 26.9844 250.585 27.0757 251.008 27.2583C251.602 27.5161 252.03 27.9422 252.291 28.5366C252.474 28.952 252.565 29.4372 252.565 29.9922C252.565 31.0199 252.259 31.7987 251.647 32.3286C251.371 32.5649 251.045 32.7368 250.669 32.8442C250.297 32.9481 249.831 33 249.273 33H245.744V32.8496C245.869 32.8174 245.957 32.7708 246.007 32.71C246.061 32.6491 246.088 32.5632 246.088 32.4521ZM247.527 31.9097H249.063C249.769 31.9097 250.281 31.7485 250.599 31.4263C250.932 31.0897 251.099 30.6117 251.099 29.9922C251.099 29.3727 250.932 28.8947 250.599 28.5581C250.435 28.3898 250.231 28.2681 249.987 28.1929C249.744 28.1141 249.436 28.0747 249.063 28.0747H247.527V31.9097Z" fill="white"/>
<path d="M21.0896 37.9999L0 11.5906V11.5905L10.5855 1.00488H22.5809L21.1906 3.02779H11.4235L2.70968 11.7418L21.1037 34.7757L28.5545 25.61L30.1243 26.8862L21.0896 37.9999Z" fill="white"/>
<path d="M31.9238 24.947L30.6023 23.3725L40.3628 11.6656L30.9764 3.02681H25.1597V1.00391H31.7657L43.1491 11.4808L31.9238 24.947Z" fill="white"/>
<path d="M13.4788 26.9205L9.62891 22.0534L24.4818 1H31.7654L13.4788 26.9205Z" fill="white"/>
<path d="M36.4923 32.9479H28.9055L15.1934 16.6063L21.6768 15.291L36.4923 32.9479Z" fill="white"/>
</svg>
