<svg width="21" height="20" viewBox="0 0 21 20" fill="none" xmlns="http://www.w3.org/2000/svg">
<path fill-rule="evenodd" clip-rule="evenodd" d="M18.5725 5.50649C18.2086 5.24558 17.684 5.30509 17.3987 5.63695L11.4962 12.509L10.9908 11.9376L9.93248 13.1712L10.8528 14.2141C11.0126 14.3941 11.2519 14.4986 11.5054 14.4986H11.5112C11.7656 14.4971 12.0065 14.3896 12.1638 14.2057L18.7156 6.57682C19.0009 6.24573 18.9373 5.76587 18.5725 5.50649ZM14.3891 5.50684C14.026 5.24593 13.5006 5.30544 13.2153 5.63729L7.31275 12.5094L4.48574 9.30755C4.19458 8.98027 3.66917 8.92687 3.30941 9.19159C2.94882 9.45631 2.89277 9.93693 3.18141 10.2642L6.66938 14.2144C6.82917 14.3945 7.06845 14.499 7.32196 14.499H7.32781C7.58215 14.4975 7.82311 14.3899 7.9804 14.206L14.5322 6.57717C14.8174 6.24608 14.7539 5.76622 14.3891 5.50684ZM8.83699 9.49761L7.77696 10.7304L7.36533 10.2643C7.07585 9.93627 7.13191 9.45565 7.4925 9.19093C7.8531 8.92697 8.37935 8.97961 8.66883 9.30765L8.83699 9.49761Z" fill="black"/>
<mask id="mask0" mask-type="alpha" maskUnits="userSpaceOnUse" x="2" y="5" width="17" height="10">
<path fill-rule="evenodd" clip-rule="evenodd" d="M18.5725 5.50649C18.2086 5.24558 17.684 5.30509 17.3987 5.63695L11.4962 12.509L10.9908 11.9376L9.93248 13.1712L10.8528 14.2141C11.0126 14.3941 11.2519 14.4986 11.5054 14.4986H11.5112C11.7656 14.4971 12.0065 14.3896 12.1638 14.2057L18.7156 6.57682C19.0009 6.24573 18.9373 5.76587 18.5725 5.50649ZM14.3891 5.50684C14.026 5.24593 13.5006 5.30544 13.2153 5.63729L7.31275 12.5094L4.48574 9.30755C4.19458 8.98027 3.66917 8.92687 3.30941 9.19159C2.94882 9.45631 2.89277 9.93693 3.18141 10.2642L6.66938 14.2144C6.82917 14.3945 7.06845 14.499 7.32196 14.499H7.32781C7.58215 14.4975 7.82311 14.3899 7.9804 14.206L14.5322 6.57717C14.8174 6.24608 14.7539 5.76622 14.3891 5.50684ZM8.83699 9.49761L7.77696 10.7304L7.36533 10.2643C7.07585 9.93627 7.13191 9.45565 7.4925 9.19093C7.8531 8.92697 8.37935 8.97961 8.66883 9.30765L8.83699 9.49761Z" fill="white"/>
</mask>
<g mask="url(#mask0)">
<rect x="0.487305" y="0.767578" width="20.0794" height="18.3093" fill="#B7BDCB"/>
</g>
</svg>
