<svg width="30" height="30" viewBox="0 0 30 30" fill="none" xmlns="http://www.w3.org/2000/svg">
<circle cx="15" cy="15" r="14.8185" stroke="#B3B3B2" stroke-width="0.363015"/>
<path d="M14.9703 28.1896C22.2439 28.1896 28.1403 22.2932 28.1403 15.0196C28.1403 7.74602 22.2439 1.84961 14.9703 1.84961C7.6967 1.84961 1.80029 7.74602 1.80029 15.0196C1.80029 22.2932 7.6967 28.1896 14.9703 28.1896Z" fill="#F0F0F0"/>
<path d="M28.1392 15.0185C28.1392 9.79707 25.1006 5.28552 20.6953 3.15527V26.8816C25.1006 24.7514 28.1392 20.2398 28.1392 15.0185Z" fill="#D80027"/>
<path d="M1.7998 15.0185C1.7998 20.2399 4.83842 24.7514 9.24374 26.8816V3.15527C4.83842 5.28552 1.7998 9.79707 1.7998 15.0185Z" fill="#D80027"/>
<path d="M17.2605 16.7363L19.5508 15.5911L18.4057 15.0185V13.8733L16.1152 15.0185L17.2605 12.7281H16.1152L14.97 11.0103L13.8248 12.7281H12.6796L13.8248 15.0185L11.5343 13.8733V15.0185L10.3892 15.5911L12.6796 16.7363L12.107 17.8815H14.3974V19.5994H15.5426V17.8815H17.833L17.2605 16.7363Z" fill="#D80027"/>
</svg>
