<svg width="30" height="27" viewBox="0 0 30 27" fill="none" xmlns="http://www.w3.org/2000/svg">
<path d="M20.6592 24C20.4989 24 20.3347 23.98 20.1724 23.937L5.41228 19.9842C4.40046 19.7055 3.79718 18.6574 4.06255 17.6456L5.92487 10.7041C5.99359 10.4493 6.25514 10.3013 6.50905 10.3662C6.76391 10.434 6.91473 10.6965 6.84696 10.9504L4.98559 17.89C4.85291 18.3959 5.15646 18.9228 5.66332 19.0631L20.4177 23.014C20.9246 23.1476 21.4477 22.846 21.5794 22.342L22.3249 19.5795C22.3936 19.3246 22.6552 19.1729 22.9101 19.2425C23.1649 19.3113 23.3148 19.5738 23.247 19.8277L22.5025 22.5863C22.2781 23.4359 21.505 24 20.6592 24V24Z" fill="black"/>
<path d="M24.9995 18.2727H9.72681C8.67395 18.2727 7.81772 17.4165 7.81772 16.3636V4.90909C7.81772 3.85623 8.67395 3 9.72681 3H24.9995C26.0524 3 26.9086 3.85623 26.9086 4.90909V16.3636C26.9086 17.4165 26.0524 18.2727 24.9995 18.2727ZM9.72681 3.95455C9.20085 3.95455 8.77226 4.38314 8.77226 4.90909V16.3636C8.77226 16.8896 9.20085 17.3182 9.72681 17.3182H24.9995C25.5255 17.3182 25.9541 16.8896 25.9541 16.3636V4.90909C25.9541 4.38314 25.5255 3.95455 24.9995 3.95455H9.72681Z" fill="black"/>
<path d="M12.5904 9.68182C11.5376 9.68182 10.6814 8.82559 10.6814 7.77273C10.6814 6.71986 11.5376 5.86364 12.5904 5.86364C13.6433 5.86364 14.4995 6.71986 14.4995 7.77273C14.4995 8.82559 13.6433 9.68182 12.5904 9.68182ZM12.5904 6.81818C12.0645 6.81818 11.6359 7.24677 11.6359 7.77273C11.6359 8.29868 12.0645 8.72727 12.5904 8.72727C13.1164 8.72727 13.545 8.29868 13.545 7.77273C13.545 7.24677 13.1164 6.81818 12.5904 6.81818Z" fill="black"/>
<path d="M8.36179 17.2514C8.23961 17.2514 8.11743 17.2046 8.02388 17.112C7.83774 16.9259 7.83774 16.6233 8.02388 16.4371L12.5322 11.9288C13.0725 11.3885 14.0165 11.3885 14.5568 11.9288L15.8989 13.2709L19.614 8.81318C19.8841 8.48959 20.2812 8.30155 20.7041 8.29773H20.7146C21.1327 8.29773 21.5288 8.47909 21.8018 8.79695L26.7941 14.6216C26.9659 14.8211 26.943 15.1227 26.7425 15.2945C26.543 15.4664 26.2424 15.4444 26.0696 15.243L21.0773 9.41836C20.9847 9.31145 20.8568 9.25227 20.7146 9.25227C20.6153 9.24368 20.4406 9.31241 20.348 9.42409L16.2979 14.2837C16.212 14.3868 16.0869 14.4488 15.9523 14.4545C15.8168 14.4641 15.6879 14.4106 15.5934 14.3152L13.8819 12.6037C13.7015 12.4242 13.3875 12.4242 13.2071 12.6037L8.69874 17.112C8.60615 17.2046 8.48397 17.2514 8.36179 17.2514V17.2514Z" fill="black"/>
</svg>
