<svg width="30" height="30" viewBox="0 0 30 30" fill="none" xmlns="http://www.w3.org/2000/svg">
<circle cx="15" cy="15" r="14.9207" stroke="#B3B3B2" stroke-width="0.158537"/>
<path d="M15.0003 28.1677C22.2738 28.1677 28.1701 22.2714 28.1701 14.9979C28.1701 7.72443 22.2738 1.82812 15.0003 1.82812C7.72687 1.82812 1.83057 7.72443 1.83057 14.9979C1.83057 22.2714 7.72687 28.1677 15.0003 28.1677Z" fill="#27273D"/>
<path d="M27.3542 10.426H2.646C4.50571 5.40606 9.33428 1.82861 15.0004 1.82861C20.6665 1.82861 25.495 5.40606 27.3542 10.426Z" fill="#E88032"/>
<path d="M27.3547 19.5705H2.64642C1.55666 16.6198 1.55666 13.3769 2.64642 10.4263H27.3547C27.538 10.9208 27.691 11.4261 27.813 11.9392C28.4141 14.4727 28.2547 17.1272 27.3547 19.5705Z" fill="white"/>
<path d="M15.0004 28.1682C12.3095 28.1683 9.6831 27.3444 7.47443 25.8073C5.26577 24.2702 3.58075 22.0936 2.646 19.5703H27.3542C27.1629 20.0884 26.9386 20.5938 26.6829 21.0833C25.5698 23.2198 23.8921 25.01 21.8323 26.2592C19.7724 27.5084 17.4094 28.1687 15.0004 28.1682Z" fill="#00B564"/>
<path d="M15.0009 19.1068C17.2699 19.1068 19.1093 17.2675 19.1093 14.9985C19.1093 12.7295 17.2699 10.8901 15.0009 10.8901C12.7319 10.8901 10.8926 12.7295 10.8926 14.9985C10.8926 17.2675 12.7319 19.1068 15.0009 19.1068Z" fill="#3E436D"/>
<path d="M18.2346 14.6644L18.0427 14.6217C18.0427 14.6063 18.0391 14.5909 18.0371 14.576L18.211 14.4844C18.2404 14.4692 18.2638 14.4444 18.2772 14.414C18.2906 14.3837 18.2932 14.3497 18.2845 14.3177L18.1852 13.9463C18.1766 13.9142 18.1574 13.8861 18.1306 13.8665C18.1039 13.8468 18.0713 13.8369 18.0381 13.8382L17.8421 13.8465C17.8365 13.8321 17.8308 13.8177 17.8246 13.8033L17.9687 13.671C17.9932 13.6487 18.0093 13.6187 18.0143 13.5859C18.0194 13.5532 18.0131 13.5197 17.9964 13.491L17.804 13.1576C17.7875 13.1289 17.7617 13.1067 17.7308 13.0948C17.6999 13.0828 17.6658 13.0817 17.6343 13.0918L17.447 13.1504C17.4378 13.1381 17.428 13.1263 17.4187 13.1144L17.5242 12.9483C17.542 12.9202 17.5497 12.8869 17.546 12.8539C17.5424 12.8209 17.5276 12.7901 17.5041 12.7667L17.2325 12.495C17.209 12.4715 17.1782 12.4568 17.1452 12.4531C17.1122 12.4495 17.0789 12.4572 17.0509 12.475L16.8847 12.5809L16.8487 12.5526L16.9074 12.3654C16.9174 12.3338 16.9164 12.2998 16.9044 12.2689C16.8924 12.238 16.8702 12.2121 16.8415 12.1956L16.5082 12.0032C16.4795 11.9866 16.446 11.9803 16.4132 11.9853C16.3805 11.9904 16.3504 12.0065 16.3281 12.031L16.1959 12.175L16.1527 12.1576L16.1609 11.9616C16.1623 11.9284 16.1523 11.8958 16.1327 11.869C16.1131 11.8423 16.0849 11.823 16.0529 11.8144L15.6814 11.7151C15.6495 11.7066 15.6156 11.7093 15.5854 11.7227C15.5552 11.7361 15.5305 11.7593 15.5153 11.7887L15.4237 11.9636L15.3779 11.9579L15.3352 11.7661C15.3282 11.7337 15.3102 11.7047 15.2844 11.6839C15.2586 11.6631 15.2264 11.6518 15.1932 11.6519H14.8084C14.7753 11.6518 14.7431 11.6631 14.7173 11.6839C14.6914 11.7047 14.6735 11.7337 14.6664 11.7661L14.6237 11.9579L14.578 11.9636L14.4864 11.7887C14.4712 11.7592 14.4464 11.7359 14.416 11.7225C14.3857 11.7091 14.3517 11.7065 14.3197 11.7151L13.9483 11.8144C13.9162 11.823 13.8881 11.8423 13.8685 11.869C13.8488 11.8958 13.8389 11.9284 13.8402 11.9616L13.8485 12.1576L13.8053 12.175L13.6731 12.031C13.6507 12.0065 13.6207 11.9904 13.5879 11.9853C13.5552 11.9803 13.5217 11.9866 13.493 12.0032L13.1596 12.1956C13.1309 12.2121 13.1087 12.238 13.0968 12.2689C13.0848 12.2998 13.0837 12.3338 13.0938 12.3654L13.1524 12.5526L13.1164 12.5809L12.9508 12.4781C12.9227 12.4603 12.8895 12.4525 12.8565 12.4562C12.8234 12.4598 12.7927 12.4746 12.7692 12.4981L12.4975 12.7697C12.4741 12.7932 12.4593 12.824 12.4556 12.857C12.452 12.89 12.4597 12.9233 12.4775 12.9513L12.5829 13.1175C12.5737 13.1293 12.5639 13.1412 12.5547 13.1535L12.3674 13.0949C12.3358 13.0848 12.3018 13.0859 12.2709 13.0978C12.24 13.1098 12.2142 13.132 12.1976 13.1607L12.0052 13.4941C11.9886 13.5227 11.9823 13.5563 11.9873 13.589C11.9924 13.6218 12.0085 13.6518 12.033 13.6741L12.1771 13.8063C12.1709 13.8208 12.1652 13.8352 12.1596 13.8496L11.9636 13.8413C11.9304 13.84 11.8978 13.8499 11.871 13.8695C11.8443 13.8892 11.825 13.9173 11.8164 13.9494L11.7171 14.3208C11.7093 14.3524 11.7123 14.3857 11.7256 14.4153C11.7389 14.445 11.7619 14.4693 11.7907 14.4844L11.9646 14.5754C11.9646 14.5904 11.961 14.6058 11.9589 14.6212L11.767 14.6639C11.7346 14.671 11.7056 14.6889 11.6849 14.7148C11.6641 14.7406 11.6528 14.7728 11.6528 14.8059V15.1907C11.6528 15.2239 11.6641 15.256 11.6849 15.2819C11.7056 15.3077 11.7346 15.3256 11.767 15.3327L11.9589 15.3754C11.9589 15.3908 11.9625 15.4063 11.9646 15.4212L11.7907 15.5133C11.7612 15.5285 11.7379 15.5533 11.7245 15.5836C11.7111 15.6139 11.7085 15.6479 11.7171 15.68L11.8164 16.0514C11.825 16.0834 11.8443 16.1116 11.871 16.1312C11.8978 16.1508 11.9304 16.1608 11.9636 16.1594L12.1596 16.1512C12.1652 16.1656 12.1709 16.18 12.1771 16.1944L12.033 16.3266C12.0085 16.3489 11.9924 16.379 11.9873 16.4117C11.9823 16.4445 11.9886 16.478 12.0052 16.5067L12.1976 16.84C12.2142 16.8687 12.24 16.8909 12.2709 16.9029C12.3018 16.9149 12.3358 16.9159 12.3674 16.9059L12.5547 16.8472C12.5639 16.8596 12.5737 16.8714 12.5829 16.8832L12.4801 17.0489C12.4623 17.0769 12.4546 17.1102 12.4582 17.1432C12.4618 17.1762 12.4766 17.207 12.5001 17.2305L12.7717 17.5021C12.7952 17.5256 12.826 17.5404 12.859 17.544C12.892 17.5477 12.9253 17.54 12.9533 17.5222L13.1195 17.4167L13.1555 17.445L13.0969 17.6323C13.0868 17.6638 13.0879 17.6979 13.0998 17.7288C13.1118 17.7597 13.134 17.7855 13.1627 17.802L13.4961 17.9944C13.5248 18.0111 13.5583 18.0174 13.591 18.0123C13.6238 18.0073 13.6538 17.9912 13.6761 17.9667L13.8084 17.8226L13.8516 17.8401L13.8433 18.0361C13.842 18.0693 13.8519 18.1019 13.8715 18.1286C13.8912 18.1554 13.9193 18.1746 13.9514 18.1832L14.3228 18.2825C14.3544 18.2904 14.3877 18.2874 14.4173 18.2741C14.447 18.2607 14.4713 18.2378 14.4864 18.209L14.5774 18.0351L14.6232 18.0407L14.6659 18.2326C14.673 18.265 14.6909 18.294 14.7168 18.3148C14.7426 18.3356 14.7748 18.3469 14.8079 18.3468H15.1927C15.2259 18.3469 15.258 18.3356 15.2839 18.3148C15.3097 18.294 15.3277 18.265 15.3347 18.2326L15.3774 18.0407L15.4232 18.0351L15.5153 18.209C15.5305 18.2384 15.5553 18.2618 15.5856 18.2752C15.616 18.2886 15.65 18.2911 15.682 18.2825L16.0534 18.1832C16.0854 18.1746 16.1136 18.1554 16.1332 18.1286C16.1528 18.1019 16.1628 18.0693 16.1614 18.0361L16.1532 17.8401L16.1964 17.8226L16.3286 17.9667C16.3509 17.9912 16.381 18.0073 16.4137 18.0123C16.4465 18.0174 16.48 18.0111 16.5087 17.9944L16.842 17.802C16.8707 17.7855 16.8929 17.7597 16.9049 17.7288C16.9169 17.6979 16.9179 17.6638 16.9079 17.6323L16.8492 17.445L16.8852 17.4167L17.0514 17.5222C17.0794 17.54 17.1127 17.5477 17.1457 17.544C17.1787 17.5404 17.2095 17.5256 17.233 17.5021L17.5046 17.2305C17.5281 17.207 17.5429 17.1762 17.5466 17.1432C17.5502 17.1102 17.5425 17.0769 17.5247 17.0489L17.4187 16.8827C17.428 16.8709 17.4378 16.8591 17.447 16.8467L17.6343 16.9054C17.6658 16.9154 17.6999 16.9144 17.7308 16.9024C17.7617 16.8904 17.7875 16.8682 17.804 16.8395L17.9964 16.5061C18.0131 16.4775 18.0194 16.444 18.0143 16.4112C18.0093 16.3785 17.9932 16.3484 17.9687 16.3261L17.8246 16.1939C17.8308 16.1795 17.8365 16.1651 17.8421 16.1507L18.0381 16.1589C18.0713 16.1603 18.1039 16.1503 18.1306 16.1307C18.1574 16.1111 18.1766 16.0829 18.1852 16.0509L18.2845 15.6794C18.293 15.6475 18.2904 15.6136 18.277 15.5834C18.2636 15.5532 18.2403 15.5284 18.211 15.5133L18.0361 15.4217C18.0361 15.4068 18.0397 15.3913 18.0417 15.3759L18.2336 15.3332C18.266 15.3262 18.295 15.3082 18.3158 15.2824C18.3366 15.2566 18.3479 15.2244 18.3478 15.1912V14.8064C18.3479 14.7734 18.3368 14.7414 18.3162 14.7155C18.2956 14.6897 18.2668 14.6717 18.2346 14.6644Z" fill="white"/>
<path d="M15.6332 14.9979C15.6342 15.0099 15.6342 15.022 15.6332 15.0339C15.6322 15.067 15.6281 15.0999 15.6208 15.1322C15.6108 15.179 15.5952 15.2244 15.5745 15.2675C15.5576 15.3036 15.5373 15.3381 15.5138 15.3704C15.4857 15.4083 15.4532 15.4428 15.4171 15.4733C15.394 15.494 15.369 15.5126 15.3425 15.5288C15.3023 15.5547 15.2591 15.5756 15.2139 15.5911C15.169 15.6078 15.1222 15.6187 15.0745 15.6235C15.0274 15.6297 14.9796 15.6297 14.9325 15.6235C14.895 15.6197 14.858 15.6123 14.8219 15.6014C14.7761 15.5881 14.7322 15.5691 14.6912 15.5448C14.6604 15.5275 14.6311 15.5075 14.6038 15.4851C14.5665 15.4551 14.5331 15.4205 14.5045 15.3822C14.4784 15.3505 14.456 15.316 14.4376 15.2793C14.4161 15.2366 14.4 15.1913 14.3898 15.1445C14.3805 15.1085 14.3752 15.0716 14.3738 15.0344C14.3728 15.0225 14.3728 15.0104 14.3738 14.9984C14.374 14.9626 14.3771 14.9268 14.3831 14.8914C14.388 14.8593 14.3961 14.8278 14.4073 14.7973C14.4218 14.7518 14.4422 14.7084 14.468 14.6682C14.4853 14.6384 14.5056 14.6104 14.5287 14.5848C14.5599 14.5486 14.5953 14.5161 14.6341 14.4881C14.708 14.4345 14.7923 14.3972 14.8816 14.3785C14.8996 14.3754 14.9166 14.3729 14.933 14.3708C14.9495 14.3688 14.9798 14.3667 15.004 14.3667C15.0282 14.3667 15.0519 14.3667 15.075 14.3708C15.1034 14.3734 15.1314 14.3785 15.1589 14.3862C15.2055 14.3975 15.2504 14.4148 15.2926 14.4377C15.3271 14.4549 15.3597 14.4758 15.3898 14.4999C15.4284 14.5283 15.4631 14.5617 15.4927 14.5992C15.5143 14.6238 15.5332 14.6505 15.5493 14.679C15.5738 14.7199 15.5934 14.7636 15.6075 14.8091C15.6163 14.8362 15.623 14.8639 15.6275 14.8919C15.6322 14.9271 15.6341 14.9625 15.6332 14.9979Z" fill="#3E436D"/>
<path d="M15.6332 14.9979C15.6342 15.0099 15.6342 15.022 15.6332 15.0339C15.6322 15.067 15.6281 15.0999 15.6208 15.1322C15.6108 15.179 15.5952 15.2244 15.5745 15.2675C15.5576 15.3036 15.5373 15.3381 15.5138 15.3704C15.4857 15.4083 15.4532 15.4428 15.4171 15.4733C15.394 15.494 15.369 15.5126 15.3425 15.5288C15.3023 15.5547 15.2591 15.5756 15.2139 15.5911C15.169 15.6078 15.1222 15.6187 15.0745 15.6235C15.0274 15.6297 14.9796 15.6297 14.9325 15.6235C14.895 15.6197 14.858 15.6123 14.8219 15.6014C14.7761 15.5881 14.7322 15.5691 14.6912 15.5448C14.6604 15.5275 14.6311 15.5075 14.6038 15.4851C14.5665 15.4551 14.5331 15.4205 14.5045 15.3822C14.4784 15.3505 14.456 15.316 14.4376 15.2793C14.4161 15.2366 14.4 15.1913 14.3898 15.1445C14.3805 15.1085 14.3752 15.0716 14.3738 15.0344C14.3728 15.0225 14.3728 15.0104 14.3738 14.9984C14.374 14.9626 14.3771 14.9268 14.3831 14.8914C14.388 14.8593 14.3961 14.8278 14.4073 14.7973C14.4218 14.7518 14.4422 14.7084 14.468 14.6682C14.4853 14.6384 14.5056 14.6104 14.5287 14.5848C14.5599 14.5486 14.5953 14.5161 14.6341 14.4881C14.708 14.4345 14.7923 14.3972 14.8816 14.3785C14.8996 14.3754 14.9166 14.3729 14.933 14.3708C14.9495 14.3688 14.9798 14.3667 15.004 14.3667C15.0282 14.3667 15.0519 14.3667 15.075 14.3708C15.1034 14.3734 15.1314 14.3785 15.1589 14.3862C15.2055 14.3975 15.2504 14.4148 15.2926 14.4377C15.3271 14.4549 15.3597 14.4758 15.3898 14.4999C15.4284 14.5283 15.4631 14.5617 15.4927 14.5992C15.5143 14.6238 15.5332 14.6505 15.5493 14.679C15.5738 14.7199 15.5934 14.7636 15.6075 14.8091C15.6163 14.8362 15.623 14.8639 15.6275 14.8919C15.6322 14.9271 15.6341 14.9625 15.6332 14.9979Z" fill="#3E436D"/>
<path d="M14.1266 15.0341H12.3625C12.3436 15.0341 12.3254 15.0266 12.312 15.0132C12.2985 14.9998 12.291 14.9816 12.291 14.9626C12.291 14.9437 12.2985 14.9255 12.312 14.9121C12.3254 14.8986 12.3436 14.8911 12.3625 14.8911H14.1307C14.1272 14.9267 14.1258 14.9624 14.1266 14.9981V15.0341Z" fill="#3E436D"/>
<path d="M14.207 15.3715L12.5798 16.0274C12.5714 16.0307 12.5625 16.0325 12.5536 16.0326C12.5369 16.0326 12.5208 16.0268 12.508 16.0163C12.4952 16.0057 12.4864 15.991 12.4832 15.9747C12.4801 15.9584 12.4827 15.9415 12.4906 15.9269C12.4986 15.9123 12.5114 15.9009 12.5268 15.8947L14.1576 15.2383C14.1705 15.2839 14.187 15.3285 14.207 15.3715Z" fill="#3E436D"/>
<path d="M12.5196 13.961C12.5269 13.9436 12.5407 13.9297 12.5581 13.9223C12.5755 13.9149 12.5951 13.9146 12.6127 13.9214L14.2332 14.5742C14.2098 14.6158 14.19 14.6594 14.1741 14.7044L12.5598 14.0541C12.5421 14.047 12.528 14.0333 12.5205 14.0158C12.513 13.9984 12.5127 13.9787 12.5196 13.961Z" fill="#3E436D"/>
<path d="M14.427 15.661L13.1728 16.9142C13.1661 16.921 13.1581 16.9265 13.1493 16.9302C13.1404 16.9339 13.1309 16.9358 13.1213 16.9358C13.1072 16.9358 13.0933 16.9316 13.0815 16.9237C13.0697 16.9159 13.0604 16.9047 13.0549 16.8916C13.0494 16.8786 13.0479 16.8642 13.0506 16.8502C13.0533 16.8363 13.06 16.8235 13.0699 16.8133L14.3246 15.5586C14.3558 15.5955 14.3901 15.6298 14.427 15.661Z" fill="#3E436D"/>
<path d="M13.0975 13.1566C13.0905 13.15 13.0848 13.1421 13.081 13.1332C13.0772 13.1244 13.0752 13.1148 13.0752 13.1052C13.0752 13.0955 13.0772 13.086 13.081 13.0772C13.0848 13.0683 13.0905 13.0603 13.0975 13.0537C13.1109 13.0406 13.1289 13.0332 13.1477 13.0332C13.1664 13.0332 13.1844 13.0406 13.1978 13.0537L14.4541 14.31C14.4173 14.3398 14.3828 14.3725 14.3512 14.4078L13.0975 13.1566Z" fill="#3E436D"/>
<path d="M14.5962 15.7759C14.6381 15.7985 14.682 15.8171 14.7274 15.8314L14.0812 17.4355C14.0757 17.4487 14.0665 17.46 14.0546 17.468C14.0427 17.4759 14.0287 17.4802 14.0144 17.4802C14.0052 17.48 13.9962 17.4782 13.9876 17.4751C13.9701 17.4677 13.9563 17.4537 13.949 17.4362C13.9417 17.4187 13.9415 17.3991 13.9485 17.3815L14.5962 15.7759Z" fill="#3E436D"/>
<path d="M13.9821 12.5403C13.9777 12.5314 13.9752 12.5218 13.9747 12.5119C13.9742 12.5021 13.9758 12.4922 13.9793 12.483C13.9829 12.4738 13.9883 12.4654 13.9953 12.4584C14.0022 12.4514 14.0106 12.446 14.0198 12.4424C14.029 12.4388 14.0388 12.4371 14.0487 12.4376C14.0585 12.438 14.0682 12.4405 14.077 12.4448C14.0859 12.4492 14.0937 12.4554 14.1001 12.463C14.1064 12.4705 14.1111 12.4793 14.1138 12.4888L14.7826 14.15C14.7364 14.1615 14.6913 14.1772 14.6478 14.1968L13.9821 12.5403Z" fill="#3E436D"/>
<path d="M15.0012 14.1236C14.977 14.1236 14.9533 14.1236 14.9302 14.1262V12.3596C14.9302 12.3407 14.9377 12.3227 14.951 12.3094C14.9643 12.2961 14.9823 12.2886 15.0012 12.2886C15.02 12.2886 15.0381 12.2961 15.0514 12.3094C15.0647 12.3227 15.0722 12.3407 15.0722 12.3596V14.1236C15.049 14.1236 15.0253 14.1236 15.0012 14.1236Z" fill="#3E436D"/>
<path d="M15.0012 15.8756C15.0253 15.8756 15.049 15.8756 15.0722 15.873V17.6371C15.0722 17.6559 15.0647 17.674 15.0514 17.6873C15.0381 17.7006 15.02 17.7081 15.0012 17.7081C14.9823 17.7081 14.9643 17.7006 14.951 17.6873C14.9377 17.674 14.9302 17.6559 14.9302 17.6371V15.873C14.9533 15.873 14.977 15.8756 15.0012 15.8756Z" fill="#3E436D"/>
<path d="M15.3813 14.2066C15.3383 14.186 15.2937 14.1688 15.248 14.1552L15.9204 12.4863C15.9231 12.4767 15.9278 12.4678 15.9341 12.4601C15.9405 12.4524 15.9484 12.4461 15.9573 12.4416C15.9662 12.4372 15.976 12.4346 15.9859 12.4342C15.9959 12.4337 16.0058 12.4353 16.0151 12.4389C16.0244 12.4425 16.0329 12.448 16.0399 12.4551C16.047 12.4621 16.0524 12.4706 16.056 12.4799C16.0596 12.4892 16.0612 12.4992 16.0607 12.5091C16.0602 12.5191 16.0576 12.5288 16.0532 12.5377L15.3813 14.2066Z" fill="#3E436D"/>
<path d="M16.0867 17.3812C16.0903 17.39 16.0921 17.3993 16.092 17.4088C16.092 17.4182 16.0901 17.4276 16.0864 17.4363C16.0827 17.445 16.0773 17.4529 16.0706 17.4595C16.0638 17.4661 16.0558 17.4713 16.0471 17.4748C16.0385 17.4781 16.0295 17.4799 16.0203 17.48C16.0061 17.4799 15.9923 17.4756 15.9806 17.4676C15.9689 17.4597 15.9598 17.4484 15.9545 17.4352L15.3042 15.8209C15.3489 15.8048 15.3921 15.7848 15.4333 15.7612L16.0867 17.3812Z" fill="#3E436D"/>
<path d="M15.5625 14.3243L16.8044 13.0824C16.818 13.0691 16.8364 13.0618 16.8554 13.062C16.8745 13.0623 16.8927 13.0701 16.906 13.0837C16.9193 13.0973 16.9266 13.1157 16.9264 13.1348C16.9261 13.1538 16.9183 13.172 16.9047 13.1853L15.6638 14.4267C15.633 14.3897 15.5991 14.3555 15.5625 14.3243Z" fill="#3E436D"/>
<path d="M16.9306 16.7887C16.9443 16.8023 16.9519 16.8208 16.9519 16.8401C16.9519 16.8594 16.9443 16.8779 16.9306 16.8916C16.917 16.9052 16.8985 16.9129 16.8792 16.9129C16.8599 16.9129 16.8414 16.9052 16.8277 16.8916L15.5874 15.6512C15.6227 15.6196 15.6553 15.5852 15.6851 15.5483L16.9306 16.7887Z" fill="#3E436D"/>
<path d="M15.7734 14.5867L17.4197 13.9226C17.4368 13.9178 17.4551 13.9195 17.4709 13.9275C17.4868 13.9354 17.4992 13.949 17.5056 13.9656C17.512 13.9822 17.5121 14.0005 17.5057 14.0171C17.4993 14.0337 17.487 14.0473 17.4711 14.0553L15.8249 14.7179C15.8118 14.6727 15.7946 14.6288 15.7734 14.5867Z" fill="#3E436D"/>
<path d="M17.5488 15.988C17.5434 16.0011 17.5343 16.0123 17.5226 16.0203C17.5109 16.0282 17.4971 16.0326 17.483 16.0328C17.4737 16.0326 17.4645 16.0308 17.4557 16.0277L15.8013 15.3589C15.8206 15.3154 15.8366 15.2705 15.8491 15.2246L17.5097 15.8934C17.5186 15.897 17.5266 15.9023 17.5333 15.909C17.5401 15.9158 17.5454 15.9238 17.549 15.9326C17.5527 15.9414 17.5545 15.9508 17.5545 15.9603C17.5545 15.9698 17.5525 15.9793 17.5488 15.988Z" fill="#3E436D"/>
<path d="M17.7119 14.9622C17.7119 14.9813 17.7043 14.9996 17.6908 15.0131C17.6773 15.0266 17.659 15.0342 17.6399 15.0342H15.8758C15.8758 15.0224 15.8758 15.01 15.8758 14.9982C15.8757 14.9624 15.8734 14.9267 15.8691 14.8912H17.6373C17.6469 14.8908 17.6565 14.8923 17.6655 14.8957C17.6745 14.899 17.6827 14.9042 17.6897 14.9108C17.6966 14.9174 17.7022 14.9254 17.706 14.9342C17.7098 14.9431 17.7118 14.9526 17.7119 14.9622Z" fill="#3E436D"/>
</svg>
