<svg width="24" height="24" viewBox="0 0 24 24" fill="none" xmlns="http://www.w3.org/2000/svg">
<path d="M5.38574 3.51215L12.0002 10.1818L18.6147 3.51215L15.1028 0H8.89771L5.38574 3.51215ZM11.2975 4.21692V7.47693L8.06439 4.21692H11.2975ZM8.07428 2.8114L9.18884 1.69684L10.3034 2.8114H8.07428ZM12.703 4.21692H15.9361L12.703 7.47693V4.21692ZM13.6971 2.8114L14.8116 1.69684L15.9262 2.8114H13.6971ZM12.0002 2.52026L10.8857 1.4057H13.1148L12.0002 2.52026Z" fill="#033603"/>
<path d="M24 23.9902L17.6202 13.4446L15.7108 16.627L12 10.665L8.3075 16.5977L6.37152 13.4581L0 23.9902H24ZM6.23694 22.5845L8.89343 18.3165L12 21.423L15.1066 18.3165L17.7631 22.5845H6.23694ZM17.6252 16.1683L21.5067 22.5845H19.4187L16.5454 17.968L17.6252 16.1683ZM14.3439 17.0911L12 19.4351L9.65607 17.0911L12 13.3252L14.3439 17.0911ZM2.49335 22.5845L6.38306 16.1547L7.47803 17.9303L4.5813 22.5845H2.49335Z" fill="#033603"/>
</svg>
