<svg xmlns="http://www.w3.org/2000/svg" viewBox="0 0 84.09 17.07"><defs><style>.cls-1{fill:#033603;}</style></defs><title>team kukadia</title><g id="Layer_2" data-name="Layer 2"><g id="Layer_1-2" data-name="Layer 1"><path class="cls-1" d="M14.57.58a.71.71,0,0,1,.65-.06.32.32,0,0,1,.15.12.28.28,0,0,1,0,.12s0,.07,0,.1a0,0,0,0,0,0,.06s0,0,.07,0a1,1,0,0,0,.23,0A32.82,32.82,0,0,1,20.77.6a8.49,8.49,0,0,1,3.31.56c.11.06.17.12.17.19a.12.12,0,0,1-.07.14c-.05,0-.12,0-.2,0A7.68,7.68,0,0,0,20.79,1a33.21,33.21,0,0,0-4.95.4,1.15,1.15,0,0,0-.53.18A1.38,1.38,0,0,0,15,2a2.19,2.19,0,0,1-.11.19c-.54.88-1.53,2.35-3,4.43q-1.44,2.08-2.9,4.27t-2.5,3.86a6.55,6.55,0,0,0-1,2.12.25.25,0,0,1-.09.21.19.19,0,0,1-.19,0c-.06,0-.09-.12-.09-.25a6.64,6.64,0,0,1,1.06-2.35c.7-1.2,1.56-2.55,2.56-4.07s2-3,2.93-4.39q1.9-2.79,2.67-4.05c.07-.1.07-.15,0-.17a.42.42,0,0,0-.23,0l-.27.06h0a3,3,0,0,0-.41.09A.9.9,0,0,0,13.2,2l-.26.21-.12.1c-.77.65-1.52,1.31-2.26,2-.19.19-.39.37-.58.54L9.87,5a.06.06,0,0,0,0,0,.05.05,0,0,0,0,0l.06.08a.28.28,0,0,1-.12.23.62.62,0,0,1-.33.14.43.43,0,0,1-.36-.18c0-.07,0-.17.07-.3a2.41,2.41,0,0,1,.34-.4l.32-.33.09-.08c.31-.32.6-.61.88-.88s.6-.54,1-.83.29-.41-.17-.31q-1.9.46-3.69,1c-.58.18-1.35.47-2.28.86A17.52,17.52,0,0,0,2.9,5.56a6.22,6.22,0,0,0-2,1.9A2.14,2.14,0,0,0,.85,9.71a.54.54,0,0,0,.3.25,1.22,1.22,0,0,0,.32,0,.28.28,0,0,1,.2,0s0,.11,0,.23a.53.53,0,0,1-.79.25,1.6,1.6,0,0,1-.76-1A2.74,2.74,0,0,1,.32,7.56,6.42,6.42,0,0,1,2.55,5.17a19.88,19.88,0,0,1,5.2-2.43,44,44,0,0,1,5-1.31l.07,0a3.57,3.57,0,0,0,.37-.07l.25-.1L13.78,1A6.25,6.25,0,0,1,14.57.58Zm-.33.51s0,0,0,0h.24l.08,0,.06,0a0,0,0,0,0,0,0,.06.06,0,0,0-.06,0l-.12,0-.11,0Z"/><path class="cls-1" d="M15.53,8.72c.37.08.53.25.45.49a1.77,1.77,0,0,1-.58.76,3.65,3.65,0,0,1-1,.59c-.34.13-.59.12-.74,0-.11.14-.23.32-.37.53a1.47,1.47,0,0,0-.24.59c0,.25.17.36.53.33a5.07,5.07,0,0,0,1.25-.33c.48-.19.93-.39,1.33-.59a5.36,5.36,0,0,0,.77-.41.43.43,0,0,1,.23-.07.09.09,0,0,1,.09.12c0,.06-.1.16-.27.28a11.68,11.68,0,0,1-1,.6,11.19,11.19,0,0,1-1.54.67,2.71,2.71,0,0,1-1.37.19c-.38-.06-.56-.33-.55-.82a2.7,2.7,0,0,1,.57-1.19,6,6,0,0,1,1.2-1.21A2.14,2.14,0,0,1,15.53,8.72Zm-.21.56a2.17,2.17,0,0,0-.31.17l-.47.3-.43.33a.77.77,0,0,0-.21.22s0,0,.18,0a3.28,3.28,0,0,0,.72-.39,3.5,3.5,0,0,0,.65-.51c.06-.07.09-.12.08-.14S15.45,9.25,15.32,9.28Z"/><path class="cls-1" d="M22.17,10.61c.18-.09.29-.1.32,0s0,.18-.19.3a6.15,6.15,0,0,1-1,.45,2.12,2.12,0,0,1-1.08.13c-.32-.06-.48-.31-.5-.76v-.06c0-.09,0-.14,0-.14s-.07,0-.17.08a12.44,12.44,0,0,1-2.3,1.28c-.49.17-.78.17-.86,0s0-.55.4-1a7.53,7.53,0,0,1,1.46-1.3A4.16,4.16,0,0,1,20,8.84a1,1,0,0,1,1.15.65.19.19,0,0,1,0,.18.29.29,0,0,1-.16.11.25.25,0,0,1-.23,0,.37.37,0,0,1-.18-.17s0,0,0,0l0,0,0,0a0,0,0,0,0,0,0c-.17-.23-.46-.26-.87-.1a5.45,5.45,0,0,0-1.3.76,11.59,11.59,0,0,0-1.16,1q-.48.46-.45.57c0,.06.29,0,.8-.34s1.33-.83,2.49-1.63a.29.29,0,0,1,.18,0,.21.21,0,0,1,.16.1.25.25,0,0,1,0,.25c-.25.55-.28.89-.08,1a1,1,0,0,0,.85,0A4.16,4.16,0,0,0,22.17,10.61Z"/><path class="cls-1" d="M26.06,11.53c.06,0,.16,0,.3-.19s.32-.31.51-.52.66-.68,1-1a1.59,1.59,0,0,1,.87-.48.4.4,0,0,1,.38.38,3.42,3.42,0,0,1,0,.72,3.93,3.93,0,0,0,0,.46.46.46,0,0,0,.1.3c.11.12.55-.05,1.31-.5a.28.28,0,0,1,.23-.06.11.11,0,0,1,.07.13c0,.06-.07.12-.19.19a5.2,5.2,0,0,1-1.15.59.61.61,0,0,1-.63-.08,1.53,1.53,0,0,1-.27-1.28c0-.14,0-.21,0-.21a.83.83,0,0,0-.24.16l0,0q-.3.25-.69.63c-.32.31-.62.58-.91.81s-.53.32-.71.27a.58.58,0,0,1-.36-.58,2.45,2.45,0,0,1,.16-.92q.16-.51.33-.9c.06-.13.1-.24.14-.33s0-.19-.25-.06a8,8,0,0,0-.82.61c-.33.28-.67.57-1,.87l-.81.72-.21.2-.15.13-.49.43a4.66,4.66,0,0,1-.56.41.54.54,0,0,1-.42.13c-.2-.11-.22-.32-.07-.64a15.77,15.77,0,0,1,1.4-2.31c.27-.38.53-.77.78-1.16v0s0,0,0,0h0a.14.14,0,0,1-.05-.15.31.31,0,0,1,.1-.17A1.14,1.14,0,0,1,23.83,8a.94.94,0,0,1,.28-.12.16.16,0,0,1,.2.06c0,.07,0,.21,0,.43a24.67,24.67,0,0,1-1.42,2.26l-.36.54c-.16.24-.22.36-.18.34a1.42,1.42,0,0,0,.33-.25l.14-.12c.45-.4.92-.8,1.42-1.21a12.88,12.88,0,0,1,1.36-1,1.36,1.36,0,0,1,.92-.31c.27.13.33.45.15,1,0,0,0,.1-.07.18s-.14.42-.24.69-.17.53-.23.76S26,11.51,26.06,11.53Z"/><path class="cls-1" d="M33.6,5.92c-.14.09-.25.11-.33,0a.49.49,0,0,1-.19-.27.78.78,0,0,1,0-.33A3.16,3.16,0,0,1,34.37,3.6a16.06,16.06,0,0,1,3-1.82A22.11,22.11,0,0,1,41,.42,9.31,9.31,0,0,1,44.17,0a1.65,1.65,0,0,1,1.65,1.05c.21.64-.1,1.65-.93,3l-4.62,7.56-1.56,2.54c-.24.39-.4.67-.49.84s-.12.25-.09.25.1-.06.2-.17a5.25,5.25,0,0,0,.37-.4l.25-.26a2.25,2.25,0,0,1,.21-.24c1.79-2,3.62-3.9,5.49-5.79A1,1,0,0,0,44.91,8,1.6,1.6,0,0,0,45,7.59a1.12,1.12,0,0,1,.09-.39A.47.47,0,0,1,45.43,7a.68.68,0,0,1,.24,0,.2.2,0,0,1,.1.07.22.22,0,0,1,0,.1l0,.06h.05L46,7.1l.23-.21a35.5,35.5,0,0,1,5.29-4.26c.09-.06.17-.09.22-.06a.1.1,0,0,1,.08.12c0,.07,0,.12-.12.18A21.76,21.76,0,0,0,49,5c-.88.79-1.72,1.59-2.53,2.39l-.2.2a1.9,1.9,0,0,1-.22.2,1.19,1.19,0,0,0-.27.29,1.5,1.5,0,0,0-.15.49,6.62,6.62,0,0,0-.09,2,1.49,1.49,0,0,0,.75,1.24,2.61,2.61,0,0,0,2-.14.29.29,0,0,1,.26,0,.14.14,0,0,1,.07.16c0,.07-.07.12-.17.16-1.34.48-2.29.46-2.86-.06a3.2,3.2,0,0,1-.65-2.78.2.2,0,0,0,0-.07q0-.19,0-.21s-.1,0-.23.18c-1,1-2,1.95-2.75,2.79s-1.45,1.57-2,2.19c-.7.8-1.23,1.37-1.62,1.73s-.64.45-.78.28a.71.71,0,0,1-.21-.45A1.47,1.47,0,0,1,37.6,15l2.94-4.84c1.39-2.28,2.68-4.4,3.89-6.36a6.31,6.31,0,0,0,.88-2A1,1,0,0,0,44.88.67,3.57,3.57,0,0,0,42.75.55a17.61,17.61,0,0,0-3.15.9A23.71,23.71,0,0,0,36,3.13a5.92,5.92,0,0,0-2.27,2,.22.22,0,0,0,0,.19.71.71,0,0,0,.1.14.35.35,0,0,1,.1.12.16.16,0,0,1,0,.16A.75.75,0,0,1,33.6,5.92Z"/><path class="cls-1" d="M52,10l-.06,0-.07,0a.08.08,0,0,0,0,0,3.58,3.58,0,0,0-.29.47,4,4,0,0,0-.27.6,1.23,1.23,0,0,0-.09.5.23.23,0,0,0,.26.21,4,4,0,0,0,1.76-.76c.66-.45,1.22-.88,1.69-1.27l.24-.19a4.37,4.37,0,0,1,.43-.32A1.37,1.37,0,0,1,56,9.16a.27.27,0,0,1,.33.11,1.9,1.9,0,0,1-.09.61c-.13.58-.11.95.06,1.12a.77.77,0,0,0,.78.12,7.86,7.86,0,0,0,1.17-.41c.14-.07.23-.09.27-.07s.06.08,0,.15a.36.36,0,0,1-.19.17,5.31,5.31,0,0,1-1.38.51A1.41,1.41,0,0,1,56,11.35c-.26-.17-.36-.51-.31-1,0-.24,0-.36,0-.36s-.18.07-.38.25l0,0-.19.15a16.29,16.29,0,0,1-1.66,1.25,4,4,0,0,1-1.85.69A1.08,1.08,0,0,1,51,12.2a.76.76,0,0,1-.32-.72,2.6,2.6,0,0,1,.29-.91c.16-.31.31-.57.45-.79a.89.89,0,0,0,.09-.16.64.64,0,0,1,.27-.22A.56.56,0,0,1,52,9.34a.33.33,0,0,1,.18.07.2.2,0,0,1,0,.21A1.17,1.17,0,0,1,52,10Z"/><path class="cls-1" d="M56.83,14.21a.19.19,0,0,1-.24,0,.4.4,0,0,1-.18-.22.37.37,0,0,1,0-.29c0-.08.66-1.09,1.87-3a.27.27,0,0,1,0-.11l.08-.1c.82-1.32,1.71-2.73,2.66-4.21s1.81-2.77,2.59-3.88a10.41,10.41,0,0,1,1.59-2c.27-.07.44,0,.51.11a.9.9,0,0,1,0,.57,5.05,5.05,0,0,1-.22.69c-.1.22-.16.37-.2.45A30,30,0,0,1,62.9,6.21a33.69,33.69,0,0,1-4,4.51l-.61.95c-.24.36-.41.62-.49.78s0,.17.19,0,.65-.54,1.3-1.14a15,15,0,0,1,4.08-3c.13,0,.22,0,.26,0a.63.63,0,0,1,.1.25.09.09,0,0,1,0,0c0,.22-.16.45-.57.7a10.33,10.33,0,0,1-1.27.7c-.24.11-.43.21-.59.3a1.37,1.37,0,0,0-.24.27,1.93,1.93,0,0,0-.16.37,5.88,5.88,0,0,0-.28.94,1.68,1.68,0,0,0,0,.95c.1.27.37.4.82.39a.24.24,0,0,1,.18,0,.11.11,0,0,1,0,.14.38.38,0,0,1-.23.09c-.68,0-1.11-.15-1.3-.5a1.78,1.78,0,0,1,0-1.36c.06-.22.08-.34,0-.35s-.14.06-.32.22c-.47.44-1,.89-1.53,1.37L57.06,14Zm4-6.49a5.47,5.47,0,0,0-.5.83c0,.09.14-.09.54-.56a34.08,34.08,0,0,0,2.41-3.15,27.33,27.33,0,0,0,1.55-2.62c.14-.28.24-.48.29-.61s0-.18,0-.18-.07,0-.13.12l-.23.3-.26.36-.11.15C63.35,3.79,62.16,5.58,60.79,7.72Z"/><path class="cls-1" d="M69.16,10.61c.18-.09.29-.1.32,0s0,.18-.19.3a6.15,6.15,0,0,1-1,.45,2.11,2.11,0,0,1-1.08.13c-.32-.06-.48-.31-.5-.76v-.06c0-.09,0-.14,0-.14s-.07,0-.17.08a12.44,12.44,0,0,1-2.3,1.28c-.49.17-.78.17-.86,0s0-.55.4-1a7.53,7.53,0,0,1,1.46-1.3A4.16,4.16,0,0,1,67,8.84a1,1,0,0,1,1.15.65.19.19,0,0,1,0,.18.29.29,0,0,1-.16.11.25.25,0,0,1-.23,0,.37.37,0,0,1-.18-.17s0,0,0,0l0,0,0,0a0,0,0,0,0,0,0c-.17-.23-.46-.26-.87-.1a5.45,5.45,0,0,0-1.3.76,11.59,11.59,0,0,0-1.16,1q-.48.46-.45.57c0,.06.29,0,.8-.34s1.33-.83,2.49-1.63a.29.29,0,0,1,.18,0,.21.21,0,0,1,.16.1.25.25,0,0,1,0,.25c-.25.55-.28.89-.08,1a1,1,0,0,0,.86,0A4.26,4.26,0,0,0,69.16,10.61Z"/><path class="cls-1" d="M72.17,10.51c-.51.46-1,.9-1.58,1.31a6.23,6.23,0,0,1-1.44.87c-.42.17-.69.11-.81-.16a1.8,1.8,0,0,1,.39-1.2,10,10,0,0,1,1.34-1.69,8.18,8.18,0,0,1,1.77-1.41,2.38,2.38,0,0,1,1.69-.39A.87.87,0,0,1,73.8,8l.1,0A.13.13,0,0,0,74,8a.61.61,0,0,0,.17-.14,7.63,7.63,0,0,0,.64-.66,7.38,7.38,0,0,0,.54-.78c.57-1,1-1.7,1.36-2.22a17.61,17.61,0,0,1,1.57-2A15.29,15.29,0,0,1,79.82.63a1.25,1.25,0,0,1,.43-.22.81.81,0,0,1,.46,0,.32.32,0,0,1,.23.3A4,4,0,0,1,80.27,2,25.14,25.14,0,0,1,78.18,4.6c-.75.82-1.46,1.54-2.12,2.15a7.13,7.13,0,0,0-.64.69,9.64,9.64,0,0,0-.53.81c-.68,1.14-1.37,2.26-2,3.37l-1.72,2.76c-.46.74-.71,1.12-.74,1.16a.25.25,0,0,1-.16.13c-.07,0-.11,0-.14-.05s0-.13,0-.23c.39-.67.86-1.51,1.44-2.51.85-1.49,1.54-2.7,2.09-3.63.14-.22.2-.32.16-.3a3.42,3.42,0,0,0-.3.28l-.09.1C73.1,9.65,72.69,10.05,72.17,10.51Zm-.35-1.68a11.11,11.11,0,0,0-1.76,1.55,8.49,8.49,0,0,0-1.16,1.47,1.74,1.74,0,0,0-.18.41c0,.09.06.09.22,0a14.57,14.57,0,0,0,2-1.45c.84-.7,1.7-1.47,2.6-2.33q.11-.09.09-.15s-.06-.06-.15-.08A2.45,2.45,0,0,0,71.82,8.83Zm8-7.12a2.69,2.69,0,0,0,.27-.48c0-.09,0-.12,0-.11a1.07,1.07,0,0,0-.25.15,3.4,3.4,0,0,0-.31.25l-.27.25c-.35.37-.75.83-1.18,1.37s-.79,1-1.08,1.48-.36.6-.42.72,0,.17,0,.12a1.72,1.72,0,0,0,.32-.29c.15-.14.3-.31.47-.49l.33-.35A21.38,21.38,0,0,0,79.86,1.71Z"/><path class="cls-1" d="M75.46,12.14c-.26,0-.42-.08-.46-.25a1.06,1.06,0,0,1,.06-.64,4.94,4.94,0,0,1,.38-.82,8.26,8.26,0,0,1,.49-.79l.38-.55.07-.1a.36.36,0,0,1,.11-.36,1.21,1.21,0,0,1,.41-.3c.15-.06.26-.05.33,0a.2.2,0,0,1,0,.21.72.72,0,0,1-.11.19l0,.05c-.26.37-.54.77-.84,1.22a10.81,10.81,0,0,0-.67,1.13c-.11.26,0,.41.22.44a3.12,3.12,0,0,0,1-.13A9.08,9.08,0,0,0,78,11.13a5.45,5.45,0,0,0,.63-.24c.07,0,.13-.05.17,0s.06.07.06.12a.32.32,0,0,1-.14.18,8.34,8.34,0,0,1-1.72.67A6.41,6.41,0,0,1,75.46,12.14Zm2.26-4.8c.18,0,.26.07.25.16a.53.53,0,0,1-.2.3A.87.87,0,0,1,77.4,8a.23.23,0,0,1-.29-.13.1.1,0,0,1,0-.09.31.31,0,0,1,.11-.08l.11-.07.06,0,0,0a.31.31,0,0,1,.09-.18A.25.25,0,0,1,77.72,7.34Z"/><path class="cls-1" d="M83.76,10.61c.18-.09.29-.1.33,0s0,.18-.2.3a6.15,6.15,0,0,1-1,.45,2.11,2.11,0,0,1-1.08.13c-.32-.06-.48-.31-.49-.76v-.06c0-.09,0-.14,0-.14s-.08,0-.18.08a12.44,12.44,0,0,1-2.3,1.28c-.49.17-.77.17-.86,0s0-.55.4-1a7.53,7.53,0,0,1,1.46-1.3,4.16,4.16,0,0,1,1.72-.74,1,1,0,0,1,1.15.65.19.19,0,0,1,0,.18.26.26,0,0,1-.16.11.25.25,0,0,1-.23,0,.42.42,0,0,1-.18-.17s0,0,0,0l0,0,0,0a0,0,0,0,0,0,0c-.16-.23-.45-.26-.86-.1a5.3,5.3,0,0,0-1.31.76,11.59,11.59,0,0,0-1.16,1q-.48.46-.45.57c0,.06.3,0,.8-.34s1.34-.83,2.49-1.63a.31.31,0,0,1,.19,0,.22.22,0,0,1,.15.1A.25.25,0,0,1,82,10c-.25.55-.28.89-.08,1a1,1,0,0,0,.86,0A4.26,4.26,0,0,0,83.76,10.61Z"/></g></g></svg>