<svg width="30" height="27" viewBox="0 0 30 27" fill="none" xmlns="http://www.w3.org/2000/svg">
<path d="M22.9492 6.7735H21.2265V5.05077C21.2265 3.91998 20.3065 3 19.1758 3H6.05078C4.91998 3 4 3.91998 4 5.05077V18.1757C4 19.3065 4.91998 20.2265 6.05078 20.2265H7.77347V21.9492C7.77347 23.08 8.69345 24 9.82425 24H22.9492C24.08 24 25 23.08 25 21.9492V8.82424C25 7.69344 24.0801 6.7735 22.9492 6.7735ZM6.05078 19.4062C5.3723 19.4062 4.82031 18.8542 4.82031 18.1757V5.05077C4.82031 4.3723 5.3723 3.82031 6.05078 3.82031H19.1758C19.8542 3.82031 20.4062 4.3723 20.4062 5.05077V18.1757C20.4062 18.8542 19.8542 19.4062 19.1758 19.4062H6.05078ZM24.1797 21.9492C24.1797 22.6277 23.6277 23.1797 22.9492 23.1797H9.82425C9.14577 23.1797 8.59378 22.6277 8.59378 21.9492V20.2265H19.1758C20.3065 20.2265 21.2265 19.3065 21.2265 18.1757V7.59381H22.9492C23.6277 7.59381 24.1797 8.1458 24.1797 8.82428V21.9492Z" fill="black"/>
<path d="M9.83377 21.7441H9.82269C9.59616 21.7441 9.41254 21.9278 9.41254 22.1543C9.41254 22.3808 9.59616 22.5645 9.82269 22.5645H9.83377C10.0603 22.5645 10.2439 22.3808 10.2439 22.1543C10.2439 21.9278 10.0603 21.7441 9.83377 21.7441Z" fill="black"/>
<path d="M22.9495 21.7441H11.0122C10.7856 21.7441 10.602 21.9278 10.602 22.1543C10.602 22.3808 10.7856 22.5645 11.0122 22.5645H22.9495C23.176 22.5645 23.3596 22.3808 23.3596 22.1543C23.3596 21.9278 23.176 21.7441 22.9495 21.7441Z" fill="black"/>
<path d="M8.51245 4.43554H8.50137C8.27484 4.43554 8.09122 4.61917 8.09122 4.8457C8.09122 5.07222 8.27484 5.25585 8.50137 5.25585H8.51245C8.73898 5.25585 8.9226 5.07222 8.9226 4.8457C8.9226 4.61917 8.73902 4.43554 8.51245 4.43554Z" fill="black"/>
<path d="M7.32306 4.43554H6.05014C5.82361 4.43554 5.63998 4.61917 5.63998 4.8457C5.63998 5.07222 5.82361 5.25585 6.05014 5.25585H7.32302C7.54954 5.25585 7.73317 5.07222 7.73317 4.8457C7.73321 4.61917 7.54959 4.43554 7.32306 4.43554Z" fill="black"/>
<path d="M16.0367 11.2494C15.9393 10.8885 15.7071 10.5872 15.3837 10.4014L13.3773 9.243C13.3572 9.22992 13.3369 9.21737 13.3164 9.20563L11.3152 8.05015C11.086 7.89901 10.8195 7.81919 10.5436 7.81919C9.76957 7.81919 9.13986 8.44886 9.13986 9.2229V14.0058C9.13986 14.0224 9.14089 14.0389 9.14282 14.0551C9.1509 14.284 9.21549 14.5087 9.33091 14.7081C9.5807 15.1394 10.0457 15.4073 10.5446 15.4073C10.7901 15.4073 11.0326 15.342 11.2455 15.2187L13.3164 14.023C13.3282 14.0162 13.3394 14.0089 13.3503 14.0012L15.369 12.8357C15.5894 12.7127 15.7726 12.5315 15.8991 12.3116C16.0853 11.9875 16.1342 11.6102 16.0367 11.2494ZM15.1879 11.9029C15.1353 11.9944 15.0591 12.0697 14.9677 12.1204C14.9657 12.1215 14.9637 12.1227 14.9617 12.1238L12.9054 13.3109C12.8936 13.3176 12.8824 13.3249 12.8715 13.3327L10.8349 14.5086C10.7463 14.5599 10.6459 14.587 10.5446 14.587C10.3374 14.587 10.1444 14.4759 10.0408 14.297C9.98938 14.2083 9.96226 14.1077 9.96235 14.0062C9.96235 13.9922 9.96165 13.9783 9.96021 13.9645V9.2229H9.96025C9.96025 8.90122 10.222 8.6395 10.5437 8.6395C10.6606 8.6395 10.7731 8.67379 10.8692 8.73863C10.8772 8.74401 10.8853 8.74913 10.8936 8.75397L12.9071 9.91651C12.9172 9.92234 12.9269 9.92849 12.9365 9.93485C12.9433 9.93932 12.9502 9.94363 12.9573 9.94773L14.9743 11.1122C15.1084 11.1893 15.2045 11.314 15.2449 11.4633C15.2852 11.6127 15.265 11.7688 15.1879 11.9029Z" fill="black"/>
</svg>
